<svg width="60" height="60" viewBox="0 0 60 60" fill="none" xmlns="http://www.w3.org/2000/svg">
<path d="M29.4999 7.95506C36.8428 7.95506 37.7125 7.983 40.6123 8.1153C43.2935 8.23767 44.7496 8.68567 45.7187 9.06217C47.0022 9.56104 47.9184 10.1571 48.8807 11.1193C49.8429 12.0816 50.439 12.9978 50.9377 14.2813C51.3143 15.2504 51.7623 16.7065 51.8847 19.3876C52.017 22.2875 52.0449 23.1572 52.0449 30.5001C52.0449 37.8429 52.017 38.7126 51.8847 41.6124C51.7623 44.2936 51.3143 45.7497 50.9377 46.7188C50.439 48.0023 49.8429 48.9185 48.8807 49.8808C47.9184 50.843 47.0022 51.4391 45.7187 51.9378C44.7496 52.3144 43.2935 52.7624 40.6123 52.8848C37.7129 53.0171 36.8432 53.0451 29.4999 53.0451C22.1567 53.0451 21.287 53.0171 18.3876 52.8848C15.7064 52.7624 14.2503 52.3144 13.2813 51.9378C11.9977 51.4391 11.0815 50.843 10.1192 49.8808C9.15695 48.9185 8.56093 48.0023 8.06217 46.7188C7.68556 45.7497 7.23757 44.2936 7.1152 41.6125C6.98289 38.7126 6.95495 37.8429 6.95495 30.5001C6.95495 23.1572 6.98289 22.2875 7.1152 19.3878C7.23757 16.7065 7.68556 15.2504 8.06217 14.2813C8.56093 12.9978 9.15695 12.0816 10.1192 11.1193C11.0815 10.1571 11.9977 9.56104 13.2813 9.06217C14.2503 8.68567 15.7064 8.23767 18.3875 8.1153C21.2874 7.983 22.1571 7.95506 29.4999 7.95506ZM29.4999 3C22.0313 3 21.095 3.03166 18.1618 3.16549C15.2346 3.2991 13.2357 3.76391 11.4863 4.44377C9.67798 5.14655 8.14437 6.08687 6.61556 7.61567C5.08676 9.14448 4.14644 10.6781 3.44366 12.4865C2.7638 14.2358 2.29899 16.2347 2.16538 19.1619C2.03155 22.095 2 23.0314 2 30.5001C2 37.9687 2.03155 38.9052 2.16538 41.8382C2.29899 44.7654 2.7638 46.7643 3.44366 48.5137C4.14644 50.3219 5.08676 51.8556 6.61556 53.3844C8.14437 54.9132 9.67798 55.8536 11.4863 56.5563C13.2357 57.2362 15.2346 57.701 18.1618 57.8346C21.095 57.9685 22.0313 58 29.4999 58C36.9686 58 37.905 57.9685 40.8381 57.8346C43.7653 57.701 45.7642 57.2362 47.5135 56.5563C49.3219 55.8536 50.8555 54.9132 52.3843 53.3844C53.9131 51.8556 54.8534 50.322 55.5562 48.5137C56.2361 46.7643 56.7009 44.7654 56.8345 41.8382C56.9683 38.9052 57 37.9687 57 30.5001C57 23.0314 56.9683 22.095 56.8345 19.1619C56.7009 16.2347 56.2361 14.2358 55.5562 12.4865C54.8534 10.6781 53.9131 9.14448 52.3843 7.61567C50.8555 6.08687 49.3219 5.14655 47.5135 4.44377C45.7642 3.76391 43.7653 3.2991 40.8381 3.16549C37.905 3.03166 36.9686 3 29.4999 3ZM29.4999 16.3784C21.7008 16.3784 15.3783 22.7009 15.3783 30.5001C15.3783 38.2992 21.7008 44.6217 29.4999 44.6217C37.2991 44.6217 43.6216 38.2992 43.6216 30.5001C43.6216 22.7009 37.2991 16.3784 29.4999 16.3784ZM29.4999 39.6668C24.4374 39.6668 20.3332 35.5626 20.3332 30.5001C20.3332 25.4375 24.4374 21.3333 29.4999 21.3333C34.5625 21.3333 38.6667 25.4375 38.6667 30.5001C38.6667 35.5626 34.5625 39.6668 29.4999 39.6668ZM47.4795 15.8205C47.4795 17.643 46.0021 19.1205 44.1795 19.1205C42.357 19.1205 40.8795 17.643 40.8795 15.8205C40.8795 13.9979 42.357 12.5205 44.1795 12.5205C46.0021 12.5205 47.4795 13.9979 47.4795 15.8205Z" fill="#C2C2C2"/>
</svg>
