<svg width="60" height="60" viewBox="0 0 60 60" fill="none" xmlns="http://www.w3.org/2000/svg">
<path d="M29.5 3C14.3131 3 2 15.3131 2 30.5C2 45.6869 14.3131 58 29.5 58C44.6869 58 57 45.6869 57 30.5C57 15.3131 44.6869 3 29.5 3ZM52.4167 30.5C52.4167 32.0698 52.2563 33.6029 51.9538 35.0833H43.124C43.4013 32.1431 43.4196 29.0769 43.124 25.9167H51.9538C52.2563 27.3971 52.4167 28.9302 52.4167 30.5ZM50.4894 21.3333H42.4685C41.5908 16.8417 40.0577 12.7373 38.0044 9.23792C43.5846 11.4769 48.0808 15.8425 50.4894 21.3333ZM37.7615 21.3333H31.7917V8.36708C34.576 11.7129 36.6431 16.1817 37.7615 21.3333ZM27.2083 8.36708V21.3333H21.2385C22.3569 16.1817 24.424 11.7129 27.2083 8.36708ZM27.2083 25.9167V35.0833H20.4937C20.1592 31.8269 20.1592 29.1777 20.4937 25.9167H27.2083ZM27.2083 39.6667V52.6329C24.424 49.2871 22.3569 44.8183 21.2385 39.6667H27.2083ZM31.7917 52.6329V39.6667H37.7615C36.6431 44.8183 34.576 49.2871 31.7917 52.6329ZM31.7917 35.0833V25.9167H38.5063C38.8408 29.1731 38.8408 31.8223 38.5063 35.0833H31.7917ZM20.9956 9.23792C18.9423 12.7373 17.4092 16.8417 16.5315 21.3333H8.51063C10.9192 15.8425 15.4154 11.4769 20.9956 9.23792ZM7.04625 25.9167H15.876C15.5987 28.8569 15.5804 31.9231 15.876 35.0833H7.04625C6.74375 33.6029 6.58333 32.0698 6.58333 30.5C6.58333 28.9302 6.74375 27.3971 7.04625 25.9167ZM8.51063 39.6667H16.5315C17.4092 44.1583 18.9423 48.2627 20.9956 51.7621C15.4154 49.5231 10.9192 45.1575 8.51063 39.6667ZM38.0044 51.7621C40.0577 48.2627 41.5908 44.1583 42.4685 39.6667H50.4894C48.0808 45.1575 43.5846 49.5231 38.0044 51.7621Z" fill="#C2C2C2"/>
</svg>
