<svg width="1140" height="1060" viewBox="0 0 1140 1060" fill="none" xmlns="http://www.w3.org/2000/svg">
<path d="M1120 227H20V247.303H1120V227Z" fill="#1021D7"/>
<path d="M140.441 227H128.843V293.639H140.441V227Z" fill="#1021D7"/>
<path d="M68.0122 227H56.4136V293.639H68.0122V227Z" fill="#1021D7"/>
<path d="M212.795 227H201.197V293.639H212.795V227Z" fill="#1021D7"/>
<path d="M1008.64 227H997.044V293.639H1008.64V227Z" fill="#1021D7"/>
<path d="M936.289 227H924.69V293.639H936.289V227Z" fill="#1021D7"/>
<path d="M863.935 227H852.336V293.639H863.935V227Z" fill="#1021D7"/>
<path d="M791.58 227H779.981V293.639H791.58V227Z" fill="#1021D7"/>
<path d="M719.251 227H707.652V293.639H719.251V227Z" fill="#1021D7"/>
<path d="M646.896 227H635.298V293.639H646.896V227Z" fill="#1021D7"/>
<path d="M574.542 227H562.944V293.639H574.542V227Z" fill="#1021D7"/>
<path d="M502.188 227H490.589V293.639H502.188V227Z" fill="#1021D7"/>
<path d="M429.834 227H418.235V293.639H429.834V227Z" fill="#1021D7"/>
<path d="M357.504 227H345.906V293.639H357.504V227Z" fill="#1021D7"/>
<path d="M285.15 227H273.551V293.639H285.15V227Z" fill="#1021D7"/>
<path d="M1082.81 227H1071.22V293.639H1082.81V227Z" fill="#1021D7"/>
<path d="M56.4136 277.845C81.9255 290.7 107.935 293.988 134.667 283.699C158.561 295.881 182.679 297.276 207.021 286.514C231.164 297.849 255.282 298.771 279.375 287.262C308.148 295.009 336.298 301.287 351.73 286.365C375.873 296.579 399.966 296.529 424.084 284.222C448.899 293.739 473.092 294.088 496.438 281.258C521.826 286.913 546.317 286.365 569.664 277.82C593.782 287.635 617.626 286.763 641.147 274.482C665.265 283.824 689.383 284.148 713.501 271.493C743.842 284.048 765.67 278.393 785.856 269.325C810.621 283.874 834.864 286.564 858.21 268.379C883.473 282.005 907.716 283.699 930.564 269.076C955.852 283.799 980.02 285.294 1002.92 271.841C1029.73 290.55 1056.33 286.863 1082.91 277.77C1082.91 305.497 1082.91 333.224 1082.91 360.976C740.681 328.366 398.547 393.735 56.4136 361.051C56.4136 333.324 56.4136 305.572 56.4136 277.845Z" fill="#1021D7"/>
<path d="M1081.79 396.575C740.457 364.19 399.12 429.185 57.7827 396.824C57.7827 384.941 57.7827 373.058 57.7827 361.175C399.12 393.536 740.457 328.541 1081.79 360.926C1081.79 372.809 1081.79 384.692 1081.79 396.575Z" fill="#FEDB31" stroke="#2727E5" stroke-width="3" stroke-miterlimit="10"/>
<path d="M1081.79 431.975C740.457 399.589 399.12 464.584 57.7827 432.224C57.7827 420.341 57.7827 408.458 57.7827 396.575C399.12 428.935 740.457 363.94 1081.79 396.326C1081.79 408.209 1081.79 420.092 1081.79 431.975Z" fill="#FC4141" stroke="#2727E5" stroke-width="3" stroke-miterlimit="10"/>
<path d="M1081.79 467.374C740.457 434.989 399.12 499.984 57.7827 467.623C57.7827 455.74 57.7827 443.858 57.7827 431.975C399.12 464.335 740.457 399.34 1081.79 431.725C1081.79 443.608 1081.79 455.491 1081.79 467.374Z" fill="white" stroke="#1021D7" stroke-width="3" stroke-miterlimit="10"/>
<path d="M1081.79 502.799C740.457 470.413 399.12 535.408 57.7827 503.048C57.7827 491.165 57.7827 479.282 57.7827 467.399C399.12 499.76 740.457 434.765 1081.79 467.15C1081.79 479.008 1081.79 490.891 1081.79 502.799Z" fill="#1021D7" stroke="#1021D7" stroke-width="3" stroke-miterlimit="10"/>
<path d="M1081.79 538.199C740.457 505.813 399.12 570.808 57.7827 538.448C57.7827 526.565 57.7827 514.682 57.7827 502.799C399.12 535.16 740.457 470.165 1081.79 502.55C1081.79 514.433 1081.79 526.316 1081.79 538.199Z" fill="white" stroke="#1021D7" stroke-width="3" stroke-miterlimit="10"/>
<path d="M1081.79 573.598C740.457 541.213 399.12 606.208 57.7827 573.848C57.7827 561.965 57.7827 550.082 57.7827 538.199C399.12 570.559 740.457 505.564 1081.79 537.95C1081.79 549.833 1081.79 561.716 1081.79 573.598Z" fill="#FC4141" stroke="#2727E5" stroke-width="3" stroke-miterlimit="10"/>
<path d="M1081.79 608.998C740.457 576.613 399.12 641.608 57.7827 609.247C57.7827 597.364 57.7827 585.481 57.7827 573.598C399.12 605.959 740.457 540.964 1081.79 573.349C1081.79 585.232 1081.79 597.115 1081.79 608.998Z" fill="white" stroke="#1021D7" stroke-width="3" stroke-miterlimit="10"/>
<path d="M1081.79 644.398C740.457 612.013 399.12 677.008 57.7827 644.647C57.7827 632.764 57.7827 620.881 57.7827 608.998C399.12 641.359 740.457 576.364 1081.79 608.749C1081.79 620.632 1081.79 632.515 1081.79 644.398Z" fill="#FEDB31" stroke="#2727E5" stroke-width="3" stroke-miterlimit="10"/>
<path d="M1081.79 679.798C740.457 647.412 399.12 712.407 57.7827 680.047C57.7827 668.164 57.7827 656.281 57.7827 644.398C399.12 676.758 740.457 611.763 1081.79 644.149C1081.79 656.032 1081.79 667.915 1081.79 679.798Z" fill="#1021D7" stroke="#1021D7" stroke-width="3" stroke-miterlimit="10"/>
<path d="M1081.79 715.197C740.457 682.812 399.12 747.807 57.7827 715.446C57.7827 703.564 57.7827 691.681 57.7827 679.798C399.12 712.158 740.457 647.163 1081.79 679.548C1081.79 691.431 1081.79 703.314 1081.79 715.197Z" fill="white" stroke="#1021D7" stroke-width="3" stroke-miterlimit="10"/>
<path d="M1081.79 750.622C740.457 718.237 399.12 783.232 57.7827 750.871C57.7827 738.988 57.7827 727.105 57.7827 715.222C399.12 747.583 740.457 682.588 1081.79 714.973C1081.79 726.831 1081.79 738.714 1081.79 750.622Z" fill="#FC4141" stroke="#2727E5" stroke-width="3" stroke-miterlimit="10"/>
<path d="M1081.79 786.022C740.457 753.636 399.12 818.631 57.7827 786.271C57.7827 774.388 57.7827 762.505 57.7827 750.622C399.12 782.983 740.457 717.988 1081.79 750.373C1081.79 762.256 1081.79 774.139 1081.79 786.022Z" fill="#FEDB31" stroke="#2727E5" stroke-width="3" stroke-miterlimit="10"/>
<path d="M1081.79 821.421C740.457 789.036 399.12 854.031 57.7827 821.671C57.7827 809.788 57.7827 797.905 57.7827 786.022C399.12 818.382 740.457 753.387 1081.79 785.773C1081.79 797.656 1081.79 809.539 1081.79 821.421Z" fill="white" stroke="#1021D7" stroke-width="3" stroke-miterlimit="10"/>
<path d="M117.568 802.19C122.571 802.513 122.571 814.969 127.574 815.268C132.576 815.567 132.576 803.086 137.579 803.36C142.582 803.634 142.582 816.09 147.585 816.339C152.588 816.589 152.588 804.108 157.59 804.332C162.593 804.556 162.593 817.012 167.596 817.236C172.599 817.436 172.599 804.955 177.602 805.154C182.605 805.328 182.605 817.809 187.607 817.959C192.61 818.108 192.61 805.652 197.613 805.777C202.616 805.901 202.616 818.382 207.619 818.507" stroke="#1021D7" stroke-width="3" stroke-miterlimit="10"/>
<path d="M637.24 794.293C642.243 794.068 642.243 806.549 647.245 806.325C652.248 806.101 652.248 793.645 657.251 793.421C662.254 793.196 662.254 805.677 667.257 805.453C672.259 805.229 672.26 792.773 677.262 792.574C682.265 792.374 682.265 804.83 687.268 804.631C692.271 804.432 692.271 791.951 697.274 791.751C702.276 791.552 702.276 804.033 707.279 803.834C712.282 803.634 712.282 791.179 717.285 791.004C722.288 790.83 722.288 803.286 727.291 803.136" stroke="#1021D7" stroke-width="3" stroke-miterlimit="10"/>
<path d="M897.063 788.189C902.066 788.239 902.066 800.72 907.069 800.795C912.071 800.869 912.072 788.388 917.074 788.488C922.077 788.588 922.077 801.044 927.08 801.168C932.083 801.268 932.083 788.812 937.086 788.937C942.088 789.061 942.088 801.542 947.091 801.691C952.094 801.841 952.094 789.36 957.097 789.534C962.1 789.709 962.1 802.165 967.103 802.364C972.105 802.563 972.105 790.082 977.108 790.307C982.111 790.531 982.111 802.987 987.114 803.236" stroke="#1021D7" stroke-width="3" stroke-miterlimit="10"/>
<path d="M377.391 805.254C382.393 805.104 382.393 817.585 387.396 817.436C392.399 817.286 392.399 804.805 397.402 804.656C402.405 804.506 402.405 816.962 407.408 816.813C412.41 816.638 412.41 804.182 417.413 804.008C422.416 803.834 422.416 816.29 427.419 816.115C432.422 815.941 432.422 803.46 437.425 803.261C442.427 803.061 442.427 815.542 447.43 815.343C452.433 815.144 452.433 802.663 457.436 802.464C462.439 802.264 462.439 814.72 467.442 814.521" stroke="#1021D7" stroke-width="3" stroke-miterlimit="10"/>
<path d="M117.568 731.44C122.571 731.764 122.571 744.22 127.574 744.519C132.576 744.818 132.576 732.337 137.579 732.611C142.582 732.885 142.582 745.341 147.585 745.59C152.588 745.839 152.588 733.358 157.59 733.582C162.593 733.807 162.593 746.262 167.596 746.487C172.599 746.686 172.599 734.205 177.602 734.404C182.605 734.579 182.605 747.06 187.607 747.209C192.61 747.359 192.61 734.903 197.613 735.027C202.616 735.152 202.616 747.633 207.619 747.757" stroke="white" stroke-width="3" stroke-miterlimit="10"/>
<path d="M637.24 723.543C642.243 723.319 642.243 735.799 647.245 735.575C652.248 735.351 652.248 722.895 657.251 722.671C662.254 722.447 662.254 734.928 667.257 734.703C672.259 734.504 672.26 722.023 677.262 721.824C682.265 721.625 682.265 734.081 687.268 733.881C692.271 733.682 692.271 721.201 697.274 721.002C702.276 720.803 702.276 733.283 707.279 733.084C712.282 732.91 712.282 720.429 717.285 720.254C722.288 720.08 722.288 732.536 727.291 732.387" stroke="white" stroke-width="3" stroke-miterlimit="10"/>
<path d="M897.063 717.439C902.066 717.489 902.066 729.97 907.069 730.045C912.071 730.12 912.072 717.639 917.074 717.738C922.077 717.838 922.077 730.294 927.08 730.419C932.083 730.518 932.083 718.062 937.086 718.187C942.088 718.311 942.088 730.792 947.091 730.942C952.094 731.091 952.094 718.635 957.097 718.785C962.1 718.959 962.1 731.44 967.103 731.614C972.105 731.814 972.105 719.333 977.108 719.557C982.111 719.781 982.111 732.237 987.114 732.486" stroke="white" stroke-width="3" stroke-miterlimit="10"/>
<path d="M377.391 734.504C382.393 734.355 382.393 746.836 387.396 746.686C392.399 746.537 392.399 734.056 397.402 733.906C402.405 733.757 402.405 746.213 407.408 746.063C412.41 745.889 412.41 733.433 417.413 733.259C422.416 733.084 422.416 745.54 427.419 745.366C432.422 745.191 432.422 732.71 437.425 732.511C442.427 732.312 442.427 744.793 447.43 744.593C452.433 744.394 452.433 731.913 457.436 731.714C462.439 731.515 462.439 743.971 467.442 743.771" stroke="white" stroke-width="3" stroke-miterlimit="10"/>
<path d="M117.568 660.641C122.571 660.964 122.571 673.42 127.574 673.719C132.576 674.018 132.576 661.537 137.579 661.811C142.582 662.085 142.582 674.541 147.585 674.791C152.588 675.04 152.588 662.559 157.59 662.783C162.593 663.007 162.593 675.463 167.596 675.687C172.599 675.887 172.599 663.406 177.602 663.605C182.605 663.779 182.605 676.26 187.607 676.41C192.61 676.559 192.61 664.103 197.613 664.228C202.616 664.352 202.616 676.833 207.619 676.958" stroke="white" stroke-width="3" stroke-miterlimit="10"/>
<path d="M637.24 652.743C642.243 652.519 642.243 665 647.245 664.776C652.248 664.552 652.248 652.071 657.251 651.871C662.254 651.647 662.254 664.128 667.257 663.904C672.259 663.705 672.26 651.224 677.262 651.024C682.265 650.825 682.265 663.281 687.268 663.082C692.271 662.882 692.271 650.402 697.274 650.202C702.276 650.003 702.276 662.484 707.279 662.285C712.282 662.085 712.282 649.629 717.285 649.455C722.288 649.281 722.288 661.736 727.291 661.587" stroke="white" stroke-width="3" stroke-miterlimit="10"/>
<path d="M897.063 646.64C902.066 646.69 902.066 659.171 907.069 659.245C912.071 659.32 912.072 646.839 917.074 646.939C922.077 647.039 922.077 659.494 927.08 659.619C932.083 659.719 932.083 647.263 937.086 647.387C942.088 647.512 942.088 659.993 947.091 660.142C952.094 660.292 952.094 647.836 957.097 647.985C962.1 648.16 962.1 660.64 967.103 660.815C972.105 661.014 972.105 648.533 977.108 648.757C982.111 648.982 982.111 661.438 987.114 661.687" stroke="white" stroke-width="3" stroke-miterlimit="10"/>
<path d="M377.391 663.705C382.393 663.555 382.393 676.036 387.396 675.887C392.399 675.737 392.399 663.256 397.402 663.107C402.405 662.957 402.405 675.413 407.408 675.264C412.41 675.089 412.41 662.633 417.413 662.459C422.416 662.285 422.416 674.741 427.419 674.566C432.422 674.392 432.422 661.911 437.425 661.712C442.427 661.512 442.427 673.993 447.43 673.794C452.433 673.595 452.433 661.114 457.436 660.914C462.439 660.715 462.439 673.171 467.442 672.972" stroke="white" stroke-width="3" stroke-miterlimit="10"/>
<path d="M117.568 589.841C122.571 590.165 122.571 602.621 127.574 602.92C132.576 603.219 132.576 590.738 137.579 591.012C142.582 591.286 142.582 603.742 147.585 603.991C152.588 604.24 152.588 591.759 157.59 591.983C162.593 592.208 162.593 604.664 167.596 604.888C172.599 605.087 172.599 592.606 177.602 592.806C182.605 592.98 182.605 605.461 187.607 605.61C192.61 605.76 192.61 593.304 197.613 593.428C202.616 593.553 202.616 606.034 207.619 606.158" stroke="#1021D7" stroke-width="3" stroke-miterlimit="10"/>
<path d="M637.24 581.944C642.243 581.72 642.243 594.201 647.245 593.976C652.248 593.752 652.248 581.271 657.251 581.072C662.254 580.848 662.254 593.329 667.257 593.104C672.259 592.905 672.26 580.424 677.262 580.225C682.265 580.026 682.265 592.482 687.268 592.282C692.271 592.083 692.271 579.602 697.274 579.403C702.276 579.204 702.276 591.684 707.279 591.485C712.282 591.286 712.282 578.83 717.285 578.656C722.288 578.481 722.288 590.937 727.291 590.788" stroke="#1021D7" stroke-width="3" stroke-miterlimit="10"/>
<path d="M897.063 575.841C902.066 575.89 902.066 588.371 907.069 588.446C912.071 588.521 912.072 576.04 917.074 576.14C922.077 576.239 922.077 588.695 927.08 588.82C932.083 588.919 932.083 576.463 937.086 576.588C942.088 576.712 942.088 589.193 947.091 589.343C952.094 589.492 952.094 577.011 957.097 577.186C962.1 577.36 962.1 589.841 967.103 590.015C972.105 590.215 972.105 577.734 977.108 577.958C982.111 578.182 982.111 590.638 987.114 590.887" stroke="#1021D7" stroke-width="3" stroke-miterlimit="10"/>
<path d="M377.391 592.905C382.393 592.756 382.393 605.237 387.396 605.087C392.399 604.938 392.399 592.457 397.402 592.307C402.405 592.158 402.405 604.614 407.408 604.464C412.41 604.29 412.41 591.834 417.413 591.66C422.416 591.485 422.416 603.941 427.419 603.767C432.422 603.592 432.422 591.112 437.425 590.912C442.427 590.713 442.427 603.194 447.43 602.994C452.433 602.795 452.433 590.314 457.436 590.115C462.439 589.916 462.439 602.372 467.442 602.172" stroke="#1021D7" stroke-width="3" stroke-miterlimit="10"/>
<path d="M117.568 519.042C122.571 519.365 122.571 531.821 127.574 532.12C132.576 532.419 132.576 519.938 137.579 520.212C142.582 520.486 142.582 532.942 147.585 533.191C152.588 533.441 152.588 520.96 157.59 521.184C162.593 521.408 162.593 533.864 167.596 534.088C172.599 534.288 172.599 521.807 177.602 522.006C182.605 522.18 182.605 534.661 187.607 534.811C192.61 534.96 192.61 522.504 197.613 522.629C202.616 522.753 202.616 535.234 207.619 535.359" stroke="#1021D7" stroke-width="3" stroke-miterlimit="10"/>
<path d="M637.24 511.144C642.243 510.92 642.243 523.401 647.245 523.177C652.248 522.953 652.248 510.472 657.251 510.273C662.254 510.048 662.254 522.529 667.257 522.305C672.259 522.081 672.26 509.625 677.262 509.426C682.265 509.226 682.265 521.682 687.268 521.483C692.271 521.284 692.271 508.803 697.274 508.603C702.276 508.404 702.276 520.885 707.279 520.686C712.282 520.511 712.282 508.03 717.285 507.856C722.288 507.682 722.288 520.138 727.291 519.988" stroke="#1021D7" stroke-width="3" stroke-miterlimit="10"/>
<path d="M897.063 505.016C902.066 505.066 902.066 517.547 907.069 517.622C912.071 517.696 912.072 505.215 917.074 505.315C922.077 505.415 922.077 517.871 927.08 517.995C932.083 518.095 932.083 505.639 937.086 505.763C942.088 505.888 942.088 518.369 947.091 518.518C952.094 518.668 952.094 506.187 957.097 506.361C962.1 506.536 962.1 518.992 967.103 519.191C972.105 519.39 972.105 506.909 977.108 507.134C982.111 507.358 982.111 519.814 987.114 520.063" stroke="#1021D7" stroke-width="3" stroke-miterlimit="10"/>
<path d="M377.391 522.081C382.393 521.931 382.393 534.412 387.396 534.263C392.399 534.113 392.399 521.632 397.402 521.483C402.405 521.333 402.405 533.789 407.408 533.64C412.41 533.466 412.41 521.01 417.413 520.835C422.416 520.661 422.416 533.117 427.419 532.942C432.422 532.768 432.422 520.287 437.425 520.088C442.427 519.889 442.427 532.369 447.43 532.17C452.433 531.971 452.433 519.49 457.436 519.291C462.439 519.091 462.439 531.547 467.442 531.348" stroke="#1021D7" stroke-width="3" stroke-miterlimit="10"/>
<path d="M117.568 448.217C122.571 448.541 122.571 460.997 127.574 461.296C132.576 461.595 132.576 449.114 137.579 449.388C142.582 449.662 142.582 462.118 147.585 462.367C152.588 462.616 152.588 450.136 157.59 450.36C162.593 450.584 162.593 463.04 167.596 463.264C172.599 463.463 172.599 450.982 177.602 451.182C182.605 451.356 182.605 463.837 187.607 463.986C192.61 464.136 192.61 451.68 197.613 451.805C202.616 451.929 202.616 464.41 207.619 464.535" stroke="#1021D7" stroke-width="3" stroke-miterlimit="10"/>
<path d="M637.24 440.32C642.243 440.096 642.243 452.577 647.245 452.353C652.248 452.128 652.248 439.648 657.251 439.448C662.254 439.224 662.254 451.705 667.257 451.481C672.259 451.257 672.26 438.801 677.262 438.601C682.265 438.402 682.265 450.858 687.268 450.659C692.271 450.459 692.271 437.979 697.274 437.779C702.276 437.58 702.276 450.061 707.279 449.861C712.282 449.687 712.282 437.206 717.285 437.032C722.288 436.857 722.288 449.313 727.291 449.164" stroke="#1021D7" stroke-width="3" stroke-miterlimit="10"/>
<path d="M897.063 434.217C902.066 434.267 902.066 446.747 907.069 446.822C912.071 446.897 912.072 434.416 917.074 434.516C922.077 434.615 922.077 447.071 927.08 447.196C932.083 447.296 932.083 434.84 937.086 434.964C942.088 435.089 942.088 447.57 947.091 447.719C952.094 447.868 952.094 435.388 957.097 435.562C962.1 435.736 962.1 448.217 967.103 448.392C972.105 448.591 972.105 436.11 977.108 436.334C982.111 436.559 982.111 449.014 987.114 449.264" stroke="#1021D7" stroke-width="3" stroke-miterlimit="10"/>
<path d="M377.391 451.281C382.393 451.132 382.393 463.613 387.396 463.463C392.399 463.314 392.399 450.833 397.402 450.683C402.405 450.534 402.405 462.99 407.408 462.84C412.41 462.666 412.41 450.21 417.413 450.036C422.416 449.861 422.416 462.342 427.419 462.143C432.422 461.969 432.422 449.488 437.425 449.288C442.427 449.089 442.427 461.57 447.43 461.371C452.433 461.171 452.433 448.691 457.436 448.491C462.439 448.292 462.439 460.748 467.442 460.549" stroke="#1021D7" stroke-width="3" stroke-miterlimit="10"/>
<path d="M117.568 377.418C122.571 377.742 122.571 390.197 127.574 390.496C132.576 390.795 132.576 378.315 137.579 378.589C142.582 378.863 142.582 391.319 147.585 391.568C152.588 391.817 152.588 379.336 157.59 379.56C162.593 379.784 162.593 392.24 167.596 392.464C172.599 392.664 172.599 380.183 177.602 380.382C182.605 380.557 182.605 393.037 187.607 393.187C192.61 393.336 192.61 380.88 197.613 381.005C202.616 381.13 202.616 393.61 207.619 393.735" stroke="#1021D7" stroke-width="3" stroke-miterlimit="10"/>
<path d="M637.24 369.521C642.243 369.296 642.243 381.777 647.245 381.553C652.248 381.329 652.248 368.848 657.251 368.649C662.254 368.425 662.254 380.905 667.257 380.681C672.259 380.457 672.26 368.001 677.262 367.802C682.265 367.602 682.265 380.058 687.268 379.859C692.271 379.66 692.271 367.179 697.274 366.98C702.276 366.78 702.276 379.261 707.279 379.062C712.282 378.888 712.282 366.407 717.285 366.232C722.288 366.058 722.288 378.514 727.291 378.364" stroke="#1021D7" stroke-width="3" stroke-miterlimit="10"/>
<path d="M897.063 363.417C902.066 363.467 902.066 375.948 907.069 376.023C912.071 376.097 912.072 363.617 917.074 363.716C922.077 363.816 922.077 376.272 927.08 376.396C932.083 376.496 932.083 364.04 937.086 364.165C942.088 364.289 942.088 376.77 947.091 376.919C952.094 377.069 952.094 364.588 957.097 364.762C962.1 364.937 962.1 377.418 967.103 377.592C972.105 377.791 972.105 365.311 977.108 365.535C982.111 365.759 982.111 378.215 987.114 378.464" stroke="#1021D7" stroke-width="3" stroke-miterlimit="10"/>
<path d="M377.391 380.482C382.393 380.332 382.393 392.813 387.396 392.664C392.399 392.514 392.399 380.033 397.402 379.884C402.405 379.734 402.405 392.19 407.408 392.041C412.41 391.867 412.41 379.411 417.413 379.236C422.416 379.062 422.416 391.543 427.419 391.343C432.422 391.169 432.422 378.688 437.425 378.489C442.427 378.29 442.427 390.77 447.43 390.571C452.433 390.372 452.433 377.891 457.436 377.692C462.439 377.492 462.439 389.948 467.442 389.749" stroke="#1021D7" stroke-width="3" stroke-miterlimit="10"/>
<path d="M241.468 415.931C246.471 415.981 246.471 428.462 251.474 428.487C256.477 428.512 256.477 416.056 261.48 416.081C266.482 416.106 266.482 428.562 271.485 428.587C276.488 428.587 276.488 416.106 281.491 416.106C286.494 416.081 286.494 428.562 291.497 428.537C296.499 428.512 296.499 416.031 301.502 416.006C306.505 415.956 306.505 428.437 311.508 428.387C316.511 428.338 316.511 415.857 321.514 415.782C326.516 415.707 326.516 428.188 331.519 428.088" stroke="white" stroke-width="3" stroke-miterlimit="10"/>
<path d="M761.141 398.917C766.143 398.767 766.144 411.248 771.146 411.123C776.149 410.999 776.149 398.518 781.152 398.418C786.155 398.294 786.155 410.775 791.158 410.675C796.16 410.575 796.16 398.095 801.163 397.995C806.166 397.895 806.166 410.376 811.169 410.301C816.172 410.227 816.172 397.746 821.175 397.671C826.177 397.596 826.177 410.077 831.18 410.027C836.183 409.977 836.183 397.497 841.186 397.472C846.189 397.447 846.189 409.903 851.192 409.878" stroke="white" stroke-width="3" stroke-miterlimit="10"/>
<path d="M501.317 409.878C506.32 409.654 506.32 422.11 511.323 421.885C516.325 421.661 516.325 409.18 521.328 408.956C526.331 408.732 526.331 421.188 531.334 420.964C536.337 420.739 536.337 408.259 541.34 408.01C546.342 407.76 546.342 420.241 551.345 420.017C556.348 419.768 556.348 407.312 561.351 407.063C566.354 406.814 566.354 419.295 571.357 419.045C576.359 418.796 576.359 406.34 581.362 406.091C586.365 405.842 586.365 418.323 591.368 418.099" stroke="white" stroke-width="3" stroke-miterlimit="10"/>
<path d="M241.468 488.051C246.471 488.101 246.471 500.582 251.474 500.607C256.477 500.632 256.477 488.176 261.48 488.201C266.482 488.226 266.482 500.681 271.485 500.706C276.488 500.706 276.488 488.226 281.491 488.226C286.494 488.201 286.494 500.681 291.497 500.657C296.499 500.632 296.499 488.151 301.502 488.126C306.505 488.076 306.505 500.557 311.508 500.507C316.511 500.457 316.511 487.976 321.514 487.902C326.516 487.827 326.516 500.308 331.519 500.208" stroke="white" stroke-width="3" stroke-miterlimit="10"/>
<path d="M761.141 471.036C766.143 470.887 766.144 483.368 771.146 483.243C776.149 483.119 776.149 470.638 781.152 470.538C786.155 470.414 786.155 482.895 791.158 482.795C796.16 482.695 796.16 470.214 801.163 470.115C806.166 470.015 806.166 482.496 811.169 482.421C816.172 482.346 816.172 469.866 821.175 469.791C826.177 469.716 826.177 482.197 831.18 482.147C836.183 482.097 836.183 469.617 841.186 469.592C846.189 469.567 846.189 482.023 851.192 481.998" stroke="white" stroke-width="3" stroke-miterlimit="10"/>
<path d="M501.317 481.998C506.32 481.773 506.32 494.254 511.323 494.005C516.325 493.781 516.325 481.3 521.328 481.076C526.331 480.852 526.331 493.308 531.334 493.083C536.337 492.859 536.337 480.378 541.34 480.129C546.342 479.88 546.342 492.361 551.345 492.137C556.348 491.912 556.348 479.432 561.351 479.183C566.354 478.933 566.354 491.414 571.357 491.165C576.359 490.916 576.359 478.46 581.362 478.211C586.365 477.962 586.365 490.443 591.368 490.218" stroke="white" stroke-width="3" stroke-miterlimit="10"/>
<path d="M241.468 558.851C246.471 558.901 246.471 571.381 251.474 571.406C256.477 571.431 256.477 558.975 261.48 559C266.482 559.025 266.482 571.481 271.485 571.506C276.488 571.506 276.488 559.025 281.491 559.025C286.494 559 286.494 571.481 291.497 571.456C296.499 571.431 296.499 558.95 301.502 558.925C306.505 558.876 306.505 571.357 311.508 571.307C316.511 571.257 316.511 558.776 321.514 558.701C326.516 558.627 326.516 571.107 331.519 571.008" stroke="#1021D7" stroke-width="3" stroke-miterlimit="10"/>
<path d="M761.141 541.836C766.143 541.686 766.144 554.167 771.146 554.043C776.149 553.918 776.149 541.437 781.152 541.338C786.155 541.213 786.155 553.694 791.158 553.594C796.16 553.495 796.16 541.014 801.163 540.914C806.166 540.815 806.166 553.295 811.169 553.221C816.172 553.146 816.172 540.665 821.175 540.59C826.177 540.516 826.177 552.996 831.18 552.947C836.183 552.897 836.183 540.416 841.186 540.391C846.189 540.366 846.189 552.822 851.192 552.797" stroke="#1021D7" stroke-width="3" stroke-miterlimit="10"/>
<path d="M501.317 552.797C506.32 552.573 506.32 565.054 511.323 564.805C516.325 564.58 516.325 552.1 521.328 551.875C526.331 551.651 526.331 564.107 531.334 563.883C536.337 563.659 536.337 551.178 541.34 550.929C546.342 550.68 546.342 563.16 551.345 562.936C556.348 562.687 556.348 550.231 561.351 549.982C566.354 549.733 566.354 562.214 571.357 561.965C576.359 561.716 576.359 549.26 581.362 549.011C586.365 548.761 586.365 561.242 591.368 561.018" stroke="#1021D7" stroke-width="3" stroke-miterlimit="10"/>
<path d="M241.468 629.675C246.471 629.725 246.471 642.206 251.474 642.231C256.477 642.255 256.477 629.799 261.48 629.824C266.482 629.849 266.482 642.305 271.485 642.33C276.488 642.33 276.488 629.849 281.491 629.849C286.494 629.824 286.494 642.305 291.497 642.28C296.499 642.255 296.499 629.775 301.502 629.75C306.505 629.7 306.505 642.181 311.508 642.131C316.511 642.081 316.511 629.6 321.514 629.525C326.516 629.451 326.516 641.932 331.519 641.832" stroke="#1021D7" stroke-width="3" stroke-miterlimit="10"/>
<path d="M761.141 612.635C766.143 612.486 766.144 624.967 771.146 624.842C776.149 624.718 776.149 612.237 781.152 612.137C786.155 612.013 786.155 624.493 791.158 624.394C796.16 624.294 796.16 611.813 801.163 611.714C806.166 611.614 806.166 624.095 811.169 624.02C816.172 623.945 816.172 611.465 821.175 611.39C826.177 611.315 826.177 623.796 831.18 623.746C836.183 623.696 836.183 611.215 841.186 611.19C846.189 611.166 846.189 623.621 851.192 623.597" stroke="#1021D7" stroke-width="3" stroke-miterlimit="10"/>
<path d="M501.317 623.621C506.32 623.397 506.32 635.853 511.323 635.629C516.325 635.405 516.325 622.924 521.328 622.7C526.331 622.475 526.331 634.931 531.334 634.707C536.337 634.483 536.337 622.002 541.34 621.753C546.342 621.529 546.342 633.985 551.345 633.76C556.348 633.511 556.348 621.055 561.351 620.806C566.354 620.557 566.354 633.038 571.357 632.789C576.359 632.54 576.359 620.084 581.362 619.835C586.365 619.586 586.365 632.066 591.368 631.842" stroke="#1021D7" stroke-width="3" stroke-miterlimit="10"/>
<path d="M241.468 700.475C246.471 700.524 246.471 713.005 251.474 713.03C256.477 713.055 256.477 700.599 261.48 700.624C266.482 700.649 266.482 713.105 271.485 713.13C276.488 713.13 276.488 700.649 281.491 700.649C286.494 700.624 286.494 713.105 291.497 713.08C296.499 713.055 296.499 700.574 301.502 700.549C306.505 700.499 306.505 712.98 311.508 712.93C316.511 712.881 316.511 700.4 321.514 700.325C326.516 700.25 326.516 712.731 331.519 712.631" stroke="#1021D7" stroke-width="3" stroke-miterlimit="10"/>
<path d="M761.141 683.435C766.143 683.31 766.144 695.766 771.146 695.642C776.149 695.517 776.149 683.036 781.152 682.937C786.155 682.812 786.155 695.293 791.158 695.193C796.16 695.094 796.16 682.613 801.163 682.513C806.166 682.414 806.166 694.894 811.169 694.82C816.172 694.745 816.172 682.264 821.175 682.189C826.177 682.115 826.177 694.595 831.18 694.546C836.183 694.496 836.183 682.015 841.186 681.99C846.189 681.965 846.189 694.421 851.192 694.396" stroke="#1021D7" stroke-width="3" stroke-miterlimit="10"/>
<path d="M501.317 694.421C506.32 694.197 506.32 706.678 511.323 706.428C516.325 706.204 516.325 693.723 521.328 693.499C526.331 693.275 526.331 705.731 531.334 705.507C536.337 705.282 536.337 692.802 541.34 692.553C546.342 692.328 546.342 704.784 551.345 704.56C556.348 704.311 556.348 691.855 561.351 691.606C566.354 691.357 566.354 703.838 571.357 703.588C576.359 703.339 576.359 690.883 581.362 690.634C586.365 690.385 586.365 702.866 591.368 702.642" stroke="#1021D7" stroke-width="3" stroke-miterlimit="10"/>
</svg>
