<svg width="1248" height="636" viewBox="0 0 1248 636" fill="none" xmlns="http://www.w3.org/2000/svg">
<path d="M1174 15H74V35.3032H1174V15Z" fill="#1021D7"/>
<path d="M194.441 15H182.843V81.6392H194.441V15Z" fill="#1021D7"/>
<path d="M122.012 15H110.414V81.6392H122.012V15Z" fill="#1021D7"/>
<path d="M266.795 15H255.197V81.6392H266.795V15Z" fill="#1021D7"/>
<path d="M1062.64 15H1051.04V81.6392H1062.64V15Z" fill="#1021D7"/>
<path d="M990.289 15H978.69V81.6392H990.289V15Z" fill="#1021D7"/>
<path d="M917.935 15H906.336V81.6392H917.935V15Z" fill="#1021D7"/>
<path d="M845.58 15H833.981V81.6392H845.58V15Z" fill="#1021D7"/>
<path d="M773.251 15H761.652V81.6392H773.251V15Z" fill="#1021D7"/>
<path d="M700.896 15H689.298V81.6392H700.896V15Z" fill="#1021D7"/>
<path d="M628.542 15H616.944V81.6392H628.542V15Z" fill="#1021D7"/>
<path d="M556.188 15H544.589V81.6392H556.188V15Z" fill="#1021D7"/>
<path d="M483.834 15H472.235V81.6392H483.834V15Z" fill="#1021D7"/>
<path d="M411.504 15H399.906V81.6392H411.504V15Z" fill="#1021D7"/>
<path d="M339.15 15H327.551V81.6392H339.15V15Z" fill="#1021D7"/>
<path d="M1136.81 15H1125.22V81.6392H1136.81V15Z" fill="#1021D7"/>
<path d="M110.414 65.845C135.926 78.6995 161.935 81.9879 188.667 71.6993C212.561 83.8812 236.679 85.2763 261.021 74.5144C285.164 85.8492 309.282 86.771 333.375 75.2617C362.148 83.0093 390.298 89.2871 405.73 74.3649C429.873 84.5787 453.966 84.5289 478.084 72.2225C502.899 81.7388 527.092 82.0876 550.438 69.258C575.826 74.913 600.317 74.3649 623.664 65.8201C647.782 75.6354 671.626 74.7635 695.147 62.4819C719.265 71.8239 743.383 72.1477 767.501 59.4925C797.842 72.0481 819.67 66.3931 839.856 57.3252C864.621 71.8737 888.864 74.5642 912.21 56.3785C937.473 70.0053 961.716 71.6993 984.564 57.0761C1009.85 71.799 1034.02 73.2937 1056.92 59.8413C1083.73 78.5501 1110.33 74.8631 1136.91 65.7703C1136.91 93.4972 1136.91 121.224 1136.91 148.976C794.681 116.366 452.547 181.735 110.414 149.051C110.414 121.324 110.414 93.5719 110.414 65.845Z" fill="#1021D7"/>
<path d="M1135.79 184.575C794.457 152.19 453.12 217.185 111.783 184.824C111.783 172.941 111.783 161.058 111.783 149.175C453.12 181.536 794.457 116.541 1135.79 148.926C1135.79 160.809 1135.79 172.692 1135.79 184.575Z" fill="#FEDB31" stroke="#2727E5" stroke-width="3" stroke-miterlimit="10"/>
<path d="M1135.79 219.975C794.457 187.589 453.12 252.584 111.783 220.224C111.783 208.341 111.783 196.458 111.783 184.575C453.12 216.935 794.457 151.94 1135.79 184.326C1135.79 196.209 1135.79 208.092 1135.79 219.975Z" fill="#FC4141" stroke="#2727E5" stroke-width="3" stroke-miterlimit="10"/>
<path d="M1135.79 255.374C794.457 222.989 453.12 287.984 111.783 255.623C111.783 243.74 111.783 231.858 111.783 219.975C453.12 252.335 794.457 187.34 1135.79 219.725C1135.79 231.608 1135.79 243.491 1135.79 255.374Z" fill="white" stroke="#1021D7" stroke-width="3" stroke-miterlimit="10"/>
<path d="M1135.79 290.799C794.457 258.413 453.12 323.408 111.783 291.048C111.783 279.165 111.783 267.282 111.783 255.399C453.12 287.76 794.457 222.765 1135.79 255.15C1135.79 267.008 1135.79 278.891 1135.79 290.799Z" fill="#1021D7" stroke="#1021D7" stroke-width="3" stroke-miterlimit="10"/>
<path d="M1135.79 326.199C794.457 293.813 453.12 358.808 111.783 326.448C111.783 314.565 111.783 302.682 111.783 290.799C453.12 323.16 794.457 258.165 1135.79 290.55C1135.79 302.433 1135.79 314.316 1135.79 326.199Z" fill="white" stroke="#1021D7" stroke-width="3" stroke-miterlimit="10"/>
<path d="M1135.79 361.598C794.457 329.213 453.12 394.208 111.783 361.848C111.783 349.965 111.783 338.082 111.783 326.199C453.12 358.559 794.457 293.564 1135.79 325.95C1135.79 337.833 1135.79 349.716 1135.79 361.598Z" fill="#FC4141" stroke="#2727E5" stroke-width="3" stroke-miterlimit="10"/>
<path d="M1135.79 396.998C794.457 364.613 453.12 429.608 111.783 397.247C111.783 385.364 111.783 373.481 111.783 361.598C453.12 393.959 794.457 328.964 1135.79 361.349C1135.79 373.232 1135.79 385.115 1135.79 396.998Z" fill="white" stroke="#1021D7" stroke-width="3" stroke-miterlimit="10"/>
<path d="M1135.79 432.398C794.457 400.013 453.12 465.008 111.783 432.647C111.783 420.764 111.783 408.881 111.783 396.998C453.12 429.359 794.457 364.364 1135.79 396.749C1135.79 408.632 1135.79 420.515 1135.79 432.398Z" fill="#FEDB31" stroke="#2727E5" stroke-width="3" stroke-miterlimit="10"/>
<path d="M1135.79 467.798C794.457 435.412 453.12 500.407 111.783 468.047C111.783 456.164 111.783 444.281 111.783 432.398C453.12 464.758 794.457 399.763 1135.79 432.149C1135.79 444.032 1135.79 455.915 1135.79 467.798Z" fill="#1021D7" stroke="#1021D7" stroke-width="3" stroke-miterlimit="10"/>
<path d="M1135.79 503.197C794.457 470.812 453.12 535.807 111.783 503.446C111.783 491.564 111.783 479.681 111.783 467.798C453.12 500.158 794.457 435.163 1135.79 467.548C1135.79 479.431 1135.79 491.314 1135.79 503.197Z" fill="white" stroke="#1021D7" stroke-width="3" stroke-miterlimit="10"/>
<path d="M1135.79 538.622C794.457 506.237 453.12 571.232 111.783 538.871C111.783 526.988 111.783 515.105 111.783 503.222C453.12 535.583 794.457 470.588 1135.79 502.973C1135.79 514.831 1135.79 526.714 1135.79 538.622Z" fill="#FC4141" stroke="#2727E5" stroke-width="3" stroke-miterlimit="10"/>
<path d="M1135.79 574.022C794.457 541.636 453.12 606.631 111.783 574.271C111.783 562.388 111.783 550.505 111.783 538.622C453.12 570.983 794.457 505.988 1135.79 538.373C1135.79 550.256 1135.79 562.139 1135.79 574.022Z" fill="#FEDB31" stroke="#2727E5" stroke-width="3" stroke-miterlimit="10"/>
<path d="M1135.79 609.421C794.457 577.036 453.12 642.031 111.783 609.671C111.783 597.788 111.783 585.905 111.783 574.022C453.12 606.382 794.457 541.387 1135.79 573.773C1135.79 585.656 1135.79 597.539 1135.79 609.421Z" fill="white" stroke="#1021D7" stroke-width="3" stroke-miterlimit="10"/>
<path d="M171.568 590.19C176.571 590.513 176.571 602.969 181.574 603.268C186.576 603.567 186.576 591.086 191.579 591.36C196.582 591.634 196.582 604.09 201.585 604.339C206.588 604.589 206.588 592.108 211.59 592.332C216.593 592.556 216.593 605.012 221.596 605.236C226.599 605.436 226.599 592.955 231.602 593.154C236.605 593.328 236.605 605.809 241.607 605.959C246.61 606.108 246.61 593.652 251.613 593.777C256.616 593.901 256.616 606.382 261.619 606.507" stroke="#1021D7" stroke-width="3" stroke-miterlimit="10"/>
<path d="M691.24 582.293C696.243 582.068 696.243 594.549 701.245 594.325C706.248 594.101 706.248 581.645 711.251 581.421C716.254 581.196 716.254 593.677 721.257 593.453C726.259 593.229 726.26 580.773 731.262 580.574C736.265 580.374 736.265 592.83 741.268 592.631C746.271 592.432 746.271 579.951 751.274 579.751C756.276 579.552 756.276 592.033 761.279 591.834C766.282 591.634 766.282 579.179 771.285 579.004C776.288 578.83 776.288 591.286 781.291 591.136" stroke="#1021D7" stroke-width="3" stroke-miterlimit="10"/>
<path d="M951.063 576.189C956.066 576.239 956.066 588.72 961.069 588.795C966.071 588.869 966.072 576.388 971.074 576.488C976.077 576.588 976.077 589.044 981.08 589.168C986.083 589.268 986.083 576.812 991.086 576.937C996.088 577.061 996.088 589.542 1001.09 589.691C1006.09 589.841 1006.09 577.36 1011.1 577.534C1016.1 577.709 1016.1 590.165 1021.1 590.364C1026.11 590.563 1026.11 578.082 1031.11 578.307C1036.11 578.531 1036.11 590.987 1041.11 591.236" stroke="#1021D7" stroke-width="3" stroke-miterlimit="10"/>
<path d="M431.391 593.254C436.393 593.104 436.393 605.585 441.396 605.436C446.399 605.286 446.399 592.805 451.402 592.656C456.405 592.506 456.405 604.962 461.408 604.813C466.41 604.638 466.41 592.182 471.413 592.008C476.416 591.834 476.416 604.29 481.419 604.115C486.422 603.941 486.422 591.46 491.425 591.261C496.427 591.061 496.427 603.542 501.43 603.343C506.433 603.144 506.433 590.663 511.436 590.464C516.439 590.264 516.439 602.72 521.442 602.521" stroke="#1021D7" stroke-width="3" stroke-miterlimit="10"/>
<path d="M171.568 519.44C176.571 519.764 176.571 532.22 181.574 532.519C186.576 532.818 186.576 520.337 191.579 520.611C196.582 520.885 196.582 533.341 201.585 533.59C206.588 533.839 206.588 521.358 211.59 521.582C216.593 521.807 216.593 534.262 221.596 534.487C226.599 534.686 226.599 522.205 231.602 522.404C236.605 522.579 236.605 535.06 241.607 535.209C246.61 535.359 246.61 522.903 251.613 523.027C256.616 523.152 256.616 535.633 261.619 535.757" stroke="white" stroke-width="3" stroke-miterlimit="10"/>
<path d="M691.24 511.543C696.243 511.319 696.243 523.799 701.245 523.575C706.248 523.351 706.248 510.895 711.251 510.671C716.254 510.447 716.254 522.928 721.257 522.703C726.259 522.504 726.26 510.023 731.262 509.824C736.265 509.625 736.265 522.081 741.268 521.881C746.271 521.682 746.271 509.201 751.274 509.002C756.276 508.803 756.276 521.283 761.279 521.084C766.282 520.91 766.282 508.429 771.285 508.254C776.288 508.08 776.288 520.536 781.291 520.387" stroke="white" stroke-width="3" stroke-miterlimit="10"/>
<path d="M951.063 505.439C956.066 505.489 956.066 517.97 961.069 518.045C966.071 518.12 966.072 505.639 971.074 505.738C976.077 505.838 976.077 518.294 981.08 518.419C986.083 518.518 986.083 506.062 991.086 506.187C996.088 506.311 996.088 518.792 1001.09 518.942C1006.09 519.091 1006.09 506.635 1011.1 506.785C1016.1 506.959 1016.1 519.44 1021.1 519.614C1026.11 519.814 1026.11 507.333 1031.11 507.557C1036.11 507.781 1036.11 520.237 1041.11 520.486" stroke="white" stroke-width="3" stroke-miterlimit="10"/>
<path d="M431.391 522.504C436.393 522.355 436.393 534.836 441.396 534.686C446.399 534.537 446.399 522.056 451.402 521.906C456.405 521.757 456.405 534.213 461.408 534.063C466.41 533.889 466.41 521.433 471.413 521.259C476.416 521.084 476.416 533.54 481.419 533.366C486.422 533.191 486.422 520.71 491.425 520.511C496.427 520.312 496.427 532.793 501.43 532.593C506.433 532.394 506.433 519.913 511.436 519.714C516.439 519.515 516.439 531.971 521.442 531.771" stroke="white" stroke-width="3" stroke-miterlimit="10"/>
<path d="M171.568 448.641C176.571 448.964 176.571 461.42 181.574 461.719C186.576 462.018 186.576 449.537 191.579 449.811C196.582 450.085 196.582 462.541 201.585 462.791C206.588 463.04 206.588 450.559 211.59 450.783C216.593 451.007 216.593 463.463 221.596 463.687C226.599 463.887 226.599 451.406 231.602 451.605C236.605 451.779 236.605 464.26 241.607 464.41C246.61 464.559 246.61 452.103 251.613 452.228C256.616 452.352 256.616 464.833 261.619 464.958" stroke="white" stroke-width="3" stroke-miterlimit="10"/>
<path d="M691.24 440.743C696.243 440.519 696.243 453 701.245 452.776C706.248 452.552 706.248 440.071 711.251 439.871C716.254 439.647 716.254 452.128 721.257 451.904C726.259 451.705 726.26 439.224 731.262 439.024C736.265 438.825 736.265 451.281 741.268 451.082C746.271 450.882 746.271 438.402 751.274 438.202C756.276 438.003 756.276 450.484 761.279 450.285C766.282 450.085 766.282 437.629 771.285 437.455C776.288 437.281 776.288 449.736 781.291 449.587" stroke="white" stroke-width="3" stroke-miterlimit="10"/>
<path d="M951.063 434.64C956.066 434.69 956.066 447.171 961.069 447.245C966.071 447.32 966.072 434.839 971.074 434.939C976.077 435.039 976.077 447.494 981.08 447.619C986.083 447.719 986.083 435.263 991.086 435.387C996.088 435.512 996.088 447.993 1001.09 448.142C1006.09 448.292 1006.09 435.836 1011.1 435.985C1016.1 436.16 1016.1 448.64 1021.1 448.815C1026.11 449.014 1026.11 436.533 1031.11 436.757C1036.11 436.982 1036.11 449.438 1041.11 449.687" stroke="white" stroke-width="3" stroke-miterlimit="10"/>
<path d="M431.391 451.705C436.393 451.555 436.393 464.036 441.396 463.887C446.399 463.737 446.399 451.256 451.402 451.107C456.405 450.957 456.405 463.413 461.408 463.264C466.41 463.089 466.41 450.633 471.413 450.459C476.416 450.285 476.416 462.741 481.419 462.566C486.422 462.392 486.422 449.911 491.425 449.712C496.427 449.512 496.427 461.993 501.43 461.794C506.433 461.595 506.433 449.114 511.436 448.914C516.439 448.715 516.439 461.171 521.442 460.972" stroke="white" stroke-width="3" stroke-miterlimit="10"/>
<path d="M171.568 377.841C176.571 378.165 176.571 390.621 181.574 390.92C186.576 391.219 186.576 378.738 191.579 379.012C196.582 379.286 196.582 391.742 201.585 391.991C206.588 392.24 206.588 379.759 211.59 379.983C216.593 380.208 216.593 392.664 221.596 392.888C226.599 393.087 226.599 380.606 231.602 380.806C236.605 380.98 236.605 393.461 241.607 393.61C246.61 393.76 246.61 381.304 251.613 381.428C256.616 381.553 256.616 394.034 261.619 394.158" stroke="#1021D7" stroke-width="3" stroke-miterlimit="10"/>
<path d="M691.24 369.944C696.243 369.72 696.243 382.201 701.245 381.976C706.248 381.752 706.248 369.271 711.251 369.072C716.254 368.848 716.254 381.329 721.257 381.104C726.259 380.905 726.26 368.424 731.262 368.225C736.265 368.026 736.265 380.482 741.268 380.282C746.271 380.083 746.271 367.602 751.274 367.403C756.276 367.204 756.276 379.684 761.279 379.485C766.282 379.286 766.282 366.83 771.285 366.656C776.288 366.481 776.288 378.937 781.291 378.788" stroke="#1021D7" stroke-width="3" stroke-miterlimit="10"/>
<path d="M951.063 363.841C956.066 363.89 956.066 376.371 961.069 376.446C966.071 376.521 966.072 364.04 971.074 364.14C976.077 364.239 976.077 376.695 981.08 376.82C986.083 376.919 986.083 364.463 991.086 364.588C996.088 364.712 996.088 377.193 1001.09 377.343C1006.09 377.492 1006.09 365.011 1011.1 365.186C1016.1 365.36 1016.1 377.841 1021.1 378.015C1026.11 378.215 1026.11 365.734 1031.11 365.958C1036.11 366.182 1036.11 378.638 1041.11 378.887" stroke="#1021D7" stroke-width="3" stroke-miterlimit="10"/>
<path d="M431.391 380.905C436.393 380.756 436.393 393.237 441.396 393.087C446.399 392.938 446.399 380.457 451.402 380.307C456.405 380.158 456.405 392.614 461.408 392.464C466.41 392.29 466.41 379.834 471.413 379.66C476.416 379.485 476.416 391.941 481.419 391.767C486.422 391.592 486.422 379.112 491.425 378.912C496.427 378.713 496.427 391.194 501.43 390.994C506.433 390.795 506.433 378.314 511.436 378.115C516.439 377.916 516.439 390.372 521.442 390.172" stroke="#1021D7" stroke-width="3" stroke-miterlimit="10"/>
<path d="M171.568 307.042C176.571 307.365 176.571 319.821 181.574 320.12C186.576 320.419 186.576 307.938 191.579 308.212C196.582 308.486 196.582 320.942 201.585 321.191C206.588 321.441 206.588 308.96 211.59 309.184C216.593 309.408 216.593 321.864 221.596 322.088C226.599 322.288 226.599 309.807 231.602 310.006C236.605 310.18 236.605 322.661 241.607 322.811C246.61 322.96 246.61 310.504 251.613 310.629C256.616 310.753 256.616 323.234 261.619 323.359" stroke="#1021D7" stroke-width="3" stroke-miterlimit="10"/>
<path d="M691.24 299.144C696.243 298.92 696.243 311.401 701.245 311.177C706.248 310.953 706.248 298.472 711.251 298.273C716.254 298.048 716.254 310.529 721.257 310.305C726.259 310.081 726.26 297.625 731.262 297.426C736.265 297.226 736.265 309.682 741.268 309.483C746.271 309.284 746.271 296.803 751.274 296.603C756.276 296.404 756.276 308.885 761.279 308.686C766.282 308.511 766.282 296.03 771.285 295.856C776.288 295.682 776.288 308.138 781.291 307.988" stroke="#1021D7" stroke-width="3" stroke-miterlimit="10"/>
<path d="M951.063 293.016C956.066 293.066 956.066 305.547 961.069 305.622C966.071 305.696 966.072 293.215 971.074 293.315C976.077 293.415 976.077 305.871 981.08 305.995C986.083 306.095 986.083 293.639 991.086 293.763C996.088 293.888 996.088 306.369 1001.09 306.518C1006.09 306.668 1006.09 294.187 1011.1 294.361C1016.1 294.536 1016.1 306.992 1021.1 307.191C1026.11 307.39 1026.11 294.909 1031.11 295.134C1036.11 295.358 1036.11 307.814 1041.11 308.063" stroke="#1021D7" stroke-width="3" stroke-miterlimit="10"/>
<path d="M431.391 310.081C436.393 309.931 436.393 322.412 441.396 322.263C446.399 322.113 446.399 309.632 451.402 309.483C456.405 309.333 456.405 321.789 461.408 321.64C466.41 321.466 466.41 309.01 471.413 308.835C476.416 308.661 476.416 321.117 481.419 320.942C486.422 320.768 486.422 308.287 491.425 308.088C496.427 307.889 496.427 320.369 501.43 320.17C506.433 319.971 506.433 307.49 511.436 307.291C516.439 307.091 516.439 319.547 521.442 319.348" stroke="#1021D7" stroke-width="3" stroke-miterlimit="10"/>
<path d="M171.568 236.217C176.571 236.541 176.571 248.997 181.574 249.296C186.576 249.595 186.576 237.114 191.579 237.388C196.582 237.662 196.582 250.118 201.585 250.367C206.588 250.616 206.588 238.136 211.59 238.36C216.593 238.584 216.593 251.04 221.596 251.264C226.599 251.463 226.599 238.982 231.602 239.182C236.605 239.356 236.605 251.837 241.607 251.986C246.61 252.136 246.61 239.68 251.613 239.805C256.616 239.929 256.616 252.41 261.619 252.535" stroke="#1021D7" stroke-width="3" stroke-miterlimit="10"/>
<path d="M691.24 228.32C696.243 228.096 696.243 240.577 701.245 240.353C706.248 240.128 706.248 227.648 711.251 227.448C716.254 227.224 716.254 239.705 721.257 239.481C726.259 239.257 726.26 226.801 731.262 226.601C736.265 226.402 736.265 238.858 741.268 238.659C746.271 238.459 746.271 225.979 751.274 225.779C756.276 225.58 756.276 238.061 761.279 237.861C766.282 237.687 766.282 225.206 771.285 225.032C776.288 224.857 776.288 237.313 781.291 237.164" stroke="#1021D7" stroke-width="3" stroke-miterlimit="10"/>
<path d="M951.063 222.217C956.066 222.267 956.066 234.747 961.069 234.822C966.071 234.897 966.072 222.416 971.074 222.516C976.077 222.615 976.077 235.071 981.08 235.196C986.083 235.296 986.083 222.84 991.086 222.964C996.088 223.089 996.088 235.57 1001.09 235.719C1006.09 235.868 1006.09 223.388 1011.1 223.562C1016.1 223.736 1016.1 236.217 1021.1 236.392C1026.11 236.591 1026.11 224.11 1031.11 224.334C1036.11 224.559 1036.11 237.014 1041.11 237.264" stroke="#1021D7" stroke-width="3" stroke-miterlimit="10"/>
<path d="M431.391 239.281C436.393 239.132 436.393 251.613 441.396 251.463C446.399 251.314 446.399 238.833 451.402 238.683C456.405 238.534 456.405 250.99 461.408 250.84C466.41 250.666 466.41 238.21 471.413 238.036C476.416 237.861 476.416 250.342 481.419 250.143C486.422 249.969 486.422 237.488 491.425 237.288C496.427 237.089 496.427 249.57 501.43 249.371C506.433 249.171 506.433 236.691 511.436 236.491C516.439 236.292 516.439 248.748 521.442 248.549" stroke="#1021D7" stroke-width="3" stroke-miterlimit="10"/>
<path d="M171.568 165.418C176.571 165.742 176.571 178.197 181.574 178.496C186.576 178.795 186.576 166.315 191.579 166.589C196.582 166.863 196.582 179.319 201.585 179.568C206.588 179.817 206.588 167.336 211.59 167.56C216.593 167.784 216.593 180.24 221.596 180.464C226.599 180.664 226.599 168.183 231.602 168.382C236.605 168.557 236.605 181.037 241.607 181.187C246.61 181.336 246.61 168.88 251.613 169.005C256.616 169.13 256.616 181.61 261.619 181.735" stroke="#1021D7" stroke-width="3" stroke-miterlimit="10"/>
<path d="M691.24 157.521C696.243 157.296 696.243 169.777 701.245 169.553C706.248 169.329 706.248 156.848 711.251 156.649C716.254 156.425 716.254 168.905 721.257 168.681C726.259 168.457 726.26 156.001 731.262 155.802C736.265 155.602 736.265 168.058 741.268 167.859C746.271 167.66 746.271 155.179 751.274 154.98C756.276 154.78 756.276 167.261 761.279 167.062C766.282 166.888 766.282 154.407 771.285 154.232C776.288 154.058 776.288 166.514 781.291 166.364" stroke="#1021D7" stroke-width="3" stroke-miterlimit="10"/>
<path d="M951.063 151.417C956.066 151.467 956.066 163.948 961.069 164.023C966.071 164.097 966.072 151.617 971.074 151.716C976.077 151.816 976.077 164.272 981.08 164.396C986.083 164.496 986.083 152.04 991.086 152.165C996.088 152.289 996.088 164.77 1001.09 164.919C1006.09 165.069 1006.09 152.588 1011.1 152.762C1016.1 152.937 1016.1 165.418 1021.1 165.592C1026.11 165.791 1026.11 153.311 1031.11 153.535C1036.11 153.759 1036.11 166.215 1041.11 166.464" stroke="#1021D7" stroke-width="3" stroke-miterlimit="10"/>
<path d="M431.391 168.482C436.393 168.332 436.393 180.813 441.396 180.664C446.399 180.514 446.399 168.033 451.402 167.884C456.405 167.734 456.405 180.19 461.408 180.041C466.41 179.867 466.41 167.411 471.413 167.236C476.416 167.062 476.416 179.543 481.419 179.343C486.422 179.169 486.422 166.688 491.425 166.489C496.427 166.29 496.427 178.77 501.43 178.571C506.433 178.372 506.433 165.891 511.436 165.692C516.439 165.492 516.439 177.948 521.442 177.749" stroke="#1021D7" stroke-width="3" stroke-miterlimit="10"/>
<path d="M295.468 203.931C300.471 203.981 300.471 216.462 305.474 216.487C310.477 216.512 310.477 204.056 315.48 204.081C320.482 204.106 320.482 216.562 325.485 216.587C330.488 216.587 330.488 204.106 335.491 204.106C340.494 204.081 340.494 216.562 345.497 216.537C350.499 216.512 350.499 204.031 355.502 204.006C360.505 203.956 360.505 216.437 365.508 216.387C370.511 216.338 370.511 203.857 375.514 203.782C380.516 203.707 380.516 216.188 385.519 216.088" stroke="white" stroke-width="3" stroke-miterlimit="10"/>
<path d="M815.141 186.917C820.143 186.767 820.144 199.248 825.146 199.123C830.149 198.999 830.149 186.518 835.152 186.418C840.155 186.294 840.155 198.775 845.158 198.675C850.16 198.575 850.16 186.095 855.163 185.995C860.166 185.895 860.166 198.376 865.169 198.301C870.172 198.227 870.172 185.746 875.175 185.671C880.177 185.596 880.177 198.077 885.18 198.027C890.183 197.977 890.183 185.497 895.186 185.472C900.189 185.447 900.189 197.903 905.192 197.878" stroke="white" stroke-width="3" stroke-miterlimit="10"/>
<path d="M555.317 197.878C560.32 197.654 560.32 210.11 565.323 209.885C570.325 209.661 570.325 197.18 575.328 196.956C580.331 196.732 580.331 209.188 585.334 208.964C590.337 208.739 590.337 196.259 595.34 196.01C600.342 195.76 600.342 208.241 605.345 208.017C610.348 207.768 610.348 195.312 615.351 195.063C620.354 194.814 620.354 207.295 625.357 207.045C630.359 206.796 630.359 194.34 635.362 194.091C640.365 193.842 640.365 206.323 645.368 206.099" stroke="white" stroke-width="3" stroke-miterlimit="10"/>
<path d="M295.468 276.051C300.471 276.101 300.471 288.582 305.474 288.607C310.477 288.632 310.477 276.176 315.48 276.201C320.482 276.226 320.482 288.681 325.485 288.706C330.488 288.706 330.488 276.226 335.491 276.226C340.494 276.201 340.494 288.681 345.497 288.657C350.499 288.632 350.499 276.151 355.502 276.126C360.505 276.076 360.505 288.557 365.508 288.507C370.511 288.457 370.511 275.976 375.514 275.902C380.516 275.827 380.516 288.308 385.519 288.208" stroke="white" stroke-width="3" stroke-miterlimit="10"/>
<path d="M815.141 259.036C820.143 258.887 820.144 271.368 825.146 271.243C830.149 271.119 830.149 258.638 835.152 258.538C840.155 258.414 840.155 270.895 845.158 270.795C850.16 270.695 850.16 258.214 855.163 258.115C860.166 258.015 860.166 270.496 865.169 270.421C870.172 270.346 870.172 257.866 875.175 257.791C880.177 257.716 880.177 270.197 885.18 270.147C890.183 270.097 890.183 257.617 895.186 257.592C900.189 257.567 900.189 270.023 905.192 269.998" stroke="white" stroke-width="3" stroke-miterlimit="10"/>
<path d="M555.317 269.998C560.32 269.773 560.32 282.254 565.323 282.005C570.325 281.781 570.325 269.3 575.328 269.076C580.331 268.852 580.331 281.308 585.334 281.083C590.337 280.859 590.337 268.378 595.34 268.129C600.342 267.88 600.342 280.361 605.345 280.137C610.348 279.912 610.348 267.432 615.351 267.183C620.354 266.933 620.354 279.414 625.357 279.165C630.359 278.916 630.359 266.46 635.362 266.211C640.365 265.962 640.365 278.443 645.368 278.218" stroke="white" stroke-width="3" stroke-miterlimit="10"/>
<path d="M295.468 346.851C300.471 346.901 300.471 359.381 305.474 359.406C310.477 359.431 310.477 346.975 315.48 347C320.482 347.025 320.482 359.481 325.485 359.506C330.488 359.506 330.488 347.025 335.491 347.025C340.494 347 340.494 359.481 345.497 359.456C350.499 359.431 350.499 346.95 355.502 346.925C360.505 346.876 360.505 359.357 365.508 359.307C370.511 359.257 370.511 346.776 375.514 346.701C380.516 346.627 380.516 359.107 385.519 359.008" stroke="#1021D7" stroke-width="3" stroke-miterlimit="10"/>
<path d="M815.141 329.836C820.143 329.686 820.144 342.167 825.146 342.043C830.149 341.918 830.149 329.437 835.152 329.338C840.155 329.213 840.155 341.694 845.158 341.594C850.16 341.495 850.16 329.014 855.163 328.914C860.166 328.815 860.166 341.295 865.169 341.221C870.172 341.146 870.172 328.665 875.175 328.59C880.177 328.516 880.177 340.996 885.18 340.947C890.183 340.897 890.183 328.416 895.186 328.391C900.189 328.366 900.189 340.822 905.192 340.797" stroke="#1021D7" stroke-width="3" stroke-miterlimit="10"/>
<path d="M555.317 340.797C560.32 340.573 560.32 353.054 565.323 352.805C570.325 352.58 570.325 340.1 575.328 339.875C580.331 339.651 580.331 352.107 585.334 351.883C590.337 351.659 590.337 339.178 595.34 338.929C600.342 338.68 600.342 351.16 605.345 350.936C610.348 350.687 610.348 338.231 615.351 337.982C620.354 337.733 620.354 350.214 625.357 349.965C630.359 349.716 630.359 337.26 635.362 337.011C640.365 336.761 640.365 349.242 645.368 349.018" stroke="#1021D7" stroke-width="3" stroke-miterlimit="10"/>
<path d="M295.468 417.675C300.471 417.725 300.471 430.206 305.474 430.231C310.477 430.255 310.477 417.799 315.48 417.824C320.482 417.849 320.482 430.305 325.485 430.33C330.488 430.33 330.488 417.849 335.491 417.849C340.494 417.824 340.494 430.305 345.497 430.28C350.499 430.255 350.499 417.775 355.502 417.75C360.505 417.7 360.505 430.181 365.508 430.131C370.511 430.081 370.511 417.6 375.514 417.525C380.516 417.451 380.516 429.932 385.519 429.832" stroke="#1021D7" stroke-width="3" stroke-miterlimit="10"/>
<path d="M815.141 400.635C820.143 400.486 820.144 412.967 825.146 412.842C830.149 412.718 830.149 400.237 835.152 400.137C840.155 400.013 840.155 412.493 845.158 412.394C850.16 412.294 850.16 399.813 855.163 399.714C860.166 399.614 860.166 412.095 865.169 412.02C870.172 411.945 870.172 399.465 875.175 399.39C880.177 399.315 880.177 411.796 885.18 411.746C890.183 411.696 890.183 399.215 895.186 399.19C900.189 399.166 900.189 411.621 905.192 411.597" stroke="#1021D7" stroke-width="3" stroke-miterlimit="10"/>
<path d="M555.317 411.621C560.32 411.397 560.32 423.853 565.323 423.629C570.325 423.405 570.325 410.924 575.328 410.7C580.331 410.475 580.331 422.931 585.334 422.707C590.337 422.483 590.337 410.002 595.34 409.753C600.342 409.529 600.342 421.985 605.345 421.76C610.348 421.511 610.348 409.055 615.351 408.806C620.354 408.557 620.354 421.038 625.357 420.789C630.359 420.54 630.359 408.084 635.362 407.835C640.365 407.586 640.365 420.066 645.368 419.842" stroke="#1021D7" stroke-width="3" stroke-miterlimit="10"/>
<path d="M295.468 488.475C300.471 488.524 300.471 501.005 305.474 501.03C310.477 501.055 310.477 488.599 315.48 488.624C320.482 488.649 320.482 501.105 325.485 501.13C330.488 501.13 330.488 488.649 335.491 488.649C340.494 488.624 340.494 501.105 345.497 501.08C350.499 501.055 350.499 488.574 355.502 488.549C360.505 488.499 360.505 500.98 365.508 500.93C370.511 500.881 370.511 488.4 375.514 488.325C380.516 488.25 380.516 500.731 385.519 500.631" stroke="#1021D7" stroke-width="3" stroke-miterlimit="10"/>
<path d="M815.141 471.435C820.143 471.31 820.144 483.766 825.146 483.642C830.149 483.517 830.149 471.036 835.152 470.937C840.155 470.812 840.155 483.293 845.158 483.193C850.16 483.094 850.16 470.613 855.163 470.513C860.166 470.414 860.166 482.894 865.169 482.82C870.172 482.745 870.172 470.264 875.175 470.189C880.177 470.115 880.177 482.595 885.18 482.546C890.183 482.496 890.183 470.015 895.186 469.99C900.189 469.965 900.189 482.421 905.192 482.396" stroke="#1021D7" stroke-width="3" stroke-miterlimit="10"/>
<path d="M555.317 482.421C560.32 482.197 560.32 494.678 565.323 494.428C570.325 494.204 570.325 481.723 575.328 481.499C580.331 481.275 580.331 493.731 585.334 493.507C590.337 493.282 590.337 480.802 595.34 480.553C600.342 480.328 600.342 492.784 605.345 492.56C610.348 492.311 610.348 479.855 615.351 479.606C620.354 479.357 620.354 491.838 625.357 491.588C630.359 491.339 630.359 478.883 635.362 478.634C640.365 478.385 640.365 490.866 645.368 490.642" stroke="#1021D7" stroke-width="3" stroke-miterlimit="10"/>
</svg>
