<svg width="548" height="438" viewBox="0 0 548 438" fill="none" xmlns="http://www.w3.org/2000/svg">
<rect width="548" height="438" fill="white"/>
<path d="M30.6753 106.301L5 362.773L463.25 414L485.962 150.479L30.6753 106.301Z" fill="white" stroke="#1021D7" stroke-miterlimit="10"/>
<path d="M272.982 200.43C282.247 200.43 289.757 192.942 289.757 183.706C289.757 174.469 282.247 166.982 272.982 166.982C263.718 166.982 256.208 174.469 256.208 183.706C256.208 192.942 263.718 200.43 272.982 200.43Z" fill="#FEDB31" stroke="#2727E5" stroke-miterlimit="10"/>
<path d="M331.698 206.465C340.963 206.465 348.473 198.977 348.473 189.741C348.473 180.505 340.963 173.017 331.698 173.017C322.434 173.017 314.924 180.505 314.924 189.741C314.924 198.977 322.434 206.465 331.698 206.465Z" fill="#FEDB31" stroke="#2727E5" stroke-miterlimit="10"/>
<path d="M389.029 212.047C398.293 212.047 405.804 204.559 405.804 195.323C405.804 186.086 398.293 178.599 389.029 178.599C379.765 178.599 372.254 186.086 372.254 195.323C372.254 204.559 379.765 212.047 389.029 212.047Z" fill="#FEDB31" stroke="#2727E5" stroke-miterlimit="10"/>
<path d="M106.135 183.938C115.399 183.938 122.91 176.45 122.91 167.214C122.91 157.977 115.399 150.49 106.135 150.49C96.8706 150.49 89.3604 157.977 89.3604 167.214C89.3604 176.45 96.8706 183.938 106.135 183.938Z" fill="#FC4141" stroke="#2727E5" stroke-miterlimit="10"/>
<path d="M159.38 189.741C168.644 189.741 176.155 182.254 176.155 173.017C176.155 163.781 168.644 156.293 159.38 156.293C150.115 156.293 142.605 163.781 142.605 173.017C142.605 182.254 150.115 189.741 159.38 189.741Z" fill="#FC4141" stroke="#2727E5" stroke-miterlimit="10"/>
<path d="M216.816 195.555C226.081 195.555 233.591 188.067 233.591 178.831C233.591 169.595 226.081 162.107 216.816 162.107C207.552 162.107 200.042 169.595 200.042 178.831C200.042 188.067 207.552 195.555 216.816 195.555Z" fill="#FC4141" stroke="#2727E5" stroke-miterlimit="10"/>
<path d="M267.384 250.38C276.648 250.38 284.158 242.892 284.158 233.656C284.158 224.42 276.648 216.932 267.384 216.932C258.119 216.932 250.609 224.42 250.609 233.656C250.609 242.892 258.119 250.38 267.384 250.38Z" fill="#FEDB31" stroke="#2727E5" stroke-miterlimit="10"/>
<path d="M326.111 256.415C335.375 256.415 342.885 248.928 342.885 239.691C342.885 230.455 335.375 222.967 326.111 222.967C316.846 222.967 309.336 230.455 309.336 239.691C309.336 248.928 316.846 256.415 326.111 256.415Z" fill="#FEDB31" stroke="#2727E5" stroke-miterlimit="10"/>
<path d="M383.431 261.997C392.695 261.997 400.205 254.509 400.205 245.273C400.205 236.037 392.695 228.549 383.431 228.549C374.166 228.549 366.656 236.037 366.656 245.273C366.656 254.509 374.166 261.997 383.431 261.997Z" fill="#FEDB31" stroke="#2727E5" stroke-miterlimit="10"/>
<path d="M100.536 233.877C109.801 233.877 117.311 226.39 117.311 217.154C117.311 207.917 109.801 200.43 100.536 200.43C91.2718 200.43 83.7615 207.917 83.7615 217.154C83.7615 226.39 91.2718 233.877 100.536 233.877Z" fill="#FEDB31" stroke="#2727E5" stroke-miterlimit="10"/>
<path d="M153.782 239.691C163.046 239.691 170.556 232.204 170.556 222.967C170.556 213.731 163.046 206.243 153.782 206.243C144.517 206.243 137.007 213.731 137.007 222.967C137.007 232.204 144.517 239.691 153.782 239.691Z" fill="#FEDB31" stroke="#2727E5" stroke-miterlimit="10"/>
<path d="M211.228 245.495C220.492 245.495 228.003 238.007 228.003 228.771C228.003 219.534 220.492 212.047 211.228 212.047C201.964 212.047 194.453 219.534 194.453 228.771C194.453 238.007 201.964 245.495 211.228 245.495Z" fill="#FEDB31" stroke="#2727E5" stroke-miterlimit="10"/>
<path d="M262.261 300.319C271.525 300.319 279.036 292.832 279.036 283.596C279.036 274.359 271.525 266.872 262.261 266.872C252.997 266.872 245.486 274.359 245.486 283.596C245.486 292.832 252.997 300.319 262.261 300.319Z" fill="#FEDB31" stroke="#2727E5" stroke-miterlimit="10"/>
<path d="M320.989 306.365C330.253 306.365 337.763 298.878 337.763 289.641C337.763 280.405 330.253 272.918 320.989 272.918C311.724 272.918 304.214 280.405 304.214 289.641C304.214 298.878 311.724 306.365 320.989 306.365Z" fill="#FEDB31" stroke="#2727E5" stroke-miterlimit="10"/>
<path d="M378.308 311.937C387.573 311.937 395.083 304.449 395.083 295.213C395.083 285.976 387.573 278.489 378.308 278.489C369.044 278.489 361.533 285.976 361.533 295.213C361.533 304.449 369.044 311.937 378.308 311.937Z" fill="#FEDB31" stroke="#2727E5" stroke-miterlimit="10"/>
<path d="M95.4141 283.828C104.678 283.828 112.189 276.34 112.189 267.104C112.189 257.867 104.678 250.38 95.4141 250.38C86.1497 250.38 78.6394 257.867 78.6394 267.104C78.6394 276.34 86.1497 283.828 95.4141 283.828Z" fill="#FEDB31" stroke="#2727E5" stroke-miterlimit="10"/>
<path d="M148.659 289.641C157.923 289.641 165.434 282.154 165.434 272.918C165.434 263.681 157.923 256.194 148.659 256.194C139.395 256.194 131.884 263.681 131.884 272.918C131.884 282.154 139.395 289.641 148.659 289.641Z" fill="#FEDB31" stroke="#2727E5" stroke-miterlimit="10"/>
<path d="M206.105 295.445C215.37 295.445 222.88 287.957 222.88 278.721C222.88 269.484 215.37 261.997 206.105 261.997C196.841 261.997 189.331 269.484 189.331 278.721C189.331 287.957 196.841 295.445 206.105 295.445Z" fill="#FEDB31" stroke="#2727E5" stroke-miterlimit="10"/>
<path d="M259.001 356.727C268.266 356.727 275.776 349.24 275.776 340.003C275.776 330.767 268.266 323.279 259.001 323.279C249.737 323.279 242.227 330.767 242.227 340.003C242.227 349.24 249.737 356.727 259.001 356.727Z" fill="#FEDB31" stroke="#2727E5" stroke-miterlimit="10"/>
<path d="M317.718 362.763C326.982 362.763 334.493 355.275 334.493 346.039C334.493 336.802 326.982 329.315 317.718 329.315C308.454 329.315 300.943 336.802 300.943 346.039C300.943 355.275 308.454 362.763 317.718 362.763Z" fill="#FEDB31" stroke="#2727E5" stroke-miterlimit="10"/>
<path d="M375.048 368.344C384.313 368.344 391.823 360.857 391.823 351.62C391.823 342.384 384.313 334.896 375.048 334.896C365.784 334.896 358.273 342.384 358.273 351.62C358.273 360.857 365.784 368.344 375.048 368.344Z" fill="#FEDB31" stroke="#2727E5" stroke-miterlimit="10"/>
<path d="M92.1541 340.235C101.418 340.235 108.929 332.748 108.929 323.511C108.929 314.275 101.418 306.787 92.1541 306.787C82.8897 306.787 75.3794 314.275 75.3794 323.511C75.3794 332.748 82.8897 340.235 92.1541 340.235Z" fill="#FEDB31" stroke="#2727E5" stroke-miterlimit="10"/>
<path d="M145.399 346.039C154.664 346.039 162.174 338.551 162.174 329.315C162.174 320.078 154.664 312.591 145.399 312.591C136.135 312.591 128.625 320.078 128.625 329.315C128.625 338.551 136.135 346.039 145.399 346.039Z" fill="#FEDB31" stroke="#2727E5" stroke-miterlimit="10"/>
<path d="M202.835 351.852C212.1 351.852 219.61 344.365 219.61 335.128C219.61 325.892 212.1 318.405 202.835 318.405C193.571 318.405 186.061 325.892 186.061 335.128C186.061 344.365 193.571 351.852 202.835 351.852Z" fill="#FEDB31" stroke="#2727E5" stroke-miterlimit="10"/>
<path d="M30.1672 106.259L37.6179 36.6406L131.884 44.0793L128.614 73.8131L148.659 74.7416L152.141 46.7382L351.744 62.6603L348.484 95.1902L372.254 97.0472L375.048 65.4564L492.027 75.6701L504.61 130.506H488.301L485.962 150.479L30.1672 106.259Z" fill="#1021D7"/>
<path d="M138.002 24H152.152L145.865 72.4203L131.186 71.5551L138.002 24Z" fill="#1021D7"/>
<path d="M357.861 45.145H373.238L367.904 93.5652L353.225 92.6895L357.861 45.145Z" fill="#1021D7"/>
<path d="M463.981 412.934L543.25 320.589L472.236 311.884L463.981 412.934Z" fill="#FEDB31" stroke="#1021D7" stroke-miterlimit="10"/>
<path d="M543.578 319.681L503.922 130.506H488.301L485.962 150.479L472.638 311.947L543.578 319.681Z" fill="#FEDB31" stroke="#1021D7" stroke-miterlimit="10"/>
</svg>
