<svg width="1140" height="1060" viewBox="0 0 1140 1060" fill="none" xmlns="http://www.w3.org/2000/svg">
<path d="M206.834 591.325C176.73 676.356 200.761 756.37 241.692 832.686C255.687 836.911 254.895 834.27 266.514 824.5C230.073 749.504 218.982 672.395 243.54 591.853L206.834 591.325Z" fill="#1021D7"/>
<path d="M402.777 554.355C443.18 634.897 427.599 712.269 396.439 793.339C387.461 798.357 380.067 797.564 372.409 793.075C399.344 714.118 400.664 636.217 366.335 559.372L402.777 554.355Z" fill="#1021D7"/>
<path d="M99.0929 587.892C244.332 650.476 383.497 631.463 517.381 541.943C520.022 535.87 521.078 529.532 517.909 522.93L493.087 503.917C489.654 501.276 487.541 497.843 486.485 493.882L414.922 220.041C333.588 180.43 255.423 191.257 180.691 248.032L138.968 541.151C138.439 544.584 136.327 547.489 133.422 548.809L98.3007 566.238C95.66 574.424 96.4522 581.554 99.0929 587.892Z" fill="#FC4141" stroke="#2727E5" stroke-width="3" stroke-miterlimit="10"/>
<path d="M514.477 542.735C514.477 542.735 518.174 530.588 515.006 523.986L490.447 505.237C487.278 502.86 484.901 499.163 483.845 495.202L413.074 224.529C332.797 185.447 255.688 196.01 181.748 252.257C297.147 190.2 448.724 577.064 514.477 542.735Z" fill="#F24040"/>
<path d="M267.834 824.763C274.436 832.685 274.964 845.096 258.328 858.828C241.691 872.559 220.301 888.668 213.7 880.746C207.098 872.823 217.925 843.776 234.297 830.044C250.934 816.312 261.232 816.84 267.834 824.763Z" fill="#1021D7"/>
<path d="M370.558 798.092C367.917 808.126 372.935 819.481 393.532 824.763C414.13 830.044 440.537 835.326 443.178 825.291C445.818 815.256 423.372 793.602 402.775 788.585C382.177 783.568 373.199 788.057 370.558 798.092Z" fill="#1021D7"/>
<path d="M98.8296 565.181C239.051 604.792 379.009 591.06 518.174 522.93C521.343 529.531 520.023 535.869 517.646 541.943C383.762 631.463 244.333 650.74 99.0937 587.891C96.453 581.289 95.3967 574.424 98.0374 566.237" fill="#F24040"/>
<path d="M98.8296 565.181C239.051 604.792 379.009 591.06 518.174 522.93C521.343 529.531 520.023 535.869 517.646 541.943C383.762 631.463 244.333 650.74 99.0937 587.891C96.453 581.289 95.3967 574.424 98.0374 566.237" stroke="#2727E5" stroke-width="3" stroke-miterlimit="10"/>
<path d="M879.158 889.989L880.478 920.621C880.742 923.79 883.383 926.167 886.552 926.167L1023.08 920.093C1026.25 919.829 1028.62 917.188 1028.62 914.019V912.171C1028.62 909.53 1026.51 907.153 1023.87 906.625L886.024 883.915C882.063 883.387 878.894 886.292 879.158 889.989Z" fill="#1021D7"/>
<path d="M781.716 894.478L783.036 925.11C783.3 928.279 780.66 930.92 777.491 931.184L640.966 937.257C637.797 937.522 635.157 934.881 634.893 931.712V929.864C634.893 927.223 636.477 924.846 639.118 924.054L774.322 888.933C778.019 888.14 781.716 890.781 781.716 894.478Z" fill="#1021D7"/>
<path d="M813.142 525.043L776.436 898.704C767.986 906.362 759.536 906.098 750.821 899.76L779.605 513.424L813.142 525.043Z" fill="#1021D7"/>
<path d="M885.232 521.874L883.119 894.214C891.569 900.815 899.492 900.287 907.414 893.157L923.258 507.35L885.232 521.874Z" fill="#1021D7"/>
<path d="M920.884 249.089L922.996 272.327C1014.36 234.565 1070.08 386.142 935.936 406.211L939.897 461.666C944.65 461.93 947.555 430.77 952.308 430.506C1074.04 423.904 1082.23 206.574 920.884 249.089Z" fill="white" stroke="#1021D7" stroke-width="3" stroke-miterlimit="10"/>
<path d="M755.838 253.578L756.895 276.816C661.037 252.257 627.236 410.172 762.968 411.228L760.592 460.345C755.574 461.401 753.99 437.635 748.972 437.899C628.556 446.878 590.53 234.3 755.838 253.578Z" fill="white" stroke="#1021D7" stroke-width="3" stroke-miterlimit="10"/>
<path d="M751.878 151.118C754.519 109.131 908.736 92.7586 916.13 127.352L945.178 489.393C939.368 532.437 766.93 546.696 758.216 497.843L751.878 151.118Z" fill="#FEDB31" stroke="#2727E5" stroke-width="3" stroke-miterlimit="10"/>
<path d="M738.675 167.491C810.502 194.955 884.97 196.803 961.551 177.262" stroke="white" stroke-width="3" stroke-miterlimit="10"/>
<path d="M736.561 216.872C817.102 233.772 892.362 239.318 959.436 226.642" stroke="white" stroke-width="3" stroke-miterlimit="10"/>
<path d="M734.977 301.639C817.103 329.366 890.778 330.158 957.852 311.409" stroke="white" stroke-width="3" stroke-miterlimit="10"/>
<path d="M729.695 424.432C803.107 454.536 867.276 456.648 942.536 433.938" stroke="white" stroke-width="3" stroke-miterlimit="10"/>
<path d="M719.133 484.112C792.28 518.969 872.822 517.649 957.325 494.675" stroke="white" stroke-width="3" stroke-miterlimit="10"/>
<path d="M723.356 456.12C798.881 485.696 877.31 488.073 958.38 466.683" stroke="white" stroke-width="3" stroke-miterlimit="10"/>
<path d="M718.075 221.361C797.561 225.058 871.5 213.967 937.518 181.486" stroke="white" stroke-width="3" stroke-miterlimit="10"/>
<path d="M726.792 269.686C818.689 269.95 892.364 257.01 946.235 229.811" stroke="white" stroke-width="3" stroke-miterlimit="10"/>
<path d="M732.864 297.942C801.523 299.79 874.934 286.058 952.307 258.067" stroke="white" stroke-width="3" stroke-miterlimit="10"/>
<path d="M745.803 360.79C814.197 384.293 887.345 371.617 965.246 320.916" stroke="white" stroke-width="3" stroke-miterlimit="10"/>
<path d="M755.311 415.454C832.419 429.713 905.303 412.549 974.754 372.146" stroke="white" stroke-width="3" stroke-miterlimit="10"/>
<path d="M144.514 502.597C149.531 504.445 152.964 509.198 152.964 515.008C152.964 522.138 147.418 527.947 140.289 528.212" fill="white"/>
<path d="M144.514 502.597C149.531 504.445 152.964 509.198 152.964 515.008C152.964 522.138 147.418 527.947 140.289 528.212" stroke="#1021D7" stroke-width="3" stroke-miterlimit="10"/>
<path d="M155.606 440.276C160.623 442.124 164.32 446.878 164.32 452.687C164.32 460.081 158.511 465.891 151.117 466.155" fill="white"/>
<path d="M155.606 440.276C160.623 442.124 164.32 446.878 164.32 452.687C164.32 460.081 158.511 465.891 151.117 466.155" stroke="#1021D7" stroke-width="3" stroke-miterlimit="10"/>
<path d="M185.446 468.795C192.738 468.795 198.65 462.884 198.65 455.592C198.65 448.3 192.738 442.388 185.446 442.388C178.154 442.388 172.243 448.3 172.243 455.592C172.243 462.884 178.154 468.795 185.446 468.795Z" fill="white" stroke="#1021D7" stroke-width="3" stroke-miterlimit="10"/>
<path d="M240.635 455.592C247.927 455.592 253.839 449.68 253.839 442.388C253.839 435.096 247.927 429.185 240.635 429.185C233.343 429.185 227.432 435.096 227.432 442.388C227.432 449.68 233.343 455.592 240.635 455.592Z" fill="white" stroke="#1021D7" stroke-width="3" stroke-miterlimit="10"/>
<path d="M255.688 536.133C262.98 536.133 268.891 530.222 268.891 522.93C268.891 515.638 262.98 509.726 255.688 509.726C248.396 509.726 242.484 515.638 242.484 522.93C242.484 530.222 248.396 536.133 255.688 536.133Z" fill="white" stroke="#1021D7" stroke-width="3" stroke-miterlimit="10"/>
<path d="M339.662 534.286C346.954 534.286 352.865 528.374 352.865 521.082C352.865 513.79 346.954 507.878 339.662 507.878C332.369 507.878 326.458 513.79 326.458 521.082C326.458 528.374 332.369 534.286 339.662 534.286Z" fill="white" stroke="#1021D7" stroke-width="3" stroke-miterlimit="10"/>
<path d="M425.222 497.051C432.514 497.051 438.426 491.14 438.426 483.848C438.426 476.555 432.514 470.644 425.222 470.644C417.93 470.644 412.019 476.555 412.019 483.848C412.019 491.14 417.93 497.051 425.222 497.051Z" fill="white" stroke="#1021D7" stroke-width="3" stroke-miterlimit="10"/>
<path d="M482.525 477.774C481.204 478.038 480.148 478.302 478.828 478.302C471.434 478.302 465.624 472.493 465.624 465.099C465.624 458.761 470.113 453.48 475.923 452.159" fill="white"/>
<path d="M482.525 477.774C481.204 478.038 480.148 478.302 478.828 478.302C471.434 478.302 465.624 472.493 465.624 465.099C465.624 458.761 470.113 453.48 475.923 452.159" stroke="#1021D7" stroke-width="3" stroke-miterlimit="10"/>
<path d="M458.231 385.349C456.383 386.405 454.27 386.933 452.158 386.933C444.764 386.933 438.954 381.123 438.954 373.729C438.954 366.335 444.764 360.526 452.158 360.526" fill="white"/>
<path d="M458.231 385.349C456.383 386.405 454.27 386.933 452.158 386.933C444.764 386.933 438.954 381.123 438.954 373.729C438.954 366.335 444.764 360.526 452.158 360.526" stroke="#1021D7" stroke-width="3" stroke-miterlimit="10"/>
<path d="M315.104 442.388C322.396 442.388 328.307 436.477 328.307 429.185C328.307 421.892 322.396 415.981 315.104 415.981C307.812 415.981 301.9 421.892 301.9 429.185C301.9 436.477 307.812 442.388 315.104 442.388Z" fill="white" stroke="#1021D7" stroke-width="3" stroke-miterlimit="10"/>
<path d="M914.809 127.352C907.679 95.1354 755.839 111.244 753.462 150.854C756.895 191.521 916.13 173.829 914.809 127.352Z" fill="#F4CF31"/>
<path d="M383.234 411.228C390.526 411.228 396.437 405.317 396.437 398.025C396.437 390.733 390.526 384.821 383.234 384.821C375.942 384.821 370.03 390.733 370.03 398.025C370.03 405.317 375.942 411.228 383.234 411.228Z" fill="white" stroke="#1021D7" stroke-width="3" stroke-miterlimit="10"/>
<path d="M185.446 536.133C192.738 536.133 198.65 530.222 198.65 522.93C198.65 515.638 192.738 509.726 185.446 509.726C178.154 509.726 172.243 515.638 172.243 522.93C172.243 530.222 178.154 536.133 185.446 536.133Z" fill="white" stroke="#1021D7" stroke-width="3" stroke-miterlimit="10"/>
<path opacity="0.08" d="M350.867 955.625C384.36 947.091 409.469 932.153 406.948 922.26C404.427 912.368 375.233 911.267 341.739 919.801C308.246 928.335 283.138 943.272 285.659 953.165C288.179 963.057 317.374 964.159 350.867 955.625Z" fill="#1021D7"/>
<path d="M794.393 110.187C795.977 94.079 864.107 88.0054 867.012 101.209L871.237 149.534C868.332 166.17 800.202 171.188 796.769 152.175L794.393 110.187Z" fill="white" stroke="#1021D7" stroke-width="3" stroke-miterlimit="10"/>
<path d="M830.809 110.698C845.505 109.703 857.307 107.245 857.169 105.208C857.031 103.171 845.005 102.326 830.309 103.321C815.613 104.316 803.811 106.774 803.949 108.811C804.087 110.848 816.112 111.693 830.809 110.698Z" fill="#1021D7"/>
</svg>
