<svg width="1140" height="1060" viewBox="0 0 1140 1060" fill="none" xmlns="http://www.w3.org/2000/svg">
<path d="M554.933 349.404C549.572 349.404 531.625 350.104 495.499 351.503C300.181 359.198 267.783 364.561 232.822 380.883C187.605 401.869 159.869 431.016 141.922 450.137C86.45 509.364 15.5949 628.051 50.0902 717.125C85.5177 808.764 216.973 829.05 361.48 851.202C420.681 860.296 566.121 844.44 854.436 812.261C884.036 808.997 940.208 802.002 996.146 764.693C1014.56 752.335 1094.27 699.17 1097.77 620.823C1101.03 548.771 1037.87 495.607 1000.34 463.894C859.797 345.44 665.178 348.005 554.933 349.404Z" fill="#1021D7"/>
<path d="M588.263 350.803C583.834 350.803 568.451 351.503 537.452 352.669C370.803 359.198 343.067 363.861 313.466 377.619C274.775 395.573 251.235 420.29 236.085 436.613C188.77 487.212 128.17 588.411 157.771 664.427C188.071 742.541 299.947 759.796 423.245 778.917C473.822 786.612 597.819 773.088 843.714 745.806C869.119 743.008 916.9 737.178 964.447 705.233C980.297 694.74 1048.12 649.27 1051.15 582.582C1053.95 521.256 1000.11 475.786 968.177 448.738C848.142 347.306 682.192 349.404 588.263 350.803Z" fill="white" stroke="#1021D7" stroke-width="3" stroke-miterlimit="10"/>
<path d="M945.801 504.234V532.682L871.217 585.147L692.214 557.632V497.006L874.946 447.805L945.801 504.234Z" fill="white" stroke="#1021D7" stroke-width="3" stroke-miterlimit="10"/>
<path d="M526.032 341.476V382.516L599.451 413.995L725.545 391.61V350.104L571.948 264.528L526.032 341.476Z" fill="white" stroke="#1021D7" stroke-width="3" stroke-miterlimit="10"/>
<path d="M392.246 480.45V509.131L488.507 560.663L563.557 533.615V489.078L539.783 445.474L392.246 480.45Z" fill="#1021D7"/>
<path d="M200.891 608.231V665.593L312.767 699.87L408.561 677.951V613.594L380.825 572.089L200.891 608.231Z" fill="white" stroke="#1021D7" stroke-width="3" stroke-miterlimit="10"/>
<path d="M503.889 624.554V692.408H611.803L693.38 646.472V601.003L564.722 576.053L503.889 624.554Z" fill="white" stroke="#1021D7" stroke-width="3" stroke-miterlimit="10"/>
<path d="M737.199 689.377V725.52H880.307V693.574L810.385 615.227L737.199 689.377Z" fill="#FEDB31" stroke="#2727E5" stroke-width="3" stroke-miterlimit="10"/>
<path opacity="0.08" d="M612.27 642.975L611.803 692.409H503.889L477.785 667.692L503.889 639.711L502.025 635.98L554.001 591.676L612.27 642.975Z" fill="#1021D7"/>
<path d="M526.265 354.068L512.513 336.347L570.782 249.372L693.38 237.247L752.582 354.068L633.713 378.552L615.533 382.516L572.414 275.488L526.265 354.068Z" fill="#FC4141" stroke="#2727E5" stroke-width="3" stroke-miterlimit="10"/>
<path d="M375.464 483.715L441.891 381.583L542.58 421.223L580.804 495.14L562.158 503.068L542.58 461.096L492.702 540.61L375.464 483.715Z" fill="#FC4141" stroke="#2727E5" stroke-width="3" stroke-miterlimit="10"/>
<path d="M406.697 625.254L420.448 611.496L383.855 560.663L248.438 529.651L181.312 620.124L321.391 653.934L376.63 586.779L406.697 625.254Z" fill="#FC4141" stroke="#2727E5" stroke-width="3" stroke-miterlimit="10"/>
<path d="M678.93 500.504L746.289 402.336L891.495 429.151L960.252 500.504L950.696 518.458L901.983 471.356L870.518 535.014L678.93 500.504Z" fill="#FC4141" stroke="#2727E5" stroke-width="3" stroke-miterlimit="10"/>
<path d="M300.88 435.214C316.713 435.214 329.549 422.373 329.549 406.533C329.549 390.693 316.713 377.852 300.88 377.852C285.047 377.852 272.212 390.693 272.212 406.533C272.212 422.373 285.047 435.214 300.88 435.214Z" fill="white" stroke="#1021D7" stroke-width="3" stroke-miterlimit="10"/>
<path d="M337.24 463.894C353.073 463.894 365.908 451.054 365.908 435.214C365.908 419.374 353.073 406.533 337.24 406.533C321.407 406.533 308.572 419.374 308.572 435.214C308.572 451.054 321.407 463.894 337.24 463.894Z" fill="white" stroke="#1021D7" stroke-width="3" stroke-miterlimit="10"/>
<path d="M233.288 458.065C249.121 458.065 261.956 445.224 261.956 429.384C261.956 413.544 249.121 400.703 233.288 400.703C217.455 400.703 204.62 413.544 204.62 429.384C204.62 445.224 217.455 458.065 233.288 458.065Z" fill="white" stroke="#1021D7" stroke-width="3" stroke-miterlimit="10"/>
<path d="M233.288 478.818V429.384" stroke="#1021D7" stroke-width="3" stroke-miterlimit="10"/>
<path d="M233.288 444.308L246.573 438.711" stroke="#1021D7" stroke-width="3" stroke-miterlimit="10"/>
<path d="M337.24 485.114V438.711" stroke="#1021D7" stroke-width="3" stroke-miterlimit="10"/>
<path d="M300.88 485.113V419.357" stroke="#1021D7" stroke-width="3" stroke-miterlimit="10"/>
<path d="M337.24 452.236L349.593 444.308" stroke="#1021D7" stroke-width="3" stroke-miterlimit="10"/>
<path d="M300.88 426.586L290.392 419.357" stroke="#1021D7" stroke-width="3" stroke-miterlimit="10"/>
<path d="M464.966 690.543C480.799 690.543 493.634 677.702 493.634 661.862C493.634 646.022 480.799 633.181 464.966 633.181C449.133 633.181 436.297 646.022 436.297 661.862C436.297 677.702 449.133 690.543 464.966 690.543Z" fill="white" stroke="#1021D7" stroke-width="3" stroke-miterlimit="10"/>
<path d="M890.096 389.045C905.929 389.045 918.764 376.204 918.764 360.364C918.764 344.524 905.929 331.683 890.096 331.683C874.263 331.683 861.428 344.524 861.428 360.364C861.428 376.204 874.263 389.045 890.096 389.045Z" fill="white" stroke="#1021D7" stroke-width="3" stroke-miterlimit="10"/>
<path d="M890.097 409.797V360.364" stroke="#1021D7" stroke-width="3" stroke-miterlimit="10"/>
<path d="M890.097 375.287L903.149 369.691" stroke="#1021D7" stroke-width="3" stroke-miterlimit="10"/>
<path d="M464.965 740.443V674.687" stroke="#1021D7" stroke-width="3" stroke-miterlimit="10"/>
<path d="M1020.85 574.654C1036.69 574.654 1049.52 561.813 1049.52 545.973C1049.52 530.133 1036.69 517.292 1020.85 517.292C1005.02 517.292 992.184 530.133 992.184 545.973C992.184 561.813 1005.02 574.654 1020.85 574.654Z" fill="white" stroke="#1021D7" stroke-width="3" stroke-miterlimit="10"/>
<path d="M1020.85 595.873V549.704" stroke="#1021D7" stroke-width="3" stroke-miterlimit="10"/>
<path d="M1020.85 562.995L1033.2 555.3" stroke="#1021D7" stroke-width="3" stroke-miterlimit="10"/>
<path d="M464.965 681.915L454.477 674.687" stroke="#1021D7" stroke-width="3" stroke-miterlimit="10"/>
<path opacity="0.08" d="M181.312 620.124L313.932 652.069L383.855 560.663L248.438 529.651L181.312 620.124Z" fill="#1021D7"/>
<path opacity="0.08" d="M480.115 534.547L542.58 421.223L441.891 381.583L375.464 483.715L480.115 534.547Z" fill="#1021D7"/>
<path opacity="0.08" d="M625.788 380.418L752.582 354.068L693.38 237.247L570.782 249.372L625.788 380.418Z" fill="#1021D7"/>
<path opacity="0.08" d="M891.495 429.151L832.76 531.516L678.93 500.504L746.289 402.336L891.495 429.151Z" fill="#1021D7"/>
<path opacity="0.08" d="M392.246 509.131L329.549 521.023L428.606 582.115L488.507 560.663L392.246 509.131Z" fill="#1021D7"/>
<path opacity="0.08" d="M312.766 699.87L244.708 719.69L153.809 681.915L200.89 665.593V624.787L321.39 653.934L312.766 699.87Z" fill="#1021D7"/>
<path opacity="0.08" d="M612.269 411.663L615.532 382.516L569.383 268.725L526.031 341.476L526.264 354.068L464.965 377.852L580.804 419.358L612.269 411.663Z" fill="#1021D7"/>
<path opacity="0.08" d="M737.198 725.52L699.207 715.96L728.342 690.31L737.198 689.377V725.52Z" fill="#1021D7"/>
<path opacity="0.08" d="M871.217 585.147C870.751 580.717 870.751 535.014 870.751 535.014L692.215 502.835L645.367 560.43L871.217 585.147Z" fill="#1021D7"/>
<path d="M493.634 629.683L558.896 558.798L635.811 517.292L703.17 596.339L604.579 646.939L554.001 591.676L496.664 640.41L493.634 629.683Z" fill="#FC4141" stroke="#2727E5" stroke-width="3" stroke-miterlimit="10"/>
<path opacity="0.08" d="M558.896 558.798L618.563 639.71L703.17 596.339L635.811 517.292L558.896 558.798Z" fill="#1021D7"/>
<path d="M719.251 686.579L733.003 705.233L808.52 630.616L887.066 705.233L901.75 691.476L815.046 592.142L719.251 686.579Z" fill="#FC4141" stroke="#2727E5" stroke-width="3" stroke-miterlimit="10"/>
<path d="M301.346 241.677C302.045 224.888 310.902 224.188 321.857 226.986C328.383 215.094 337.24 211.597 347.728 215.328" stroke="#1021D7" stroke-width="3" stroke-miterlimit="10"/>
<path d="M377.562 233.982C375.465 223.489 377.796 217.659 389.916 220.457C391.78 206.933 399.938 205.068 411.125 208.798" stroke="#1021D7" stroke-width="3" stroke-miterlimit="10"/>
<path d="M371.735 267.326C385.486 259.398 397.606 258.932 407.629 267.326C416.719 253.569 430.004 248.206 449.815 254.968" stroke="#1021D7" stroke-width="3" stroke-miterlimit="10"/>
<path d="M533.723 437.545C528.129 435.447 532.091 425.653 526.498 423.555C520.904 421.456 516.942 431.483 511.581 429.384C505.987 427.286 509.949 417.492 504.355 415.394C498.762 413.295 494.799 423.322 489.439 421.223C483.845 419.124 487.807 409.331 482.213 407.232C476.619 405.134 472.657 415.16 467.296 413.062C461.702 410.963 465.665 401.17 460.071 399.071C454.477 396.973 450.515 406.999 445.154 404.901C439.56 402.802 442.124 392.309 436.53 390.21" stroke="#1021D7" stroke-width="3" stroke-miterlimit="10"/>
<path d="M522.302 457.832C516.709 455.733 520.671 445.94 515.077 443.841C509.483 441.743 505.521 451.536 499.927 449.437C494.333 447.339 498.296 437.545 492.702 435.447C487.108 433.348 483.146 443.142 477.552 441.276C471.958 439.178 475.92 429.384 470.326 427.286C464.733 425.187 460.77 435.214 455.177 433.115C449.583 431.016 453.545 421.223 447.951 419.124C442.357 417.026 438.395 427.052 432.801 424.954C427.207 422.855 429.538 412.362 423.944 410.264" stroke="#1021D7" stroke-width="3" stroke-miterlimit="10"/>
<path d="M510.648 479.051C505.054 476.952 508.784 466.926 503.19 464.827C497.596 462.728 493.634 472.522 487.807 470.423C481.98 468.325 485.942 458.298 480.348 456.199C474.521 454.101 470.792 463.894 464.965 461.796C459.138 459.697 463.101 449.904 457.507 447.572C451.68 445.473 447.951 455.267 442.124 453.168C436.297 451.069 440.259 441.276 434.665 439.177C428.838 437.079 425.109 446.872 419.282 444.774C413.455 442.675 416.019 432.182 410.192 430.083" stroke="#1021D7" stroke-width="3" stroke-miterlimit="10"/>
<path d="M498.995 498.638C493.401 496.306 497.363 486.513 491.769 484.181C486.175 481.849 481.98 491.643 476.153 489.311C470.326 486.979 474.522 477.186 468.928 474.854C463.101 472.522 459.139 482.315 453.312 479.984C447.485 477.652 451.68 467.859 446.086 465.527C440.26 463.195 436.297 472.988 430.47 470.657C424.643 468.325 428.839 458.531 423.245 456.433C417.418 454.101 413.223 463.894 407.629 461.796C401.802 459.464 404.599 448.971 398.772 446.873" stroke="#1021D7" stroke-width="3" stroke-miterlimit="10"/>
<path d="M488.506 519.857C482.679 517.525 486.875 507.732 481.281 505.4C475.454 503.068 471.258 512.862 465.432 510.53C459.605 508.198 463.8 498.405 458.206 496.073C452.379 493.741 448.184 503.535 442.357 501.203C436.53 498.871 440.726 489.078 435.132 486.746C429.305 484.414 425.109 494.207 419.282 491.876C413.456 489.544 417.651 479.75 412.057 477.419C406.23 475.087 402.035 484.88 396.208 482.549C390.381 480.217 393.178 469.724 387.351 467.392" stroke="#1021D7" stroke-width="3" stroke-miterlimit="10"/>
</svg>
