<svg width="1000" height="800" viewBox="0 0 1000 800" fill="none" xmlns="http://www.w3.org/2000/svg">
<path d="M239.14 216.97L223.13 219.5C221.1 219.82 219.71 221.71 220.01 223.74C220.27 225.52 221.88 226.79 223.68 226.62L227.23 226.28L221.86 227.99C220.47 228.43 219.57 229.79 219.7 231.24C219.82 232.57 221.1 233.48 222.39 233.17L226.68 232.13L220.47 236.71C219.5 237.42 219.13 238.69 219.55 239.82C220 241.01 221.15 241.79 222.42 241.76L239.73 241.35L239.14 216.97Z" stroke="#2727E5" stroke-miterlimit="10" stroke-linecap="round" stroke-linejoin="round"/>
<path d="M798.88 220.07L806.98 218.38C808.31 218.1 809.61 218.96 809.88 220.3C810.12 221.52 809.41 222.73 808.23 223.11L798.89 226.09H809.14C810.49 226.09 811.59 227.19 811.59 228.54V228.97C811.59 230.23 810.63 231.29 809.37 231.41L801.73 232.12L809.59 233.57C810.75 233.78 811.59 234.8 811.59 235.98V236.02C811.59 237.13 810.84 238.1 809.77 238.38L801.73 240.51H798.26L798.88 220.07Z" stroke="#2727E5" stroke-miterlimit="10" stroke-linecap="round" stroke-linejoin="round"/>
<path d="M637.24 680.58L552.3 681.94L551.21 755.42L580.96 758.71L580.59 765.28H542.07L540.62 682.06L492.07 682.56L486.96 763.82L449.54 776.05L447.53 770.02L476.74 753.23L478.55 682.7L400.79 683.5V636.42H637.24V680.58Z" fill="#2727E5" stroke="#2727E5" stroke-miterlimit="10"/>
<path d="M239.14 216.54L278.55 232.54C307.38 244.24 340.21 240.16 365.3 221.74L401.93 194.85C403.89 193.41 405.68 191.77 407.28 189.94L448.26 143.04C459.24 130.48 474.97 123.07 491.64 122.61L549.08 122.44C569.04 121.89 588.06 130.9 600.27 146.69L640.56 197.34C645.17 203.3 650.5 208.68 656.41 213.35C684.37 235.47 721.4 242.48 755.51 232.13L798.88 218.97V257.42L672.33 283.22L604.67 216.54L608.56 286.14L431.88 280.3L432.85 215.08L359.35 277.38L239.13 244.77V216.54H239.14Z" fill="#FC4141" stroke="#2727E5" stroke-miterlimit="10"/>
<path d="M558.83 84.27C558.35 70.83 547.32 60.18 533.87 60.18H526.29C511.2 60.18 498.96 72.41 498.96 87.51V90.85L488.43 91.65C475.77 92.61 466.36 103.78 467.57 116.42C468.25 123.6 475.48 128.25 482.3 125.89L480.44 132.4C478.9 137.79 480.6 143.58 484.8 147.29C492.64 154.21 503.76 155.97 513.35 151.83C515.4 150.95 517.13 149.46 518.31 147.57L540.59 111.78L544.06 117.23C547.26 122.25 553.25 124.91 559.06 123.58C559.1 123.57 559.14 123.56 559.18 123.55L561.07 123.1C565.78 121.99 569.38 118.19 570.25 113.43L570.42 112.52C571.15 108.52 569.44 104.47 566.07 102.2L564.93 101.44L567.04 97.33C569.68 92.19 566.18 85.92 560.41 85.68C560.37 85.68 560.32 85.68 560.28 85.67L558.83 84.27Z" fill="#2727E5" stroke="#2727E5" stroke-miterlimit="10"/>
<path d="M508.08 86.83H557.36V102.87C557.36 117.4 546.39 129.18 532.87 129.18H531.69C518.65 129.18 508.08 117.83 508.08 103.82V86.83V86.83Z" fill="white" stroke="#2727E5" stroke-miterlimit="10"/>
<path d="M538.02 102.53V115.88" stroke="#2727E5" stroke-miterlimit="10"/>
<path d="M530.53 121.33H532.72" stroke="#2727E5" stroke-miterlimit="10"/>
<path d="M801.73 630.58C580.51 649.19 265.84 638.99 232.98 630.58V227.57C431.93 243.18 683.09 239.61 801.73 227.57V630.58Z" fill="#FEDB31" stroke="#2727E5" stroke-miterlimit="10"/>
<path d="M787.56 614.77L787.52 620.77C785.54 620.94 783.54 621.1 781.54 621.26" stroke="#2727E5" stroke-miterlimit="10"/>
<path d="M772.04 622.01C759.94 622.93 747.58 623.77 735.04 624.53" stroke="#2727E5" stroke-miterlimit="10" stroke-dasharray="1.91 1.91"/>
<path d="M733.14 624.65C541.89 636.08 307.09 629.1 255.06 622.15" stroke="#2727E5" stroke-miterlimit="10" stroke-dasharray="11.44 11.44"/>
<path d="M253.09 621.87C250.59 621.5 248.62 621.14 247.2 620.77V614.77" stroke="#2727E5" stroke-miterlimit="10"/>
<path d="M247.19 604.64V565.12" stroke="#2727E5" stroke-miterlimit="10" stroke-dasharray="2.03 2.03"/>
<path d="M247.19 563.09V245.93" stroke="#2727E5" stroke-miterlimit="10" stroke-dasharray="12.16 12.16"/>
<path d="M247.19 243.9V237.9C249.18 238.03 251.18 238.16 253.18 238.29" stroke="#2727E5" stroke-miterlimit="10"/>
<path d="M262.74 238.88C274.99 239.63 287.43 240.35 300.03 241.03" stroke="#2727E5" stroke-miterlimit="10" stroke-dasharray="1.92 1.92"/>
<path d="M301.94 241.14C474.08 250.37 674.13 252.33 782.21 238.92" stroke="#2727E5" stroke-miterlimit="10" stroke-dasharray="11.49 11.49"/>
<path d="M784.1 238.68C786.12 238.42 788.1 238.16 790.05 237.9L790.01 243.9" stroke="#2727E5" stroke-miterlimit="10"/>
<path d="M789.94 254.03L789.68 293.55" stroke="#2727E5" stroke-miterlimit="10" stroke-dasharray="2.03 2.03"/>
<path d="M789.67 295.58L787.57 612.75" stroke="#2727E5" stroke-miterlimit="10" stroke-dasharray="12.16 12.16"/>
<path d="M40.2 60.73H0.5V100.43H40.2V60.73Z" fill="white" stroke="#2727E5" stroke-miterlimit="10"/>
<path d="M84.77 349.43C98.2292 349.43 109.14 338.519 109.14 325.06C109.14 311.601 98.2292 300.69 84.77 300.69C71.3108 300.69 60.4 311.601 60.4 325.06C60.4 338.519 71.3108 349.43 84.77 349.43Z" fill="#FC4141" stroke="#2727E5" stroke-miterlimit="10"/>
<path d="M299.2 600.79C309.831 600.79 318.45 592.171 318.45 581.54C318.45 570.908 309.831 562.29 299.2 562.29C288.568 562.29 279.95 570.908 279.95 581.54C279.95 592.171 288.568 600.79 299.2 600.79Z" fill="#2727E5" stroke="#2727E5" stroke-miterlimit="10"/>
<path d="M358.67 552.11C377.658 552.11 393.05 536.718 393.05 517.73C393.05 498.742 377.658 483.35 358.67 483.35C339.682 483.35 324.29 498.742 324.29 517.73C324.29 536.718 339.682 552.11 358.67 552.11Z" fill="white" stroke="#2727E5" stroke-miterlimit="10"/>
<path d="M682.62 516.62H635.36V563.88H682.62V516.62Z" fill="white" stroke="#2727E5" stroke-miterlimit="10"/>
<path d="M746.37 314.8H717.41V343.76H746.37V314.8Z" fill="white" stroke="#2727E5" stroke-miterlimit="10"/>
<path d="M368.54 303.12H316.7V354.96H368.54V303.12Z" fill="#2727E5" stroke="#2727E5" stroke-miterlimit="10"/>
<path d="M852.84 24.5H764.74V42.23H852.84V24.5Z" fill="#FEDB31" stroke="#2727E5" stroke-miterlimit="10"/>
<path d="M998.532 310.064C998.996 305.382 995.576 301.21 990.893 300.747C986.211 300.283 982.039 303.703 981.576 308.386C981.112 313.068 984.532 317.24 989.215 317.703C993.897 318.167 998.069 314.746 998.532 310.064Z" fill="#FC4141" stroke="#2727E5" stroke-miterlimit="10"/>
<path d="M40.2 78.74C49.51 74.06 63.54 68.21 81.36 65.11C94.59 62.81 121.38 58.15 148.53 69C189.89 85.54 209.1 128.89 222.03 158.07C223.53 161.45 226.44 169.25 232.25 184.84C245.05 219.16 251.37 239.18 264.37 269.53C266.55 274.61 274.15 292.07 286.76 307.01C290.76 311.75 295.47 317.24 303.31 322.1C310.45 326.52 317.2 328.57 316.94 329.4" stroke="#2727E5" stroke-miterlimit="10"/>
<path d="M84.77 349.44C55.08 593.7 282.38 583.97 282.38 583.97" stroke="#2727E5" stroke-miterlimit="10"/>
<path d="M731.89 314.8C731.89 314.8 717.41 160.51 775.93 42.23" stroke="#2727E5" stroke-miterlimit="10"/>
<path d="M658.98 516.62C658.88 426.75 990.09 492.94 990.09 317.72" stroke="#2727E5" stroke-miterlimit="10"/>
<path d="M327.89 298.01V307.5" stroke="#2727E5" stroke-miterlimit="10"/>
<path d="M364.4 346.56H376.08" stroke="#2727E5" stroke-miterlimit="10"/>
<path d="M342.62 499.52L329.72 490.76" stroke="#2727E5" stroke-miterlimit="10"/>
<path d="M384.84 527.26L395.43 530.55" stroke="#2727E5" stroke-miterlimit="10"/>
<path d="M287.74 562.29L290.66 566.69" stroke="#2727E5" stroke-miterlimit="10"/>
<path d="M312.2 588.59L318.45 594.43" stroke="#2727E5" stroke-miterlimit="10"/>
<path d="M284.45 600.8L289.2 594.43" stroke="#2727E5" stroke-miterlimit="10"/>
<path d="M642.93 523.61V513.39" stroke="#2727E5" stroke-miterlimit="10"/>
<path d="M676.15 534.56H685.64" stroke="#2727E5" stroke-miterlimit="10"/>
<path d="M685.64 545.52H676.15" stroke="#2727E5" stroke-miterlimit="10"/>
<path d="M740.4 317.72V311.15" stroke="#2727E5" stroke-miterlimit="10"/>
<path d="M723.61 346.56V340.36" stroke="#2727E5" stroke-miterlimit="10"/>
<path d="M290.66 739.36H764.74" stroke="#2727E5" stroke-miterlimit="10"/>
</svg>
