<svg width="1200" height="800" viewBox="0 0 1200 800" fill="none" xmlns="http://www.w3.org/2000/svg">
<rect width="1200" height="800" fill="white"/>
<path d="M239.338 152.398H141.011V204.061H239.338V152.398Z" fill="#FC4141" stroke="#2727E5" stroke-miterlimit="10"/>
<path d="M320.75 437.413H300.255C296.975 427.52 297.099 412.539 300.255 405.536H320.75C323.853 414.808 323.037 425.782 320.75 437.413Z" fill="white" stroke="#1021D7" stroke-miterlimit="10"/>
<path d="M35.6295 343.962L49.7242 350.628C50.0965 353.926 48.3059 355.486 44.7069 355.61L31.8177 350.646L35.6295 343.962Z" fill="#2727E5" stroke="#2727E5" stroke-miterlimit="10"/>
<path d="M159.521 208.813L156.844 193.459C159.308 191.243 161.631 191.81 163.812 194.682L167.198 208.086L159.521 208.813Z" fill="#2727E5" stroke="#2727E5" stroke-miterlimit="10"/>
<path d="M1051.51 222.411L1061.99 210.869C1061.09 207.678 1058.83 206.916 1055.45 208.174L1045.41 217.677L1051.51 222.411Z" fill="#2727E5" stroke="#2727E5" stroke-miterlimit="10"/>
<path d="M1136.06 343.661L1121.08 347.951C1120.18 351.142 1121.68 352.969 1125.23 353.695L1138.76 350.894L1136.06 343.661Z" fill="#2727E5" stroke="#2727E5" stroke-miterlimit="10"/>
<path d="M611.384 360.716L596.811 366.248C596.173 369.492 597.839 371.194 601.421 371.62L614.664 367.702L611.384 360.716Z" fill="#2727E5" stroke="#2727E5" stroke-miterlimit="10"/>
<path d="M573.178 271.414H546.017C542.968 259.837 542.365 248.402 546.017 237.215H573.178V271.414Z" fill="#2727E5" stroke="#2727E5" stroke-miterlimit="10"/>
<path d="M77.3107 262.177H104.472C107.521 250.6 108.124 239.165 104.472 227.978H77.3107V262.177Z" fill="white" stroke="#1021D7" stroke-miterlimit="10"/>
<path d="M95.3414 556.446L104.419 555.595L107.911 477.108H93.994L95.3414 556.446Z" stroke="#1021D7" stroke-miterlimit="10"/>
<path d="M51.5323 558.131L60.6274 558.397L69.1729 474.077L55.0605 473.261L51.5323 558.131Z" fill="white" stroke="#1021D7" stroke-miterlimit="10"/>
<path d="M86.7606 605.627C122.421 605.627 151.33 596.412 151.33 585.044C151.33 573.676 122.421 564.46 86.7606 564.46C51.0998 564.46 22.1909 573.676 22.1909 585.044C22.1909 596.412 51.0998 605.627 86.7606 605.627Z" fill="white" stroke="#1021D7" stroke-miterlimit="10"/>
<path d="M303.908 786.447C339.568 786.447 368.477 777.232 368.477 765.864C368.477 754.496 339.568 745.28 303.908 745.28C268.247 745.28 239.338 754.496 239.338 765.864C239.338 777.232 268.247 786.447 303.908 786.447Z" fill="white" stroke="#1021D7" stroke-miterlimit="10"/>
<path d="M567.877 616.123C603.538 616.123 632.447 606.907 632.447 595.539C632.447 584.171 603.538 574.956 567.877 574.956C532.216 574.956 503.308 584.171 503.308 595.539C503.308 606.907 532.216 616.123 567.877 616.123Z" fill="white" stroke="#1021D7" stroke-miterlimit="10"/>
<path d="M783.393 790.862C819.054 790.862 847.963 781.646 847.963 770.278C847.963 758.91 819.054 749.695 783.393 749.695C747.732 749.695 718.823 758.91 718.823 770.278C718.823 781.646 747.732 790.862 783.393 790.862Z" fill="white" stroke="#1021D7" stroke-miterlimit="10"/>
<path d="M1082.87 616.123C1118.54 616.123 1147.44 606.907 1147.44 595.539C1147.44 584.171 1118.54 574.956 1082.87 574.956C1047.21 574.956 1018.3 584.171 1018.3 595.539C1018.3 606.907 1047.21 616.123 1082.87 616.123Z" fill="white" stroke="#1021D7" stroke-miterlimit="10"/>
<path d="M986.179 117.685C1020.34 117.685 1054.53 117.685 1088.69 117.685C1123.78 117.685 1158.86 117.685 1193.95 117.685C1193.95 164.507 1193.95 211.33 1193.95 258.135H986.162V117.685H986.179Z" fill="#FEDB31" stroke="#2727E5" stroke-miterlimit="10"/>
<path d="M989.885 152.381C1007.49 152.381 1021.76 138.109 1021.76 120.503C1021.76 102.898 1007.49 88.6264 989.885 88.6264C972.28 88.6264 958.008 102.898 958.008 120.503C958.008 138.109 972.28 152.381 989.885 152.381Z" fill="white" stroke="#1021D7" stroke-miterlimit="10"/>
<path d="M786.283 322.138C796.153 322.138 804.154 314.136 804.154 304.266C804.154 294.397 796.153 286.395 786.283 286.395C776.413 286.395 768.412 294.397 768.412 304.266C768.412 314.136 776.413 322.138 786.283 322.138Z" fill="#2727E5" stroke="#2727E5" stroke-miterlimit="10"/>
<path d="M469.409 129.191C486.701 129.191 500.719 115.173 500.719 97.8811C500.719 80.5892 486.701 66.5714 469.409 66.5714C452.117 66.5714 438.1 80.5892 438.1 97.8811C438.1 115.173 452.117 129.191 469.409 129.191Z" stroke="#2727E5" stroke-miterlimit="10"/>
<path d="M490.95 386.672C495.885 386.672 499.886 382.671 499.886 377.736C499.886 372.801 495.885 368.801 490.95 368.801C486.015 368.801 482.015 372.801 482.015 377.736C482.015 382.671 486.015 386.672 490.95 386.672Z" fill="#FC4141" stroke="#2727E5" stroke-miterlimit="10"/>
<path d="M239.32 178.23C393.67 117.224 355.624 381.087 482.015 377.736" stroke="#2727E5" stroke-miterlimit="10"/>
<path d="M497.759 111.213C603.815 195.587 1053.98 -161.603 1088.69 117.702" stroke="#2727E5" stroke-miterlimit="10"/>
<path d="M804.154 304.266C897.392 304.266 886.258 120.521 958.008 120.521" stroke="#2727E5" stroke-miterlimit="10"/>
<path d="M275.009 739.429L274.353 765.066C277.03 766.715 279.069 765.686 280.594 762.442L282.26 738.578L275.009 739.429Z" fill="#2727E5" stroke="#2727E5" stroke-miterlimit="10"/>
<path d="M319.615 736.664L320.165 762.353C323.214 763.966 325.43 762.903 326.955 759.605L327.593 735.671L319.615 736.664Z" fill="#2727E5" stroke="#2727E5" stroke-miterlimit="10"/>
<path d="M51.5325 558.131L49.4937 583.838C52.7558 585.912 55.362 585.203 57.4186 582.154L60.6276 558.397L51.5325 558.131Z" fill="#2727E5" stroke="#2727E5" stroke-miterlimit="10"/>
<path d="M95.3416 556.446L96.423 582.207C99.9157 583.873 102.415 582.845 104.1 579.583L104.401 555.613L95.3416 556.446Z" fill="#2727E5" stroke="#2727E5" stroke-miterlimit="10"/>
<path d="M540.893 570.275L542.524 596C546.053 597.596 548.535 596.514 550.148 593.217L549.953 569.229L540.893 570.275Z" fill="#2727E5" stroke="#2727E5" stroke-miterlimit="10"/>
<path d="M585.908 571.162L586.989 596.922C590.482 598.589 592.982 597.56 594.666 594.298L594.968 570.328L585.908 571.162Z" fill="#2727E5" stroke="#2727E5" stroke-miterlimit="10"/>
<path d="M1055.84 570.275L1057.47 596C1061 597.596 1063.48 596.514 1065.09 593.217L1064.9 569.229L1055.84 570.275Z" fill="#2727E5" stroke="#2727E5" stroke-miterlimit="10"/>
<path d="M1100.85 566.924L1101.93 592.685C1105.43 594.351 1107.93 593.323 1109.61 590.061L1109.91 566.091L1100.85 566.924Z" fill="#2727E5" stroke="#2727E5" stroke-miterlimit="10"/>
<path d="M802.434 415.96H777.915V450.16H802.434V415.96Z" fill="#2727E5" stroke="#2727E5" stroke-miterlimit="10"/>
<path d="M716.377 401.724L719.798 386.406C716.98 383.746 714.285 383.959 711.696 386.548L707.494 399.756L716.377 401.724Z" fill="#2727E5" stroke="#2727E5" stroke-miterlimit="10"/>
<path d="M1050.87 222.5L1062.89 212.394C1062.27 208.564 1060 207.093 1056.37 207.589L1045.01 215.532L1050.87 222.5Z" fill="#2727E5" stroke="#2727E5" stroke-miterlimit="10"/>
<path d="M503.733 216.064L507.669 200.976C505.382 198.565 503.041 198.937 500.612 201.632L496.127 214.699L503.733 216.064Z" fill="#2727E5" stroke="#2727E5" stroke-miterlimit="10"/>
<path d="M886.01 407.184L884.485 391.565C887.605 389.278 890.265 389.81 892.516 392.7L895.069 406.316L886.01 407.184Z" fill="#2727E5" stroke="#2727E5" stroke-miterlimit="10"/>
<path d="M838.762 736.22L827.858 574.938H752.633L737.953 742.426L758.803 741.149L757.278 767.175C760.576 769.197 763.182 768.452 765.185 765.367L767.898 740.582L800.857 738.561L801.708 767.441C805.2 769.108 807.7 768.08 809.384 764.817L809.615 738.029L838.762 736.22Z" fill="#2727E5" stroke="#2727E5" stroke-miterlimit="10"/>
<path d="M740.382 576.693L835.641 574.956C835.517 544.55 830.127 510.297 826.759 479.537C876.879 470.3 902.143 448.777 895.973 404.17H883.563C882.464 439.168 862.997 459.858 825.145 466.223C821.316 452.855 810.749 444.77 802.133 439.381L777.915 439.682C761.976 447.04 756.728 452.004 750.665 462.588C720.898 450.284 707.494 430.002 719.178 397.504H706.165C693.453 440.391 713.132 463.28 747.438 474.697C744.158 512.354 738.822 546.926 740.382 576.693Z" fill="white" stroke="#1021D7" stroke-miterlimit="10"/>
<path d="M796.229 429.665C801.601 432.909 802.523 434.523 804.952 435.728C810.944 438.742 818.338 435.48 820.394 434.576C828.39 431.066 834.613 422.822 835.287 413.602C836.031 403.373 829.666 396.175 826.067 392.115C815.111 379.74 799.881 378.162 795.378 377.754C788.623 377.151 774.351 375.875 764.689 385.679C757.704 392.753 756.782 401.883 756.303 406.635C755.7 412.627 754.725 422.272 761.232 428.53C761.781 429.062 767.526 434.434 774.458 433.495C781.656 432.519 784.244 425.534 790.29 426.545C791.425 426.757 793.02 427.733 796.229 429.665Z" fill="#FEDB31" stroke="#2727E5" stroke-miterlimit="10"/>
<path d="M1053.98 399.915H1119.96L1109.36 566.073L1100.85 566.924L1082.87 453.794L1064.88 569.247L1055.84 570.275L1053.98 399.915Z" fill="#FC4141" stroke="#2727E5" stroke-miterlimit="10"/>
<path d="M272.527 569.3H338.515L327.913 735.458L319.403 736.309L301.425 623.179L283.43 738.631L274.388 739.66L272.527 569.3Z" fill="#FC4141" stroke="#2727E5" stroke-miterlimit="10"/>
<path d="M1119.96 399.915L1109.36 566.073" stroke="#2727E5" stroke-miterlimit="10"/>
<path d="M532.649 398.657H594.985L596.67 570.009L585.039 571.162L565.413 426.243L551.07 568.999L540.893 570.275L532.649 398.657Z" fill="white" stroke="#1021D7" stroke-miterlimit="10" stroke-linejoin="bevel"/>
<path d="M115.18 382.328H51.5326L48.2527 479.519H74.1018L81.2644 426.811L88.9412 479.165L113.461 478.917L115.18 382.328Z" fill="#2727E5" stroke="#2727E5" stroke-miterlimit="10"/>
<path d="M520.93 401.44H606.899L601.722 303.664C627.483 323.964 636.507 347.88 608.725 361.479L609.931 370.627C675.068 348.962 623.298 297.405 572.097 264.606H539.103C535.202 269.251 532.472 273.843 530.327 279.144C505.931 272.194 499.371 239.945 505.967 207.713L497.492 207.997C488.628 242.214 493.095 281.325 524.582 292.157C518.98 332.048 517.136 368.978 520.93 401.44Z" fill="#FEDB31" stroke="#2727E5" stroke-miterlimit="10"/>
<path d="M1100.69 249.359L1078.23 249.164C1075.62 258.72 1075.04 268.17 1077.98 277.442L1100.44 277.637L1100.69 249.359Z" fill="white" stroke="#1021D7" stroke-miterlimit="10"/>
<path d="M1047.42 399.614H1133.39L1126.03 300.526C1156.54 307.777 1160.76 329.938 1132.98 343.519L1134.18 352.667C1187.51 334.938 1165.78 296.182 1121.6 284.977C1113.32 274.481 1108.03 269.748 1102.62 266.822H1069.63C1065.73 271.468 1061.72 283.204 1060.5 289.108C1034.17 285.562 1014.92 244.289 1057.61 218.564L1047.43 213.812C994.459 250.139 1025.7 293.718 1057.17 304.55C1050.75 342.916 1045.66 369.634 1047.42 399.614Z" fill="white" stroke="#1021D7" stroke-miterlimit="10"/>
<path d="M127.945 382.328H41.9764C37.4555 355.007 40.3985 322.173 48.0044 285.899C22.2439 304.568 9.0888 331.764 36.8882 344.264L35.6826 352.685C-29.4544 332.757 25.5947 281.094 76.7966 250.919H109.791C113.691 255.192 117.379 268.56 119.524 273.418C143.919 267.017 163.953 230.123 157.358 200.462L165.833 200.728C174.697 232.215 156.755 275.421 125.268 285.403C130.835 322.102 131.722 352.454 127.945 382.328Z" fill="#FEDB31" stroke="#2727E5" stroke-miterlimit="10"/>
<path d="M534.759 236.328L531.142 231.453C527.774 226.932 526.586 221.134 527.88 215.656C529.37 209.398 537.082 207.075 541.762 211.49L553.588 197.324C559.757 189.931 571.033 189.647 577.557 196.721L581.458 200.303L598.868 193.743C606.598 190.747 620.072 196.491 623.636 200.569C630.426 208.334 630.266 219.964 623.299 227.552L620.054 231.098L627.837 243.757C631.401 249.554 632.057 256.699 629.61 263.046C627.306 269.021 621.455 272.868 615.055 272.62L607.484 272.319C600.41 288.027 578.958 290.136 568.976 276.077L564.828 270.244C563.215 267.975 562.222 265.351 561.938 262.585L560.732 250.919L548.251 246.381C542.879 244.431 538.181 240.938 534.759 236.328Z" fill="white" stroke="#1021D7" stroke-miterlimit="10"/>
<path d="M85.0228 229.786H115.907C117.627 212.766 106.351 205.054 78.4275 209.291C73.8002 209.983 69.5629 212.412 66.8504 216.206C52.1529 236.825 53.2521 277.318 65.0597 288.505H83.764L85.0228 229.786Z" fill="white" stroke="#1021D7" stroke-miterlimit="10"/>
<path d="M1100.69 250.529C1088.35 253.26 1079.7 253.26 1073.14 248.863C1069.21 246.221 1066 238.934 1068.3 232.924C1069.81 229.006 1073.94 225.141 1077.59 225.655C1081.72 226.24 1082.04 231.949 1086.07 232.516C1089.61 233.031 1091.01 228.829 1096.76 225.655C1101.22 223.191 1110.23 220.301 1115.73 224.645C1120 228.013 1121.31 235.796 1119.56 240.796C1119.1 242.09 1118.51 242.994 1118.55 244.626C1118.62 247.657 1120.71 248.632 1122.98 252.905C1124.27 255.316 1125.57 257.745 1125.41 260.777C1125.3 262.904 1124.66 264.748 1122.59 267.833C1121.86 268.914 1126.17 270.049 1125.71 276.485C1125.71 282.158 1118.85 282.46 1121.9 286.803C1123.03 288.434 1123.9 288.31 1124.72 290.03C1126.24 293.221 1124.82 296.749 1124.52 297.494C1122.89 301.518 1115.8 303.38 1114.7 303.947C1107.48 307.741 1095.25 306.5 1091.9 299.302C1090.2 295.668 1090.6 290.154 1093.51 287.388C1096.24 284.8 1100.05 285.739 1100.78 283.559C1101.49 281.431 1098.03 280.066 1097.96 276.29C1097.91 273.772 1099.42 272.992 1100.59 269.429C1101.58 266.415 1101.56 263.667 1101.4 261.752L1100.69 250.529Z" fill="#2727E5" stroke="#2727E5" stroke-miterlimit="10"/>
<path d="M264.194 569.3H350.163L345.465 482.711C372.963 485.583 368.654 526.697 351.865 532.459L351.971 543.557C381.792 538.416 400.851 476.966 342.592 461.985L333.214 441.065L292.047 440.639C240.189 462.694 203.791 520.368 262.829 543.859L264.088 533.824C229.533 512.602 253.415 482.161 273.218 476.133L264.194 569.3Z" fill="#2727E5" stroke="#2727E5" stroke-miterlimit="10"/>
<path d="M347.025 432.839H352.503" stroke="#1021D7" stroke-miterlimit="10"/>
<path d="M347.025 443.334H352.503" stroke="#1021D7" stroke-miterlimit="10"/>
<path d="M347.025 438.086H352.503" stroke="#1021D7" stroke-miterlimit="10"/>
<path d="M347.025 427.591H352.504" stroke="#1021D7" stroke-miterlimit="10"/>
<path d="M295.982 411.475H318.605C327.186 411.475 333.674 404.88 332.15 397.699L332.079 397.38C331.086 392.735 324.367 390.944 320.431 394.278L318.392 392.895C314.491 390.235 308.659 391.476 306.691 395.394L306.389 395.997L301.248 396.175C294.032 396.423 289.83 403.213 293.695 408.39L295.982 411.475Z" fill="#2727E5" stroke="#2727E5" stroke-miterlimit="10"/>
<path d="M347 443.5V427.5H333.5L327 424.5H292V440.5H327L333.5 443.5H347Z" fill="white" stroke="#2727E5"/>
</svg>
