<svg width="166" height="65" viewBox="0 0 166 65" fill="none" xmlns="http://www.w3.org/2000/svg">
<path d="M51.609 57.7663C40.4466 65.02 28.8332 64.6065 28.8332 64.6065C28.8332 64.6065 28.4949 63.1408 28.6453 60.5851C28.758 58.0294 30.1486 58.7435 31.1634 56.7515C31.5392 55.9999 31.8399 55.5113 32.4037 53.7824C32.4412 53.7072 31.7272 41.4925 31.5392 36.3059C31.4641 33.5247 30.9379 28.8644 30.299 24.3167C29.9231 21.6483 29.1339 19.506 28.758 16.9503C28.2318 13.2671 27.5929 9.09528 27.5929 9.09528C27.1419 10.2604 26.503 14.6577 25.8265 19.6187C25.5258 21.9865 25.1876 24.5046 24.8869 26.8348C24.248 31.7959 22.707 45.1005 22.4815 45.8146C22.1433 46.9046 22.1057 45.514 22.1057 45.514C22.1057 45.514 23.0077 31.5704 23.3084 25.4442C23.4587 22.4751 23.6842 19.1677 24.06 16.0107C24.3231 13.6429 24.699 11.3503 25.15 9.32078C25.15 9.32078 26.7285 4.51006 27.2547 4.3973C27.7808 4.28455 29.6224 7.44159 30.2238 10.2228C31.652 16.4993 32.4788 17.3261 33.5312 23.9409C34.5459 30.2174 35.4855 35.4791 35.5983 36.3435C36.0493 39.463 35.8238 49.1972 35.0345 53.0683C34.8466 54.1207 34.809 54.4965 34.0949 55.2106C32.4788 56.8643 31.3137 58.8186 31.3137 60.0589C31.3137 61.3367 31.0882 61.2992 31.3889 62.0508C31.3889 62.0508 33.5312 65.2455 45.7835 57.9166C45.7835 57.9166 49.617 55.9247 49.617 51.4898V6.7275C49.617 6.7275 37.4399 2.63087 28.0815 2.63087C18.7231 2.63087 6.997 6.7275 6.997 6.7275V51.377C6.997 54.1207 7.41043 59.2696 11.3191 61.0361C11.3191 61.0361 0.87085 57.4656 0.87085 51.3019V2.93154C0.87085 2.93154 16.8064 0 28.1191 0C39.3942 0 55.6304 2.93154 55.6304 2.93154C55.6304 2.93154 55.6304 47.2052 55.6304 51.377C55.7056 55.5488 51.609 57.7663 51.609 57.7663Z" fill="#171B34"/>
<path d="M157.367 16.3529C156.662 16.7662 155.69 16.9607 154.45 16.9607C153.234 16.9607 152.262 16.596 151.581 15.8423C150.9 15.0886 150.56 14.0674 150.56 12.7302C150.56 11.393 150.9 10.3233 151.581 9.52094C152.237 8.74293 153.113 8.37824 154.207 8.37824C154.693 8.37824 155.106 8.42687 155.447 8.54843V5.16895H157.319V16.3529H157.367ZM155.495 15.5505V9.54526C155.252 9.47232 154.96 9.44801 154.669 9.44801C153.21 9.44801 152.48 10.4935 152.48 12.6087C152.48 14.6996 153.161 15.745 154.547 15.745C154.985 15.745 155.301 15.6721 155.495 15.5505Z" fill="#171B34"/>
<path d="M165.998 12.5842L160.893 13.3136C161.038 14.8696 161.816 15.6233 163.178 15.6233C163.98 15.6233 164.685 15.4775 165.293 15.1614L165.731 16.3527C165.026 16.7417 164.102 16.9362 162.983 16.9362C161.792 16.9362 160.844 16.5472 160.139 15.8178C159.458 15.0641 159.093 13.9944 159.093 12.6085C159.093 11.247 159.41 10.2016 160.042 9.44788C160.674 8.69418 161.549 8.30518 162.643 8.30518C163.762 8.30518 164.612 8.66987 165.172 9.39925C165.755 10.1286 166.023 11.1741 165.998 12.5842ZM164.223 11.8305C164.223 10.2502 163.664 9.47219 162.57 9.47219C161.987 9.47219 161.549 9.69101 161.233 10.1773C160.893 10.6878 160.722 11.4172 160.747 12.3654L164.223 11.8305Z" fill="#171B34"/>
<path d="M71.0569 39.061H68.0907V20.7534H71.0569V39.061Z" fill="#171B34"/>
<path d="M84.7205 32.521C84.7205 34.5389 84.2829 36.1436 83.3833 37.3592C82.4108 38.6478 81.0493 39.3043 79.2744 39.3043C77.4996 39.3043 76.1381 38.6478 75.1656 37.3592C74.266 36.1679 73.8284 34.5633 73.8284 32.521C73.8284 30.4787 74.266 28.874 75.1656 27.6584C76.1381 26.3698 77.4996 25.7134 79.2744 25.7134C81.0493 25.7134 82.4108 26.3698 83.3833 27.6584C84.2586 28.874 84.7205 30.503 84.7205 32.521ZM81.7787 32.4967C81.7787 29.2387 80.952 27.5855 79.2744 27.5855C77.6212 27.5855 76.7702 29.2144 76.7702 32.4967C76.7702 35.6816 77.5969 37.262 79.2744 37.262C80.952 37.2863 81.7787 35.6816 81.7787 32.4967Z" fill="#171B34"/>
<path d="M94.8588 35.2928C94.8588 36.3869 94.4212 37.3351 93.5702 38.1131C92.7193 38.8911 91.5766 39.2801 90.1907 39.2801C88.7076 39.2801 87.492 38.9641 86.5681 38.3319L87.3461 36.4355C87.9783 36.9461 88.8049 37.1892 89.8017 37.1892C90.4095 37.1892 90.8958 37.0191 91.2605 36.6787C91.6252 36.3383 91.8197 35.8763 91.8197 35.3658C91.8197 34.8066 91.6738 34.369 91.3821 34.0772C91.0903 33.7611 90.6041 33.4694 89.899 33.2262C87.9053 32.4726 86.9085 31.2326 86.9085 29.555C86.9085 28.4852 87.2975 27.5857 88.0512 26.8563C88.8049 26.1269 89.826 25.7622 91.0417 25.7622C92.3789 25.7622 93.4973 26.0783 94.4455 26.6861L93.7161 28.4123C93.1083 27.926 92.4275 27.6829 91.6252 27.6829C91.0417 27.6829 90.5797 27.8531 90.2637 28.1935C89.9233 28.5096 89.7774 28.9229 89.7774 29.4091C89.7774 30.2601 90.4339 30.9652 91.7224 31.4757C93.8133 32.278 94.8588 33.5666 94.8588 35.2928Z" fill="#171B34"/>
<path d="M116.692 39.0605H113.239L111.829 34.3924H105.97L104.511 39.0605H101.496L107.501 20.9231H110.662L116.692 39.0605ZM111.367 32.4474L109.495 26.0531C109.228 25.1535 109.082 24.4241 109.009 23.8649H108.96C108.863 24.3512 108.717 25.0806 108.45 26.0531L106.505 32.4474H111.367Z" fill="#171B34"/>
<path d="M128.873 39.0607H125.906V29.7975C125.906 28.3388 125.128 27.6094 123.548 27.6094C122.794 27.6094 122.138 27.731 121.506 27.9741V39.0607H118.54V26.6855C119.877 26.0534 121.579 25.7373 123.645 25.7373C125.469 25.7373 126.83 26.1506 127.706 26.9529C128.459 27.6337 128.848 28.5576 128.848 29.7489V39.0607H128.873Z" fill="#171B34"/>
<path d="M142.22 38.3566C141.078 38.9887 139.57 39.3048 137.65 39.3048C135.729 39.3048 134.221 38.7213 133.152 37.5543C132.082 36.3873 131.547 34.7583 131.547 32.6917C131.547 30.5765 132.082 28.9232 133.152 27.659C134.197 26.4676 135.559 25.8598 137.285 25.8598C138.039 25.8598 138.695 25.9327 139.254 26.1029V20.8027H142.22V38.3566ZM139.254 37.1166V27.7076C138.865 27.586 138.428 27.5374 137.941 27.5374C135.656 27.5374 134.489 29.1907 134.489 32.4972C134.489 35.7551 135.559 37.3841 137.723 37.3841C138.452 37.4084 138.962 37.3112 139.254 37.1166Z" fill="#171B34"/>
<path d="M155.69 32.4237L147.691 33.5907C147.934 36.022 149.125 37.2134 151.265 37.2134C152.529 37.2134 153.623 36.9702 154.571 36.484L155.276 38.3561C154.158 38.9639 152.723 39.2799 150.949 39.2799C149.077 39.2799 147.593 38.6964 146.499 37.5051C145.43 36.3138 144.87 34.6362 144.87 32.448C144.87 30.3328 145.381 28.6795 146.354 27.4882C147.35 26.2969 148.712 25.7134 150.438 25.7134C152.189 25.7134 153.526 26.2969 154.425 27.4153C155.349 28.5823 155.763 30.2599 155.69 32.4237ZM152.918 31.281C152.918 28.8011 152.067 27.5612 150.341 27.5612C149.441 27.5612 148.736 27.9258 148.25 28.6552C147.715 29.4576 147.472 30.6003 147.496 32.1077L152.918 31.281Z" fill="#171B34"/>
<path d="M165.852 35.2928C165.852 36.3869 165.415 37.3351 164.564 38.1131C163.713 38.8911 162.595 39.2801 161.184 39.2801C159.701 39.2801 158.486 38.9641 157.562 38.3319L158.34 36.4355C158.972 36.9461 159.799 37.1892 160.795 37.1892C161.403 37.1892 161.889 37.0191 162.254 36.6787C162.619 36.3383 162.813 35.8763 162.813 35.3658C162.813 34.8066 162.667 34.369 162.376 34.0772C162.084 33.7611 161.598 33.4694 160.893 33.2262C158.899 32.4726 157.902 31.2326 157.902 29.555C157.902 28.4852 158.291 27.5857 159.045 26.8563C159.823 26.1269 160.82 25.7622 162.035 25.7622C163.348 25.7622 164.491 26.0783 165.439 26.6861L164.71 28.4123C164.102 27.926 163.421 27.6829 162.619 27.6829C162.035 27.6829 161.573 27.8531 161.257 28.1935C160.917 28.5096 160.771 28.9229 160.771 29.4091C160.771 30.2601 161.427 30.9652 162.716 31.4757C164.831 32.278 165.852 33.5666 165.852 35.2928Z" fill="#171B34"/>
<path d="M83.7237 16.8393H81.8273V10.907C81.8273 9.98311 81.3167 9.52116 80.3199 9.52116C79.8579 9.52116 79.4203 9.5941 79.0313 9.73998V16.8393H77.1592V8.93765C78.0101 8.52434 79.1042 8.32983 80.4171 8.32983C81.5841 8.32983 82.4351 8.59728 82.9943 9.10785C83.4805 9.54548 83.7237 10.129 83.7237 10.8827V16.8393Z" fill="#171B34"/>
<path d="M87.784 6.11715C87.784 6.38459 87.6867 6.6034 87.4922 6.77359C87.2977 6.9681 87.0546 7.04103 86.7628 7.04103C86.4711 7.04103 86.2279 6.94378 86.0334 6.77359C85.8389 6.6034 85.7417 6.38459 85.7417 6.11715C85.7417 5.84971 85.8389 5.63089 86.0334 5.4607C86.2279 5.2662 86.4711 5.16895 86.7628 5.16895C87.0546 5.16895 87.2977 5.2662 87.4922 5.43639C87.6867 5.63089 87.784 5.84971 87.784 6.11715ZM87.6867 16.8391H85.7903V8.47549H87.6867V16.8391Z" fill="#171B34"/>
<path d="M96.2691 8.47656L93.5947 16.8402H91.7956L89.0725 8.50088H91.0905L92.5736 13.8983C92.6951 14.2873 92.7438 14.6763 92.7681 15.041H92.7924C92.841 14.7493 92.9139 14.3603 93.0112 13.8983L94.5186 8.50088H96.2691V8.47656Z" fill="#171B34"/>
<path d="M104.171 12.6085L99.0651 13.3622C99.211 14.8939 99.989 15.6719 101.351 15.6719C102.153 15.6719 102.858 15.526 103.466 15.21L103.928 16.4013C103.223 16.7903 102.299 16.9848 101.18 16.9848C99.989 16.9848 99.0408 16.5958 98.3357 15.8664C97.655 15.1127 97.2903 14.043 97.2903 12.6571C97.2903 11.2956 97.6063 10.2502 98.2385 9.49646C98.8706 8.74277 99.7459 8.35376 100.84 8.35376C101.958 8.35376 102.809 8.71845 103.368 9.44784C103.952 10.1529 104.219 11.1984 104.171 12.6085ZM102.42 11.8548C102.42 10.2745 101.885 9.49646 100.767 9.49646C100.184 9.49646 99.7459 9.73959 99.4298 10.2015C99.0894 10.7121 98.9192 11.4415 98.9436 12.3897L102.42 11.8548Z" fill="#171B34"/>
<path d="M109.909 8.35397L109.544 9.73981C109.276 9.64255 108.985 9.59393 108.669 9.59393C108.304 9.59393 108.012 9.66687 107.769 9.78843V16.8392H105.897V8.93748C106.797 8.49985 108.158 8.30535 109.909 8.35397Z" fill="#171B34"/>
<path d="M115.938 14.4324C115.938 15.1375 115.671 15.7453 115.112 16.2315C114.552 16.7178 113.847 16.9609 112.972 16.9609C112.024 16.9609 111.246 16.7664 110.662 16.3531L111.149 15.1375C111.562 15.4535 112.072 15.6237 112.705 15.6237C113.094 15.6237 113.41 15.5022 113.629 15.2833C113.872 15.0645 113.993 14.7971 113.993 14.4324C113.993 14.092 113.896 13.8003 113.726 13.6058C113.531 13.4113 113.215 13.2168 112.778 13.0466C111.513 12.5603 110.881 11.7823 110.881 10.7125C110.881 10.0318 111.124 9.44827 111.611 8.98632C112.097 8.52438 112.729 8.28125 113.531 8.28125C114.382 8.28125 115.087 8.47575 115.695 8.86476L115.233 9.95884C114.844 9.64277 114.407 9.49689 113.896 9.49689C113.531 9.49689 113.239 9.59414 113.021 9.81296C112.802 10.0318 112.705 10.2749 112.705 10.591C112.705 11.1259 113.118 11.5878 113.945 11.9039C115.257 12.5117 115.938 13.3383 115.938 14.4324Z" fill="#171B34"/>
<path d="M119.634 6.11715C119.634 6.38459 119.536 6.6034 119.342 6.77359C119.147 6.9681 118.904 7.04103 118.613 7.04103C118.321 7.04103 118.078 6.94378 117.883 6.77359C117.689 6.6034 117.591 6.38459 117.591 6.11715C117.591 5.84971 117.689 5.63089 117.883 5.4607C118.078 5.2662 118.321 5.16895 118.613 5.16895C118.904 5.16895 119.147 5.2662 119.342 5.43639C119.512 5.63089 119.634 5.84971 119.634 6.11715ZM119.512 16.8391H117.64V8.47549H119.512V16.8391Z" fill="#171B34"/>
<path d="M128.095 16.3782C127.365 16.7916 126.393 16.9861 125.177 16.9861C123.961 16.9861 122.989 16.6214 122.308 15.8677C121.627 15.114 121.287 14.0928 121.287 12.7556C121.287 11.4184 121.627 10.3487 122.308 9.54633C122.965 8.79264 123.84 8.40363 124.934 8.40363C125.42 8.40363 125.833 8.45226 126.198 8.57382V5.19434H128.07V16.3782H128.095ZM126.198 15.6002V9.59496C125.955 9.52202 125.663 9.49771 125.372 9.49771C123.913 9.49771 123.183 10.5432 123.183 12.6584C123.183 14.7493 123.864 15.7947 125.25 15.7947C125.688 15.7704 126.004 15.6975 126.198 15.6002Z" fill="#171B34"/>
<path d="M136.118 16.377C135.364 16.7904 134.367 16.9849 133.103 16.9849C130.842 16.9849 129.699 16.1339 129.699 14.4563C129.699 13.4595 130.161 12.6815 131.085 12.1952C131.814 11.8062 132.909 11.5388 134.367 11.3929V10.9067C134.367 9.98276 133.808 9.52082 132.714 9.52082C132.033 9.52082 131.328 9.69101 130.623 10.0314L130.185 8.93731C131.061 8.52399 132.009 8.30518 133.054 8.30518C135.097 8.30518 136.142 9.25338 136.142 11.1741V16.377H136.118ZM134.367 15.6963V12.2682C133.37 12.3897 132.69 12.5842 132.276 12.8517C131.766 13.1677 131.498 13.6783 131.498 14.4077C131.498 15.4532 132.082 15.9637 133.249 15.9637C133.687 15.9394 134.051 15.8665 134.367 15.6963Z" fill="#171B34"/>
<path d="M144.628 16.3782C143.898 16.7916 142.926 16.9861 141.71 16.9861C140.47 16.9861 139.522 16.6214 138.841 15.8677C138.16 15.114 137.82 14.0928 137.82 12.7556C137.82 11.4184 138.16 10.3487 138.841 9.54633C139.498 8.79264 140.373 8.40363 141.467 8.40363C141.953 8.40363 142.366 8.45226 142.731 8.57382V5.19434H144.628V16.3782ZM142.731 15.6002V9.59496C142.488 9.52202 142.196 9.49771 141.905 9.49771C140.446 9.49771 139.716 10.5432 139.716 12.6584C139.716 14.7493 140.397 15.7947 141.783 15.7947C142.221 15.7704 142.537 15.6975 142.731 15.6002Z" fill="#171B34"/>
<path d="M68.0662 5.2168H70.0841V14.1882C70.0841 15.1851 70.619 15.6713 71.6888 15.6713C72.1993 15.6713 72.6613 15.5984 73.0746 15.4282V5.2168H75.0926V16.3035C74.193 16.7168 73.026 16.9356 71.6158 16.9356C70.3759 16.9356 69.452 16.6681 68.8685 16.1089C68.3579 15.647 68.0905 15.0149 68.0905 14.2125V5.2168H68.0662Z" fill="#171B34"/>
<path d="M127.074 56.3957C126.66 56.7117 126.101 56.8576 125.323 56.8576C124.229 56.8576 123.378 56.3957 122.819 55.4718C122.333 54.6938 122.114 53.7213 122.114 52.5542C122.114 51.4115 122.357 50.439 122.843 49.6367C123.427 48.6885 124.253 48.2266 125.348 48.2266C126.053 48.2266 126.636 48.3724 127.074 48.6885L126.733 49.6124C126.417 49.4179 126.028 49.3206 125.639 49.3206C124.91 49.3206 124.399 49.7096 124.059 50.4633C123.816 50.9982 123.694 51.7033 123.694 52.5299C123.694 53.3323 123.816 54.013 124.083 54.5722C124.424 55.3259 124.934 55.6906 125.639 55.6906C126.053 55.6906 126.393 55.5933 126.709 55.3988L127.074 56.3957Z" fill="#171B34"/>
<path d="M132.69 53.6977C132.69 54.5973 132.495 55.3024 132.131 55.8616C131.693 56.4937 131.037 56.8098 130.21 56.8098C129.359 56.8098 128.727 56.4937 128.265 55.8616C127.876 55.3024 127.706 54.5973 127.706 53.6977C127.706 52.7982 127.9 52.0688 128.265 51.5339C128.703 50.9018 129.335 50.5857 130.21 50.5857C131.061 50.5857 131.717 50.9018 132.131 51.5339C132.495 52.0931 132.69 52.8225 132.69 53.6977ZM131.328 53.6977C131.328 52.1903 130.939 51.4366 130.186 51.4366C129.408 51.4366 129.043 52.1903 129.043 53.6977C129.043 55.1565 129.432 55.8859 130.186 55.8859C130.939 55.8859 131.328 55.1565 131.328 53.6977Z" fill="#171B34"/>
<path d="M135.34 56.7121H133.978V48.2512H135.34V56.7121Z" fill="#171B34"/>
<path d="M141.613 53.6977C141.613 54.5973 141.418 55.3024 141.054 55.8616C140.616 56.4937 139.959 56.8098 139.133 56.8098C138.282 56.8098 137.65 56.4937 137.212 55.8616C136.823 55.3024 136.653 54.5973 136.653 53.6977C136.653 52.7982 136.847 52.0688 137.212 51.5339C137.65 50.9018 138.282 50.5857 139.133 50.5857C139.984 50.5857 140.64 50.9018 141.054 51.5339C141.418 52.0931 141.613 52.8225 141.613 53.6977ZM140.251 53.6977C140.251 52.1903 139.862 51.4366 139.108 51.4366C138.33 51.4366 137.966 52.1903 137.966 53.6977C137.966 55.1565 138.355 55.8859 139.108 55.8859C139.887 55.8859 140.251 55.1565 140.251 53.6977Z" fill="#171B34"/>
<path d="M150.973 56.7125H149.612V52.4335C149.612 51.777 149.271 51.461 148.59 51.461C148.201 51.461 147.861 51.6068 147.594 51.8743V56.7125H146.232V52.4092C146.232 51.777 145.867 51.461 145.114 51.461C144.798 51.461 144.482 51.5096 144.214 51.6311V56.7125H142.853V51.0233C143.46 50.7316 144.214 50.5857 145.114 50.5857C145.965 50.5857 146.597 50.8045 146.986 51.2421C147.472 50.8045 148.104 50.5857 148.906 50.5857C149.49 50.5857 150.001 50.7316 150.39 51.072C150.779 51.388 150.973 51.85 150.973 52.4335V56.7125Z" fill="#171B34"/>
<path d="M157.319 53.5514C157.319 54.5482 157.076 55.3263 156.614 55.8854C156.103 56.4933 155.374 56.8093 154.401 56.8093C153.526 56.8093 152.869 56.6635 152.408 56.3717V48.2512H153.769V50.8284C154.134 50.6582 154.523 50.5853 154.96 50.5853C155.738 50.5853 156.346 50.9013 156.76 51.5091C157.124 52.0683 157.319 52.7491 157.319 53.5514ZM155.957 53.6487C155.957 52.1413 155.495 51.4119 154.571 51.4119C154.255 51.4119 153.964 51.4605 153.769 51.5821V55.8611C153.964 55.9341 154.182 55.9827 154.45 55.9827C155.471 56.007 155.957 55.2047 155.957 53.6487Z" fill="#171B34"/>
<path d="M160.018 48.9808C160.018 49.1753 159.945 49.3455 159.799 49.4671C159.653 49.5886 159.483 49.6616 159.288 49.6616C159.094 49.6616 158.899 49.5886 158.753 49.4671C158.607 49.3455 158.534 49.1753 158.534 48.9808C158.534 48.7863 158.607 48.6404 158.753 48.4946C158.899 48.373 159.069 48.3 159.288 48.3C159.483 48.3 159.653 48.373 159.799 48.4946C159.945 48.6161 160.018 48.7863 160.018 48.9808ZM159.945 56.7123H158.583V50.6827H159.945V56.7123Z" fill="#171B34"/>
<path d="M165.804 56.3971C165.269 56.6888 164.54 56.8347 163.616 56.8347C161.987 56.8347 161.16 56.2269 161.16 55.0112C161.16 54.2332 161.549 53.6497 162.327 53.285C162.814 53.0419 163.543 52.896 164.516 52.7988V52.4827C164.516 51.8262 164.127 51.4859 163.324 51.4859C162.814 51.4859 162.327 51.6074 161.817 51.8506L161.501 51.0725C162.133 50.7565 162.814 50.6106 163.567 50.6106C165.05 50.6106 165.78 51.2914 165.78 52.6772V56.3971H165.804ZM164.54 55.8865V53.4066C163.883 53.5038 163.397 53.6011 163.13 53.747C162.692 53.9901 162.449 54.3791 162.449 54.9383C162.449 55.692 162.862 56.0567 163.713 56.0567C164.029 56.0567 164.297 56.008 164.54 55.8865Z" fill="#171B34"/>
</svg>
