<svg width="171" height="54" viewBox="0 0 171 54" fill="none" xmlns="http://www.w3.org/2000/svg">
<path d="M26.5278 13.5983C26.5278 13.5983 23.8749 13.6931 22.0748 14.4826C20.7167 15.0827 19.9588 16.0933 20.0536 17.3566C20.0852 18.1145 20.9063 19.3778 22.8012 19.2515C24.6961 19.1252 26.5278 17.4829 26.5278 17.4829V13.5983ZM26.5594 12.6193V9.96643C26.5594 7.97677 24.4119 7.91361 23.496 7.91361C22.7696 7.91361 21.3484 7.94519 20.6852 8.7979C20.3062 9.27163 20.4326 10.0612 20.4642 10.4717C20.4957 11.2613 19.9588 11.8929 19.2008 11.8929C18.4428 11.8929 17.8113 11.2613 17.8113 10.4717C17.8113 8.89264 19.264 7.97677 19.264 7.97677C20.3694 7.21881 22.2642 6.83982 23.8433 6.83982C25.4856 6.83982 26.8752 7.15564 28.1069 8.07152C28.7385 8.54524 29.2123 9.33479 29.2123 11.0086V18.7778L31.7073 19.4726V20.3569H28.1385L26.5594 18.6514C26.5594 18.6514 24.3171 20.5463 21.4747 20.5463C18.6323 20.5463 17.3375 19.0304 17.3375 17.6092C17.3375 17.6092 16.8638 14.7037 21.0642 13.4404C21.8538 13.1878 22.5485 13.0614 23.1801 12.9667C25.454 12.5877 26.5594 12.6193 26.5594 12.6193ZM84.7016 32.0106C82.8067 31.6632 81.2907 31.1578 81.2907 29.8946C81.2907 28.3786 83.1225 28.2207 83.8805 28.2523C87.3545 28.3786 88.3335 31.2842 88.3335 31.2842H89.1231L88.3335 27.4312H87.6387L87.3861 28.2523C86.786 27.8418 85.5227 27.147 83.9752 27.147C80.9118 27.147 79.1432 28.9471 79.1432 30.9052C79.1432 32.8633 81.6381 33.6844 83.5646 34.2213C85.3964 34.7582 87.8913 34.8529 87.8913 36.6847C87.8913 38.8954 84.8595 38.8638 84.8595 38.8638C80.7538 38.8638 79.6801 35.2003 79.6801 35.2003H78.8273L79.6485 39.7165H80.4697L80.7854 38.7059C80.7854 38.7059 82.8383 39.906 84.9858 39.906C88.0493 39.906 90.1337 37.9164 90.1337 35.7688C90.0389 32.8949 86.6597 32.3895 84.7016 32.0106ZM72.7637 13.5983C72.7637 13.5983 70.1108 13.6931 68.3106 14.4826C66.9526 15.0827 66.1946 16.0933 66.2893 17.3566C66.3209 18.1145 67.142 19.3778 69.0369 19.2515C70.9319 19.1252 72.7637 17.4829 72.7637 17.4829V13.5983ZM72.7952 12.6193V9.96643C72.7952 7.97677 70.6476 7.91361 69.7318 7.91361C69.0054 7.91361 67.5842 7.94519 66.921 8.7979C66.542 9.27163 66.6683 10.0612 66.6999 10.4717C66.7315 11.2613 66.1946 11.8929 65.4051 11.8929C64.6471 11.8929 64.0154 11.2613 64.0154 10.4717C64.0154 8.89264 65.4683 7.97677 65.4683 7.97677C66.5736 7.21881 68.4685 6.83982 70.0476 6.83982C71.6898 6.83982 73.0795 7.15564 74.3112 8.07152C74.9428 8.54524 75.4165 9.33479 75.4165 11.0086V18.7778L78.0694 19.5041L78.2273 20.3253H74.3743L72.7952 18.6199C72.7952 18.6199 70.5529 20.5148 67.7106 20.5148C64.8682 20.5148 63.5734 18.9988 63.5734 17.5777C63.5734 17.5777 63.0996 14.6721 67.3 13.4088C68.0895 13.1562 68.7844 13.0299 69.416 12.9351C71.6583 12.5877 72.7952 12.6193 72.7952 12.6193ZM92.6918 24.6836C92.6918 25.5363 93.3866 26.1995 94.2077 26.1995C95.0604 26.1995 95.7553 25.5047 95.7553 24.6836C95.7553 23.8624 95.0604 23.1676 94.2077 23.1676C93.3866 23.1676 92.6918 23.8624 92.6918 24.6836ZM95.3447 27.4944L90.8285 27.9681V28.9787H92.9444V38.2953L90.7969 38.9902V39.7797H97.4606V38.9902L95.3763 38.3269V27.4944H95.3447ZM38.4026 23.1676C37.5499 23.1676 36.8867 23.8624 36.8867 24.6836C36.8867 25.5047 37.5815 26.1995 38.4026 26.1995C39.2553 26.1995 39.9501 25.5047 39.9501 24.6836C39.9501 23.8624 39.2553 23.1676 38.4026 23.1676ZM39.4448 27.4944L34.9286 27.9681V28.9787H37.0446V38.2953L34.8339 38.9902V39.7797H41.5292V38.9902L39.4448 38.3269V27.4944ZM77.3115 27.3364C77.2799 27.3364 77.2799 27.3364 77.2799 27.3364H77.2482C74.6901 26.768 72.7005 28.884 72.29 29.3577V27.4944H71.2793L67.6158 28.4734V29.2314H69.8265V38.4217L67.7106 38.9902V39.7481H74.5638V38.9902L72.29 38.3901V30.463C72.4479 30.3051 73.5848 29.0735 74.5954 29.0735C75.7323 29.0735 75.7639 29.7998 76.8693 29.8946C76.9009 29.8946 76.9641 29.8946 76.9956 29.8946C77.722 29.8946 78.322 29.2945 78.322 28.5681C78.322 27.9997 77.8799 27.4944 77.3115 27.3364ZM123.516 6.90299C123.484 6.90299 123.484 6.90299 123.484 6.90299C123.453 6.90299 123.452 6.90299 123.452 6.90299C120.673 6.30293 118.494 8.57683 118.052 9.1453V7.09248H116.947L112.967 8.16626V8.98739H115.368V18.9988L113.062 19.6305V20.42H120.515V19.5989L118.052 18.9673V10.3138C118.21 10.1559 119.473 8.82948 120.547 8.82948C121.779 8.82948 121.81 9.61903 123.01 9.71377H123.042C123.074 9.71377 123.137 9.71377 123.168 9.71377C123.989 9.71377 124.621 9.05055 124.621 8.26101C124.621 7.62937 124.147 7.0609 123.516 6.90299ZM57.857 31.4105H64.0471C63.9523 29.484 62.7206 28.2207 61.0152 28.2207C59.6256 28.2207 57.857 29.0419 57.857 31.4105ZM57.7623 32.4843C57.7623 32.4843 56.8464 38.8638 61.8679 38.8638C61.8679 38.8638 64.4892 38.9902 65.784 36.5583L66.5736 36.9373C65.9419 38.7375 63.826 40.0008 61.5521 40.0008C58.0781 40.0008 55.1726 37.1584 55.1726 33.6528C55.1726 31.5368 56.0252 29.5788 57.6043 28.4102C58.6465 27.6523 59.8467 27.3049 61.2363 27.3049C64.2682 27.3049 66.542 29.3577 66.7315 32.4843H57.7623ZM102.924 11.2929H109.62C109.525 9.20846 108.199 7.85044 106.335 7.85044C104.819 7.85044 102.924 8.73474 102.924 11.2929ZM99.9872 13.7247C99.9872 11.4192 100.903 9.30321 102.64 8.03993C103.745 7.21881 105.072 6.83982 106.588 6.83982C109.872 6.83982 112.336 9.08214 112.525 12.4614H102.861C102.861 12.4614 101.851 19.3778 107.314 19.3778C107.314 19.3778 110.157 19.5041 111.546 16.8829L112.399 17.2934C111.736 19.2515 109.399 20.6095 106.935 20.6095C103.145 20.5779 99.9872 17.5145 99.9872 13.7247ZM92.8497 16.0933C92.8497 16.7565 92.8497 17.3566 92.8497 17.7356C92.8497 19.5357 94.5867 20.5463 96.5448 20.5463C98.8503 20.5463 99.8924 19.6305 100.556 18.9357C100.366 18.683 100.177 18.4304 100.019 18.1777C99.2609 18.8093 98.566 19.4094 97.6186 19.4094C96.4816 19.4094 95.7237 18.5251 95.5658 17.5777C95.5026 17.1987 95.5342 16.4723 95.5342 15.8091V7.94519H99.4819V7.0609H95.5658V1.94464H94.3024C94.3024 1.94464 94.3656 4.18695 93.2603 5.79762C92.4076 7.02931 90.7021 7.09248 90.7021 7.09248V7.94519H92.8813V16.0933H92.8497ZM103.43 38.9586C102.356 38.9586 101.661 38.1374 101.503 37.2847C101.44 36.9373 101.472 36.2425 101.472 35.6425V28.2839H105.103V27.4944H101.472V22.7887H100.303C100.303 22.7887 100.366 24.8731 99.324 26.3574C98.5345 27.4944 96.9554 27.5575 96.9554 27.5575V28.3471H98.9766V35.8635C98.9766 36.4636 98.9766 37.0321 98.9766 37.3795C98.9766 39.0217 100.587 40.0008 102.387 40.0008C104.725 40.0008 105.672 38.9902 106.272 38.3269L105.64 37.79C104.977 38.3585 104.314 38.9586 103.43 38.9586ZM84.8911 12.0192C82.8699 11.6403 81.196 11.0718 81.196 9.71377C81.196 8.07152 83.1541 7.91361 83.9752 7.94519C87.765 8.1031 88.8072 11.2613 88.8072 11.2613H89.66L88.8072 7.09248H88.0493L87.7966 8.00835C87.1334 7.56621 85.7438 6.80824 84.1015 6.80824C80.7855 6.80824 78.859 8.73474 78.859 10.8507C78.859 12.9667 81.6065 13.851 83.6594 14.4511C85.649 15.0195 88.3335 15.1459 88.3335 17.1039C88.3335 19.5041 85.049 19.4726 85.049 19.4726C80.5959 19.4726 79.4274 15.4933 79.4274 15.4933H78.5115L79.3959 20.3569H80.2802L80.5959 19.2515C80.5959 19.2515 82.8067 20.5463 85.1437 20.5463C88.4598 20.5463 90.7021 18.3672 90.7021 16.0617C90.6706 12.9667 87.0387 12.4298 84.8911 12.0192ZM31.8968 38.2953V30.5578C31.8968 29.6735 31.6125 28.884 30.9177 28.3155C30.2229 27.7154 29.307 27.4312 28.4227 27.3049C26.7805 27.1154 25.2014 27.6838 23.8749 28.5681C23.496 28.8208 23.117 29.0734 22.738 29.3577V27.5259H21.8538L18.127 28.505V29.2314H20.3378V38.2953L18.2534 38.9902V39.7481H24.9172V38.9902L22.8012 38.2953V30.5578C23.4012 30.0841 24.0013 29.6735 24.6645 29.3261C25.4856 28.884 26.5594 28.3786 27.5068 28.5366C27.9806 28.5997 28.5491 28.9471 28.8333 29.3261C29.2755 29.9262 29.4018 30.7157 29.4018 31.4421V38.2322C29.4018 38.2006 29.4018 38.2953 29.4018 38.2953L27.2858 38.9586V39.7481H33.9812V38.9586L31.8968 38.2953ZM29.3702 38.2638V38.2953V38.2638ZM44.6874 18.7778V18.8409V18.7778ZM34.8655 18.8093L32.5916 19.5357V20.3569H39.8237V19.5357L37.5183 18.8093V10.4086C38.15 9.90326 38.8447 9.46112 39.5395 9.08214C40.4238 8.60841 41.5924 8.07152 42.6346 8.22943C43.1715 8.29259 43.7715 8.67157 44.0873 9.11372C44.561 9.74535 44.719 10.6296 44.719 11.4192V18.8093V18.8409L42.4451 19.5357V20.3884H49.7405V19.5673L47.4666 18.8409V10.3454C47.4666 9.39795 47.1508 8.54524 46.4244 7.91361C45.6665 7.25039 44.6874 6.93457 43.7083 6.80824C41.9398 6.61875 40.2343 7.21881 38.75 8.16626C38.3394 8.4505 37.9289 8.73474 37.5183 9.01897V7.0609H36.5708L32.4968 8.13468V8.92423H34.897V18.8093H34.8655ZM16.7374 14.5142L16.0742 14.2616L15.9479 14.23C14.1161 17.4197 10.4526 19.3462 8.05241 19.3462C8.05241 19.3462 5.5259 19.4726 5.5259 17.2303V2.95526L7.95767 2.29204L7.98928 1.6604H0.378048V2.38678L2.65194 2.98684V18.8409L0.346436 19.4726V20.3884H14.5583L16.7374 14.5142ZM115.115 28.2207L117.294 28.8208L114.041 37.4111L110.536 28.6945L112.304 28.1892V27.4312H106.335V28.2207L107.977 28.6629L112.809 40.5692C112.494 41.1377 112.178 41.7378 111.894 42.3378C111.515 43.0326 110.757 44.1696 109.872 44.2643C109.051 44.3275 108.862 43.3484 108.199 43.001C107.03 42.3694 105.956 43.9169 106.746 44.896C107.125 45.3697 107.788 45.6539 108.388 45.7171C109.051 45.7487 109.746 45.6223 110.314 45.3697C110.63 45.2118 110.978 45.0223 111.23 44.7696C111.799 44.2643 112.209 43.6643 112.557 43.001C113.125 41.9273 113.662 40.8535 114.167 39.7165C114.578 38.7375 114.989 37.79 115.399 36.811C115.904 35.6425 116.378 34.4739 116.884 33.2738C117.326 32.2632 117.736 31.2526 118.178 30.2104C118.368 29.7051 118.589 29.2314 118.81 28.7576C118.81 28.7576 118.81 28.726 118.842 28.726L120.579 28.2523V27.4628H115.146V28.2207H115.115ZM16.5479 23.8624L18.7903 23.2308V22.3781H12.6634V23.1676L15.0952 23.7993V35.0424C15.0952 35.0424 15.2847 38.8007 10.2948 38.8007C5.33644 38.8007 5.33642 35.5161 5.33642 35.0424V23.8309L7.83141 23.1361V22.3781H0.378048V23.1676L2.80991 23.7993V34.8529C2.80991 34.8529 2.39932 40.0955 9.88421 40.0955C16.9901 40.0955 16.5479 35.1687 16.5479 35.1687V23.8624ZM55.3304 27.4944H50.0247V28.1892L52.0144 28.726L48.8562 37.5374L45.6033 28.6945L47.4666 28.1892V27.4312H41.3397V28.1892L42.9504 28.6313L47.435 39.7481H48.8878L53.5935 28.6629L55.3621 28.1892V27.4944H55.3304ZM49.8352 13.7247C49.8352 11.5455 50.4985 9.52428 52.046 8.26101C53.2461 7.28197 54.8883 6.74508 56.5622 6.74508C58.1413 6.74508 59.5309 7.25039 60.6363 7.97677C60.6363 7.97677 62.089 8.89264 62.089 10.4717C62.089 11.2613 61.4574 11.8929 60.6994 11.8929C59.9414 11.8929 59.3729 11.2929 59.4045 10.4717C59.4361 10.0928 59.4993 9.42954 59.2467 8.95581C58.615 7.66095 56.7833 7.72412 56.7833 7.72412C54.1304 7.72412 52.9618 10.377 52.9618 13.6615C52.9618 18.0198 55.3621 19.5989 57.3833 19.5989C57.3833 19.5989 59.6888 19.6305 61.6784 17.0408L62.4996 17.5777C61.2679 19.441 59.1203 20.7043 56.72 20.7043C52.9302 20.6727 49.8352 17.5777 49.8352 13.7247Z" fill="#171B34"/>
<path d="M142.875 3.14544C142.938 3.17707 143.033 3.24031 143.096 3.27193H143.128L143.16 3.24031C143.16 3.24031 143.254 3.17707 143.349 3.0822C143.381 3.05057 143.539 2.95571 143.539 2.89246C143.507 2.79759 143.065 2.92408 143.001 2.92408C142.938 2.95571 142.875 2.95571 142.843 2.98733C142.812 2.98733 142.812 3.01895 142.78 3.01895V3.05057C142.685 3.11382 142.843 3.14544 142.875 3.14544Z" fill="#171B34"/>
<path d="M149.065 0.302968C149.065 0.302968 135.232 0.113477 127.842 2.95584V17.5782H170.257V2.92426C162.898 0.113477 149.065 0.302968 149.065 0.302968ZM141.265 3.96646C141.265 3.9033 141.328 3.80855 141.359 3.74539C141.422 3.65064 141.517 3.58748 141.486 3.46115C141.454 3.39799 141.359 3.36641 141.359 3.27166C141.359 3.24008 141.391 3.2085 141.422 3.17692C141.486 3.14533 141.517 3.11375 141.58 3.11375C141.77 3.05059 142.338 2.8611 142.338 2.8611C142.402 2.79793 142.401 2.76635 142.465 2.70319C142.528 2.64002 142.654 2.57686 142.875 2.54528C143.475 2.41895 145.118 2.32421 145.275 2.32421C145.339 2.32421 145.402 2.35579 145.465 2.38737C145.56 2.48212 145.686 2.57686 145.749 2.67161C145.781 2.73477 145.812 2.76635 145.844 2.79793C145.875 2.82952 145.875 2.8611 145.875 2.8611L145.907 2.89268L145.939 2.8611C145.939 2.8611 145.97 2.82952 146.002 2.82952C146.033 2.82952 146.065 2.79793 146.128 2.79793C146.191 2.79793 146.254 2.79793 146.349 2.8611C146.412 2.89268 146.476 2.98743 146.507 3.11375C146.539 3.17692 146.539 3.24008 146.539 3.30324C146.539 3.68223 146.286 4.09279 146.097 4.28228L146.065 4.31386L146.097 4.34544C146.728 5.22974 146.823 6.05086 146.823 6.30352C146.76 6.17719 146.633 6.01928 146.633 6.01928C146.633 6.01928 146.633 5.9877 146.602 5.95612C146.57 5.92454 146.539 5.89296 146.507 5.89296C146.476 5.89296 146.476 5.89296 146.444 5.89296C146.412 5.89296 146.381 5.89295 146.349 5.92454C146.318 5.95612 146.318 5.9877 146.318 6.01928C146.318 6.05086 146.318 6.08245 146.349 6.14561C146.633 6.90357 146.665 7.7247 146.665 8.16685V8.19843C146.57 8.04052 146.381 7.78787 146.381 7.78787C146.318 7.69312 146.286 7.66154 146.223 7.66154C146.191 7.66154 146.16 7.69312 146.128 7.69312C146.097 7.7247 146.097 7.75628 146.097 7.78787C146.097 7.78787 146.097 7.81945 146.097 7.85103C146.223 8.19843 146.286 8.54583 146.286 8.86165C146.286 9.27221 146.191 9.61961 146.128 9.87227C146.097 9.99859 146.033 10.0933 146.002 10.1565C146.002 10.1881 145.97 10.1881 145.97 10.2197C145.939 10.1881 145.939 10.1249 145.875 10.0933C145.812 9.99859 145.749 9.84068 145.686 9.74594C145.654 9.68278 145.654 9.65119 145.623 9.61961C145.591 9.58803 145.56 9.58803 145.528 9.58803C145.496 9.58803 145.465 9.61961 145.433 9.65119C145.402 9.68277 145.402 9.71436 145.402 9.74594C145.402 9.74594 145.402 9.77752 145.402 9.8091C145.402 9.87227 145.402 9.96701 145.402 10.0302C145.402 10.7566 145.117 11.2303 144.833 11.5461C144.707 11.704 144.549 11.8303 144.454 11.8935C144.391 11.9251 144.36 11.9567 144.328 11.9883C144.328 11.7988 144.328 11.1987 144.328 10.9776C144.328 10.946 144.328 10.8829 144.296 10.8513C144.265 10.8197 144.233 10.7881 144.202 10.7881C144.17 10.7881 144.139 10.7881 144.139 10.8197C144.107 10.8513 144.107 10.8513 144.075 10.8829C143.886 11.3566 143.665 11.6093 143.475 11.7672C143.286 11.9251 143.128 11.9567 143.033 11.9567C142.97 11.9567 142.938 11.9567 142.907 11.9251C142.938 11.8935 142.97 11.8303 143.002 11.7356C143.065 11.6093 143.128 11.4198 143.128 11.2619C143.128 11.1355 143.096 11.0408 143.002 10.9776C142.907 10.9145 142.781 10.8513 142.559 10.8513C142.496 10.8513 142.433 10.8513 142.338 10.8513C141.865 10.9145 141.17 11.1987 140.57 11.5145C140.096 11.7672 139.685 11.9883 139.591 12.0514C139.464 11.7988 139.433 11.6093 139.433 11.4198C139.433 11.1355 139.528 10.9145 139.622 10.7566C139.685 10.6618 139.717 10.6302 139.749 10.5671C139.749 10.5355 139.78 10.5355 139.78 10.5355V10.5039L139.812 10.4723C139.843 10.4407 139.843 10.4092 139.843 10.3776C139.843 10.346 139.843 10.3144 139.812 10.3144C139.78 10.3144 139.749 10.2828 139.717 10.2828C139.464 10.3144 139.275 10.4092 139.149 10.4723C139.054 10.5355 138.991 10.5986 138.927 10.6618C138.959 9.90385 139.243 9.39854 139.559 9.08272C139.875 8.7669 140.191 8.64057 140.286 8.60899C140.349 8.57741 140.38 8.54583 140.412 8.54583C140.443 8.51425 140.443 8.48267 140.443 8.45108C140.443 8.4195 140.443 8.4195 140.443 8.4195C140.443 8.38792 140.412 8.38792 140.412 8.35634C140.349 8.32476 140.286 8.32476 140.286 8.32476C140.286 8.32476 140.096 8.29318 139.906 8.26159C139.812 8.23001 139.717 8.23001 139.654 8.19843C139.622 8.19843 139.622 8.19843 139.591 8.16685C140.096 7.53521 140.854 7.44046 141.265 7.44046C141.359 7.44046 141.422 7.44046 141.486 7.44046C141.517 7.44046 141.517 7.44046 141.549 7.44046H141.58C141.612 7.44046 141.643 7.44046 141.675 7.44046C141.738 7.44046 141.801 7.44047 141.801 7.40888C141.833 7.3773 141.865 7.34572 141.865 7.31414C141.865 7.28256 141.833 7.25097 141.801 7.21939C141.77 7.21939 141.77 7.18781 141.77 7.18781C141.738 7.18781 141.675 7.12465 141.454 7.0299C141.391 6.99832 141.359 6.96674 141.328 6.93516C141.296 6.90357 141.296 6.90357 141.296 6.90357V6.87199C141.328 6.87199 141.422 6.87199 141.517 6.90357C141.644 6.90357 141.77 6.93516 141.833 6.93516C142.023 6.99832 142.18 7.0299 142.338 7.0299C142.623 7.0299 142.812 6.93515 142.938 6.77725C143.065 6.65092 143.128 6.52459 143.191 6.42985C143.223 6.36668 143.254 6.30352 143.254 6.24035C143.254 6.11403 143.191 6.01928 143.096 6.01928C143.033 6.01928 142.938 5.9877 142.844 5.9877C142.717 5.9877 142.559 6.01928 142.465 6.11403C142.401 6.17719 142.338 6.20877 142.307 6.20877C142.275 6.20877 142.244 6.20877 142.244 6.20877H142.212L141.959 5.9877C141.865 5.95612 141.801 5.92454 141.77 5.92454C141.738 5.89295 141.738 5.89296 141.738 5.89296V5.86137L141.77 5.82979C141.896 5.73505 141.991 5.73505 142.086 5.73505C142.212 5.73505 142.37 5.76663 142.686 5.76663C142.749 5.76663 142.78 5.76663 142.844 5.76663C143.065 5.76663 143.191 5.70346 143.286 5.60872C143.381 5.51397 143.38 5.38765 143.38 5.2929C143.38 5.16657 143.349 5.04025 143.349 5.04025C143.349 5.04025 143.191 4.62968 142.907 4.15595C142.844 4.02963 142.717 3.96646 142.591 3.96646C142.433 3.96646 142.275 4.06121 142.149 4.15595C142.023 4.2507 141.959 4.31386 141.928 4.34544C141.833 4.44019 141.707 4.47177 141.612 4.47177C141.517 4.47177 141.391 4.44019 141.328 4.34544C141.359 4.15595 141.296 4.06121 141.265 3.96646ZM138.58 4.37703C138.675 4.2507 138.864 4.2507 138.991 4.34544L139.022 4.37703C139.243 4.5981 139.559 4.72443 139.906 4.75601C140.254 4.78759 140.633 4.78759 141.012 4.75601C141.391 4.75601 141.801 4.72443 142.18 4.78759C142.559 4.81917 142.938 4.97708 143.223 5.22974C142.907 5.00866 142.528 4.91392 142.149 4.91392C141.77 4.91392 141.391 4.97708 141.012 5.04025C140.633 5.10341 140.254 5.16657 139.843 5.19815C139.654 5.19815 139.433 5.16657 139.212 5.13499C138.991 5.07183 138.801 4.97708 138.612 4.81917C138.485 4.69284 138.454 4.50335 138.58 4.37703ZM136.433 4.06121C136.433 4.02963 136.433 3.99804 136.401 3.96646C136.433 3.99804 136.496 4.02963 136.527 4.09279C136.622 4.18754 136.654 4.31386 136.654 4.44019C136.654 4.56652 136.622 4.72443 136.464 4.91392C136.432 4.81917 136.338 4.72443 136.275 4.66126C136.338 4.5981 136.433 4.47177 136.433 4.21912C136.464 4.18753 136.464 4.12437 136.433 4.06121ZM135.454 4.31386C135.454 4.31386 135.517 4.34544 135.611 4.44019C135.706 4.50335 135.864 4.62968 136.085 4.78759C136.243 4.91392 136.306 5.00866 136.306 5.04025C136.306 5.07183 136.306 5.10341 136.275 5.10341H136.243C135.99 5.19815 135.801 5.32448 135.706 5.45081C135.58 5.57714 135.548 5.73505 135.548 5.86137C135.548 6.14561 135.706 6.39826 135.864 6.52459C137.19 7.75628 138.612 8.16685 139.559 8.29317L139.717 8.32476C139.749 8.32476 139.78 8.32476 139.78 8.35634C139.812 8.35634 139.875 8.38792 139.938 8.38792C139.78 8.48267 139.622 8.60899 139.496 8.7669C139.054 9.20905 138.801 9.8091 138.801 10.5355L138.77 11.2619L139.338 10.7881C139.37 10.7566 139.401 10.725 139.464 10.6934C139.37 10.8829 139.338 11.104 139.338 11.325C139.338 11.4514 139.37 11.5461 139.37 11.6409C138.991 11.5461 138.517 11.1671 138.201 10.7881C138.012 10.5986 137.854 10.3776 137.759 10.2197C137.696 10.1565 137.664 10.0933 137.633 10.0302C137.601 9.99859 137.569 9.96701 137.569 9.96701V9.93543L137.538 9.90385C137.506 9.90385 137.506 9.87227 137.475 9.87227C137.443 9.87227 137.443 9.84069 137.412 9.84069C137.38 9.84069 137.348 9.87227 137.348 9.87227C137.348 9.90385 137.348 9.90385 137.348 9.93543V9.96701C137.348 9.99859 137.348 10.1249 137.348 10.2828C137.348 10.3144 137.348 10.346 137.348 10.3776C137.033 10.2512 136.78 9.99859 136.654 9.74594C136.559 9.61961 136.496 9.52487 136.464 9.43012C136.432 9.39854 136.433 9.36696 136.433 9.33537C136.433 9.30379 136.401 9.30379 136.401 9.30379C136.369 9.17747 136.338 9.05114 136.306 8.98798C136.275 8.92481 136.243 8.89323 136.18 8.89323C136.117 8.89323 136.053 8.92481 136.053 9.01956C136.053 9.08272 136.053 9.20905 136.053 9.30379V9.33537V9.36696C136.053 9.43012 136.054 9.49329 136.022 9.49329V9.52487L135.99 9.49329C135.959 9.4617 135.927 9.4617 135.927 9.43012C135.864 9.36696 135.769 9.17747 135.675 9.05114C135.58 8.92481 135.517 8.7669 135.517 8.7669C135.453 8.67216 135.454 8.57741 135.454 8.51425C135.454 8.45108 135.485 8.38792 135.485 8.35634C135.485 8.32476 135.485 8.32476 135.517 8.32476C135.517 8.32476 135.611 8.23001 135.675 8.10368C135.738 8.00894 135.769 7.88261 135.769 7.78787C135.769 7.56679 135.675 7.3773 135.643 7.34572C135.643 7.34572 135.611 7.25097 135.548 7.12465C135.359 6.71408 134.948 5.79821 134.853 5.41923C134.822 5.35606 134.822 5.2929 134.822 5.22974C134.822 4.81917 135.232 4.47177 135.359 4.37703C135.39 4.34544 135.422 4.31386 135.454 4.31386ZM136.243 13.1252C136.117 13.1252 136.022 13.062 135.896 13.0305C135.643 12.9041 135.453 12.7462 135.327 12.5883C135.296 12.5567 135.296 12.5251 135.264 12.5251C135.39 12.462 135.454 12.3988 135.548 12.3357C135.58 12.3041 135.643 12.3041 135.643 12.2725C135.675 12.2725 135.706 12.2409 135.706 12.2409C135.769 12.2093 135.801 12.2093 135.832 12.2093H135.864C135.864 12.2093 135.927 12.2409 135.959 12.3041C136.022 12.3357 136.085 12.4304 136.18 12.4936C136.275 12.5567 136.275 12.6199 136.275 12.6515V12.6831C136.275 12.6831 136.211 12.841 136.211 13.0305C136.243 13.0305 136.243 13.062 136.243 13.1252ZM135.99 11.9883H135.959C135.959 11.8619 135.896 11.6724 135.643 11.4829C135.611 11.4829 135.611 11.4514 135.58 11.4514C135.675 11.4514 135.801 11.4829 135.927 11.5777C136.117 11.6724 136.275 11.8619 136.306 12.2409C136.18 12.1462 136.053 12.0514 136.053 12.0514L135.99 11.9883ZM134.19 3.33483C134.316 3.33483 134.443 3.36641 134.569 3.46115C134.695 3.5559 134.79 3.71381 134.822 3.96646C134.759 3.93488 134.695 3.9033 134.569 3.9033C134.569 3.9033 134.538 3.9033 134.506 3.9033C134.506 3.77697 134.411 3.58748 134.19 3.39799C134.159 3.36641 134.127 3.36641 134.095 3.33483C134.159 3.33483 134.159 3.33483 134.19 3.33483ZM134.032 4.37703C134.127 4.2507 134.316 4.18754 134.474 4.15595C134.538 4.15595 134.569 4.12437 134.601 4.12437C134.695 4.12437 134.727 4.15595 134.759 4.18753C134.79 4.21912 134.79 4.31386 134.79 4.37703C134.79 4.44019 134.79 4.47177 134.79 4.50335C134.79 4.56652 134.759 4.66126 134.695 4.78759C134.664 4.88234 134.632 4.97708 134.601 5.04025C134.569 5.04025 134.506 5.00866 134.474 5.00866C134.38 5.00866 134.316 5.04024 134.19 5.07183C134.19 5.07183 134.19 5.07183 134.159 5.10341C134.159 5.10341 134.064 4.85075 134.064 4.81917C134.032 4.75601 134.001 4.66126 133.969 4.56652C133.969 4.53494 133.969 4.44019 134.032 4.37703ZM133.527 4.66126C133.59 4.66126 133.59 4.69284 133.622 4.72443L133.653 4.75601L133.938 5.2929C133.811 5.41923 133.685 5.57714 133.622 5.76663C133.432 5.6403 133.211 5.51397 133.085 5.41923C132.99 5.35606 132.959 5.2929 132.959 5.22974C132.959 5.19815 132.959 5.16657 132.959 5.16657V5.13499C132.959 5.13499 132.958 5.10341 132.99 5.10341C133.053 5.04025 133.148 4.85075 133.337 4.72443C133.432 4.69284 133.495 4.66126 133.527 4.66126ZM132.485 4.44019C132.58 4.37703 132.706 4.28228 132.832 4.28228C132.959 4.28228 133.116 4.34544 133.306 4.47177C133.274 4.47177 133.243 4.50335 133.211 4.53493C133.148 4.56652 133.085 4.62968 133.053 4.66126C132.99 4.5981 132.832 4.53493 132.611 4.53493C132.548 4.53493 132.485 4.53494 132.422 4.56652C132.39 4.56652 132.327 4.56652 132.295 4.5981C132.39 4.53494 132.422 4.50335 132.485 4.44019ZM132.516 6.05086C132.39 6.05086 132.264 6.08245 132.106 6.17719C132.074 6.20877 132.043 6.20877 132.011 6.24035C132.043 6.17719 132.074 6.08245 132.137 6.01928C132.232 5.89296 132.358 5.79821 132.58 5.79821C132.674 5.79821 132.769 5.79821 132.864 5.82979C132.832 5.86137 132.769 5.95612 132.706 6.08245C132.674 6.08245 132.611 6.05086 132.516 6.05086ZM133.148 6.6825C133.022 6.65092 132.99 6.61934 132.927 6.55617C132.895 6.49301 132.864 6.46143 132.864 6.39826C132.864 6.24036 132.99 6.05086 133.053 5.9877C133.116 5.92454 133.211 5.92454 133.306 5.92454C133.337 5.92454 133.559 6.01928 133.559 6.05086C133.559 6.08245 133.559 6.11403 133.559 6.11403C133.559 6.14561 133.559 6.17719 133.559 6.20877C133.559 6.39826 133.59 6.61934 133.653 6.80883C133.495 6.80883 133.338 6.74566 133.148 6.6825ZM134.317 5.32448C134.38 5.2929 134.443 5.26132 134.474 5.26132C134.506 5.26132 134.506 5.26132 134.506 5.26132L134.538 5.2929C134.538 5.32448 134.538 5.41923 134.569 5.48239C134.727 6.01928 135.359 7.40888 135.39 7.47205C135.422 7.53521 135.454 7.66154 135.454 7.78787C135.454 7.85103 135.422 7.91419 135.39 7.97736C135.359 8.04052 135.296 8.10368 135.264 8.13527C135.201 8.19843 135.169 8.19843 135.106 8.19843C135.011 8.19843 134.853 8.13527 134.601 7.91419C134.253 7.62996 133.748 6.87199 133.748 6.20877C133.811 5.89295 133.938 5.54555 134.317 5.32448ZM134.032 14.8306C134.032 14.8622 134.001 14.8622 134.001 14.8938V14.8622C134.001 14.7675 134.032 14.6411 134.095 14.5148C134.159 14.3885 134.253 14.2937 134.411 14.199C134.411 14.2937 134.443 14.3885 134.474 14.4832C134.316 14.5148 134.159 14.6095 134.032 14.8306ZM134.348 12.8094C134.253 12.8094 134.159 12.8094 134.032 12.8725C134.001 12.8725 134.001 12.9041 133.969 12.9041C134.001 12.8725 134.064 12.8094 134.127 12.7778C134.253 12.6831 134.38 12.6199 134.601 12.6199C134.664 12.6199 134.727 12.6199 134.79 12.6515C134.695 12.7146 134.664 12.8094 134.601 12.8725C134.506 12.8094 134.443 12.8094 134.348 12.8094ZM135.454 15.8097C135.454 15.8412 135.453 15.8412 135.422 15.8728C135.39 15.8097 135.39 15.7465 135.39 15.6517C135.39 15.4938 135.453 15.3043 135.611 15.1464C135.611 15.178 135.643 15.2096 135.675 15.2412C135.706 15.2728 135.738 15.3359 135.769 15.3991C135.643 15.4307 135.517 15.5886 135.454 15.8097ZM147.644 14.578C147.644 14.6095 147.612 14.6727 147.612 14.7043C147.486 14.7359 147.36 14.7675 147.233 14.8938C147.202 14.8938 147.202 14.9254 147.17 14.9254C147.202 14.8622 147.234 14.799 147.297 14.7043C147.391 14.578 147.518 14.4832 147.707 14.4516C147.676 14.5148 147.644 14.5464 147.644 14.578ZM147.17 13.3147C147.265 13.2515 147.455 13.1568 147.644 13.1568C147.707 13.1568 147.77 13.1568 147.802 13.1884C147.739 13.2199 147.676 13.2831 147.612 13.3779C147.549 13.3463 147.455 13.3147 147.328 13.3147C147.297 13.3147 147.265 13.3147 147.233 13.3147C147.202 13.2831 147.202 13.2831 147.17 13.3147ZM147.865 13.4094C147.928 13.3463 147.991 13.3147 148.055 13.2831C148.118 13.2199 148.181 13.2199 148.213 13.2199C148.276 13.2199 148.339 13.2515 148.37 13.2831C148.434 13.3147 148.56 13.441 148.655 13.5358C148.655 13.5673 148.655 13.6305 148.655 13.6621C148.655 13.7253 148.655 13.7884 148.623 13.8516C148.623 13.9147 148.592 14.0095 148.56 14.0727C148.56 14.1042 148.528 14.1358 148.528 14.199C148.497 14.199 148.434 14.2306 148.37 14.2306C148.307 14.2306 148.276 14.2306 148.213 14.2306C148.086 14.2306 148.023 14.199 147.991 14.1674C147.96 14.1674 147.96 14.1358 147.96 14.1042V14.0727C147.96 14.0411 147.96 14.0095 147.96 13.9463C147.96 13.8516 147.96 13.7568 147.865 13.6621C147.834 13.6305 147.834 13.5989 147.834 13.5673C147.77 13.5042 147.802 13.4726 147.865 13.4094ZM148.149 16.1886C148.149 16.2202 148.118 16.2202 148.118 16.2518C148.118 16.1255 148.149 15.9044 148.276 15.7465V15.7781C148.276 15.8412 148.307 15.9044 148.339 15.9676C148.276 16.0307 148.213 16.0939 148.149 16.1886ZM148.402 15.178C148.276 15.178 148.149 15.1464 147.96 15.0833C147.897 15.0833 147.897 15.0517 147.865 15.0201C147.834 14.9885 147.834 14.9569 147.834 14.9254C147.834 14.8306 147.865 14.7359 147.897 14.6727C147.928 14.5464 147.96 14.4832 147.991 14.4832C147.991 14.4201 148.023 14.4201 148.055 14.4201C148.086 14.4201 148.086 14.4201 148.118 14.4201H148.149H148.181C148.276 14.4201 148.37 14.4201 148.465 14.4201C148.465 14.4516 148.465 14.4832 148.465 14.5148C148.465 14.7675 148.56 14.9254 148.623 15.0517C148.623 15.0833 148.592 15.1149 148.56 15.1464C148.497 15.178 148.434 15.178 148.402 15.178ZM149.35 15.936C149.286 16.0307 149.223 16.0939 149.065 16.0939C149.002 16.0939 148.907 16.0623 148.781 16.0307C148.655 15.9676 148.56 15.9044 148.528 15.8412C148.497 15.7781 148.465 15.7149 148.465 15.6517C148.465 15.6202 148.465 15.5886 148.465 15.557C148.465 15.557 148.497 15.5254 148.497 15.4938C148.528 15.4623 148.528 15.4623 148.56 15.4307C148.592 15.4307 148.623 15.3675 148.655 15.3359C148.686 15.3043 148.718 15.2728 148.749 15.2728C148.939 15.4623 149.16 15.5886 149.413 15.7149C149.413 15.7781 149.413 15.8728 149.35 15.936ZM156.076 13.2199C155.95 13.2831 155.729 13.3463 155.571 13.3779C155.508 13.3779 155.413 13.4094 155.382 13.4094C155.318 13.4094 155.287 13.441 155.287 13.441C155.287 13.441 155.255 13.441 155.224 13.4726C155.192 13.4726 155.192 13.4726 155.161 13.5042C155.129 13.5042 155.129 13.5358 155.097 13.5673V13.5989C155.097 13.6305 155.129 13.6621 155.161 13.6937C155.161 13.7253 155.192 13.7253 155.192 13.7253C155.255 13.7884 155.382 13.8516 155.508 13.9147C155.539 13.9463 155.603 13.9463 155.634 13.9779C155.54 14.0411 155.287 14.2306 155.097 14.2937C154.971 14.3569 154.782 14.3885 154.624 14.4201C154.403 14.3885 154.276 14.4201 154.276 14.4201C154.276 14.4201 154.245 14.4201 154.182 14.4516C154.15 14.4516 154.15 14.4832 154.118 14.4832C154.087 14.4832 154.087 14.5148 154.087 14.5464C154.087 14.578 154.118 14.6095 154.118 14.6411C154.118 14.6727 154.15 14.6727 154.182 14.7043C154.245 14.7359 154.308 14.7675 154.371 14.799C154.403 14.8306 154.466 14.8306 154.529 14.8622C154.56 14.8622 154.561 14.8622 154.592 14.8622C154.529 14.9254 154.339 15.0517 154.055 15.0833C153.929 15.0833 153.771 15.1149 153.645 15.1149C153.455 15.1149 153.266 15.1149 153.108 15.0833C152.981 15.0833 152.887 15.0833 152.855 15.0833C152.855 15.0833 152.824 15.0833 152.792 15.0833C152.76 15.0833 152.729 15.0833 152.697 15.0833C152.666 15.0833 152.634 15.1149 152.634 15.1464C152.634 15.178 152.634 15.178 152.634 15.2096C152.634 15.2412 152.666 15.3043 152.697 15.3043C152.729 15.3359 152.729 15.3359 152.76 15.3359L153.139 15.5254C152.887 15.557 152.318 15.6202 152.097 15.6517C151.844 15.7149 151.181 15.8728 151.118 15.9044C151.118 15.9044 151.086 15.9044 151.055 15.9044C150.897 15.9044 150.455 15.8412 150.044 15.7149C149.602 15.5886 149.128 15.3675 148.876 15.0201C148.813 14.9254 148.718 14.7675 148.718 14.5464C148.718 14.5148 148.718 14.4832 148.718 14.4832C148.718 14.3253 148.844 14.1042 148.876 13.9463C148.907 13.7568 148.876 13.5989 148.939 13.4726C148.971 13.4094 149.002 13.3463 149.034 13.3147C149.065 13.2831 149.065 13.2831 149.065 13.2515C149.192 13.1568 149.35 13.1568 149.35 13.1568C149.35 13.1568 149.76 13.1568 150.013 13.1568C150.044 13.1568 150.076 13.1568 150.139 13.1568C150.171 13.1568 150.202 13.1568 150.202 13.1568V13.1884C150.202 13.2199 150.202 13.2199 150.171 13.2515C150.139 13.2831 149.886 13.5358 149.886 13.8516C149.886 13.9779 149.918 14.1042 150.044 14.199C150.265 14.4201 150.613 14.5148 150.897 14.5148C150.992 14.5148 151.055 14.5148 151.118 14.4832C151.371 14.4201 151.56 14.2306 151.813 14.1674C152.002 14.1042 152.223 14.1042 152.381 14.1042C152.539 14.1042 152.666 14.0411 152.76 13.9779C152.918 13.8516 153.139 13.6937 153.203 13.5042C153.329 13.2831 153.234 13.1252 153.139 12.9041C153.013 12.6831 153.045 12.4304 153.045 12.1777C153.045 12.1462 153.045 12.1146 153.045 12.1146C153.045 12.083 153.013 12.083 153.013 12.0514C152.981 12.0198 152.981 12.0198 152.95 12.0198C152.918 12.0198 152.887 12.0198 152.887 12.0514L152.855 12.083C152.855 12.083 152.729 12.2093 152.602 12.3988C152.602 12.2093 152.666 11.9882 152.697 11.8303C152.729 11.7356 152.729 11.6409 152.76 11.5777C152.792 11.5145 152.792 11.4829 152.792 11.4829C152.792 11.4829 152.824 11.4198 152.824 11.3566C152.824 11.325 152.824 11.2934 152.792 11.2619C152.76 11.2303 152.729 11.1987 152.666 11.1987C152.634 11.1987 152.634 11.1987 152.602 11.1987C152.508 11.2303 152.413 11.2934 152.287 11.3882C152.255 11.4198 152.223 11.4514 152.192 11.4514C152.287 11.1671 152.602 10.4407 153.297 10.0302C153.455 9.93543 153.645 9.84069 153.803 9.77752C154.087 9.65119 154.371 9.55645 154.687 9.61961C154.971 9.68278 155.192 9.87227 155.413 10.0618C155.476 10.1249 156.14 10.7881 156.14 10.7881C155.982 10.9145 155.761 11.0724 155.603 11.2303C155.35 11.4829 155.192 11.8303 155.192 12.1146C155.192 12.3672 155.382 12.7146 155.666 12.8725C155.824 12.9673 155.982 12.9989 156.108 13.0305C156.171 13.0305 156.234 13.062 156.266 13.062H156.297C156.203 13.1252 156.14 13.1568 156.076 13.2199ZM149.286 12.3357C149.318 12.3357 149.349 12.3357 149.381 12.3357C149.507 12.3357 149.665 12.3672 149.792 12.462C149.918 12.5567 150.044 12.6831 150.139 12.9041C150.107 12.9041 150.107 12.9041 150.076 12.9041C150.044 12.9041 150.013 12.9041 149.981 12.9041C149.918 12.9041 149.886 12.9041 149.823 12.9041L149.792 12.841C149.76 12.7462 149.665 12.5251 149.35 12.3988C149.35 12.3672 149.318 12.3672 149.286 12.3357ZM161.256 14.6727C161.224 14.7359 161.224 14.799 161.224 14.8306C161.224 14.8622 161.224 14.9254 161.224 14.9569C161.129 14.9885 160.908 15.0517 160.751 15.3359C160.751 15.3675 160.719 15.3675 160.719 15.3991C160.719 15.2728 160.751 15.1464 160.814 14.9885C160.908 14.8622 161.035 14.7359 161.256 14.6727ZM161.161 13.2831C161.13 13.2831 161.098 13.3147 161.098 13.3147C161.13 13.2831 161.161 13.2199 161.224 13.1884C161.351 13.0936 161.477 13.0305 161.666 13.0305C161.761 13.0305 161.887 13.062 162.014 13.1252C161.982 13.1568 161.951 13.1568 161.951 13.1884C161.887 13.2515 161.824 13.3147 161.793 13.3463C161.73 13.3147 161.635 13.2515 161.445 13.2515C161.382 13.2515 161.287 13.2515 161.161 13.2831ZM162.14 13.3463C162.203 13.2831 162.235 13.2831 162.266 13.2831C162.298 13.2831 162.33 13.3147 162.361 13.3463C162.393 13.3779 162.424 13.441 162.424 13.4726C162.456 13.5989 162.456 13.7253 162.519 13.82C162.551 13.8832 162.582 13.9779 162.645 14.0727C162.677 14.1358 162.74 14.199 162.772 14.2621C162.867 14.3885 162.645 14.4201 162.551 14.4201C162.456 14.4201 162.33 14.3885 162.235 14.3885C162.14 14.3569 162.045 14.3569 161.982 14.2621C161.888 14.1674 161.793 13.9779 161.793 13.8516C161.793 13.7884 161.824 13.7253 161.856 13.6937C161.887 13.5989 161.951 13.5673 162.14 13.3463ZM162.709 15.7465C162.677 15.8097 162.582 15.936 162.582 16.1255C162.582 16.1886 162.582 16.2518 162.614 16.3465C162.614 16.3781 162.645 16.4097 162.645 16.4097C162.551 16.315 162.393 16.1255 162.393 15.8728C162.393 15.7465 162.424 15.5886 162.519 15.4307C162.551 15.4623 162.551 15.4938 162.582 15.4938C162.614 15.5254 162.677 15.5886 162.709 15.6202C162.709 15.6202 162.709 15.6202 162.709 15.6517V15.7465ZM164.825 16.1255C164.698 16.1255 164.54 16.0939 164.382 16.0307C164.256 15.936 164.13 15.8097 164.035 15.557C164.067 15.557 164.098 15.557 164.13 15.557H164.351V15.6202C164.382 15.7149 164.446 15.936 164.73 16.0939C164.793 16.0939 164.825 16.0939 164.825 16.1255ZM164.856 14.4832C164.888 14.5464 164.951 14.578 164.982 14.6411C165.014 14.7043 165.046 14.7675 165.046 14.8938C165.046 14.9254 165.046 14.9569 165.046 14.9885C165.014 15.1464 164.951 15.2096 164.888 15.2728C164.825 15.3043 164.761 15.3043 164.73 15.3043L164.13 15.3359C164.13 15.3359 164.098 15.3359 164.067 15.3359C164.035 15.3359 164.035 15.3359 164.035 15.3043C164.035 15.3043 164.035 15.2728 164.003 15.2728V15.2412C164.035 15.178 164.035 15.0517 164.035 14.9254C164.035 14.799 164.035 14.6727 164.035 14.578V14.4201C164.035 14.4201 164.035 14.3885 164.035 14.3569C164.035 14.3253 163.972 14.2937 163.909 14.2937H163.877C163.846 14.2937 163.814 14.3253 163.782 14.3569C163.782 14.3885 163.751 14.4201 163.751 14.4201C163.751 14.4516 163.751 14.4516 163.751 14.4516C163.751 14.4516 163.751 14.4832 163.751 14.5148C163.751 14.578 163.751 14.6411 163.751 14.7043C163.751 14.8306 163.719 15.0201 163.688 15.178C163.656 15.2728 163.561 15.3675 163.498 15.4623C163.403 15.557 163.246 15.7465 163.088 15.7149C163.024 15.6833 162.961 15.6202 162.93 15.5886C162.867 15.5254 162.803 15.4307 162.74 15.3675C162.677 15.3359 162.677 15.3043 162.677 15.2728C162.677 15.2412 162.677 15.2412 162.677 15.2096C162.677 15.2096 162.772 15.1149 162.835 15.0201C162.867 14.9569 162.93 14.9254 162.93 14.8938C162.961 14.8622 162.993 14.8306 162.993 14.8306C162.993 14.8306 162.993 14.799 163.024 14.799C163.024 14.7675 163.024 14.7675 163.024 14.7359C163.024 14.7043 162.993 14.6411 162.961 14.6411C162.961 14.6411 162.93 14.6411 162.898 14.6411C162.866 14.6411 162.835 14.6727 162.803 14.6727L162.772 14.7043L162.519 15.0517V15.0833C162.488 15.1149 162.424 15.2096 162.298 15.3043C162.203 15.3991 162.077 15.4623 161.951 15.4938C161.919 15.4938 161.919 15.4938 161.888 15.4938C161.73 15.4938 161.603 15.4307 161.54 15.3675C161.508 15.3359 161.477 15.3043 161.477 15.2728L161.445 15.2412C161.414 15.2096 161.351 15.0833 161.351 14.9569C161.351 14.8306 161.382 14.7359 161.54 14.6727C161.572 14.6411 161.603 14.6411 161.666 14.6411C161.824 14.6411 162.014 14.7043 162.203 14.7359C162.266 14.7359 162.33 14.7359 162.361 14.7359C162.456 14.7359 162.488 14.7359 162.488 14.7359C162.519 14.7359 162.803 14.7043 163.056 14.3569C163.214 14.1358 163.246 13.82 163.277 13.6937C163.277 13.5989 163.309 13.5358 163.309 13.441C163.309 12.9041 163.056 12.5883 162.93 12.3041C162.898 12.2409 162.867 12.1462 162.835 12.0514C162.772 11.9567 162.74 11.8619 162.645 11.7988C162.582 11.7672 162.519 11.7356 162.456 11.7356C162.33 11.7356 162.235 11.7672 162.235 11.7672C162.235 11.7672 162.203 11.7672 162.172 11.7988C162.014 11.8619 161.666 11.9567 161.256 12.0514C160.972 12.1146 160.624 12.1146 160.372 12.1146C160.245 12.1146 160.119 12.1146 160.056 12.1146C160.024 12.1146 159.993 12.1146 159.961 12.1146C159.866 12.1146 159.803 12.1146 159.771 12.1462C159.74 12.1777 159.708 12.2093 159.708 12.2409C159.708 12.3041 159.74 12.3357 159.74 12.3357C159.74 12.3357 159.835 12.4304 159.929 12.5567C159.866 12.5883 159.835 12.5883 159.771 12.5883C159.614 12.5883 159.393 12.4936 159.235 12.3988C159.14 12.3357 159.014 12.2409 158.919 12.1462C158.856 12.083 158.792 11.9883 158.698 11.9251C158.445 11.8303 158.571 12.3357 158.571 12.4304C158.319 12.3988 158.034 12.2409 157.813 12.1146C157.687 12.0514 157.592 11.9883 157.529 11.9251C157.466 11.8619 157.403 11.8619 157.403 11.8619C157.403 11.8619 157.371 11.8303 157.34 11.7988C157.213 11.704 156.929 11.4514 156.582 11.0724C156.297 10.7566 155.95 10.4092 155.634 10.1249C155.318 9.84068 155.003 9.58803 154.75 9.52487C154.466 9.4617 154.118 9.43012 153.708 9.43012C153.392 9.43012 153.013 9.4617 152.666 9.55645C151.244 9.90385 149.792 10.8829 148.307 11.6724C147.549 12.083 146.823 12.3357 146.286 12.5251C146.002 12.6199 145.781 12.6831 145.623 12.7146C145.528 12.7462 145.465 12.7778 145.433 12.8094C145.402 12.8094 145.307 12.8725 145.244 12.9041L145.654 13.4094C145.591 13.441 145.339 13.5673 144.96 13.5673C144.896 13.5673 144.833 13.5673 144.738 13.5673C144.738 13.5673 144.707 13.5673 144.675 13.5673C144.644 13.5673 144.612 13.5673 144.581 13.5989C144.549 13.5989 144.517 13.6305 144.486 13.6621C144.486 13.6937 144.454 13.7253 144.454 13.7253C144.454 13.7884 144.517 13.82 144.517 13.82C144.517 13.82 144.612 13.9147 144.77 13.9779C144.644 14.0727 144.423 14.1042 144.233 14.1042C143.981 14.1042 143.728 14.0411 143.507 14.0095C143.412 13.9779 143.317 13.9463 143.254 13.9463C143.191 13.9147 143.159 13.9147 143.159 13.9147C143.159 13.9147 143.065 13.8832 142.97 13.8832C142.938 13.8832 142.875 13.8832 142.844 13.9147C142.812 13.9463 142.812 13.9779 142.812 14.0095C142.812 14.0727 142.875 14.1042 142.875 14.1358C142.875 14.1358 143.033 14.2937 143.254 14.4832C143.286 14.3885 143.065 14.4201 142.844 14.4201C142.623 14.4201 142.402 14.3885 142.244 14.3569C142.149 14.3569 142.086 14.3253 142.054 14.3253C141.991 14.3253 141.991 14.2937 141.991 14.2937C141.991 14.2937 141.833 14.2621 141.675 14.2621C141.612 14.2621 141.58 14.2621 141.549 14.2937C141.517 14.3253 141.517 14.3569 141.517 14.3885C141.517 14.4516 141.549 14.4832 141.58 14.5148C141.643 14.578 141.77 14.6411 141.833 14.7043C141.738 14.7359 141.644 14.7359 141.517 14.7359C141.075 14.7359 140.538 14.6095 140.254 14.3885C140.254 14.3885 140.222 14.3569 140.191 14.3253C140.159 14.2937 140.128 14.2937 140.064 14.2937C140.033 14.2937 139.97 14.3253 139.938 14.3569C139.907 14.3885 139.906 14.4201 139.906 14.4516C139.906 14.5148 139.938 14.5464 139.97 14.6095C140.033 14.6727 140.096 14.7359 140.159 14.799C140.191 14.8306 140.222 14.8622 140.222 14.8622C140.191 14.8622 140.159 14.8938 140.096 14.8938C139.938 14.8938 139.717 14.8622 139.433 14.7675C139.243 14.7043 139.085 14.6727 138.959 14.6727C138.896 14.6727 138.833 14.6727 138.77 14.7359C138.706 14.7675 138.675 14.8306 138.612 14.8938C138.549 14.9885 138.422 15.0517 138.327 15.0833C138.296 15.0833 138.233 15.1149 138.201 15.1149H138.17H138.138L137.443 15.1464C137.159 15.1464 137.033 15.2728 136.906 15.3991C136.717 15.6517 136.559 15.7465 136.433 15.7465C136.306 15.7465 136.18 15.6517 136.117 15.557C136.054 15.4307 135.927 15.2412 135.801 15.0833C135.769 15.0517 135.769 15.0201 135.769 14.9885C135.896 14.9254 136.022 14.8622 136.117 14.799C136.275 14.7043 136.401 14.6727 136.496 14.6095C136.527 14.6095 136.559 14.578 136.59 14.578H136.622C136.685 14.5464 136.717 14.5148 136.717 14.4516C136.717 14.4201 136.717 14.4201 136.717 14.4201C136.685 14.3569 136.654 14.3253 136.59 14.3253H136.559C136.527 14.3253 136.054 14.5148 135.296 15.0201H135.264C135.169 15.0201 134.98 14.9569 134.822 14.7359C134.696 14.578 134.632 14.3253 134.601 14.0727H134.695C135.706 14.0727 136.243 13.9147 136.243 13.9147C136.306 13.9147 136.338 13.8516 136.338 13.7884V13.7568C136.306 13.6937 136.275 13.6621 136.211 13.6621H136.18C136.148 13.6621 135.643 13.82 134.695 13.82C134.664 13.82 134.601 13.82 134.569 13.82C134.569 13.7884 134.569 13.7253 134.569 13.6937C134.569 13.5989 134.569 13.5358 134.569 13.441C134.601 13.0936 134.79 12.841 135.043 12.6515C135.106 12.7146 135.169 12.8094 135.264 12.9041C135.39 13.0305 135.548 13.1568 135.738 13.2515C135.896 13.3147 136.085 13.3779 136.306 13.4094C136.433 13.5358 136.622 13.5989 136.812 13.5989C136.938 13.5989 137.096 13.5989 137.222 13.5673C137.696 13.5042 138.17 13.3147 138.58 13.062C138.864 12.9041 139.18 12.7462 139.464 12.5567C139.907 12.2725 140.38 12.0198 140.854 11.7672C141.77 11.325 142.244 11.1671 142.496 11.1671C142.559 11.1671 142.623 11.1671 142.686 11.1671C142.812 11.1671 142.907 11.1987 142.907 11.2303C142.907 11.2303 142.907 11.2619 142.907 11.2935C142.907 11.3566 142.907 11.4514 142.812 11.6093C142.78 11.6724 142.749 11.7356 142.717 11.7672L142.496 12.1146L142.907 12.2409C142.97 12.2725 143.033 12.2725 143.128 12.2725C143.349 12.2725 143.57 12.1777 143.791 12.0198C143.886 11.9251 143.981 11.8303 144.107 11.704V12.5567L144.581 12.2725C144.612 12.2409 144.675 12.2093 144.738 12.1777L144.77 12.1462C144.928 12.0198 145.118 11.8619 145.181 11.7672C145.497 11.3882 145.718 10.9776 145.781 10.4723L146.033 10.8829L146.286 10.3776C146.286 10.3776 146.318 10.346 146.318 10.3144C146.349 10.2512 146.412 10.1249 146.444 9.99859C146.539 9.74594 146.633 9.33537 146.633 8.86165V8.73532L146.949 9.24063V8.10368V8.0721C147.328 7.97736 148.497 7.7247 149.728 7.53521C150.929 7.34572 152.223 7.28256 152.887 7.25097C152.981 7.25097 153.045 7.25097 153.108 7.25097C153.992 7.25097 155.54 7.34572 156.74 7.50363C156.929 7.53521 157.119 7.56679 157.308 7.56679H157.371C158.192 7.69312 158.887 7.85103 159.487 7.85103C159.993 7.85103 160.308 7.69312 160.498 7.50363C160.687 7.31414 160.719 7.0299 160.719 6.84041C160.719 6.42985 160.561 6.14561 160.277 5.9877C159.993 5.82979 159.614 5.76663 159.203 5.76663C158.319 5.76663 157.277 6.05086 156.771 6.11403C155.287 6.36668 152.855 6.80883 150.802 6.84041C150.802 6.84041 150.771 6.84041 150.739 6.84041C149.95 6.84041 149.286 6.71408 148.813 6.46143C148.37 6.20877 148.118 5.86137 148.118 5.45081C148.118 4.97708 148.37 4.66126 148.781 4.47177C149.192 4.28228 149.76 4.21912 150.36 4.21912C150.486 4.21912 150.613 4.21912 150.739 4.21912C150.802 4.21912 150.865 4.21912 150.897 4.21912C151.529 4.21912 151.971 4.06121 152.413 3.9033C152.855 3.74539 153.329 3.5559 153.992 3.5559C154.055 3.5559 154.087 3.5559 154.15 3.5559C154.56 3.5559 154.939 3.61906 155.255 3.68223C155.508 3.74539 155.697 3.80855 155.824 3.87172C155.634 3.93488 155.476 4.02963 155.382 4.15595C155.255 4.28228 155.192 4.44019 155.192 4.56652C155.192 4.5981 155.192 4.66126 155.224 4.69284L155.255 4.72443L155.287 4.69284C155.792 4.44019 156.234 4.31386 156.645 4.31386C157.277 4.31386 157.75 4.56652 157.971 4.78759C157.813 4.78759 157.624 4.75601 157.498 4.75601C156.898 4.75601 156.55 4.88234 156.14 5.04025C155.634 5.26132 154.592 5.67188 153.803 5.67188C153.487 5.67188 152.95 5.67188 152.381 5.48239C151.592 5.19815 150.644 4.78759 149.918 4.78759C149.697 4.78759 149.413 4.81917 149.192 4.91392C148.97 5.00866 148.781 5.19815 148.781 5.51397C148.781 5.67188 148.844 5.82979 148.939 5.92454C149.097 6.08245 149.35 6.20877 149.634 6.27194C149.918 6.3351 150.265 6.36668 150.613 6.36668C151.529 6.36668 153.676 6.24036 155.129 5.95612C156.613 5.67188 158.224 5.16657 159.077 5.13499C159.171 5.13499 159.266 5.13499 159.329 5.13499C160.372 5.13499 160.908 5.51397 161.161 5.86137C161.287 6.05086 161.351 6.20877 161.382 6.36668C161.414 6.42985 161.414 6.49301 161.414 6.52459C161.414 6.55617 161.414 6.55617 161.414 6.55617V6.58776V6.6825L161.477 6.61934C161.856 6.20877 162.298 6.05086 162.677 6.05086C163.214 6.05086 163.656 6.36668 163.751 6.74566C163.656 6.71408 163.403 6.65092 163.119 6.65092C162.898 6.65092 162.614 6.6825 162.361 6.84041C161.951 7.06148 161.73 7.34572 161.54 7.62996C161.319 7.91419 161.098 8.19843 160.593 8.45108C160.214 8.64058 159.645 8.70374 159.108 8.70374C158.982 8.70374 158.856 8.70374 158.729 8.70374H158.603L158.698 8.7669C159.045 9.01956 159.582 9.33537 159.898 9.52487C160.466 9.87227 161.098 9.99859 161.477 9.99859C161.698 9.99859 162.014 9.96701 162.393 9.68278C162.582 9.55645 162.74 9.33538 162.835 9.17747C162.898 9.08272 162.93 9.01956 162.961 8.95639C162.961 8.92481 162.993 8.92481 162.993 8.89323C163.024 8.92481 163.056 8.95639 163.088 9.05114C163.151 9.17747 163.182 9.33538 163.214 9.49329C163.245 9.58803 163.246 9.68278 163.277 9.74594C163.277 9.8091 163.309 9.90385 163.403 9.87227C163.53 9.84068 163.561 9.68277 163.561 9.58803C163.593 9.52487 163.593 9.43012 163.624 9.36696C163.688 9.4617 163.719 9.68278 163.782 9.87227C163.814 10.0618 163.846 10.2197 163.846 10.2512C163.846 10.2512 163.846 10.3144 163.877 10.3776C163.877 10.4092 163.909 10.4407 163.94 10.4723C163.972 10.5039 164.003 10.5355 164.035 10.5355C164.067 10.5355 164.098 10.5355 164.13 10.5039C164.193 10.4407 164.225 10.346 164.256 10.2197C164.351 10.4407 164.382 10.6618 164.382 10.8513C164.382 10.9776 164.382 11.1355 164.351 11.1987C164.351 11.2303 164.351 11.2619 164.319 11.2935C164.288 11.4198 164.288 11.6093 164.446 11.6093C164.667 11.6093 164.73 11.2619 164.761 11.104C164.825 11.1987 164.825 11.2934 164.825 11.3882C164.825 11.5777 164.73 11.7672 164.667 11.9567C164.572 12.1777 164.54 12.3357 164.54 12.462C164.54 12.6199 164.604 12.6515 164.604 12.6515C164.888 12.9041 164.951 13.1884 164.951 13.4094C164.951 13.5673 164.919 13.6937 164.825 13.8516C164.825 13.8516 164.793 13.8832 164.793 13.9147C164.698 14.0411 164.604 14.1674 164.604 14.3253C164.793 14.3569 164.825 14.4201 164.856 14.4832Z" fill="#171B34"/>
<path d="M138.043 22.7253C138.517 22.7885 138.896 23.1359 138.991 23.6096C139.054 23.6096 139.086 23.6096 139.149 23.6096C139.591 23.6096 139.97 23.8623 140.159 24.2412C140.538 24.1465 140.854 23.957 141.075 23.8623C141.96 23.4201 142.023 22.8516 141.549 22.1568C141.423 21.9673 141.107 21.6199 141.075 21.3041C141.044 21.0831 141.138 20.8304 141.044 20.7672C140.949 20.7041 140.759 20.862 140.538 20.9251C140.222 20.9883 139.844 20.7988 139.591 20.7357C138.801 20.5146 138.264 20.7357 138.107 21.7147C138.075 21.9673 138.012 22.3147 138.043 22.7253ZM137.822 20.6725C137.885 20.7041 137.949 20.7041 137.98 20.6725L138.296 20.1672C138.359 20.104 138.328 20.0409 138.296 19.9777L137.949 19.6619C137.885 19.6303 137.822 19.6303 137.791 19.6619L137.475 20.0093C137.38 20.0724 137.38 20.1356 137.443 20.1988L137.822 20.6725ZM134.79 23.8623C134.98 23.957 135.296 24.1149 135.675 24.2097C135.864 23.8307 136.243 23.578 136.685 23.578C136.717 23.578 136.78 23.578 136.812 23.578C136.843 23.3569 136.938 23.1359 137.128 22.978C137.317 22.7885 137.57 22.6937 137.822 22.6621C137.854 22.2832 137.791 21.9042 137.759 21.6831C137.601 20.7041 137.096 20.4514 136.275 20.7041C136.054 20.7672 135.643 20.9567 135.327 20.8936C135.106 20.8304 134.917 20.6725 134.822 20.7357C134.727 20.7988 134.822 21.0199 134.822 21.2725C134.79 21.5884 134.475 21.9042 134.348 22.1253C133.843 22.8516 133.906 23.4517 134.79 23.8623ZM132.706 23.5464L132.959 23.957C132.99 24.0202 133.085 24.0202 133.117 23.9886L133.685 23.7991C133.748 23.7675 133.748 23.6728 133.717 23.6412L133.338 23.199C133.306 23.1359 133.243 23.1043 133.18 23.1675L132.769 23.4201C132.706 23.4201 132.674 23.5149 132.706 23.5464ZM142.149 23.7675L142.717 23.9254C142.781 23.957 142.844 23.9254 142.875 23.8623L143.065 23.4201C143.096 23.3569 143.065 23.2938 143.002 23.2622L142.56 23.0727C142.496 23.0411 142.433 23.0727 142.402 23.1359L142.054 23.6412C142.054 23.6728 142.086 23.7359 142.149 23.7675ZM135.422 28.7259C135.422 28.6627 135.359 28.6311 135.296 28.6311L134.727 28.8522C134.664 28.8522 134.633 28.9154 134.633 29.0101L134.727 29.4838C134.727 29.547 134.822 29.6102 134.885 29.5786L135.359 29.4838C135.422 29.4522 135.485 29.3891 135.454 29.3259L135.422 28.7259ZM142.56 25.315C142.528 24.4939 142.149 24.0517 141.17 24.2097C140.949 24.2412 140.57 24.3044 140.222 24.4307C140.349 24.9045 140.096 25.4098 139.686 25.6624C139.78 25.8835 139.812 26.1046 139.78 26.3256C139.749 26.5783 139.622 26.7994 139.433 26.9573C139.622 27.2731 139.875 27.4942 140.033 27.6521C140.728 28.3469 141.296 28.2206 141.802 27.5889C141.959 27.3994 142.181 27.0204 142.465 26.8941C142.686 26.7994 142.939 26.7994 142.97 26.7046C143.002 26.6099 142.781 26.4836 142.686 26.2625C142.528 26.0098 142.56 25.5677 142.56 25.315ZM136.148 25.7256C135.959 25.6308 135.801 25.4729 135.675 25.2519C135.548 24.9992 135.517 24.715 135.58 24.4623C135.233 24.336 134.885 24.2728 134.664 24.2412C133.685 24.0833 133.306 24.4939 133.275 25.3466C133.275 25.5993 133.306 26.0098 133.148 26.2941C133.022 26.5151 132.801 26.6415 132.832 26.7362C132.864 26.8309 133.117 26.831 133.338 26.9257C133.622 27.052 133.843 27.431 134.001 27.6205C134.506 28.2837 135.075 28.3785 135.769 27.6837C135.927 27.5258 136.148 27.3047 136.369 26.9889C136.054 26.673 135.959 26.1677 136.148 25.7256ZM141.202 28.7574L140.633 28.5995C140.57 28.5995 140.507 28.6311 140.507 28.6943L140.538 29.2943C140.538 29.3575 140.57 29.4207 140.665 29.4207L141.138 29.4838C141.202 29.4838 141.265 29.4522 141.265 29.3891L141.328 28.9154C141.296 28.8206 141.265 28.7574 141.202 28.7574ZM139.749 27.9047C140.191 28.7574 139.907 29.2628 139.149 29.5786C138.928 29.6733 138.485 29.7365 138.264 29.9891C138.107 30.1786 138.043 30.3997 137.949 30.3997C137.854 30.3997 137.791 30.147 137.633 29.9891C137.412 29.7365 136.97 29.6733 136.748 29.5786C135.959 29.2943 135.675 28.789 136.117 27.9047C136.212 27.7152 136.37 27.431 136.591 27.1468C136.748 27.2415 136.97 27.3047 137.159 27.3047C137.443 27.3047 137.728 27.1783 137.917 26.9889C138.138 27.1783 138.391 27.2731 138.675 27.2731C138.896 27.2731 139.086 27.2099 139.243 27.1152C139.496 27.3994 139.654 27.7152 139.749 27.9047Z" fill="#171B34"/>
<path d="M136.464 25.3778C136.527 25.4094 136.59 25.4094 136.654 25.4094C136.685 25.4094 136.717 25.441 136.748 25.4726C136.78 25.5357 136.78 25.5989 136.717 25.6305C136.685 25.662 136.622 25.7252 136.59 25.7568C136.369 26.0726 136.433 26.5148 136.748 26.7358C137.064 26.9569 137.506 26.8937 137.727 26.5779C137.759 26.5148 137.791 26.4832 137.822 26.42C137.822 26.3884 137.854 26.3568 137.885 26.3568C137.948 26.3253 138.012 26.3568 138.043 26.42C138.075 26.4832 138.106 26.5148 138.138 26.5779C138.359 26.8937 138.801 26.9569 139.117 26.7358C139.433 26.5148 139.496 26.0726 139.275 25.7568C139.243 25.6936 139.18 25.662 139.149 25.6305C139.117 25.5989 139.117 25.5673 139.117 25.5357C139.117 25.4726 139.149 25.4094 139.212 25.4094C139.275 25.4094 139.338 25.4094 139.37 25.3778C139.749 25.2515 139.938 24.8725 139.812 24.4935C139.685 24.1145 139.306 23.925 138.927 24.0514C138.864 24.083 138.801 24.083 138.77 24.1461C138.738 24.1777 138.706 24.1777 138.675 24.1461C138.612 24.1145 138.58 24.0514 138.58 23.9882C138.58 23.925 138.612 23.8935 138.612 23.8303C138.612 23.4513 138.296 23.1355 137.917 23.1355C137.538 23.1355 137.222 23.4513 137.222 23.8303C137.222 23.8935 137.222 23.9566 137.254 24.0198C137.254 24.0514 137.254 24.083 137.222 24.1145C137.191 24.1777 137.096 24.1777 137.064 24.1461C137.001 24.1145 136.969 24.083 136.906 24.083C136.527 23.9566 136.148 24.1777 136.022 24.5251C135.896 24.8725 136.085 25.2831 136.464 25.3778Z" fill="#171B34"/>
<path d="M160.087 22.7245C160.119 22.3455 160.056 21.9665 160.024 21.7455C159.898 20.7664 159.361 20.5453 158.54 20.7664C158.319 20.8296 157.908 21.0191 157.592 20.9559C157.371 20.9243 157.15 20.7348 157.087 20.798C156.992 20.8612 157.087 21.1138 157.056 21.3349C157.024 21.6507 156.74 21.9665 156.582 22.1876C156.108 22.8824 156.203 23.4509 157.056 23.893C157.245 23.9878 157.592 24.1457 157.971 24.272C158.161 23.893 158.54 23.6404 158.982 23.6404C159.045 23.6404 159.077 23.6404 159.14 23.6404C159.235 23.1351 159.614 22.7877 160.087 22.7245ZM160.656 20.1979C160.719 20.1664 160.719 20.0716 160.687 20.04L160.372 19.6926C160.34 19.6295 160.245 19.6295 160.214 19.6926L159.866 20.0085C159.803 20.04 159.803 20.1348 159.866 20.1979L160.182 20.7033C160.245 20.7348 160.308 20.7664 160.34 20.7033L160.656 20.1979ZM163.34 23.8614C164.225 23.4193 164.288 22.8508 163.814 22.156C163.688 21.9665 163.372 21.6191 163.34 21.3033C163.309 21.0822 163.403 20.8296 163.34 20.7664C163.246 20.7033 163.056 20.8612 162.803 20.9243C162.488 20.9875 162.109 20.798 161.856 20.7348C161.066 20.5138 160.529 20.7348 160.372 21.7139C160.34 21.9349 160.277 22.2823 160.308 22.6929C160.593 22.7245 160.814 22.8192 161.003 23.0087C161.161 23.1666 161.287 23.3877 161.319 23.6088C161.351 23.6088 161.414 23.6088 161.445 23.6088C161.856 23.6088 162.266 23.8614 162.424 24.2404C162.803 24.1457 163.119 23.9562 163.34 23.8614ZM165.425 23.5456C165.456 23.4825 165.425 23.4193 165.393 23.3877L164.982 23.1351C164.919 23.1035 164.856 23.1351 164.825 23.1666L164.446 23.6088C164.414 23.6719 164.446 23.7351 164.509 23.7667L165.077 23.9562C165.14 23.9878 165.204 23.9562 165.235 23.9246L165.425 23.5456ZM155.95 23.7667C156.013 23.7351 156.045 23.6719 156.013 23.6088L155.666 23.1035C155.634 23.0403 155.571 23.0087 155.508 23.0403L155.066 23.2298C155.003 23.2614 154.971 23.3245 155.003 23.3877L155.192 23.8299C155.224 23.893 155.287 23.9246 155.35 23.893L155.95 23.7667ZM162.677 29.3251C162.677 29.3883 162.709 29.4514 162.772 29.483L163.246 29.5778C163.309 29.5778 163.372 29.5462 163.403 29.483L163.498 29.0093C163.53 28.9461 163.467 28.883 163.403 28.8514L162.835 28.6303C162.772 28.6303 162.709 28.6619 162.677 28.725V29.3251ZM155.571 25.3142C155.571 25.5669 155.603 26.009 155.445 26.2617C155.318 26.4512 155.129 26.6091 155.129 26.7038C155.161 26.7986 155.413 26.7986 155.634 26.8933C155.919 27.0196 156.14 27.3986 156.297 27.5881C156.803 28.2513 157.403 28.3461 158.066 27.6513C158.224 27.4934 158.445 27.2723 158.666 26.9565C158.477 26.7986 158.382 26.5775 158.319 26.3248C158.287 26.1038 158.319 25.8827 158.414 25.6616C158.003 25.4405 157.75 24.9036 157.877 24.4299C157.498 24.3036 157.15 24.2404 156.929 24.2088C155.982 24.0509 155.603 24.4931 155.571 25.3142ZM161.982 25.7248C162.172 26.1669 162.077 26.6722 161.73 27.0196C161.919 27.3039 162.172 27.5565 162.33 27.7144C162.993 28.4092 163.593 28.2829 164.098 27.6513C164.256 27.4618 164.477 27.0828 164.761 26.9565C164.983 26.8617 165.235 26.8617 165.267 26.767C165.298 26.6722 165.077 26.5143 164.951 26.3248C164.793 26.0406 164.856 25.63 164.825 25.3774C164.793 24.5562 164.414 24.1141 163.435 24.272C163.214 24.3036 162.867 24.3667 162.519 24.4931C162.582 24.7457 162.551 25.03 162.424 25.2826C162.33 25.4405 162.172 25.5984 161.982 25.7248ZM156.929 28.7566C156.866 28.7566 156.803 28.8198 156.803 28.883L156.866 29.3567C156.866 29.4198 156.929 29.483 156.992 29.4514L157.466 29.3883C157.529 29.3883 157.592 29.3251 157.592 29.2619L157.656 28.6619C157.656 28.5987 157.592 28.5356 157.529 28.5671L156.929 28.7566ZM158.382 27.9039C158.477 27.7144 158.635 27.3986 158.856 27.1144C159.014 27.2091 159.235 27.2723 159.456 27.2723C159.74 27.2723 159.993 27.1775 160.182 26.988C160.403 27.1775 160.656 27.3039 160.972 27.3039C161.161 27.3039 161.382 27.2407 161.54 27.146C161.761 27.4302 161.919 27.7144 162.014 27.9039C162.456 28.7566 162.172 29.2619 161.382 29.5778C161.161 29.6725 160.719 29.7357 160.498 29.9883C160.34 30.1778 160.277 30.3989 160.15 30.3989C160.056 30.3989 159.993 30.1462 159.835 29.9883C159.614 29.7357 159.203 29.6725 158.95 29.5778C158.192 29.2619 157.908 28.7566 158.382 27.9039Z" fill="#171B34"/>
<path d="M161.666 25.3778C161.603 25.4094 161.54 25.4094 161.477 25.4094C161.445 25.4094 161.414 25.441 161.382 25.4726C161.351 25.5357 161.351 25.5989 161.382 25.6305C161.414 25.662 161.477 25.7252 161.509 25.7568C161.73 26.0726 161.666 26.5148 161.351 26.7358C161.035 26.9569 160.593 26.8937 160.372 26.5779C160.34 26.5148 160.308 26.4832 160.277 26.42C160.277 26.3884 160.245 26.3568 160.182 26.3568C160.119 26.3253 160.056 26.3568 160.024 26.42C159.993 26.4832 159.961 26.5148 159.929 26.5779C159.708 26.8937 159.266 26.9569 158.982 26.7358C158.666 26.5148 158.603 26.0726 158.824 25.7568C158.856 25.6936 158.919 25.662 158.95 25.6305C158.982 25.5989 158.982 25.5673 158.982 25.5357C158.982 25.4726 158.919 25.4094 158.856 25.4094C158.792 25.4094 158.761 25.4094 158.698 25.3778C158.319 25.2515 158.129 24.8725 158.256 24.4935C158.382 24.1145 158.761 23.925 159.14 24.0514C159.203 24.083 159.266 24.083 159.298 24.1461C159.329 24.1777 159.361 24.1777 159.393 24.1461C159.456 24.1145 159.487 24.0514 159.487 23.9882C159.487 23.925 159.456 23.8935 159.456 23.8303C159.456 23.4513 159.771 23.1355 160.15 23.1355C160.529 23.1355 160.845 23.4513 160.845 23.8303C160.845 23.8935 160.845 23.9566 160.814 24.0198C160.814 24.0514 160.814 24.083 160.845 24.1145C160.877 24.1777 160.94 24.1777 161.003 24.1461C161.066 24.1145 161.098 24.083 161.161 24.083C161.54 23.9566 161.919 24.1777 162.045 24.5251C162.235 24.8725 162.045 25.2831 161.666 25.3778Z" fill="#171B34"/>
<path d="M165.677 37.2215C164.635 37.4741 163.403 37.632 161.793 37.632C159.961 37.632 158.634 37.411 157.498 37.0951C156.392 36.7793 155.508 36.4003 154.624 36.0214C154.023 35.8003 153.423 35.5792 152.729 35.3897C151.781 35.1687 150.644 35.0107 149.097 35.0107C147.36 35.0107 146.128 35.2002 145.117 35.4845C144.107 35.7687 143.286 36.1477 142.37 36.4951C141.738 36.7477 141.107 37.0004 140.317 37.1899C139.275 37.4425 138.043 37.6005 136.401 37.6005C134.569 37.6005 133.243 37.3794 132.137 37.0636C131.979 37.0004 131.79 36.9688 131.664 36.9057C134.727 43.0957 140.064 49.5068 149.128 53.9283C158.192 49.5068 163.498 43.0957 166.561 36.9057C166.246 37.0636 165.961 37.1583 165.677 37.2215ZM139.843 43.5694C140.475 43.9168 141.549 44.1063 142.749 44.3274C144.328 44.6116 146.223 44.959 147.549 45.717C147.202 45.5907 146.823 45.4643 146.286 45.3064C144.612 44.8643 143.759 44.8959 142.907 44.9274C142.086 44.959 141.264 44.9906 139.622 44.58C139.685 44.2326 139.749 43.8852 139.843 43.5694ZM146.318 45.7802C144.486 45.5907 143.602 45.717 142.749 45.8433C141.928 45.9696 141.075 46.096 139.401 45.9381C139.464 45.6222 139.496 45.3064 139.559 45.0222C141.264 45.4012 142.149 45.3696 143.033 45.338C143.917 45.3064 144.77 45.2748 146.475 45.6538C147.107 45.7801 147.581 45.9381 147.96 46.0644C147.549 45.9696 147.012 45.8749 146.318 45.7802ZM148.876 46.2223C146.854 43.8221 141.422 44.0431 139.938 43.0957L141.675 37.8215C143.159 38.769 148.307 38.2005 148.844 40.6007V46.2223H148.876ZM158.477 44.5485C156.866 44.959 156.013 44.9274 155.192 44.8959C154.339 44.8643 153.487 44.8327 151.813 45.2748C151.307 45.4012 150.897 45.5591 150.581 45.6854C151.908 44.8959 153.802 44.58 155.382 44.2958C156.582 44.0747 157.655 43.8852 158.287 43.5378C158.35 43.8852 158.413 44.2326 158.477 44.5485ZM149.223 40.6323C149.792 38.2321 154.908 38.8006 156.392 37.8531L158.129 43.1273C156.645 44.0747 151.244 43.8537 149.191 46.2539V40.6323H149.223ZM155.382 45.8433C154.529 45.717 153.644 45.5907 151.844 45.7802C151.15 45.8433 150.613 45.9381 150.202 46.0644C150.581 45.9381 151.055 45.7801 151.686 45.6538C153.392 45.2748 154.245 45.3064 155.129 45.338C155.982 45.3696 156.866 45.4012 158.603 45.0222C158.666 45.338 158.729 45.6222 158.761 45.9381C157.055 46.096 156.203 45.9696 155.382 45.8433Z" fill="#171B34"/>
<path d="M129.39 31.349C129.327 31.0961 129.232 30.8431 129.168 30.5901C129.232 30.8431 129.295 31.0961 129.39 31.349Z" fill="#171B34"/>
<path d="M161.761 35.4226C159.929 35.4226 158.603 35.2015 157.498 34.8857C156.392 34.5699 155.508 34.1909 154.624 33.8119C154.024 33.5908 153.424 33.3697 152.697 33.1803C151.75 32.9592 150.613 32.8013 149.065 32.8013C147.328 32.8013 146.097 32.9908 145.086 33.275C144.075 33.5592 143.254 33.9382 142.338 34.3172C141.707 34.5699 141.075 34.7909 140.286 34.9804C139.243 35.2331 138.012 35.391 136.369 35.391C134.538 35.391 133.211 35.1699 132.106 34.8541C131.506 34.6962 130.969 34.4751 130.432 34.2856C130.59 34.6962 130.748 35.1067 130.937 35.5173C131.506 35.7384 132.074 35.9279 132.738 36.0858C133.685 36.3069 134.822 36.4648 136.369 36.4648C138.106 36.4648 139.338 36.2753 140.349 35.991C141.359 35.7068 142.18 35.3278 143.096 34.9804C143.728 34.7278 144.36 34.5067 145.149 34.3172C146.191 34.0645 147.423 33.9066 149.034 33.9066C150.866 33.9066 152.192 34.1277 153.297 34.4435C154.403 34.7593 155.287 35.1383 156.171 35.5173C156.771 35.7384 157.371 35.9595 158.098 36.1489C159.045 36.37 160.182 36.5279 161.73 36.5279C163.467 36.5279 164.698 36.3384 165.709 36.0542C166.214 35.8963 166.688 35.7384 167.13 35.5805C167.32 35.1699 167.478 34.7593 167.635 34.3488C167.035 34.6014 166.372 34.8225 165.614 35.012C164.635 35.2647 163.372 35.4226 161.761 35.4226Z" fill="#171B34"/>
<path d="M141.264 20.4856L141.298 20.4519L141.264 20.4856Z" fill="#171B34"/>
<path d="M127.842 17.9568V21.9045C127.842 24.1152 128.19 27.1471 129.137 30.5264C129.737 30.7474 130.274 30.9685 130.843 31.1896C131.443 31.4107 132.043 31.6317 132.737 31.8212C133.685 32.0423 134.822 32.2002 136.369 32.2002C138.106 32.2002 139.338 32.0107 140.349 31.7265C141.359 31.4422 142.18 31.0633 143.096 30.7159C143.728 30.4632 144.36 30.2105 145.149 30.0526C146.191 29.8 147.423 29.6421 149.034 29.6421C150.865 29.6421 152.192 29.8631 153.297 30.179C154.403 30.4948 155.287 30.8738 156.171 31.2527C156.771 31.4738 157.371 31.6949 158.098 31.8844C159.045 32.1055 160.182 32.2634 161.73 32.2634C163.467 32.2634 164.698 32.0739 165.709 31.7896C166.72 31.5054 167.541 31.1264 168.456 30.779C168.614 30.7159 168.772 30.6527 168.93 30.5895C169.878 27.2103 170.225 24.1784 170.225 21.9677V17.9568H127.842ZM143.475 23.5784L143.286 24.0205C143.191 24.21 143.002 24.3679 142.78 24.3679C142.749 24.3679 142.749 24.3679 142.717 24.3679C142.844 24.589 142.97 24.9048 142.97 25.3154C142.97 25.3785 142.97 25.4417 142.97 25.5364C142.97 25.7259 142.97 25.9786 143.033 26.1049C143.065 26.1365 143.128 26.1997 143.159 26.2628C143.286 26.3891 143.475 26.6102 143.381 26.8945H143.349H143.381C143.286 27.1787 143.002 27.2419 142.844 27.2734C142.781 27.2734 142.686 27.305 142.654 27.3366C142.528 27.3998 142.37 27.5893 142.275 27.7472C142.244 27.8103 142.18 27.8735 142.149 27.9051C141.928 28.1577 141.738 28.3472 141.486 28.4735C141.517 28.5051 141.58 28.5367 141.612 28.5683C141.707 28.6946 141.738 28.8209 141.738 28.9473L141.675 29.421C141.643 29.7052 141.422 29.8947 141.138 29.8947C141.138 29.8947 141.107 29.8947 141.075 29.8947L140.601 29.8316C140.475 29.8316 140.317 29.7368 140.222 29.6421C140.159 29.5789 140.128 29.4842 140.096 29.3894C139.906 29.6105 139.622 29.8 139.275 29.9263C139.212 29.9579 139.149 29.9579 139.085 29.9895C138.928 30.0526 138.675 30.1158 138.58 30.2105C138.549 30.2421 138.517 30.3053 138.454 30.3685C138.391 30.5264 138.233 30.779 137.917 30.779C137.601 30.779 137.475 30.5264 137.38 30.3685C137.348 30.3053 137.317 30.2421 137.285 30.2105C137.19 30.1158 136.938 30.0211 136.78 29.9895C136.717 29.9579 136.654 29.9579 136.59 29.9263C136.275 29.8 136.022 29.6737 135.832 29.4842C135.769 29.6737 135.643 29.8316 135.422 29.8631L134.948 29.9579C134.917 29.9579 134.885 29.9579 134.822 29.9579C134.569 29.9579 134.348 29.7684 134.285 29.5157L134.222 29.0736C134.159 28.8209 134.285 28.5999 134.506 28.4735C134.222 28.3788 133.969 28.1577 133.716 27.8419C133.685 27.7787 133.622 27.7472 133.59 27.684C133.495 27.5261 133.337 27.305 133.211 27.2734C133.148 27.2419 133.085 27.2419 133.022 27.2103C132.864 27.1787 132.58 27.1155 132.485 26.8313C132.39 26.5471 132.579 26.326 132.706 26.1996C132.737 26.1681 132.801 26.1049 132.832 26.0417C132.895 25.9154 132.895 25.6628 132.895 25.4733C132.895 25.4101 132.895 25.3469 132.895 25.2838C132.895 24.9048 132.99 24.6521 133.085 24.4311C132.895 24.4311 132.706 24.3363 132.611 24.1468L132.358 23.7363C132.295 23.6099 132.264 23.452 132.295 23.3257C132.327 23.1994 132.422 23.073 132.548 23.0099L132.959 22.7572C133.053 22.7256 133.148 22.6941 133.243 22.6941C133.369 22.6941 133.527 22.7572 133.622 22.852C133.622 22.5677 133.748 22.2519 133.969 21.9361C134.001 21.8729 134.064 21.8414 134.095 21.7782C134.19 21.6519 134.348 21.4308 134.38 21.2729C134.38 21.2097 134.38 21.1466 134.38 21.0834C134.348 20.9255 134.348 20.6412 134.569 20.4518C134.664 20.3886 134.759 20.357 134.853 20.357C135.011 20.357 135.106 20.3886 135.232 20.4518C135.296 20.4833 135.359 20.5149 135.422 20.5149C135.422 20.5149 135.453 20.5149 135.485 20.5149C135.611 20.5149 135.832 20.4518 135.99 20.3886C136.054 20.357 136.117 20.357 136.18 20.3254C136.401 20.2623 136.59 20.2307 136.812 20.2307C136.875 20.2307 136.969 20.2307 137.064 20.2623C137.001 20.0728 137.033 19.8833 137.159 19.7254L137.475 19.3464C137.569 19.2516 137.727 19.1569 137.885 19.1569C138.012 19.1569 138.138 19.1885 138.264 19.2832L138.643 19.599C138.77 19.6938 138.801 19.8201 138.833 19.978C138.833 20.0728 138.833 20.1675 138.77 20.2623C138.896 20.2307 139.022 20.1991 139.149 20.1991C139.338 20.1991 139.528 20.2307 139.749 20.2938C139.812 20.3254 139.875 20.3254 139.938 20.357C140.096 20.4202 140.286 20.4833 140.443 20.4833C140.475 20.4833 140.475 20.4833 140.507 20.4833C140.57 20.4833 140.633 20.4518 140.696 20.4202C140.791 20.357 140.917 20.3254 141.075 20.3254C141.201 20.3254 141.296 20.357 141.359 20.4202C141.612 20.6097 141.58 20.8939 141.549 21.0518C141.549 21.115 141.549 21.1781 141.549 21.2413C141.549 21.3676 141.707 21.5887 141.833 21.715C141.865 21.7782 141.928 21.8414 141.959 21.8729C142.149 22.1572 142.275 22.4098 142.307 22.6941C142.401 22.6309 142.496 22.5677 142.654 22.5677C142.717 22.5677 142.812 22.5677 142.875 22.5993L143.317 22.7888C143.444 22.852 143.538 22.9467 143.602 23.1046C143.538 23.2941 143.538 23.452 143.475 23.5784ZM165.772 23.7678L165.519 24.1784C165.425 24.3363 165.235 24.4626 165.046 24.4626H165.014C165.14 24.6837 165.204 24.9364 165.204 25.3154C165.204 25.3785 165.204 25.4417 165.204 25.5049C165.204 25.6943 165.204 25.947 165.267 26.0733C165.298 26.1365 165.361 26.1681 165.393 26.2312C165.519 26.3576 165.709 26.5786 165.614 26.8629C165.519 27.1471 165.235 27.2103 165.077 27.2419C165.014 27.2419 164.951 27.2734 164.888 27.305C164.761 27.3682 164.604 27.5893 164.509 27.7156C164.477 27.7787 164.414 27.8419 164.382 27.8735C164.13 28.1893 163.877 28.3788 163.593 28.5051C163.814 28.6315 163.94 28.8525 163.877 29.1052L163.782 29.5789C163.719 29.8316 163.498 30.0211 163.246 30.0211C163.214 30.0211 163.151 30.0211 163.119 30.0211L162.645 29.9263C162.456 29.8947 162.298 29.7368 162.235 29.5473C162.045 29.7368 161.793 29.8947 161.477 29.9895C161.414 30.0211 161.351 30.0211 161.287 30.0526C161.13 30.1158 160.877 30.179 160.782 30.2737C160.751 30.3053 160.719 30.3685 160.656 30.4316C160.561 30.5895 160.435 30.8422 160.119 30.8422C159.803 30.8422 159.677 30.5895 159.582 30.4316C159.55 30.3685 159.519 30.3053 159.456 30.2737C159.361 30.179 159.108 30.0842 158.95 30.0526C158.887 30.0211 158.824 30.0211 158.761 29.9895C158.382 29.8631 158.098 29.6737 157.94 29.4526C157.908 29.5473 157.877 29.6421 157.813 29.7052C157.719 29.8316 157.592 29.8947 157.434 29.8947L156.961 29.9579C156.929 29.9579 156.929 29.9579 156.898 29.9579C156.613 29.9579 156.392 29.7368 156.361 29.4842L156.297 29.0104C156.297 28.8841 156.329 28.7262 156.424 28.6315C156.455 28.5999 156.487 28.5683 156.55 28.5367C156.329 28.4104 156.108 28.2209 155.887 27.9682C155.855 27.9051 155.792 27.8735 155.761 27.8103C155.666 27.684 155.508 27.4629 155.382 27.3998C155.318 27.3682 155.255 27.3682 155.192 27.3366C155.034 27.305 154.75 27.2419 154.655 26.9576C154.56 26.6734 154.75 26.4523 154.876 26.326C154.94 26.2628 154.971 26.2312 155.003 26.1681C155.066 26.0417 155.066 25.7891 155.066 25.5996C155.066 25.5364 155.066 25.4733 155.066 25.3785C155.097 24.968 155.192 24.6521 155.318 24.4311C155.287 24.4311 155.287 24.4311 155.255 24.4311C155.034 24.4311 154.845 24.3047 154.75 24.0837L154.561 23.6415C154.497 23.5152 154.497 23.3573 154.561 23.231C154.624 23.1046 154.718 22.9783 154.845 22.9151L155.287 22.7256C155.35 22.6941 155.413 22.6941 155.508 22.6941C155.634 22.6941 155.761 22.7256 155.855 22.8204C155.887 22.5677 156.013 22.2835 156.203 21.9993C156.234 21.9361 156.266 21.9045 156.329 21.8414C156.424 21.715 156.582 21.494 156.613 21.3676C156.613 21.3045 156.613 21.2413 156.613 21.1781C156.613 21.0202 156.582 20.736 156.803 20.5465C156.898 20.4833 156.992 20.4518 157.087 20.4518C157.213 20.4518 157.34 20.5149 157.466 20.5465C157.529 20.5781 157.592 20.6097 157.656 20.6097C157.656 20.6097 157.687 20.6097 157.719 20.6097C157.845 20.6097 158.066 20.5465 158.224 20.4833C158.287 20.4518 158.35 20.4518 158.413 20.4202C158.635 20.357 158.856 20.3254 159.045 20.3254C159.171 20.3254 159.298 20.3254 159.424 20.3886C159.393 20.3254 159.361 20.2307 159.361 20.1044C159.361 19.978 159.424 19.8201 159.55 19.7254L159.929 19.4096C160.024 19.3148 160.151 19.2832 160.308 19.2832C160.466 19.2832 160.624 19.3464 160.687 19.4727L161.035 19.8517C161.161 20.0096 161.193 20.1991 161.129 20.3886C161.224 20.3886 161.319 20.357 161.382 20.357C161.572 20.357 161.761 20.3886 162.014 20.4518C162.077 20.4833 162.14 20.4833 162.203 20.5149C162.361 20.5781 162.551 20.6412 162.677 20.6412C162.709 20.6412 162.709 20.6412 162.74 20.6412C162.803 20.6412 162.867 20.6097 162.93 20.5781C163.056 20.5149 163.151 20.4833 163.309 20.4833C163.403 20.4833 163.53 20.5149 163.593 20.5781C163.846 20.7676 163.814 21.0518 163.782 21.2097C163.782 21.2729 163.751 21.336 163.782 21.3992C163.782 21.5255 163.94 21.7466 164.067 21.9045C164.098 21.9677 164.161 22.0308 164.193 22.0624C164.414 22.3782 164.54 22.6941 164.54 22.9783C164.635 22.8836 164.761 22.8204 164.919 22.8204C165.014 22.8204 165.109 22.852 165.204 22.8836L165.614 23.1362C165.74 23.1994 165.835 23.3257 165.867 23.452C165.867 23.5152 165.835 23.6415 165.772 23.7678Z" fill="#171B34"/>
<path d="M167.73 32.2322C167.099 32.4849 166.467 32.706 165.677 32.8955C164.635 33.1481 163.404 33.306 161.761 33.306C159.93 33.306 158.603 33.0849 157.498 32.8007C156.392 32.4849 155.508 32.1059 154.624 31.7269C154.024 31.4743 153.424 31.2848 152.729 31.0953C151.781 30.8742 150.645 30.7163 149.097 30.7163C147.36 30.7163 146.128 30.9058 145.118 31.19C144.107 31.4743 143.286 31.8533 142.37 32.2007C141.738 32.4533 141.107 32.6744 140.317 32.8639C139.275 33.1165 138.043 33.2744 136.401 33.2744C134.569 33.2744 133.243 33.0534 132.138 32.7691C131.159 32.4849 130.369 32.1375 129.579 31.8217C129.706 32.1691 129.801 32.5165 129.927 32.8955C130.243 33.0218 130.559 33.1481 130.874 33.2744C131.474 33.5271 132.074 33.7166 132.769 33.9061C133.717 34.1587 134.854 34.2851 136.401 34.2851C138.138 34.2851 139.37 34.0956 140.381 33.8113C141.391 33.5271 142.212 33.1481 143.128 32.8007C143.76 32.5481 144.391 32.327 145.181 32.1375C146.223 31.8848 147.455 31.6953 149.066 31.6953C150.897 31.6953 152.224 31.9164 153.329 32.2322C154.434 32.5481 155.319 32.927 156.203 33.306C156.803 33.5587 157.403 33.7482 158.129 33.9377C159.077 34.1903 160.214 34.3166 161.761 34.3166C163.498 34.3166 164.73 34.1271 165.741 33.8429C166.657 33.5903 167.414 33.2744 168.236 32.927C168.362 32.5796 168.457 32.2322 168.583 31.8848C168.299 31.9796 168.015 32.1059 167.73 32.2322Z" fill="#171B34"/>
</svg>
