<svg width="229" height="57" viewBox="0 0 229 57" fill="none" xmlns="http://www.w3.org/2000/svg">
<path d="M145.242 39.9718V33.2234C145.242 32.366 144.772 31.6746 143.638 31.6746C143.002 31.6746 142.531 31.8406 142.144 32.2278C142.255 32.5596 142.282 32.8639 142.282 33.5276V39.9718H140.125V33.2234C140.125 32.449 139.904 31.6193 138.549 31.6193C137.83 31.6193 137.581 31.7299 137.193 31.8959V39.9441H135.036V31.0662C135.838 30.7066 137.027 30.2917 138.659 30.2917C139.987 30.2917 140.872 30.596 141.397 31.0662C142.034 30.596 142.891 30.2917 144.135 30.2917C146.403 30.2917 147.399 31.5916 147.399 33.2234V39.9718H145.242Z" fill="#171B34"/>
<path d="M122.535 39.9733V33.3632C122.535 32.4505 122.148 31.7591 120.931 31.7591C120.267 31.7591 119.797 31.925 119.354 32.2293V39.9733H117.197V27.251H119.354V30.7911C119.935 30.5422 120.737 30.3762 121.484 30.3762C123.862 30.3762 124.692 31.7868 124.692 33.2526V40.0009H122.535V39.9733Z" fill="#171B34"/>
<path d="M96.2608 29.076C95.4311 29.076 95.0162 28.5505 95.0162 27.942C95.0162 27.3336 95.4588 26.8081 96.2608 26.8081C97.0352 26.8081 97.5053 27.3336 97.5053 27.942C97.5053 28.5505 97.0352 29.076 96.2608 29.076Z" fill="#171B34"/>
<path d="M104.253 39.9718V33.2234C104.253 32.449 103.922 31.6193 102.566 31.6193C101.847 31.6193 101.515 31.7299 101.101 31.8959V39.9441H98.9432V31.0662C99.7453 30.7066 101.045 30.2917 102.649 30.2917C105.47 30.2917 106.383 31.6746 106.383 33.1958V39.9718H104.253Z" fill="#171B34"/>
<path d="M95.182 39.9723V30.4583H97.3117V39.9723H95.182Z" fill="#171B34"/>
<path d="M92.3609 40.0836C90.4802 40.0836 89.7334 39.0327 89.7334 37.5115V31.8418H88.6826V30.4589H89.7334V28.5506L91.8908 27.9421V30.4589H93.4119V31.8418H91.8908V37.5115C91.8908 38.3689 92.361 38.6178 92.9418 38.6178C93.1077 38.6178 93.3566 38.6178 93.5778 38.5901V40.0007C93.3842 40.0007 92.8034 40.0836 92.3609 40.0836Z" fill="#171B34"/>
<path d="M86.5806 40.0836C84.6999 40.0836 83.9531 39.0327 83.9531 37.5115V31.8418H82.9021V30.4589H83.9531V28.5506L86.1103 27.9421V30.4589H87.6315V31.8418H86.1103V37.5115C86.1103 38.3689 86.5804 38.6178 87.1612 38.6178C87.3272 38.6178 87.5762 38.6178 87.7975 38.5901V40.0007C87.6039 40.0007 87.0507 40.0836 86.5806 40.0836Z" fill="#171B34"/>
<path d="M70.9266 39.9725L66.4185 32.3391C66.1419 31.8689 65.9207 31.4264 65.6718 30.8456H65.6441C65.7271 31.4541 65.7547 31.9519 65.7547 32.3944V39.9725H63.6804V27.8586H65.893L70.0969 34.9942C70.3458 35.4091 70.567 35.7963 70.7606 36.3771H70.7883C70.7054 35.7686 70.7054 35.3537 70.7054 34.9389V27.8586H72.8073V39.9725H70.9266Z" fill="#171B34"/>
<path d="M129.781 30.2917C128.288 30.2917 127.154 30.7066 126.518 30.9832L127.015 32.3107C127.569 32.0342 128.454 31.7023 129.394 31.7023C130.528 31.7023 131.275 32.0342 131.275 33.2511V33.7766C131.109 33.7489 130.473 33.6383 129.892 33.6383C127.707 33.6383 125.937 34.7722 125.937 37.0401C125.937 38.8931 127.181 40.2483 129.864 40.2483C131.358 40.2483 132.547 39.9718 133.377 39.5846V33.6106C133.377 31.1491 131.772 30.2917 129.781 30.2917ZM131.275 38.7548C131.026 38.8655 130.5 39.0038 130.002 39.0038C128.868 39.0038 128.094 38.257 128.094 36.9571C128.094 35.7126 128.758 34.8828 130.085 34.8828C130.694 34.8828 131.081 34.9935 131.275 35.0211V38.7548Z" fill="#171B34"/>
<path d="M112.274 30.2917C109.204 30.2917 107.683 32.2278 107.683 35.3254C107.683 38.2847 109.204 40.0547 111.5 40.0547C112.329 40.0547 112.993 39.9164 113.353 39.6952V40.3036C113.353 41.5759 112.689 42.3779 111.112 42.3779C110.061 42.3779 109.37 42.1014 108.817 41.8524L108.208 43.2076C108.9 43.5948 110.034 43.9267 111.5 43.9267C113.851 43.9267 115.482 42.6268 115.482 40.11V30.9832C114.846 30.596 113.712 30.2917 112.274 30.2917ZM113.38 38.3123C113.076 38.4783 112.634 38.6442 112.136 38.6442C110.615 38.6442 109.951 37.5103 109.951 35.3254C109.951 33.0575 110.67 31.647 112.246 31.647C112.689 31.647 113.048 31.6746 113.38 31.8682V38.3123Z" fill="#171B34"/>
<path d="M78.2283 30.2917C75.5456 30.2917 74.1903 32.3384 74.1903 35.2424C74.1903 38.0911 75.5456 40.1654 78.2283 40.1654C80.9111 40.1654 82.2663 38.1187 82.2663 35.2424C82.2387 32.3384 80.9111 30.2917 78.2283 30.2917ZM78.3666 38.8378C76.8731 38.8378 76.6242 36.9295 76.6242 35.2424C76.6242 33.5 76.8731 31.5916 78.3666 31.5916C79.8601 31.5916 80.0813 33.5 80.0813 35.2424C80.0813 36.9295 79.8324 38.8378 78.3666 38.8378Z" fill="#171B34"/>
<path d="M128.675 15.6615C127.873 15.6615 127.707 16.0487 127.707 16.6295V16.9337H128.841V18.0953H127.707V23.4332H125.992V18.0953H125.273V16.9337H125.992V16.4636C125.992 15.1637 126.85 14.4446 128.26 14.4446C128.564 14.4446 128.758 14.4446 129.007 14.4999V15.6615H128.675Z" fill="#171B34"/>
<path d="M112.578 26.0338C111.61 26.0338 110.864 25.8125 110.366 25.5636L110.753 24.5679C111.14 24.7339 111.638 24.8998 112.329 24.8998C113.436 24.8998 113.768 24.402 113.768 23.5446V23.1574C113.574 23.2957 113.131 23.4617 112.44 23.4617C110.836 23.4617 110.117 22.6596 110.117 21.3597V16.9346H111.832V21.2767C111.832 21.8575 112.025 22.3277 112.883 22.3277C113.298 22.3277 113.546 22.1894 113.768 22.1065V16.9346H115.482V23.1851C115.482 25.2594 114.265 26.0338 112.578 26.0338Z" fill="#171B34"/>
<path d="M107.96 23.5164C106.688 23.5164 106.079 22.8526 106.079 21.7464V18.0956H105.36V16.934H106.079V15.5788L107.794 15.1086V16.9064H108.845V18.068H107.794V21.5528C107.794 22.1336 108.098 22.2995 108.513 22.2995C108.734 22.2995 108.9 22.2995 109.094 22.2718V23.3505C108.928 23.4335 108.596 23.5164 107.96 23.5164Z" fill="#171B34"/>
<path d="M102.456 23.434V16.9346H104.171V23.434H102.456Z" fill="#171B34"/>
<path d="M98.8879 23.5727C98.0582 23.5727 97.3945 23.3515 96.869 23.1025L97.2839 21.9962C97.6158 22.1622 98.086 22.3834 98.6391 22.3834C99.2752 22.3834 99.6624 22.1622 99.6624 21.6644C99.6624 21.1942 99.3582 20.9729 98.6114 20.6964C97.3392 20.1985 97.0903 19.4241 97.0903 18.705C97.0903 17.6541 97.8923 16.769 99.3029 16.769C100.105 16.769 100.686 16.9626 101.156 17.2392L100.686 18.2349C100.492 18.0966 100.022 17.903 99.5242 17.903C98.9434 17.903 98.6391 18.1519 98.6391 18.5668C98.6391 19.0369 99.1093 19.2029 99.6901 19.4518C100.99 19.9496 101.294 20.724 101.294 21.4984C101.294 22.7153 100.326 23.5727 98.8879 23.5727Z" fill="#171B34"/>
<path d="M96.3434 18.0962C96.2328 18.0685 95.8456 18.0132 95.5414 18.0132C95.2372 18.0132 94.9882 18.0685 94.8223 18.0962V23.434H93.1075V17.2941C93.3565 17.1835 94.3521 16.824 95.486 16.824C96.1498 16.824 96.3158 16.8516 96.5924 16.9069L96.3434 18.0962Z" fill="#171B34"/>
<path d="M78.2558 16.1317C77.6197 16.1317 77.3154 15.7445 77.3154 15.2743C77.3154 14.8318 77.6197 14.4446 78.2558 14.4446C78.8366 14.4446 79.1686 14.8318 79.1686 15.2743C79.1686 15.7445 78.8366 16.1317 78.2558 16.1317Z" fill="#171B34"/>
<path d="M83.8152 23.434H82.1833L79.9431 16.9346H81.7961L82.6259 20.0045C82.7089 20.3087 82.93 21.0555 83.013 21.4427H83.0407C83.096 21.0555 83.2896 20.3087 83.3726 20.0045L84.2576 16.9346H85.9724L83.8152 23.434Z" fill="#171B34"/>
<path d="M77.3705 23.434V16.9346H79.0852V23.434H77.3705Z" fill="#171B34"/>
<path d="M103.341 16.1317C102.705 16.1317 102.428 15.7445 102.428 15.2743C102.428 14.8318 102.732 14.4446 103.341 14.4446C103.922 14.4446 104.254 14.8318 104.254 15.2743C104.281 15.7445 103.949 16.1317 103.341 16.1317Z" fill="#171B34"/>
<path d="M74.4115 23.4331V18.8697C74.4115 18.3995 74.2179 17.957 73.3605 17.957C72.9457 17.957 72.6967 18.04 72.4755 18.123V23.4608H70.7607V17.2932C71.4798 16.989 72.3649 16.7954 73.4436 16.7954C75.4349 16.7954 76.1262 17.7634 76.1262 18.842V23.4331H74.4115Z" fill="#171B34"/>
<path d="M66.5844 23.5718C64.8973 23.5718 63.6527 22.6868 63.6527 20.9721V15.1641H65.4505V20.9721C65.4505 21.7741 65.8653 22.189 66.5844 22.189C67.3034 22.189 67.7184 21.7741 67.7184 20.9721V15.1641H69.516V20.9721C69.516 22.6868 68.2715 23.5718 66.5844 23.5718Z" fill="#171B34"/>
<path d="M121.76 16.7954C119.824 16.7954 118.912 18.2336 118.912 20.1419C118.912 22.1056 119.824 23.5438 121.76 23.5438C123.696 23.5438 124.609 22.1056 124.609 20.1419C124.637 18.2336 123.696 16.7954 121.76 16.7954ZM121.76 22.4375C120.875 22.4375 120.682 21.4142 120.682 20.1696C120.682 18.9527 120.903 17.957 121.76 17.957C122.645 17.957 122.839 18.9527 122.839 20.1696C122.867 21.4142 122.645 22.4375 121.76 22.4375Z" fill="#171B34"/>
<path d="M92.0012 20.0313C92.0012 17.9847 90.9503 16.7954 89.1803 16.7954C87.3825 16.7954 86.2761 18.04 86.2761 20.1419C86.2761 22.3268 87.4931 23.5438 89.4291 23.5438C90.4524 23.5438 91.1992 23.3225 91.7524 23.0459L91.3374 21.912C90.8673 22.1332 90.3694 22.2992 89.6227 22.2992C88.8206 22.2992 88.1017 21.9673 87.991 20.6951H92.0289V20.0313H92.0012ZM90.3695 19.6164H87.9357C87.9357 18.3442 88.4335 17.9017 89.1526 17.9017C89.8163 17.9017 90.3695 18.3166 90.3695 19.5611V19.6164Z" fill="#171B34"/>
<path d="M0.0689697 0.00830078V54.4376H54.4983V0.00830078" fill="#171B34"/>
<path d="M36.8257 13.0892C35.5811 12.4254 34.4195 11.8999 32.843 11.5127V14.7486C34.2535 15.0528 35.5811 15.5506 36.8257 16.1314V13.0892Z" fill="white"/>
<path d="M31.4324 23.6826C31.0452 23.6826 30.741 23.9868 30.741 24.4294L30.5197 31.0394H32.4003L32.1515 24.4294C32.1238 24.0145 31.8472 23.6826 31.4324 23.6826Z" fill="white"/>
<path d="M33.0914 41.9359C31.1278 41.9359 29.7173 41.4658 27.9196 40.5807C25.9836 39.5851 23.8264 38.7554 21.0883 38.7554C18.5162 38.7554 15.778 39.6681 13.7037 42.7657C16.1929 41.2169 18.5161 40.719 20.4521 40.719C22.5264 40.719 24.1029 41.2445 25.7347 42.1019C27.5601 43.0422 29.1365 43.706 31.4321 43.706C33.6446 43.706 36.1614 42.8763 38.291 40.0553C36.5763 41.4658 34.7232 41.9359 33.0914 41.9359Z" fill="white"/>
<path d="M22.1395 37.621C23.9096 37.621 25.9562 38.1188 28.2241 39.391V32.8363L27.2839 31.647V22.5755L29.1369 19.6991L28.3624 22.4648C28.8879 22.3819 29.4134 22.3542 29.9942 22.3542C31.8196 22.3542 33.5066 22.6585 34.9448 23.2393L36.7979 21.5245V16.8228C35.5534 16.2696 34.2258 15.7995 32.8153 15.4399C31.9579 15.2187 31.0452 15.108 30.1325 14.9974V10.9595C29.1368 10.8212 28.1135 10.7659 27.0626 10.7659C26.0669 10.7659 25.0989 10.8212 24.1586 10.9318V14.7485C23.2459 14.8591 22.3608 15.0251 21.5034 15.2463V11.4296C19.9823 11.8445 18.5442 12.453 17.2443 13.1997V21.082L19.0419 22.7967L18.5164 31.6747L17.0784 33.1129V38.2571L17.5762 38.7826C18.7931 38.1741 20.3141 37.621 22.1395 37.621ZM21.863 24.4285C21.863 24.0137 22.1949 23.6818 22.5821 23.6818C22.9693 23.6818 23.2735 23.986 23.2735 24.4285L23.5224 31.0386H21.6417L21.863 24.4285Z" fill="white"/>
<path d="M66.0588 46.8313V53.8286H65.1462V46.8313H62.7676V46.1399H68.4374V46.8313H66.0588Z" fill="#171B34"/>
<path d="M72.7799 53.8289V50.51C72.7799 49.7079 72.8352 49.0718 71.8672 49.0718C71.397 49.0718 70.8439 49.1824 70.2907 49.376V53.8289H69.4333V45.6423H70.2907V48.8229C71.0651 48.4634 71.6735 48.2698 72.1437 48.2698C72.6968 48.2698 73.1117 48.4634 73.3606 48.7952C73.5819 49.0995 73.6373 49.3484 73.6373 50.2058V53.8012H72.7799V53.8289Z" fill="#171B34"/>
<path d="M75.8223 51.173V51.3666C75.8223 52.5559 76.3201 53.1644 77.2328 53.1644C77.7583 53.1644 78.2008 53.0537 79.0858 52.7495L79.2517 53.275C78.1178 53.8005 77.6476 53.9388 77.0115 53.9388C75.7116 53.9388 74.8818 52.9431 74.8818 51.3113C74.8818 49.4306 75.7669 48.269 77.2051 48.269C78.588 48.269 79.3071 49.1541 79.3071 50.8965V51.173H75.8223ZM77.3157 48.9605C76.5136 48.9605 75.9606 49.5413 75.8776 50.6199L78.422 50.5369C78.422 49.4306 78.0624 48.9605 77.3157 48.9605Z" fill="#171B34"/>
<path d="M83.5934 53.8286V46.1399H84.5061V53.8286H83.5934Z" fill="#171B34"/>
<path d="M89.7057 53.8293V50.5104C89.7057 49.7084 89.761 49.0723 88.793 49.0723C88.3228 49.0723 87.7696 49.1829 87.2165 49.3765V53.8293H86.3591V48.4085H87.1888V48.851C87.9632 48.4915 88.5717 48.2979 89.0695 48.2979C89.6226 48.2979 90.0375 48.4915 90.2864 48.8233C90.5077 49.1276 90.5631 49.3765 90.5631 50.2339V53.8293H89.7057Z" fill="#171B34"/>
<path d="M93.3013 53.9111C92.7481 53.9111 92.3332 53.8558 91.6694 53.6622L91.8354 53.0537C92.3609 53.1644 92.7481 53.2197 93.1077 53.2197C93.9097 53.2197 94.3523 52.8878 94.3523 52.307C94.3523 51.8368 94.1586 51.6432 93.4395 51.422C92.4992 51.1177 91.7248 50.8135 91.7248 49.8455C91.7248 48.8498 92.4163 48.269 93.4949 48.269C93.9098 48.269 94.3798 48.352 94.9606 48.5733L94.8224 49.1541C94.3246 49.0434 93.9097 48.9881 93.6055 48.9881C92.997 48.9881 92.6099 49.2647 92.6099 49.7902C92.6099 51.0348 95.2648 50.3157 95.2648 52.224C95.2372 53.275 94.5182 53.9111 93.3013 53.9111Z" fill="#171B34"/>
<path d="M97.6988 53.9387C97.2562 53.9387 96.9244 53.7451 96.7585 53.4132C96.6479 53.1919 96.6203 52.9707 96.6203 52.3346V49.0157H95.7075V48.5455L96.6203 48.4349V46.9414H97.4776V48.3796H98.971V48.988H97.4499V51.9197C97.4499 52.86 97.4498 52.8877 97.5328 53.026C97.6158 53.1643 97.7541 53.2196 97.9477 53.2196C98.252 53.2196 98.5286 53.1643 98.9987 53.026L99.1647 53.5515C98.5286 53.828 98.1136 53.9387 97.6988 53.9387Z" fill="#171B34"/>
<path d="M100.658 47.2182C100.354 47.2182 100.105 46.9693 100.105 46.6374C100.105 46.3331 100.354 46.0842 100.658 46.0842C100.962 46.0842 101.211 46.3331 101.211 46.6374C101.211 46.9416 100.962 47.2182 100.658 47.2182ZM100.215 53.8282V48.4074H101.073V53.8282H100.215Z" fill="#171B34"/>
<path d="M104.004 53.9387C103.562 53.9387 103.23 53.7451 103.036 53.4132C102.926 53.1919 102.926 52.9707 102.926 52.3346V49.0157H102.013V48.5455L102.926 48.4349V46.9414H103.783V48.3796H105.304V48.988H103.783V51.9197C103.783 52.86 103.783 52.8877 103.866 53.026C103.949 53.1643 104.087 53.2196 104.281 53.2196C104.558 53.2196 104.862 53.1643 105.332 53.026L105.498 53.5515C104.834 53.828 104.447 53.9387 104.004 53.9387Z" fill="#171B34"/>
<path d="M109.84 53.8293V53.3867C109.066 53.7463 108.457 53.9399 107.96 53.9399C107.406 53.9399 106.992 53.7463 106.743 53.4144C106.521 53.1102 106.466 52.8612 106.466 52.0039V48.4084H107.324V51.7273C107.324 52.5294 107.268 53.1655 108.236 53.1655C108.679 53.1655 109.259 53.0548 109.813 52.8612V48.4084H110.67V53.8293H109.84Z" fill="#171B34"/>
<path d="M113.602 53.9387C113.159 53.9387 112.8 53.7451 112.634 53.4132C112.523 53.1919 112.523 52.9707 112.523 52.3346V49.0157H111.61V48.5455L112.523 48.4349V46.9414H113.381V48.3796H114.902V48.988H113.381V51.9197C113.381 52.86 113.38 52.8877 113.463 53.026C113.546 53.1643 113.685 53.2196 113.878 53.2196C114.183 53.2196 114.459 53.1643 114.929 53.026L115.095 53.5515C114.432 53.828 114.017 53.9387 113.602 53.9387Z" fill="#171B34"/>
<path d="M116.561 51.173V51.3666C116.561 52.5559 117.059 53.1644 117.972 53.1644C118.497 53.1644 118.94 53.0537 119.825 52.7495L119.991 53.275C118.857 53.8005 118.386 53.9388 117.75 53.9388C116.45 53.9388 115.621 52.9431 115.621 51.3113C115.621 49.4306 116.506 48.269 117.944 48.269C119.299 48.269 120.018 49.1541 120.018 50.8965V51.173H116.561ZM118.027 48.9605C117.225 48.9605 116.699 49.5413 116.589 50.6199L119.161 50.5369C119.161 49.4306 118.774 48.9605 118.027 48.9605Z" fill="#171B34"/>
<path d="M127.071 46.2222C127.071 46.2222 126.656 46.1668 126.103 46.1668C125.494 46.1668 125.356 46.3881 125.356 47.1348V48.3794H126.877V48.9879H125.356V53.8002H124.498V48.9879H123.558V48.49L124.498 48.3794V47.2178C124.498 46.4987 124.554 46.2498 124.747 45.9732C124.996 45.6137 125.356 45.4478 125.826 45.4478C126.435 45.4478 127.126 45.6414 127.126 45.6414L127.071 46.2222Z" fill="#171B34"/>
<path d="M129.587 53.9119C128.039 53.9119 127.181 52.8609 127.181 51.0909C127.181 49.3485 128.066 48.2422 129.587 48.2422C131.136 48.2422 131.993 49.2378 131.993 51.0909C131.993 52.9163 131.136 53.9119 129.587 53.9119ZM129.587 48.9889C128.564 48.9889 128.094 49.6527 128.094 51.1185C128.094 52.612 128.564 53.2205 129.587 53.2205C130.611 53.2205 131.081 52.612 131.081 51.1185C131.081 49.6527 130.638 48.9889 129.587 48.9889Z" fill="#171B34"/>
<path d="M135.589 49.1265C135.091 49.1265 134.704 49.2095 134.178 49.4584V53.8282H133.321V48.4074H134.151V48.8776C134.704 48.4904 135.091 48.3245 135.589 48.3245C135.672 48.3245 135.727 48.3245 135.866 48.3521V49.1265C135.7 49.1265 135.644 49.1265 135.589 49.1265Z" fill="#171B34"/>
<path d="M141.397 53.8835C140.678 53.8835 140.07 53.7729 139.212 53.524L139.406 52.8326C140.18 53.0262 140.789 53.1368 141.342 53.1368C142.31 53.1368 143.057 52.5837 143.057 51.7539C143.057 51.2008 142.918 50.8966 142.31 50.6477C141.065 50.0945 139.295 49.9839 139.295 48.2138C139.295 46.8863 140.208 46.0842 141.618 46.0842C142.227 46.0842 142.918 46.1949 143.638 46.4161L143.472 47.1075C142.697 46.9416 142.116 46.8586 141.646 46.8586C140.816 46.8586 140.208 47.3288 140.208 48.1309C140.208 48.8223 140.402 49.0159 141.84 49.4584C143.527 49.9839 143.969 50.4817 143.969 51.6433C143.969 53.0262 142.946 53.8835 141.397 53.8835Z" fill="#171B34"/>
<path d="M147.039 53.9388C145.712 53.9388 144.882 53.0261 144.882 51.173C144.882 49.403 145.822 48.269 147.15 48.269C147.592 48.269 148.173 48.3797 148.864 48.6286L148.726 49.2094C148.062 49.0711 147.814 49.0434 147.343 49.0434C146.292 49.0434 145.795 49.7349 145.795 51.1454C145.795 52.4729 146.292 53.1644 147.26 53.1644C147.675 53.1644 148.256 53.0537 148.782 52.8601L148.975 53.3856C148.201 53.7452 147.537 53.9388 147.039 53.9388Z" fill="#171B34"/>
<path d="M150.468 47.2182C150.164 47.2182 149.915 46.9693 149.915 46.6374C149.915 46.3331 150.164 46.0842 150.468 46.0842C150.772 46.0842 151.021 46.3331 151.021 46.6374C151.021 46.9416 150.772 47.2182 150.468 47.2182ZM150.026 53.8282V48.4074H150.883V53.8282H150.026Z" fill="#171B34"/>
<path d="M153.124 51.173V51.3666C153.124 52.5559 153.622 53.1644 154.534 53.1644C155.06 53.1644 155.502 53.0537 156.387 52.7495L156.553 53.275C155.419 53.8005 154.949 53.9388 154.313 53.9388C153.041 53.9388 152.183 52.9431 152.183 51.3113C152.183 49.4306 153.069 48.269 154.507 48.269C155.862 48.269 156.581 49.1541 156.581 50.8965V51.173H153.124ZM154.617 48.9605C153.815 48.9605 153.262 49.5413 153.179 50.6199L155.724 50.5369C155.751 49.4306 155.364 48.9605 154.617 48.9605Z" fill="#171B34"/>
<path d="M161.228 53.8293V50.5104C161.228 49.7084 161.283 49.0723 160.315 49.0723C159.845 49.0723 159.291 49.1829 158.738 49.3765V53.8293H157.881V48.4085H158.711V48.851C159.485 48.4915 160.094 48.2979 160.591 48.2979C161.145 48.2979 161.559 48.4915 161.808 48.8233C162.03 49.1276 162.085 49.3765 162.085 50.2339V53.8293H161.228Z" fill="#171B34"/>
<path d="M165.514 53.9388C164.187 53.9388 163.357 53.0261 163.357 51.173C163.357 49.403 164.297 48.269 165.625 48.269C166.067 48.269 166.648 48.3797 167.339 48.6286L167.201 49.2094C166.537 49.0711 166.316 49.0434 165.846 49.0434C164.795 49.0434 164.297 49.7349 164.297 51.1454C164.297 52.4729 164.795 53.1644 165.763 53.1644C166.178 53.1644 166.759 53.0537 167.284 52.8601L167.478 53.3856C166.676 53.7452 166.012 53.9388 165.514 53.9388Z" fill="#171B34"/>
<path d="M168.943 51.173V51.3666C168.943 52.5559 169.441 53.1644 170.354 53.1644C170.88 53.1644 171.322 53.0537 172.235 52.7495L172.401 53.275C171.267 53.8005 170.797 53.9388 170.16 53.9388C168.888 53.9388 168.031 52.9431 168.031 51.3113C168.031 49.4306 168.916 48.269 170.354 48.269C171.737 48.269 172.428 49.1541 172.428 50.8965V51.173H168.943ZM170.437 48.9605C169.635 48.9605 169.082 49.5413 168.999 50.6199L171.543 50.5369C171.543 49.4306 171.184 48.9605 170.437 48.9605Z" fill="#171B34"/>
<path d="M179.315 53.8282V53.3581C178.623 53.7453 178.126 53.9665 177.628 53.9665C176.936 53.9665 176.245 53.4134 176.245 52.2794C176.245 51.3944 176.632 50.8966 177.268 50.7306C177.683 50.62 178.236 50.5924 179.287 50.5924V50.3711C179.287 49.4861 179.342 49.0712 178.264 49.0712C177.849 49.0712 177.324 49.1265 176.66 49.2648L176.577 48.684C177.434 48.4351 178.07 48.3245 178.651 48.3245C179.232 48.3245 179.619 48.4627 179.868 48.767C180.089 49.0435 180.172 49.3754 180.172 50.3711V53.8559H179.315V53.8282ZM179.287 51.1178C177.545 51.2561 177.13 51.505 177.13 52.2794C177.13 52.8879 177.434 53.1921 177.877 53.1921C178.375 53.1921 179.287 52.7773 179.287 52.7773V51.1178Z" fill="#171B34"/>
<path d="M185.095 53.8293V50.5104C185.095 49.7084 185.151 49.0723 184.183 49.0723C183.712 49.0723 183.159 49.1829 182.606 49.3765V53.8293H181.749V48.4085H182.578V48.851C183.353 48.4915 183.961 48.2979 184.459 48.2979C185.012 48.2979 185.427 48.4915 185.676 48.8233C185.897 49.1276 185.953 49.3765 185.953 50.2339V53.8293H185.095Z" fill="#171B34"/>
<path d="M190.903 53.8283V53.3581C190.212 53.7453 189.576 53.9666 189.078 53.9666C187.889 53.9666 187.225 52.9156 187.225 51.1456C187.225 49.4308 188.027 48.2969 189.216 48.2969C189.797 48.2969 190.378 48.6011 190.903 48.9053V45.6694H191.761V53.856H190.903V53.8283ZM190.876 49.4308C190.046 49.1266 189.797 49.0713 189.41 49.0713C188.608 49.0713 188.138 49.7627 188.138 51.0626C188.138 52.5284 188.525 53.1922 189.355 53.1922C189.714 53.1922 190.101 53.1092 190.876 52.805V49.4308Z" fill="#171B34"/>
<path d="M198.011 53.8835C197.292 53.8835 196.684 53.7729 195.826 53.524L196.02 52.8326C196.794 53.0262 197.403 53.1368 197.956 53.1368C198.924 53.1368 199.671 52.5837 199.671 51.7539C199.671 51.2008 199.532 50.8966 198.924 50.6477C197.679 50.0945 195.909 49.9839 195.909 48.2138C195.909 46.8863 196.822 46.0842 198.233 46.0842C198.841 46.0842 199.532 46.1949 200.251 46.4161L200.086 47.1075C199.339 46.9416 198.73 46.8586 198.26 46.8586C197.431 46.8586 196.822 47.3288 196.822 48.1309C196.822 48.8223 197.016 49.0159 198.454 49.4584C200.141 49.9839 200.583 50.4817 200.583 51.6433C200.583 53.0262 199.588 53.8835 198.011 53.8835Z" fill="#171B34"/>
<path d="M203.93 53.9119C202.381 53.9119 201.524 52.8609 201.524 51.0909C201.524 49.3485 202.437 48.2422 203.93 48.2422C205.479 48.2422 206.336 49.2378 206.336 51.0909C206.309 52.9163 205.479 53.9119 203.93 53.9119ZM203.93 48.9889C202.907 48.9889 202.437 49.6527 202.437 51.1185C202.437 52.612 202.907 53.2205 203.93 53.2205C204.954 53.2205 205.424 52.612 205.424 51.1185C205.396 49.6527 204.981 48.9889 203.93 48.9889Z" fill="#171B34"/>
<path d="M209.461 53.9388C208.134 53.9388 207.304 53.0261 207.304 51.173C207.304 49.403 208.244 48.269 209.572 48.269C210.014 48.269 210.595 48.3797 211.286 48.6286L211.148 49.2094C210.484 49.0711 210.236 49.0434 209.765 49.0434C208.714 49.0434 208.217 49.7349 208.217 51.1454C208.217 52.4729 208.742 53.1644 209.71 53.1644C210.097 53.1644 210.706 53.0537 211.231 52.8601L211.425 53.3856C210.65 53.7452 209.987 53.9388 209.461 53.9388Z" fill="#171B34"/>
<path d="M212.891 47.2182C212.587 47.2182 212.338 46.9693 212.338 46.6374C212.338 46.3331 212.587 46.0842 212.891 46.0842C213.195 46.0842 213.444 46.3331 213.444 46.6374C213.444 46.9416 213.195 47.2182 212.891 47.2182ZM212.476 53.8282V48.4074H213.333V53.8282H212.476Z" fill="#171B34"/>
<path d="M215.574 51.173V51.3666C215.574 52.5559 216.071 53.1644 216.984 53.1644C217.51 53.1644 217.952 53.0537 218.865 52.7495L219.031 53.275C217.897 53.8005 217.427 53.9388 216.79 53.9388C215.518 53.9388 214.661 52.9431 214.661 51.3113C214.661 49.4306 215.546 48.269 216.984 48.269C218.367 48.269 219.058 49.1541 219.058 50.8965V51.173H215.574ZM217.067 48.9605C216.265 48.9605 215.712 49.5413 215.629 50.6199L218.201 50.5369C218.173 49.4306 217.814 48.9605 217.067 48.9605Z" fill="#171B34"/>
<path d="M221.548 53.9387C221.105 53.9387 220.773 53.7451 220.58 53.4132C220.469 53.1919 220.469 52.9707 220.469 52.3346V49.0157H219.556V48.5455L220.469 48.4349V46.9414H221.326V48.3796H222.847V48.988H221.326V51.9197C221.326 52.86 221.326 52.8877 221.409 53.026C221.492 53.1643 221.631 53.2196 221.852 53.2196C222.128 53.2196 222.433 53.1643 222.903 53.026L223.069 53.5515C222.405 53.828 221.99 53.9387 221.548 53.9387Z" fill="#171B34"/>
<path d="M225.89 54.6855C225.42 55.93 225.115 56.2066 224.175 56.2066C223.981 56.2066 223.815 56.2066 223.567 56.1513L223.65 55.5705C223.816 55.5705 223.898 55.5982 223.981 55.5982C224.756 55.5982 224.783 55.5428 225.281 54.2983L225.503 53.7451L223.345 48.3796H224.286L225.945 52.6665L227.466 48.3796H228.296L225.89 54.6855Z" fill="#171B34"/>
</svg>
