<svg width="153" height="65" viewBox="0 0 153 65" fill="none" xmlns="http://www.w3.org/2000/svg">
<path d="M59.1803 18.5295H60.2632V22.3195C60.2632 23.4927 60.8347 23.9138 61.9176 23.9138C62.6094 23.9138 63.0907 23.4927 63.0907 22.6203V18.5295H64.1435V22.3797C64.1435 23.9138 63.2711 24.756 61.5566 24.756C60.0827 24.756 59.1803 24.0642 59.1803 22.6504V18.5295ZM70.9716 24.756L67.6929 20.0936V24.6357H66.7002V18.5295H67.7831L70.8813 23.0415V18.5295H71.874V24.5755L70.9716 24.756ZM75.664 24.6357H74.5811V18.5295H75.664V24.6357ZM77.6192 18.5897L78.7321 18.4092L80.4768 23.4626L82.1913 18.5295H83.3043L80.9881 24.5755L79.9052 24.756L77.6192 18.5897ZM85.3196 18.5295H89.1397L89.0495 19.3417C88.1772 19.3417 87.3049 19.3116 86.4326 19.3116V21.1464H88.869L88.7487 21.8984L86.4326 21.8684V23.8837L89.3503 23.8536L89.2601 24.6958H85.3497V18.5295H85.3196ZM92.5387 22.109V24.6357H91.4559V18.5295H93.5314C94.8549 18.5295 95.637 19.0409 95.637 20.0636C95.637 20.9058 95.1557 21.4773 94.524 21.8082L96.1182 24.6357H94.885L93.5915 22.0789C93.4111 22.109 93.2306 22.109 93.0802 22.109C92.9599 22.109 92.7493 22.109 92.5387 22.109ZM94.4939 20.3944C94.4939 19.6725 94.0728 19.2815 93.1704 19.2815C92.9599 19.2815 92.7192 19.2815 92.5387 19.2815V21.357C92.7794 21.3871 93.0501 21.3871 93.3509 21.3871C93.9525 21.3871 94.4939 21.1164 94.4939 20.3944ZM98.0734 20.0936C98.0734 19.1311 99.0059 18.4092 100.329 18.4092C101.051 18.4092 101.743 18.4994 102.194 18.6498L101.984 19.5221C101.382 19.3116 100.751 19.1612 100.029 19.1612C99.4571 19.1612 99.066 19.4319 99.066 19.9132C99.066 20.3944 99.427 20.6652 100.42 21.0562C101.984 21.6578 102.315 22.109 102.315 22.9211C102.315 24.004 101.292 24.756 99.7278 24.756C99.0961 24.756 98.4043 24.6357 97.923 24.4853L98.1336 23.5528C98.7352 23.7935 99.427 23.9439 100.209 23.9439C100.751 23.9439 101.232 23.6731 101.232 23.1919C101.232 22.6805 100.961 22.3496 99.818 21.8984C98.6149 21.4472 98.0734 21.0261 98.0734 20.0936ZM105.684 24.6357H104.571V18.5295H105.654V24.6357H105.684ZM110.466 18.5295C112.361 18.5295 113.565 19.5522 113.565 21.3871C113.565 23.4325 112 24.6357 109.985 24.6357H108.361V18.5295H110.466ZM109.444 23.8235C109.714 23.8536 110.135 23.8536 110.526 23.8536C111.489 23.8536 112.452 23.2821 112.452 21.5676C112.452 19.9432 111.399 19.2815 110.135 19.2815H109.474V23.8235H109.444ZM118.889 22.9813H116.512L115.941 24.6658H114.858L117.204 18.5897L118.347 18.4393L120.693 24.6658H119.52L118.889 22.9813ZM117.685 19.5522L116.783 22.1691H118.618L117.685 19.5522ZM124.754 18.5295C126.649 18.5295 127.852 19.5522 127.852 21.3871C127.852 23.4325 126.288 24.6357 124.273 24.6357H122.649V18.5295H124.754ZM123.731 23.8235C124.002 23.8536 124.423 23.8536 124.784 23.8536C125.747 23.8536 126.709 23.2821 126.709 21.5676C126.709 19.9432 125.657 19.2815 124.393 19.2815H123.731V23.8235Z" fill="#171B34"/>
<path d="M67.302 42.2309L61.1356 33.3875V41.9903H59.2406V30.4397H61.3161L67.1817 39.0124V30.4397H69.0466V41.87L67.302 42.2309ZM79.8152 38.8319H75.3032L74.1902 41.9903H72.1448L76.5966 30.4697L78.7323 30.1689L83.154 41.9602H80.9582L79.8152 38.8319ZM77.5291 32.3948L75.8145 37.3279H79.2737L77.5291 32.3948ZM94.5242 41.3887C93.6819 41.87 92.1178 42.2309 90.8243 42.2309C87.4855 42.2309 85.049 40.2156 85.049 36.3353C85.049 32.7257 87.4554 30.199 91.1853 30.199C92.6291 30.199 93.8925 30.4397 94.4038 30.7104L93.9226 32.3347C93.1706 32.0941 91.9674 31.7331 90.5837 31.7331C88.9293 31.7331 87.2148 32.7257 87.2148 36.0345C87.2148 39.5238 89.4106 40.6668 91.4259 40.6668C92.4787 40.6668 93.5616 40.366 94.103 40.0652L94.5242 41.3887ZM99.9084 41.9903H97.8329V30.4397H99.9084V41.9903ZM108.812 42.2309C105.714 42.2309 103.518 40.1253 103.518 36.4556C103.518 32.5152 106.105 30.199 109.775 30.199C112.903 30.199 115.069 32.3347 115.069 36.0044C115.069 39.9148 112.452 42.2309 108.812 42.2309ZM108.932 31.7331C107.128 31.7331 105.654 32.8761 105.654 35.9142C105.654 39.3433 107.248 40.7269 109.594 40.7269C111.429 40.7269 112.903 39.5839 112.903 36.5158C112.903 33.0867 111.279 31.7331 108.932 31.7331ZM126.71 42.2309L120.513 33.3875V41.9903H118.618V30.4397H120.694L126.559 39.0124V30.4397H128.424V41.87L126.71 42.2309ZM139.223 38.8319H134.681L133.568 41.9903H131.522L135.974 30.4697L138.11 30.1689L142.531 41.9602H140.366L139.223 38.8319ZM136.937 32.3948L135.222 37.3279H138.681L136.937 32.3948ZM145.63 30.4397H147.705V40.4863L152.759 40.4261L152.548 42.0204H145.63V30.4397Z" fill="#171B34"/>
<path d="M61.4968 47.8865C63.3918 47.8865 64.595 48.9393 64.595 50.7441C64.595 52.7895 63.0309 53.9927 61.0155 53.9927H59.3912V47.8865H61.4968ZM60.4741 53.2106C60.7448 53.2407 61.1659 53.2407 61.557 53.2407C62.5195 53.2407 63.4821 52.6692 63.4821 50.9546C63.4821 49.3303 62.4293 48.6685 61.1659 48.6685H60.4741V53.2106ZM66.7608 47.8865H70.5809L70.4907 48.6986C69.6184 48.6986 68.746 48.6685 67.8737 48.6685V50.4733H70.3102L70.1899 51.2253L67.8737 51.1952V53.2106L70.7915 53.1805L70.7012 54.0227H66.7909V47.8865H66.7608Z" fill="#171B34"/>
<path d="M80.5372 53.6921C80.086 53.9327 79.2738 54.1433 78.582 54.1433C76.8374 54.1433 75.5439 53.0905 75.5439 51.015C75.5439 49.1199 76.8073 47.7664 78.7926 47.7664C79.5446 47.7664 80.2063 47.8867 80.5071 48.0371L80.2364 48.9094C79.8453 48.7891 79.2137 48.5785 78.4617 48.5785C77.5894 48.5785 76.687 49.1199 76.687 50.8646C76.687 52.6994 77.8601 53.301 78.9129 53.301C79.4844 53.301 80.0559 53.1506 80.3266 52.9702L80.5372 53.6921ZM84.8386 54.1433C83.1842 54.1433 82.0412 53.0303 82.0412 51.0751C82.0412 48.9996 83.4248 47.7664 85.3499 47.7664C87.0043 47.7664 88.1474 48.8793 88.1474 50.8345C88.1474 52.91 86.7637 54.1433 84.8386 54.1433ZM84.9288 48.5785C83.9663 48.5785 83.1842 49.1801 83.1842 50.7743C83.1842 52.6092 84.0264 53.3311 85.2597 53.3311C86.2223 53.3311 87.0043 52.7295 87.0043 51.1052C87.0043 49.3004 86.1621 48.5785 84.9288 48.5785ZM90.3432 47.8867H91.4261V53.2108L94.1032 53.1807L93.9828 54.0229H90.3432V47.8867ZM98.3143 54.1433C96.6599 54.1433 95.5169 53.0303 95.5169 51.0751C95.5169 48.9996 96.9006 47.7664 98.8257 47.7664C100.48 47.7664 101.623 48.8793 101.623 50.8345C101.623 52.91 100.239 54.1433 98.3143 54.1433ZM98.4046 48.5785C97.442 48.5785 96.6599 49.1801 96.6599 50.7743C96.6599 52.6092 97.5022 53.3311 98.7354 53.3311C99.698 53.3311 100.48 52.7295 100.48 51.1052C100.48 49.3004 99.6378 48.5785 98.4046 48.5785ZM104.902 49.2703L104.451 53.9929H103.428L104.18 47.8867H105.323L107.218 52.7596L109.083 47.8867H110.256L111.008 53.9929H109.925L109.444 49.2703L107.729 53.8425H107.669L106.737 53.9929L104.902 49.2703ZM113.264 47.8867H115.249C116.573 47.8867 117.325 48.398 117.325 49.3305C117.325 50.0223 116.874 50.4735 116.332 50.7443C117.024 50.8646 117.776 51.2556 117.776 52.158C117.776 53.2409 116.753 53.9628 115.069 53.9628H113.294V47.8867H113.264ZM116.242 49.6614C116.242 49.0297 115.881 48.6387 114.858 48.6387C114.738 48.6387 114.527 48.6387 114.347 48.6387V50.5337C114.557 50.5337 114.798 50.5337 115.009 50.5337C115.941 50.5638 116.242 50.2028 116.242 49.6614ZM116.663 52.3084C116.663 51.5865 116.091 51.2255 115.129 51.2255C114.918 51.2255 114.618 51.2255 114.377 51.2255V53.2108C114.708 53.2108 115.129 53.2409 115.52 53.2409C116.122 53.2409 116.663 53.0303 116.663 52.3084ZM121.025 53.9929H119.912V47.8867H120.994V53.9929H121.025ZM126.98 52.3385H124.574L124.002 53.9929H122.92L125.266 47.9168L126.409 47.7664L128.755 53.9929H127.582L126.98 52.3385ZM125.777 48.9395L124.875 51.5263H126.71L125.777 48.9395Z" fill="#171B34"/>
<path d="M47.9609 25.5371C47.9609 23.2811 46.878 21.356 45.1634 20.5138L45.013 20.4536L45.1033 20.604C45.1634 20.6943 45.1634 20.8146 45.1634 20.9349C45.1634 21.5064 44.8326 22.0178 44.4716 22.6494C43.9001 23.5518 43.2083 24.7249 43.2083 26.4996C43.2083 29.0865 44.7122 31.6734 46.878 32.7863L47.0284 32.8766L46.9682 32.7262C46.8479 32.4554 46.7877 32.1246 46.7877 31.8238C46.7877 30.801 47.0585 29.8385 47.3593 28.7857C47.6601 27.7028 47.9609 26.62 47.9609 25.5371ZM45.2236 22.4088C45.013 23.4014 44.7423 25.0558 44.7423 25.868C44.7122 26.6801 44.8025 27.9435 44.9228 28.5451L45.013 28.9963L45.0431 28.5451C45.1033 27.6126 45.1935 26.6801 45.2838 25.868C45.4342 24.2437 45.6146 23.1006 45.8252 22.2584C46.0057 23.0706 46.0658 24.2437 46.0658 24.755C46.0658 26.0785 46.0057 27.6728 45.7049 29.9287C46.2764 28.0036 46.6373 26.0184 46.6373 24.755C46.6373 23.9128 46.5471 22.7698 46.3967 22.0779C47.0585 22.9803 47.3893 24.1534 47.3893 25.4769C47.3893 26.4996 47.0885 27.5524 46.8178 28.515C46.517 29.5377 46.2162 30.5604 46.2162 31.6433C44.622 30.2295 43.8098 28.4849 43.8098 26.4395C43.8098 25.1761 44.2911 24.003 45.2236 22.4088Z" fill="#171B34"/>
<path d="M35.5985 16.9952C35.5985 17.7472 36.0497 18.439 36.4408 18.8L36.531 18.8602V18.7398C36.6513 18.0179 37.8244 17.0253 39.3585 16.8147C40.5015 15.9424 41.0129 14.3181 41.0129 13.145C41.0129 11.5207 40.2007 10.4077 39.4487 9.32487C39.0878 8.75335 38.6967 8.21192 38.3959 7.58024C38.6065 7.67048 38.8772 7.70056 39.2382 7.70056C40.2308 7.70056 41.0129 6.94857 41.0129 5.95593C41.0129 4.63242 39.9601 3.69995 38.4862 3.69995C36.6513 3.69995 34.7864 5.29418 34.7864 8.87367C34.7864 9.77606 34.9368 12.8141 36.9822 15.1904C36.14 15.4611 35.5985 16.153 35.5985 16.9952ZM38.9675 6.85833C39.1179 6.73801 39.2081 6.52745 39.2081 6.31689C39.2081 5.92585 38.9374 5.5649 38.426 5.5649C37.9448 5.5649 37.6139 5.95593 37.6139 6.49737C37.6139 7.49 38.2455 8.42247 38.9073 9.38503C39.6894 10.498 40.4714 11.6711 40.4714 13.1149C40.4714 13.8068 40.2609 14.7994 39.8097 15.4611C39.93 12.9044 39.178 11.6711 38.4561 10.4378C38.0651 9.74598 37.5236 9.08423 37.2529 8.18184C37.4334 9.26471 37.7944 10.0468 38.1553 10.8289C38.6967 11.9719 39.2683 13.1751 39.1479 15.4311C36.2904 10.6183 36.2603 8.03144 36.5611 6.31689L36.6513 5.86569L36.4708 6.28681C35.5684 8.30216 36.2904 11.5508 38.6667 15.8823C37.7342 15.7319 37.0123 16.0627 36.7115 16.7546L36.5912 16.9952L36.7716 16.8448C37.2529 16.4839 37.8846 16.3635 38.4561 16.544C37.3432 16.8147 36.8017 17.296 36.3806 17.9277C36.2001 17.687 36.1099 17.3562 36.1099 16.9952C36.1099 16.2131 36.6513 15.6717 37.644 15.4611L37.7342 15.4311L37.7041 15.3709C35.7189 12.9946 35.2977 10.5281 35.2977 8.90375C35.2977 5.7153 36.9521 4.27147 38.4561 4.27147C39.6292 4.27147 40.3812 4.9633 40.3812 6.01609C40.3812 6.73801 39.8699 7.27944 39.2081 7.27944C38.8171 7.27944 38.5163 7.21928 38.3358 7.09896C38.6667 7.06888 38.8471 6.97865 38.9675 6.85833Z" fill="#171B34"/>
<path d="M42.9977 19.0095C43.9001 19.0095 44.7423 19.6111 45.6146 20.2127C46.6073 20.9045 47.63 21.6565 48.8332 21.6565C50.0965 21.6565 51.0591 20.7842 51.0591 19.6713C51.0591 18.4681 50.1266 17.7161 49.2543 17.7161C48.6527 17.7161 48.2316 18.0169 48.1413 18.4982C47.9007 18.2575 47.5999 17.9868 47.2089 17.8364C48.5023 17.0844 49.2242 15.5804 49.0136 14.1667V14.1366L48.9836 14.1065C48.8632 14.0464 48.4421 13.926 47.7202 13.926C46.9983 13.926 46.1561 14.1968 45.6146 14.5878C45.5845 13.6854 45.3439 13.0838 45.1334 12.5725C44.9529 12.1213 44.7724 11.6701 44.7724 11.0685C44.7724 10.7677 44.8326 10.4368 44.9228 10.0758L44.9529 9.9856H44.8626C43.1782 10.0157 41.4636 11.7904 41.4636 14.678C41.4636 16.2121 42.0652 17.9267 42.9977 19.0095ZM44.0806 10.6774C44.0806 10.6774 44.1106 10.6774 44.1407 10.6774C44.2009 10.6474 44.261 10.6474 44.2911 10.6173C44.261 10.7977 44.231 11.0083 44.231 11.2189C44.231 11.7302 44.4114 12.1513 44.5919 12.6025C44.8025 13.144 45.0431 13.7756 45.0431 14.7081C45.0431 15.2496 45.013 15.6105 44.8927 15.9113L44.7724 16.2723L45.013 15.9715C45.765 14.9187 46.6975 14.4073 47.7804 14.4073C48.0511 14.4073 48.2616 14.4374 48.4722 14.4675C48.5324 15.5804 47.9007 17.0243 46.0357 17.8063L45.8252 17.8966L46.0357 17.9267C47.0885 18.0771 47.5397 18.5282 47.9007 18.8892C48.1714 19.1599 48.412 19.4006 48.8031 19.4006C49.2242 19.4006 49.525 19.0998 49.525 18.6786C49.525 18.4982 49.4648 18.3478 49.3144 18.2575C49.2844 18.2274 49.2543 18.1974 49.2242 18.1974C49.9762 18.1974 50.4274 18.9193 50.4274 19.6412C50.4274 20.4834 49.7356 21.1151 48.773 21.1151C47.7804 21.1151 46.8178 20.4534 45.8553 19.7916C45.4041 19.4908 44.9228 19.1298 44.4114 18.8892C44.8626 18.8892 45.6447 18.9193 46.3065 19.3705L46.4268 19.4607C47.6901 20.2729 48.773 20.9647 49.5852 19.9721L49.916 19.581L49.525 19.8818C48.9234 20.3932 48.2316 19.942 47.2389 19.2802C47.0585 19.1599 46.8479 19.0095 46.6373 18.8892C46.0057 18.4982 45.0431 18.438 44.5618 18.4079C45.5545 17.8665 46.5471 17.0844 47.0585 16.4828L47.2991 16.2121L46.9983 16.3926C46.7577 16.5129 46.5471 16.6633 46.3065 16.8137C45.6748 17.2047 45.013 17.6259 44.3212 18.0169C45.0431 17.0543 46.2764 15.9414 47.63 15.1292L47.9909 14.9187L47.5698 15.039C46.2764 15.4 44.8626 16.6332 43.9001 17.7462C44.1106 16.9039 44.4114 15.2796 44.2911 13.8358L44.261 13.3545L44.1106 13.8057C43.9302 15.0691 43.6294 16.4527 43.2985 17.5657C42.9977 15.6105 43.0879 13.7155 43.5993 11.7904L43.6895 11.4294L43.509 11.7302C42.6969 12.9936 42.4563 14.8886 42.7571 17.6259C42.366 16.934 42.0051 15.7308 42.0051 14.678C42.0051 12.6928 42.7571 11.2189 44.0806 10.6774Z" fill="#171B34"/>
<path d="M24.7395 19.1606C24.9501 19.1606 25.1607 18.95 25.3411 18.5289L25.4615 18.3484L25.281 18.4688C25.2208 18.4988 25.1907 18.5289 25.1607 18.559C25.2208 18.4988 25.2509 18.4086 25.3111 18.3184L25.4013 18.168L25.2208 18.2281C24.7095 18.4988 24.4989 18.7094 24.4989 18.95C24.4989 19.0704 24.5591 19.1606 24.7395 19.1606Z" fill="#171B34"/>
<path d="M50.3677 32.0947C49.9767 31.7036 49.4653 31.5232 48.954 31.5532C48.2321 31.5833 47.7508 32.0044 47.7508 32.6361C47.7508 33.1174 48.1118 33.5084 48.5629 33.5084C48.6532 33.5084 48.7434 33.5084 48.8036 33.4784C48.5329 33.7791 48.0215 33.8092 47.7809 33.8092C46.307 33.8092 44.9233 32.8166 44.2014 31.2525L44.1412 31.1021L44.1111 31.2825C43.9908 31.824 43.9307 32.4256 43.9307 33.1174C43.9307 34.5612 44.3518 35.7644 45.1339 36.5766C45.8558 37.3286 46.8183 37.7497 47.8711 37.7497C49.8564 37.7497 51.2701 36.3058 51.2701 34.3507C51.24 33.4784 50.9392 32.6361 50.3677 32.0947ZM47.811 36.1254C48.8036 36.1254 49.6157 35.4937 49.9466 34.4409L50.1271 33.9295L49.8564 34.4108C49.4052 35.1929 48.7735 35.5539 47.811 35.5539C46.6078 35.5539 45.3745 34.5612 44.8631 33.2377C45.585 33.8694 46.4574 34.4409 47.7809 34.4409C48.8337 34.4409 49.5857 33.8393 49.5857 32.9369C49.5857 32.4556 49.2849 32.0947 48.8637 32.0646C48.8938 32.0646 48.9239 32.0646 48.9239 32.0646C49.8865 32.0646 50.6084 33.0873 50.6084 34.3807C50.6084 36.0051 49.4052 37.2082 47.7809 37.2082C46.0062 37.2082 44.7729 35.975 44.4119 33.9295C45.2542 35.3433 46.4574 36.1254 47.811 36.1254Z" fill="#171B34"/>
<path d="M23.6864 37.389C24.288 36.9679 24.1676 36.5167 23.927 36.1558L23.1148 34.4111H22.9344L23.536 36.1858C23.5059 36.246 23.4758 36.3362 23.4457 36.3964C23.3856 36.5769 23.2953 36.7574 23.3555 36.9378C23.1148 36.8777 22.9043 36.9378 22.6937 37.0281C22.5433 37.0882 22.423 37.1183 22.2726 37.1183H22.1824L22.2726 37.2086C22.5433 37.5093 22.784 37.6597 23.0547 37.6597C23.2352 37.6597 23.4457 37.5695 23.6864 37.389Z" fill="#171B34"/>
<path d="M22.4831 36.6968C22.5734 36.7569 22.6937 36.787 22.7839 36.787C22.8441 36.787 22.9043 36.787 22.9644 36.7569C23.1148 36.6968 23.2953 36.5764 23.2953 36.3659C23.2953 35.9147 22.8742 35.5537 22.4831 35.3733V33.3579H22.2726V33.4181C22.2124 34.4709 22.1824 35.0725 22.1523 35.4033C22.1222 35.7643 22.1222 35.8846 22.1222 36.0049C22.1222 36.2756 22.2425 36.5464 22.4831 36.6968Z" fill="#171B34"/>
<path d="M26.033 35.5841C26.6647 35.5841 27.2663 35.1931 27.4167 34.6817L28.5296 33.0273H28.2589L27.0858 34.5614C27.0256 34.5915 26.9354 34.6216 26.8752 34.6517C26.5444 34.802 26.1834 34.9224 26.033 35.1329C25.8826 34.9224 25.5517 34.802 25.2208 34.6517C25.1306 34.6216 25.0704 34.5915 24.9802 34.5614L23.777 33.0273H23.5364L24.6493 34.6216C24.7997 35.163 25.3712 35.5841 26.033 35.5841Z" fill="#171B34"/>
<path d="M24.5289 37.9597C24.7996 37.6589 24.9199 37.3882 24.8898 37.1175C24.8898 36.8768 24.7394 36.6663 24.5289 36.4557L24.4386 36.3655V36.4858C24.4386 36.6061 24.3484 36.7565 24.2582 36.9069C24.1679 37.1175 24.0476 37.328 24.0777 37.5085C23.8671 37.4784 23.6566 37.5987 23.4761 37.7191C23.3257 37.8093 23.1753 37.8995 23.055 37.8995H22.9647L23.0249 37.9898C23.2054 38.2605 23.446 38.3808 23.6866 38.4109H23.7167C23.9574 38.441 24.2582 38.2605 24.5289 37.9597Z" fill="#171B34"/>
<path d="M26.0329 34.6509C26.6044 34.6509 27.1759 34.29 27.3564 33.8087L28.1685 32.3047H27.9279L27.1458 33.568C27.0857 33.5981 26.9954 33.6282 26.9353 33.6583C26.6044 33.7786 26.2133 33.929 26.0629 34.1696C25.9125 33.929 25.5215 33.7786 25.1906 33.6583C25.1004 33.6282 25.0402 33.5981 24.95 33.568L24.1078 32.3047H23.837L24.7093 33.8087C24.8597 34.29 25.4012 34.6509 26.0329 34.6509Z" fill="#171B34"/>
<path d="M37.7939 38.8932C37.5533 38.8932 37.2826 38.9534 37.0119 39.0436C36.7111 39.1339 36.4103 39.194 36.0794 39.194C34.786 39.194 33.9137 38.6827 33.2519 37.5096L33.2218 37.4795H32.4999L31.9885 38.1713L32.0487 38.2315C32.2292 38.5323 32.2893 38.8331 32.2893 39.0436C32.2893 39.3144 32.169 39.6152 32.0487 39.946C31.8081 40.5175 31.5374 41.2094 31.5374 42.3825C31.5374 43.6458 31.9585 44.458 32.3194 45.1498C32.5601 45.6311 32.7706 46.0221 32.7706 46.4433C32.7706 46.5937 32.6804 46.7741 32.4999 46.8644L32.4698 46.8945L32.7405 47.5562H33.9437L38.5459 40.3671C38.6061 40.2468 38.7264 40.0062 38.7264 39.7656C38.6963 39.2542 38.3053 38.8932 37.7939 38.8932ZM36.6208 39.916V41.6004L36.2298 42.1419V39.946C36.3802 39.946 36.5306 39.916 36.6208 39.916ZM37.0419 39.8257C37.1322 39.7956 37.2224 39.7656 37.3127 39.7355C37.4029 39.7054 37.4631 39.6753 37.5232 39.6753C37.6135 39.6753 37.6736 39.7054 37.7037 39.7956C37.7338 39.8859 37.7338 39.9761 37.7037 40.0664L37.0419 41.0289V39.8257ZM35.8388 39.9761V42.8036L35.4477 43.3751V39.9761C35.5981 39.9761 35.7184 39.9761 35.8388 39.9761ZM35.0567 39.8859V43.9466L34.6356 44.5783V39.7656C34.6656 39.7656 34.6957 39.7656 34.7258 39.7956C34.816 39.7956 34.9063 39.8558 35.0567 39.8859ZM32.4097 42.2321C32.4097 41.2094 32.6202 40.6379 32.8007 40.0664C32.9511 39.6452 33.1015 39.2241 33.1015 38.6526L33.4023 38.9534V45.4807C33.3121 45.2701 33.2218 45.0596 33.1015 44.819C32.7706 44.1873 32.4097 43.4654 32.4097 42.2321ZM34.2445 39.555V45.21L33.8234 45.8116V39.3144C33.9738 39.4046 34.1242 39.4948 34.2445 39.555Z" fill="#171B34"/>
<path d="M26.0328 32.9062C26.2735 32.9062 26.5442 32.6355 26.5442 32.3648C26.5442 32.1543 26.454 32.0039 26.3637 31.7632C26.3336 31.673 26.2735 31.5827 26.2133 31.4624L26.1532 30.2893H25.9125L25.8524 31.4624C25.7922 31.5827 25.7621 31.673 25.702 31.7632C25.5816 31.9738 25.5215 32.1242 25.5215 32.3648C25.5516 32.6355 25.7922 32.9062 26.0328 32.9062Z" fill="#171B34"/>
<path d="M26.0329 33.6897C26.6646 33.6897 26.9654 33.2686 27.1759 32.8174L27.6873 31.3735H27.4767L26.9052 32.5767C26.845 32.6068 26.7849 32.6369 26.7548 32.6369C26.4841 32.7572 26.1833 32.9076 26.063 33.1482C25.9426 32.9076 25.5817 32.7572 25.2809 32.6369C25.2508 32.6068 25.1906 32.6068 25.1606 32.5767L24.6492 31.3735H24.4086L24.9199 32.7873C25.0102 33.2686 25.3711 33.6897 26.0329 33.6897Z" fill="#171B34"/>
<path d="M27.687 38.3821C27.5065 38.2317 27.326 38.0813 27.1154 38.1415C27.2057 37.9309 27.1154 37.6903 27.0553 37.4797C26.9951 37.2993 26.935 37.1489 26.965 36.9985L26.9951 36.8782L26.8748 36.9383C26.6342 37.0887 26.4838 37.3594 26.4236 37.6602C26.3935 37.9009 26.4537 38.1114 26.574 38.2618L26.2431 38.5025V36.7278C26.8146 36.6676 27.4764 36.2465 27.5967 35.5847L28.8902 33.6897H28.6194L27.2658 35.4042C27.1756 35.4343 27.0854 35.4644 26.9951 35.4945C26.6041 35.6148 26.183 35.7652 26.0326 36.0058C25.8822 35.7652 25.4611 35.6148 25.07 35.4945C24.9798 35.4644 24.8895 35.4343 24.7993 35.4042L23.4457 33.6897H23.2051L24.4985 35.5847C24.6188 36.2465 25.2505 36.6676 25.8521 36.7278V38.5025L25.5212 38.2618C25.6415 38.1114 25.7017 37.9009 25.6716 37.6602C25.6415 37.3594 25.4611 37.0887 25.2204 36.9383L25.1001 36.8782L25.1302 36.9985C25.1603 37.1489 25.1001 37.2993 25.0399 37.4797C24.9798 37.6903 24.8895 37.9009 24.9798 38.1415C24.7391 38.0813 24.5286 38.2618 24.3481 38.4122C24.2278 38.5025 24.1075 38.5927 24.0172 38.6529L23.8969 38.6829L23.9872 38.7431C24.4383 39.074 24.8595 39.0138 25.3107 38.5927L25.6716 38.8634L24.4684 39.7658L24.9497 39.9162L25.822 39.2845V40.2471L26.0326 40.3373L26.2431 40.2471V39.2545L27.1756 39.9162L27.6569 39.7658L26.3935 38.8634L26.7545 38.5927C27.2057 39.0138 27.6268 39.074 28.078 38.7431L28.1682 38.6829L28.0479 38.6529C27.9276 38.5927 27.8073 38.5025 27.687 38.3821Z" fill="#171B34"/>
<path d="M43.8401 57.6326C43.4491 57.6326 43.058 57.6928 42.6971 57.8432C42.1256 57.1814 41.3134 56.7904 40.5313 56.7904C39.5086 56.7904 38.8769 57.3018 38.8769 58.144C38.8769 58.4749 38.9973 58.7757 39.1777 59.0163C38.7566 58.8358 38.3957 58.6553 37.9745 58.4749C37.6437 58.3245 37.3128 58.1741 36.9218 57.9936C35.3576 57.3018 30.0335 55.0458 26.2434 54.9856C28.1986 53.9629 30.1237 53.3312 31.9887 52.6995C33.7634 52.098 35.4478 51.5264 36.9518 50.7143C38.9672 49.5412 40.3809 48.0372 41.3736 46.0218C42.5768 43.6155 43.2084 40.3969 43.3287 36.2158V36.1557H43.2686C41.8548 36.1557 41.2232 35.7045 41.2232 34.7419C41.2232 33.8997 41.554 33.3883 43.2084 33.3883H43.2686V33.3282C43.2686 32.0648 43.0881 31.012 42.8775 30.0194C42.6971 29.0268 42.5166 28.0341 42.5166 26.8009C42.5166 25.718 42.7572 23.5823 44.4417 21.3264L44.4718 21.2963L43.7799 19.9728L43.7198 20.0028C43.028 20.1833 42.306 20.0329 41.8548 19.5817C41.4337 19.1606 41.2833 18.4989 41.4939 17.807V17.7469L40.1102 16.9949L40.0801 17.025C37.9144 19.1005 35.508 20.1833 33.1317 20.1833C31.9285 20.1833 30.1237 19.9427 28.2287 18.8899H28.1986L26.0329 21.8678L23.8972 18.8899L23.8371 18.92C21.942 19.9728 20.1372 20.1833 18.9341 20.1833C16.5578 20.1833 14.2115 19.1305 11.9856 17.055L11.9556 17.025L10.602 17.7469V17.807C10.7824 18.4989 10.6621 19.1606 10.241 19.5817C9.75973 20.0329 9.0679 20.1833 8.37606 19.9728L8.34598 19.9427L7.65415 21.2662L7.68423 21.2963C9.36869 23.5523 9.60933 25.6879 9.60933 26.7708C9.60933 28.0041 9.42885 28.9967 9.24837 29.9893C9.0679 30.982 8.85734 32.0348 8.85734 33.2981V33.3583H8.9175C10.5719 33.3583 10.9028 33.8696 10.9028 34.7119C10.9028 35.6744 10.241 36.1256 8.85734 36.1256H8.7671V36.1858C8.88742 40.3668 9.51909 43.5854 10.7223 45.9918C11.7149 48.0372 13.1287 49.5111 15.144 50.6842C16.648 51.5264 18.3325 52.0679 20.1072 52.6695C21.9721 53.3011 23.8972 53.9629 25.8524 54.9555C22.0624 55.0157 16.7382 57.2717 15.1741 57.9635C14.7831 58.144 14.4522 58.2944 14.1514 58.4448C13.7303 58.6253 13.3392 58.8057 12.9181 58.9862C13.0986 58.7757 13.2189 58.4749 13.2189 58.1139C13.2189 57.2717 12.5872 56.7603 11.5645 56.7603C10.7824 56.7603 10.0004 57.1514 9.39877 57.8131C9.12806 57.6928 8.70694 57.6026 8.25574 57.6026C7.08263 57.6026 6.36072 58.2342 6.36072 59.2269V62.0243C6.36072 63.5884 7.50375 64.4908 9.51909 64.4908C11.3239 64.4908 13.1888 63.7087 16.0765 62.4153C19.6259 60.8512 22.4233 59.5878 26.0028 59.5878C29.5823 59.5878 32.3797 60.8211 35.9291 62.4153C38.8168 63.6787 40.6817 64.4908 42.5166 64.4908C44.5319 64.4908 45.675 63.5884 45.675 62.0243V59.2269C45.705 58.2342 44.9831 57.6326 43.8401 57.6326ZM9.81989 30.0495C10.0004 28.8764 10.2109 27.6431 10.2109 26.6505C10.2109 24.9058 9.51909 22.8905 8.34598 21.176L8.67686 20.5443C9.39877 20.6646 10.1207 20.454 10.632 19.9427C11.0832 19.4915 11.3239 18.7696 11.2336 18.0477L11.8954 17.6867C14.1213 19.7622 16.4976 20.7849 18.9341 20.7849C20.5884 20.7849 22.303 20.3939 23.7167 19.672L25.6719 22.4393V29.6885C24.9199 30.26 23.6867 30.5909 22.5135 30.5909C22.2729 30.5909 22.0022 30.5608 21.7616 30.5308H21.7315L20.9795 31.4332L21.0096 31.4632C21.19 31.9746 21.3104 32.516 21.3104 33.1778C21.3104 33.629 21.2502 34.02 21.19 34.4111H11.5044C11.4141 33.4786 10.6922 32.9071 9.48901 32.7867C9.48901 32.0648 9.63941 31.0722 9.81989 30.0495ZM40.8622 18.0777C40.772 18.7997 41.0126 19.4915 41.4638 19.9728C41.9752 20.4841 42.7271 20.7248 43.4491 20.5744L43.7499 21.206C42.5768 22.8905 41.8849 24.9359 41.8849 26.6806C41.8849 27.6732 42.0955 28.9065 42.276 30.0796C42.4264 31.1023 42.5768 32.0949 42.6068 32.7867C41.3736 32.9071 40.6817 33.5087 40.5915 34.4111H30.9359C30.8757 34.02 30.8156 33.629 30.8156 33.1778C30.8156 32.516 30.9058 31.9445 31.1164 31.4632V31.4332L30.3644 30.5308H30.3343C30.0937 30.5608 29.853 30.5909 29.5823 30.5909C28.3791 30.5909 27.1759 30.23 26.4239 29.6885V22.4393L28.3791 19.672C29.7929 20.3939 31.4773 20.7849 33.1317 20.7849C35.5682 20.7849 37.9445 19.7622 40.1704 17.7168L40.8622 18.0777ZM31.1464 52.3386C29.5221 52.88 27.8678 53.4215 26.3938 54.1434V41.179C30.3042 39.8254 31.0562 38.2913 31.0562 35.915C31.0562 35.6142 31.0261 35.3134 30.996 35.1029C30.996 35.0728 30.996 35.0127 30.996 34.9826H40.5915C40.6516 35.6744 41.0728 36.4866 42.667 36.6069C42.5166 43.4951 40.5313 47.9469 36.5909 50.1428C34.9666 51.0752 33.0114 51.7069 31.1464 52.3386ZM30.0937 31.1324L30.4245 31.5535L30.3944 31.6437C30.3042 32.125 30.1839 32.5762 30.1839 33.1778C30.1839 33.5989 30.2441 34.1103 30.3042 34.5915C30.3644 35.0427 30.4245 35.4939 30.4245 35.8248C30.4245 38.1109 29.7628 39.4043 26.0329 40.6376C22.303 39.4043 21.6412 38.1109 21.6412 35.8248C21.6412 35.4939 21.7014 35.0728 21.7616 34.5915C21.8217 34.1103 21.8819 33.5989 21.8819 33.1778C21.8819 32.5762 21.7916 32.125 21.6713 31.6437L21.6412 31.5535L21.9721 31.1324H22.0022C22.1526 31.1624 22.2729 31.1925 22.4534 31.1925C23.8671 31.1925 25.0403 30.8616 26.0329 30.1999C27.0255 30.8616 28.1986 31.1925 29.6124 31.1925C29.7628 31.1925 29.9132 31.1624 30.0636 31.1324H30.0937ZM11.5044 34.9826H21.0998C21.0998 35.0127 21.0998 35.0728 21.0697 35.1029C21.0396 35.3134 21.0096 35.6142 21.0096 35.915C21.0096 38.2913 21.7616 39.8254 25.6719 41.179V54.1434C24.198 53.4215 22.5436 52.88 20.9193 52.3386C19.0544 51.737 17.0992 51.0752 15.4749 50.1728C11.5645 47.977 9.57925 43.5252 9.39877 36.637C11.0231 36.4866 11.4442 35.6744 11.5044 34.9826ZM9.18822 59.9789C8.1655 59.9789 7.08263 59.5878 7.08263 58.896C7.08263 58.535 7.47367 58.1741 8.19558 58.1741C8.73702 58.1741 9.33861 58.4448 10.0605 58.8358C10.602 59.1366 11.2637 59.4675 11.9255 59.4675C11.0231 59.7683 9.97029 59.9789 9.18822 59.9789ZM9.94021 58.1139C10.3012 57.6627 10.993 57.3318 11.5645 57.3318C12.1962 57.3318 12.6173 57.6627 12.6173 58.144C12.6173 58.5952 12.3466 58.8659 11.9255 58.8659C11.3239 58.896 10.5117 58.4448 9.94021 58.1139ZM26.0329 55.5571C28.9807 55.5571 33.613 57.1514 36.6811 58.535C39.2078 59.6781 41.1028 60.4902 42.9076 60.4902C44.171 60.4902 44.7726 60.1894 45.1335 59.8285V62.0243C45.1335 63.2275 44.2011 63.8892 42.5467 63.8892C40.8923 63.8892 38.9672 63.0771 36.1998 61.8739C32.3196 60.1593 29.5221 59.0163 26.063 59.0163C22.5737 59.0163 19.7763 60.1593 15.9261 61.8739C13.0986 63.1372 11.2336 63.8892 9.57925 63.8892C7.95495 63.8892 6.99239 63.1974 6.99239 62.0243V59.8285C7.38343 60.1593 7.95495 60.4902 9.2183 60.4902C10.993 60.4902 12.9181 59.6781 15.4448 58.535C18.4528 57.1814 23.0851 55.5571 26.0329 55.5571ZM40.1704 59.4374C40.8321 59.4374 41.524 59.1065 42.0654 58.8057C42.7572 58.4147 43.3588 58.144 43.9003 58.144C44.6222 58.144 45.0132 58.535 45.0132 58.8659C45.0132 59.5577 43.9303 59.9488 42.9076 59.9488C42.0955 59.9789 41.0728 59.7683 40.1704 59.4374ZM39.4485 58.144C39.4485 57.6627 39.8997 57.3318 40.5012 57.3318C41.0728 57.3318 41.7646 57.6627 42.1256 58.1139C41.524 58.4448 40.7419 58.896 40.1102 58.896C39.7192 58.896 39.4485 58.5952 39.4485 58.144Z" fill="#171B34"/>
<path d="M41.0128 55.1056C41.0128 55.5568 41.3737 55.8576 41.9152 55.8576C42.4867 55.8576 43.0883 55.4365 43.0883 54.5942C43.0883 52.8496 41.1933 51.4058 38.9072 51.4058C37.4333 51.4058 36.0496 51.9773 34.2749 52.6691C33.1921 53.1203 31.9287 53.6016 30.4548 54.0528L30.3345 54.0829L30.4247 54.143C32.1393 55.5568 33.8839 56.2787 35.6285 56.2787C37.2829 56.2787 38.6064 55.6169 39.6592 55.0755C40.321 54.7446 40.8925 54.4438 41.3136 54.4438C41.1331 54.5641 41.0128 54.8048 41.0128 55.1056ZM39.0877 53.8422C37.9447 54.3235 36.1699 54.5341 34.9968 54.5341C34.7261 54.5341 33.944 54.5341 33.3124 54.504C34.6058 54.3536 35.7187 54.0528 36.7114 53.7821C38.1853 53.3609 39.4486 53 40.8624 53.2406L41.3437 53.3008L40.8925 53.1203C40.4714 52.9398 39.7494 52.8195 39.1178 52.8195C38.1552 52.8195 37.0723 53.0902 35.8992 53.361C34.7863 53.6317 33.6432 53.9024 32.5604 53.9625C33.1319 53.7821 33.7335 53.5113 34.3652 53.2707C35.9594 52.609 37.6138 51.9472 38.9373 51.9472C40.3811 51.9472 42.5168 52.8195 42.5168 54.6544V54.6845C42.3664 54.2032 41.9152 53.9625 41.2233 53.9625C40.6518 53.9625 40.0202 54.2934 39.2682 54.6544C38.2455 55.1657 37.0723 55.7673 35.6586 55.7673C34.7562 55.7673 33.8237 55.5568 32.8311 55.1357C34.7562 55.1357 36.8317 55.0755 39.0877 53.8422Z" fill="#171B34"/>
<path d="M28.5896 37.8093C28.4091 37.689 28.1986 37.5687 27.988 37.5987C28.0482 37.3882 27.9278 37.1776 27.8376 36.9972C27.7474 36.8468 27.6571 36.6663 27.6571 36.5159V36.3655L27.5669 36.4858C27.0856 36.9671 27.0856 37.4784 27.5669 38.0199C27.8376 38.3207 28.1083 38.4711 28.379 38.4711C28.6197 38.4711 28.8603 38.3207 29.0709 38.08L29.1611 37.9898H29.0107C28.8904 37.9898 28.74 37.8995 28.5896 37.8093Z" fill="#171B34"/>
<path d="M42.998 43.5853L42.9379 43.5552L42.9078 43.6153C42.7273 44.1568 42.5769 44.7584 42.4566 45.3299C41.9453 47.3452 41.4941 49.2703 39.4186 49.8118L39.3584 49.8418L39.3885 49.902C39.7795 50.8044 40.8925 51.2255 41.7648 51.2255C42.7273 51.2255 43.6899 50.7442 44.0809 50.0524C44.1712 50.4735 44.3516 50.9247 44.5321 51.3158C44.7126 51.797 44.8931 52.1881 44.8931 52.4889C44.8931 52.6393 44.8931 52.7295 44.863 52.7897C44.7427 52.549 44.502 52.3385 44.0809 52.3385C43.6598 52.3385 43.2086 52.6994 43.2086 53.2409C43.2086 53.9628 43.8102 54.4741 44.6825 54.4741C46.1564 54.4741 47.6604 53.2108 47.6604 50.4134C47.6003 47.8867 46.2467 45.8713 42.998 43.5853ZM44.0809 47.1046V47.255C44.111 48.5183 43.8102 49.4809 43.2688 50.0223C42.8777 50.4134 42.3664 50.6239 41.7347 50.6239C41.1331 50.6239 40.5616 50.3532 40.2909 50.1126C41.6445 49.5711 42.4867 48.1273 43.0281 45.5104C43.3289 47.1347 42.607 49.1801 41.7648 49.9321L41.5542 50.1126L41.8249 50.0223C43.1184 49.5711 43.8102 47.3452 43.72 45.4502C45.0134 47.2851 45.7654 49.7817 46.0361 51.5564L46.0963 52.0677L46.1263 51.5564C46.2767 49.6012 45.6751 47.4655 44.3516 45.36C45.9759 46.6534 46.9987 48.5484 46.9987 50.3833C46.9987 51.9173 46.4271 53.1506 45.4646 53.662C45.0736 53.8725 44.6524 53.9327 44.2915 53.8425C44.502 53.8425 44.7126 53.7522 44.8931 53.6319C45.224 53.3913 45.4044 52.9701 45.4044 52.4889C45.4044 52.0377 45.224 51.6166 45.0134 51.0751C44.6825 50.263 44.1411 49.3606 44.111 47.4655L44.0809 47.1046Z" fill="#171B34"/>
<path d="M14.753 41.901C14.753 40.9986 15.0839 40.6376 15.9562 40.6075V40.9986C15.9562 41.8709 15.9562 42.6229 15.8359 43.4049C15.6855 44.3374 15.3245 44.6081 14.753 45.0593L14.6627 45.1195L15.4147 45.9316L15.4448 45.9016C16.2871 45.1796 16.6781 44.5179 16.8285 43.5553C16.9488 42.7131 16.9488 41.931 16.9488 41.0286V40.6075H18.6333C18.513 42.5928 18.513 42.9537 18.513 44.0065C18.513 45.1796 19.0243 45.7812 20.047 45.7812C20.5283 45.7812 20.8291 45.6308 20.9795 45.5406H21.0096V44.6382L20.9494 44.6081C20.7389 44.6984 20.6185 44.7585 20.3177 44.7585C19.9568 44.7585 19.5357 44.6382 19.5357 43.7659C19.5357 43.6155 19.5357 43.4952 19.5357 43.3749C19.5357 42.8033 19.5357 42.3521 19.6259 40.6075H20.9494V39.675H16.0765C14.5725 39.675 13.8807 40.2766 13.7002 41.6603V41.7205L14.7229 41.9912V41.901H14.753Z" fill="#171B34"/>
<path d="M29.2814 37.0573C29.0709 36.9971 28.8904 36.9069 28.6798 36.9971C28.74 36.7866 28.6798 36.6061 28.6197 36.4256C28.5896 36.3354 28.5595 36.2752 28.5595 36.215L29.1611 34.5005H28.9205L28.1083 36.2451C27.8376 36.6662 27.8677 37.1174 28.2286 37.3881H28.2587C28.2587 37.3881 28.2888 37.3881 28.2888 37.4182C28.5595 37.5987 28.8001 37.6889 29.0107 37.6889C29.3115 37.6889 29.5221 37.5385 29.7627 37.2979L29.8529 37.2077H29.7627C29.5822 37.1776 29.4318 37.1174 29.2814 37.0573Z" fill="#171B34"/>
<path d="M29.5825 35.3734C29.3118 35.5238 28.7704 35.9148 28.7704 36.336C28.7704 36.5465 28.9208 36.727 29.1013 36.8172C29.1614 36.8473 29.1915 36.8473 29.2517 36.8473C29.372 36.8473 29.4923 36.8172 29.5825 36.727C29.7931 36.5766 29.9134 36.3059 29.9134 36.0051C29.9134 35.8848 29.9134 35.7644 29.8833 35.4035C29.8533 35.0726 29.8232 34.471 29.763 33.4784V33.4182H29.5825V35.3734Z" fill="#171B34"/>
<path d="M47.7205 39.4346C47.2091 38.9232 46.6376 38.5623 46.1563 38.2615C45.4645 37.7802 44.8629 37.3892 44.5019 36.7575L44.4418 36.6672L44.3816 36.7575C44.0207 37.5696 43.78 39.0435 43.78 40.0061C43.78 42.3824 44.7426 43.6457 45.7352 44.7587L45.8856 44.9392C46.6075 45.7513 47.4197 46.6838 47.9611 48.3081L47.9912 48.3683L48.0514 48.3382C49.0741 47.7968 49.7659 46.2025 49.7659 44.488C49.796 42.4726 49.0741 40.728 47.7205 39.4346ZM47.3595 44.5181C47.2693 44.3075 47.149 44.127 47.0587 43.9165C46.2466 42.2922 45.4645 40.7581 45.0735 38.9232C46.788 40.8483 47.901 42.9238 48.3822 45.7212C48.3221 42.2621 46.9986 40.1565 45.645 38.5923C47.9611 39.9459 49.2245 42.0214 49.2245 44.488C49.2245 46.1424 48.5928 47.1049 48.292 47.4358C47.7806 46.383 47.0286 45.27 46.2165 44.3977L46.1563 44.3075C45.284 43.2246 44.4719 42.1718 44.4719 40.0362C44.4719 39.7354 44.4719 39.5549 44.5019 39.1939C45.0133 41.2093 46.0059 43.1043 47.2994 44.6083L47.6002 44.9392L47.3595 44.5181Z" fill="#171B34"/>
<path d="M6.93205 36.6078C7.71412 35.7656 8.13524 34.5624 8.13524 33.1486C8.13524 32.4568 8.07508 31.8552 7.95476 31.3138L7.92468 31.1333L7.83444 31.3138C7.11253 32.8478 5.69878 33.8706 4.25495 33.8706C4.01431 33.8706 3.50295 33.8405 3.23224 33.5397C3.2924 33.5698 3.38264 33.5698 3.47288 33.5698C3.92407 33.5698 4.28503 33.1787 4.28503 32.6974C4.28503 32.0658 3.80375 31.6447 3.08184 31.6146C2.57048 31.5845 2.05913 31.765 1.66809 32.156C1.12665 32.6373 0.795776 33.4795 0.795776 34.3819C0.795776 36.3672 2.2396 37.7809 4.19479 37.7809C5.24758 37.7809 6.21013 37.3598 6.93205 36.6078ZM2.45016 32.9381C2.45016 33.8104 3.20216 34.4421 4.28503 34.4421C5.60854 34.4421 6.48085 33.8706 7.20277 33.2389C6.69141 34.5624 5.45814 35.555 4.25495 35.555C3.2924 35.555 2.66072 35.1941 2.20953 34.412L1.93881 33.9307L2.08921 34.4421C2.42008 35.4949 3.23224 36.1265 4.22487 36.1265C5.60854 36.1265 6.78165 35.3144 7.53364 33.9006C7.17269 35.9761 5.93942 37.1793 4.19479 37.1793C2.57048 37.1793 1.36729 35.9761 1.36729 34.3518C1.36729 33.0584 2.11929 32.0357 3.08184 32.0357C3.08184 32.0357 3.11192 32.0357 3.142 32.0357C2.72088 32.0959 2.45016 32.4568 2.45016 32.9381Z" fill="#171B34"/>
<path d="M8.8873 53.2108C8.8873 52.6694 8.4361 52.3084 8.01499 52.3084C7.59387 52.3084 7.32315 52.5491 7.23291 52.7596C7.20283 52.6995 7.20283 52.5792 7.20283 52.4588C7.20283 52.158 7.35323 51.767 7.56379 51.2857C7.71419 50.8947 7.89467 50.4736 7.98491 50.0224C8.40602 50.7142 9.3385 51.1955 10.301 51.1955C11.1734 51.1955 12.2863 50.7744 12.6774 49.872L12.7074 49.8118L12.6473 49.7817C10.5718 49.2403 10.0905 47.3152 9.60922 45.2999C9.4889 44.7283 9.3385 44.1568 9.15802 43.5853L9.12794 43.5251L9.06778 43.5552C5.84924 45.8112 4.46558 47.8566 4.46558 50.3533C4.46558 53.1507 5.96956 54.414 7.47355 54.414C8.28571 54.4441 8.8873 53.9327 8.8873 53.2108ZM7.68411 45.36C6.3606 47.4656 5.75901 49.6013 5.9094 51.5564L5.93948 52.0678L5.99964 51.5564C6.27036 49.7817 7.02236 47.2851 8.31579 45.4502C8.22555 47.3754 8.91738 49.6013 10.2108 50.0224L10.4815 50.1126L10.271 49.9321C9.39866 49.1801 8.70682 47.1347 9.00762 45.5104C9.54906 48.1273 10.3913 49.5411 11.7449 50.1126C11.4742 50.3533 10.9026 50.624 10.301 50.624C9.66937 50.624 9.15802 50.4134 8.76698 50.0224C8.22555 49.4809 7.95483 48.5785 7.95483 47.3152C7.95483 47.255 7.95483 47.1648 7.95483 47.0746H7.83451V47.3152C7.80443 49.1801 7.35323 50.263 7.02236 51.0752C6.8118 51.6166 6.63132 52.0377 6.63132 52.519C6.63132 53.0003 6.8118 53.4214 7.14267 53.662C7.32315 53.7823 7.53371 53.8726 7.74427 53.8726C7.38331 53.9628 6.9622 53.9327 6.57116 53.6921C5.60861 53.1807 5.03709 51.9475 5.03709 50.4134C5.03709 48.5485 6.02972 46.6534 7.68411 45.36Z" fill="#171B34"/>
<path d="M27.9579 60.2493C27.2961 60.2493 26.6946 60.4297 26.0328 60.8208C25.4312 60.4598 24.9198 60.2493 24.1679 60.2493C22.724 60.2493 21.7615 60.9411 21.7615 61.9638C21.7615 62.776 22.4533 63.2572 23.1151 63.2572C23.7167 63.2572 24.1077 62.9564 24.1077 62.5052C24.1077 62.1443 23.8671 61.9037 23.5362 61.9037C23.3557 61.9037 23.1752 62.024 23.0549 62.1744C22.9647 62.3248 22.9647 62.5353 23.0248 62.7158C22.6338 62.6857 22.3631 62.3548 22.3631 61.9337C22.3631 61.2419 23.0248 60.7907 24.0475 60.7907C24.7093 60.7907 25.3109 61.0013 25.6117 61.2118C25.1304 61.6931 24.6491 62.3248 24.6491 63.0768C24.6491 64.0393 25.371 64.6108 26.0629 64.6108C26.7547 64.6108 27.4766 64.0393 27.4766 63.0768C27.4766 62.3248 26.9954 61.6931 26.5141 61.2118C26.8149 61.0013 27.4766 60.7907 28.1384 60.7907C29.131 60.7907 29.7928 61.2419 29.7928 61.9337C29.7928 62.3548 29.5221 62.6857 29.131 62.7158C29.1912 62.5353 29.1912 62.3548 29.1009 62.1744C29.0107 61.9939 28.8302 61.9037 28.6197 61.9037C28.2587 61.9037 28.0481 62.1443 28.0481 62.5052C28.0481 62.9865 28.4392 63.2572 29.0408 63.2572C29.7025 63.2572 30.3944 62.776 30.3944 61.9638C30.3041 60.9712 29.3416 60.2493 27.9579 60.2493ZM26.0027 61.5728C26.5442 62.0841 26.8149 62.5654 26.8149 63.0768C26.8149 63.7385 26.3938 64.0092 26.0027 64.0092C25.5816 64.0092 25.1906 63.7385 25.1906 63.0768C25.1906 62.5654 25.4613 62.0841 26.0027 61.5728Z" fill="#171B34"/>
<path d="M16.3771 56.2787C18.1217 56.2787 19.8663 55.5568 21.5809 54.143L21.6711 54.0829L21.5508 54.0528C20.0769 53.6016 18.8436 53.0902 17.7608 52.6691C16.0161 51.9472 14.6024 51.4058 13.1285 51.4058C10.8725 51.4058 8.94739 52.8797 8.94739 54.5942C8.94739 55.4365 9.54898 55.8576 10.1205 55.8576C10.6619 55.8576 11.0229 55.5568 11.0229 55.1056C11.0229 54.8048 10.9026 54.5641 10.6619 54.4438C11.1131 54.4438 11.6546 54.7145 12.3464 55.0755C13.3992 55.6169 14.7227 56.2787 16.3771 56.2787ZM16.1665 53.361C15.0235 53.0902 13.9105 52.8195 12.948 52.8195C12.2862 52.8195 11.5643 52.9398 11.1432 53.1203L10.7221 53.3008L11.2034 53.2406C12.6171 53 13.8805 53.3609 15.3544 53.7821C16.347 54.0528 17.46 54.3536 18.7534 54.504C18.1217 54.5341 17.3396 54.5341 17.0689 54.5341C15.8958 54.5341 14.0609 54.4137 12.9179 53.9325C15.1739 55.1657 17.3096 55.1357 19.2046 55.0755C18.242 55.4966 17.3096 55.7072 16.3771 55.7072C14.9934 55.7072 13.8203 55.1357 12.7675 54.5942C12.0155 54.2333 11.3838 53.9024 10.8123 53.9024C10.1205 53.9024 9.6693 54.143 9.5189 54.6243V54.5942C9.5189 52.7594 11.6546 51.887 13.0984 51.887C14.4219 51.887 16.0763 52.5488 17.6705 53.2105C18.3022 53.4813 18.9339 53.7219 19.4753 53.9024C18.3924 53.9024 17.2795 53.6317 16.1665 53.361Z" fill="#171B34"/>
<path d="M6.30051 44.7587C7.29315 43.6457 8.2557 42.3824 8.2557 40.0061C8.2557 39.0435 8.04514 37.5696 7.6541 36.7575L7.59394 36.6672L7.53378 36.7575C7.17283 37.3892 6.57123 37.8103 5.8794 38.2615C5.39812 38.5923 4.85668 38.9533 4.31525 39.4346C2.96166 40.728 2.23975 42.4426 2.23975 44.4579C2.23975 46.1724 2.96166 47.7667 3.98437 48.3081L4.04453 48.3382L4.07461 48.278C4.61605 46.6537 5.4282 45.7513 6.15011 44.9091L6.30051 44.7587ZM4.76645 44.5782C6.08996 43.1043 7.05251 41.1792 7.56386 39.1639C7.59394 39.5549 7.59394 39.7053 7.59394 40.0061C7.59394 42.1718 6.78179 43.1945 5.90948 44.2774L5.84932 44.3677C5.03716 45.24 4.28517 46.3529 3.77381 47.4057C3.5031 47.0748 2.84134 46.1123 2.84134 44.4579C2.84134 41.9914 4.10469 39.9159 6.42083 38.5623C5.06724 40.1264 3.74373 42.2019 3.68357 45.6912C4.16485 42.8937 5.24772 40.8182 6.99235 38.8931C6.57123 40.728 5.81924 42.2621 5.00708 43.8864C4.91684 44.0969 4.79653 44.2774 4.70629 44.488L4.49573 44.9091L4.76645 44.5782Z" fill="#171B34"/>
<path d="M5.03714 32.8465L5.18754 32.7562C7.35328 31.6433 8.85727 29.0564 8.85727 26.4696C8.85727 24.6648 8.16543 23.5217 7.624 22.5893C7.23296 22.0178 6.90208 21.4763 6.90208 20.9349C6.90208 20.8146 6.90208 20.7243 6.96224 20.604L7.05248 20.4536L6.872 20.5138C5.15746 21.356 4.07458 23.2811 4.07458 25.5371C4.07458 26.62 4.37538 27.7028 4.67618 28.7556C4.97698 29.8084 5.2477 30.771 5.2477 31.7937C5.2477 32.0945 5.18754 32.4554 5.06722 32.6961L5.03714 32.8465ZM5.42817 24.8152C5.42817 26.0785 5.78913 28.0638 6.36065 29.9889C6.05985 27.7329 5.99969 26.1387 5.99969 24.8152C5.99969 24.2737 6.05985 23.1006 6.24033 22.3186C6.45089 23.1608 6.60128 24.3038 6.78176 25.9281C6.872 26.7102 6.96224 27.6728 7.0224 28.6052L7.05248 29.0564L7.14272 28.6052C7.26304 28.0036 7.35328 26.7403 7.3232 25.9281C7.29312 25.0558 7.05248 23.4014 6.81184 22.4088C7.74432 24.003 8.25567 25.1761 8.25567 26.4996C8.25567 28.5451 7.44352 30.2897 5.84929 31.7034C5.84929 30.6206 5.54849 29.5979 5.2477 28.5751C4.9469 27.5825 4.67618 26.5598 4.67618 25.5371C4.67618 24.1835 5.00706 23.0104 5.66881 22.1381C5.51841 22.8299 5.42817 23.9729 5.42817 24.8152Z" fill="#171B34"/>
<path d="M11.0229 13.1149C11.0229 14.3181 11.5343 15.9123 12.6473 16.8147C14.1813 17.0554 15.3544 18.0179 15.4748 18.7699L15.5048 18.8902L15.5951 18.8301C16.0162 18.4691 16.4373 17.7472 16.4373 16.9952C16.4373 16.1229 15.8959 15.4311 15.0837 15.1904C17.0991 12.8141 17.2795 9.77606 17.2795 8.87367C17.2795 5.29418 15.4146 3.69995 13.5797 3.69995C12.1058 3.69995 11.053 4.6625 11.053 5.95593C11.053 6.94857 11.805 7.70056 12.8277 7.70056C13.1586 7.70056 13.4594 7.67048 13.67 7.58024C13.3692 8.18184 12.9781 8.75335 12.5871 9.29479C11.805 10.3777 11.0229 11.4906 11.0229 13.1149ZM14.3618 15.4611C15.3544 15.6717 15.8959 16.2131 15.8959 16.9952C15.8959 17.3562 15.8056 17.687 15.6252 17.9277C15.2341 17.296 14.7228 16.8147 13.5797 16.544C14.1512 16.3635 14.7829 16.4538 15.2642 16.8448L15.4447 16.9952L15.3544 16.7846C15.0536 16.0928 14.3016 15.7619 13.3992 15.9123C15.7756 11.5508 16.4975 8.33223 15.5951 6.31689L15.3845 5.86569L15.4748 6.31689C15.7756 8.03144 15.7154 10.6183 12.8879 15.4311C12.7676 13.2052 13.3391 12.002 13.8805 10.8589C14.2415 10.0769 14.6325 9.29479 14.813 8.21192C14.5423 9.11431 14.0008 9.80614 13.6098 10.4679C12.8879 11.6711 12.1359 12.9344 12.2261 15.4912C11.7749 14.7994 11.5644 13.8368 11.5644 13.1149C11.5644 11.6711 12.3765 10.498 13.1285 9.38503C13.7903 8.39239 14.422 7.49 14.422 6.49737C14.422 5.95593 14.0911 5.5649 13.6098 5.5649C13.0985 5.5649 12.8578 5.95593 12.8578 6.31689C12.8578 6.52745 12.9481 6.73801 13.0985 6.85833C13.2188 6.94857 13.3993 7.06888 13.67 7.06888C13.4895 7.1892 13.1887 7.24936 12.7977 7.24936C12.1359 7.24936 11.6245 6.70793 11.6245 5.98601C11.6245 4.93322 12.3765 4.24139 13.5496 4.24139C15.0837 4.24139 16.708 5.68522 16.708 8.87367C16.708 10.5281 16.2869 12.9946 14.3016 15.3408L14.2716 15.4611H14.3618Z" fill="#171B34"/>
<path d="M3.20239 21.6274C4.43566 21.6274 5.45838 20.9055 6.45101 20.1836C7.32332 19.5519 8.16555 18.9804 9.03787 18.9804H9.06795C10.0004 17.9577 10.602 16.213 10.602 14.709C10.602 11.8214 8.88747 10.0467 7.203 10.0166H7.11276L7.14284 10.0768C7.23308 10.4377 7.29324 10.7686 7.29324 11.0694C7.29324 11.671 7.11276 12.1222 6.93228 12.5734C6.69165 13.0847 6.45101 13.6863 6.42093 14.5887C5.84941 14.1977 5.03726 13.927 4.31534 13.927C3.59343 13.927 3.17231 14.0473 3.05199 14.1074H3.02191V14.1375C2.81136 15.5513 3.53327 17.0553 4.8267 17.8073C4.43566 17.9877 4.13487 18.2284 3.89423 18.469C3.80399 18.0178 3.38287 17.6869 2.78128 17.6869C1.87888 17.6869 0.946411 18.4089 0.946411 19.6421C0.976491 20.7852 1.93904 21.6274 3.20239 21.6274ZM2.69104 18.2585C2.57072 18.3788 2.51056 18.5292 2.51056 18.7097C2.51056 19.1308 2.81136 19.4316 3.20239 19.4316C3.59343 19.4316 3.83407 19.1909 4.10479 18.9202C4.46574 18.5593 4.91694 18.1081 5.96973 17.9577L6.18029 17.9276L5.99981 17.8073C4.10479 17.0553 3.50319 15.6114 3.56335 14.4985C3.80399 14.4383 3.98447 14.4082 4.28526 14.4082C5.36814 14.4082 6.30061 14.9196 7.0526 15.9724L7.29324 16.2732L7.14284 15.9122C7.0526 15.6114 6.99244 15.2505 6.99244 14.709C6.99244 13.7766 7.23308 13.1449 7.47372 12.6035C7.6542 12.1523 7.83468 11.7311 7.83468 11.2198C7.83468 11.0092 7.8046 10.7987 7.77452 10.6182C7.83468 10.6182 7.89484 10.6483 7.955 10.6784C7.98508 10.6784 7.98508 10.6784 8.01516 10.6784C9.33867 11.2198 10.0907 12.6937 10.0907 14.709C10.0907 15.7618 9.7297 16.965 9.33866 17.6569C9.63946 14.8895 9.39882 13.0246 8.58667 11.7612L8.31595 11.4304L8.40619 11.7913C8.91755 13.7164 9.03787 15.5814 8.70699 17.5666C8.40619 16.4236 8.13547 15.07 7.92492 13.8067L7.86476 13.2953L7.8046 13.8067C7.68428 15.2505 7.98508 16.8748 8.19563 17.717C7.23308 16.6041 5.78925 15.3708 4.5259 15.0098L4.10479 14.8895L4.46574 15.1302C5.81933 15.9724 7.0526 17.0553 7.77452 18.0178C7.08268 17.6268 6.42093 17.2357 5.78925 16.8146C5.54861 16.6642 5.30798 16.5138 5.09742 16.3935L4.79662 16.213L5.00718 16.4837C5.51853 17.0853 6.54125 17.8674 7.5038 18.4089C7.02252 18.4089 6.09005 18.469 5.4283 18.8901C5.21774 19.0105 5.00718 19.1608 4.8267 19.2812C3.80399 19.9429 3.14223 20.3941 2.4504 19.8828L2.05936 19.582L2.39024 19.973C3.20239 20.9656 4.28526 20.2437 5.51854 19.4616L5.63885 19.3714C6.33069 18.9503 7.08268 18.8901 7.56396 18.8901C7.08268 19.1308 6.60141 19.4616 6.12013 19.7925C5.18766 20.4543 4.19503 21.116 3.20239 21.116C2.23984 21.116 1.54801 20.4844 1.54801 19.6421C1.54801 18.9503 1.9992 18.1983 2.78128 18.1983C2.7512 18.2284 2.72112 18.2284 2.69104 18.2585Z" fill="#171B34"/>
<path d="M33.3121 25.0869C33.7633 25.0869 34.0341 24.9065 34.395 24.6057C34.8462 24.2146 35.2673 23.974 36.0494 23.974C37.042 23.974 38.0347 24.5154 38.0347 25.7487C38.0347 27.012 37.1924 27.7039 35.147 28.1551L34.5755 28.2754V29.0875L35.3576 28.9672C36.9518 28.5762 39.0273 27.7941 39.0273 25.6885C39.0273 24.1244 37.794 23.0415 36.0193 23.0415C34.3649 23.0415 32.8008 24.2447 32.8008 24.8162C32.8609 24.9666 33.0715 25.0869 33.3121 25.0869ZM33.5528 24.3349C33.5528 24.2447 33.6129 24.1845 33.7032 24.1845C33.7934 24.1845 33.8536 24.2447 33.8536 24.3349C33.8536 24.4252 33.7934 24.4853 33.7032 24.4853C33.6129 24.4853 33.5528 24.4252 33.5528 24.3349Z" fill="#171B34"/>
<path d="M34.2744 30.2604L33.7029 30.1401C32.981 29.9897 32.8606 29.9296 32.8606 29.7792C32.8606 29.6588 32.9208 29.5686 33.2818 29.4784H33.3419V28.6963L33.2818 28.7264C32.3493 28.967 31.9583 29.328 31.9583 29.8393C31.9583 30.3507 32.4997 30.6515 33.7029 30.862L34.2744 30.9824C35.8085 31.3132 36.0792 31.7945 36.1995 32.0652C36.2597 32.1855 36.3198 32.2758 36.4401 32.2758C36.5905 32.2758 36.6206 32.0051 36.6206 31.8547C36.6206 31.7945 36.5905 31.6441 36.5304 31.4937C36.38 31.2831 35.9889 30.6214 34.2744 30.2604Z" fill="#171B34"/>
<path d="M34.3046 31.463V31.2224L33.6128 31.1021V31.463C32.8006 31.6435 32.3193 31.824 32.3193 32.1548V32.215H35.6582V32.1548C35.6582 31.824 35.1468 31.6435 34.3046 31.463Z" fill="#171B34"/>
<path d="M14.6327 30.381C16.3171 30.381 16.9187 29.7493 16.9187 29.2079V29.1477H16.4976L14.9936 24.4853C15.5952 24.365 16.1066 24.3049 16.5878 24.3049C16.6781 24.5455 17.009 24.8162 17.3398 24.8162C17.7008 24.8162 18.0016 24.5756 18.0918 24.3349C18.7235 24.3349 19.3251 24.4553 19.6861 24.5154L18.1821 29.1778H17.761V29.2079C17.761 29.7493 18.3626 30.381 20.047 30.381C21.6412 30.381 22.2128 29.7794 22.2128 29.2079V29.1477H21.8518L20.4982 24.726L20.7088 24.7861L20.9494 24.0642L20.8893 24.0341C19.9267 23.7333 19.0243 23.5529 18.0618 23.5228C17.9715 23.222 17.6707 23.0415 17.3398 23.0415C17.009 23.0415 16.7082 23.222 16.5878 23.5228C15.6253 23.5829 14.7831 23.7333 13.7904 24.0341L13.7603 24.0642L14.001 24.7861L14.2115 24.726L12.858 29.1477H12.4669V29.2079C12.4669 29.7794 13.0384 30.381 14.6327 30.381ZM13.3392 29.1477L14.392 25.4479V29.1477H13.3392ZM14.9034 29.1477V25.4178L15.9863 29.1477H14.9034ZM18.7235 29.1477L19.8064 25.4178V29.1477H18.7235ZM20.2877 29.1477V25.4178L21.3705 29.1477H20.2877Z" fill="#171B34"/>
<path d="M33.6127 29.8994L34.3045 30.0498V27.7337C35.7483 27.4329 37.132 27.0118 37.132 25.8688V25.8086H30.7852V25.8688C30.7852 27.0118 32.1688 27.4028 33.6127 27.7337V29.8994Z" fill="#171B34"/>
<path d="M35.1768 17.3252C34.6354 17.7463 34.124 17.8667 33.1314 17.8667C31.4469 17.8667 29.612 16.874 28.7698 16.874C28.078 16.874 27.7772 17.2951 27.6569 18.2878C28.5292 18.2878 31.116 19.5812 32.9509 19.5812C34.3045 19.5511 35.0565 19.0698 35.1768 17.3252ZM28.9202 18.1374C28.6495 18.0772 28.5292 17.8667 28.5292 17.626C28.5292 17.2951 28.7097 17.1447 28.9202 17.1447C29.2511 17.2049 29.3413 17.4756 29.3413 17.7463C29.3413 18.0471 29.1608 18.1975 28.9202 18.1374ZM29.9429 18.4682L29.7925 18.0171V18.378L29.4917 18.2878V17.3252L29.7925 17.4155C30.0933 17.5057 30.2136 17.626 30.2136 17.8065C30.2136 17.9268 30.1535 18.0171 30.0332 18.0471L30.2738 18.5886L29.9429 18.4682ZM30.6348 18.7089L30.334 18.6186V17.5959L30.6648 17.7163C31.0258 17.8366 31.1461 18.0772 31.1461 18.3479C31.1461 18.6788 30.8754 18.769 30.6348 18.7089ZM31.868 19.0097L31.2664 18.8593V17.8667L31.8379 18.0171V18.1975L31.5672 18.1073V18.378L31.8079 18.4081V18.5886L31.5672 18.5284V18.769L31.868 18.8292V19.0097ZM32.8005 19.13L32.4395 19.0999L32.1688 18.3179L32.1989 19.0398L32.0184 19.0097V18.0772L32.4095 18.1374L32.6501 18.8593L32.62 18.1374H32.8005V19.13Z" fill="#171B34"/>
<path d="M19.6559 18.8599C19.6559 18.7396 19.5957 18.6794 19.5055 18.6794V19.0404C19.5957 19.0103 19.6559 18.9502 19.6559 18.8599Z" fill="#171B34"/>
<path d="M30.6349 17.8672V18.559C30.7552 18.5891 30.8454 18.5289 30.8454 18.2883C30.8454 17.9574 30.7552 17.8672 30.6349 17.8672Z" fill="#171B34"/>
<path d="M22.4527 17.5369L22.3926 18.0482L22.543 17.9881L22.4527 17.5369Z" fill="#171B34"/>
<path d="M19.1445 19.552C20.9493 19.552 23.5361 18.1984 24.4385 18.1984C24.3182 17.2058 24.0174 16.7847 23.2955 16.7847C22.4533 16.7847 20.5883 17.8375 18.964 17.8375C18.2421 17.8375 17.4299 17.7171 16.9186 17.296C17.0389 19.0707 17.7909 19.552 19.1445 19.552ZM22.6638 17.296L22.9045 18.1984V17.2359L23.2052 17.1757C23.476 17.1155 23.6564 17.2359 23.6564 17.5367C23.6564 17.8675 23.506 17.9879 23.1752 18.1383L22.8744 18.2285L22.5736 18.3187V18.1383L22.363 18.2285L22.3329 18.409L22.1224 18.4992L22.3329 17.4163L22.6638 17.296ZM21.4907 17.6871L22.1525 17.4765V17.6871H22.0021V18.4992L21.7013 18.5895V17.8074L21.4907 17.8675V17.6871ZM20.7989 17.8675L21.1297 17.7773C21.3704 17.7171 21.5208 17.8675 21.5208 18.048C21.5208 18.1383 21.4606 18.2586 21.3704 18.2887L21.611 18.6496L21.2501 18.7399L21.0696 18.409V18.8L20.7688 18.8903V17.8675H20.7989ZM20.077 18.048L20.6485 17.9277V18.1082L20.3778 18.1383V18.3789L20.6485 18.3187V18.4992L20.3778 18.5293V18.8L20.6785 18.7399V18.9203L20.077 19.0106V18.048ZM19.2347 18.1683L19.5656 18.1383C19.8062 18.1082 19.9566 18.1683 19.9566 18.3488C19.9566 18.4691 19.8664 18.5895 19.7461 18.5895C19.8664 18.5895 19.9867 18.6195 19.9867 18.8C19.9867 18.9805 19.8664 19.1008 19.6258 19.1309H19.2347V18.1683ZM18.7534 18.1683H19.0542V19.1008H18.7534V18.1683ZM18.1218 18.1082L18.4226 18.1383V18.9203H18.6632V19.1008C18.4827 19.1008 18.2421 19.0407 18.1518 18.9805V18.1082H18.1218Z" fill="#171B34"/>
<path d="M29.7928 17.5662V17.9572C29.8831 17.9873 29.9432 17.9271 29.9432 17.8068C29.9432 17.6564 29.9132 17.5962 29.7928 17.5662Z" fill="#171B34"/>
<path d="M21.1898 18.0779C21.1898 17.9877 21.1597 17.8975 21.0695 17.9275V18.2885C21.1597 18.2584 21.1898 18.1982 21.1898 18.0779Z" fill="#171B34"/>
<path d="M19.6559 18.408C19.6559 18.3177 19.5957 18.2576 19.5055 18.2576V18.5584C19.5957 18.5584 19.6559 18.4982 19.6559 18.408Z" fill="#171B34"/>
<path d="M28.9508 17.265C28.8304 17.2349 28.8304 17.4154 28.8304 17.656C28.8304 17.8365 28.8304 18.017 28.9508 18.0471C29.0711 18.0471 29.0711 17.8666 29.0711 17.6861C29.0711 17.4756 29.0711 17.2951 28.9508 17.265Z" fill="#171B34"/>
<path d="M24.7694 16.9047C24.7694 17.2656 24.9499 17.777 25.0702 18.1379C25.371 18.0778 25.762 18.0176 26.0027 18.0176C26.3035 18.0176 26.6945 18.0778 26.9953 18.1379C27.1156 17.777 27.2961 17.2656 27.2961 16.9047C27.2961 16.4234 26.9352 16.2429 26.0027 16.2429C25.1304 16.273 24.7694 16.4535 24.7694 16.9047ZM26.2433 16.664H26.4238L26.1832 17.2957V17.6266H25.8824V17.2957L25.6718 16.664H25.9726L26.123 17.1152L26.2433 16.664Z" fill="#171B34"/>
<path d="M23.3554 17.5969C23.3554 17.2961 23.2952 17.2961 23.1749 17.2961V17.9579C23.2952 17.8977 23.3554 17.8677 23.3554 17.5969Z" fill="#171B34"/>
<path d="M18.6933 59.4682C18.6933 59.6487 18.4827 59.7088 18.2421 59.6487L18.3023 59.9795C18.6632 60.0999 19.0542 59.8592 19.0542 59.4682C19.0542 58.9267 18.4827 58.8365 18.4827 58.5658C18.4827 58.3251 18.6933 58.2951 18.9339 58.3552L18.8738 58.0243C18.4527 57.9642 18.1519 58.2048 18.1519 58.5658C18.1819 59.0471 18.6933 59.1072 18.6933 59.4682Z" fill="#171B34"/>
<path d="M20.9795 58.7757L21.3104 58.6854L21.3706 59.0464L21.6714 58.9561L21.3706 57.1514L20.8592 57.3018L20.5283 59.2569L20.9194 59.1366L20.9795 58.7757ZM21.0998 57.8733L21.1299 57.5123L21.1901 57.4822L21.2202 57.8733L21.2502 58.3846L21.0096 58.4448L21.0998 57.8733Z" fill="#171B34"/>
<path d="M19.776 58.8062C19.9264 58.8062 20.0167 58.716 20.0167 58.5656C20.0167 58.4152 19.9264 58.325 19.776 58.325C19.6256 58.325 19.5354 58.4152 19.5354 58.5656C19.5655 58.716 19.6256 58.8062 19.776 58.8062Z" fill="#171B34"/>
<path d="M11.3236 62.5652C11.2033 62.6254 10.9928 62.6855 10.9025 62.7156V62.084L11.2635 62.0238V61.723L10.9025 61.8433V61.3019L11.3236 61.2417V60.9409C11.083 61.0011 10.8424 61.0612 10.5717 61.1214V62.9863C10.7822 62.9563 11.1432 62.866 11.3236 62.8059V62.5652Z" fill="#171B34"/>
<path d="M17.3999 60.0697L17.7909 59.9193L17.8511 60.2803L18.1519 60.16L17.7308 58.3853L17.2495 58.5657L17.0389 60.6112L17.3999 60.4608V60.0697ZM17.4901 59.1974V58.7462L17.5503 58.7161L17.6105 59.1673L17.7308 59.6185L17.43 59.7388L17.4901 59.1974Z" fill="#171B34"/>
<path d="M9.06798 61.8141L9.18829 62.5361H9.12814L9.00782 61.9946L8.79726 61.3028L8.49646 61.2727V62.9572L8.79726 63.0173V62.4759L8.67694 61.754H8.70702L8.82734 62.2954L9.06798 63.0775L9.36877 63.1076V61.3028H9.06798V61.8141Z" fill="#171B34"/>
<path d="M11.8054 61.9344L11.9258 61.9044L11.9859 62.145L12.2566 62.5661L12.6176 62.4458L12.1062 61.8141C12.2867 61.6938 12.407 61.4832 12.407 61.2426C12.407 60.9418 12.1664 60.7312 11.7453 60.8516L11.5046 60.9117V62.7767L11.8054 62.6864V61.9344ZM11.8054 61.0922C11.9859 61.032 12.1062 61.1524 12.1062 61.3328C12.1062 61.4532 12.0461 61.6336 11.8054 61.6938V61.0922Z" fill="#171B34"/>
<path d="M22.6638 58.7151V58.4444C22.363 58.5647 22.1224 58.3843 22.1224 57.8729C22.1224 57.3916 22.2728 57.151 22.6037 57.151V56.8502C22.1224 56.79 21.7915 57.2111 21.7915 57.8428C21.7915 58.7452 22.2427 58.8956 22.6638 58.7151Z" fill="#171B34"/>
<path d="M13.0987 61.5426C13.2491 61.5426 13.3393 61.4523 13.3393 61.3019C13.3393 61.1515 13.2491 61.0613 13.0987 61.0613C12.9483 61.0613 12.858 61.1515 12.858 61.3019C12.858 61.4523 12.9483 61.5426 13.0987 61.5426Z" fill="#171B34"/>
<path d="M16.9186 60.3391L16.5576 60.5196V58.8652L16.2568 58.9555V60.9407L16.9186 60.67V60.3391Z" fill="#171B34"/>
<path d="M15.3243 61.3622C15.6251 61.3622 15.9559 61.0614 15.9559 60.4899V59.1062L15.595 59.2566V60.6703C15.595 60.911 15.4747 61.0313 15.3543 61.0313C15.2942 61.0313 15.234 60.9711 15.234 60.8508V59.4371L14.9332 59.5574V60.9711C14.9633 61.1817 15.0836 61.3622 15.3243 61.3622Z" fill="#171B34"/>
<path d="M14.1515 61.4223L14.5124 61.2719L14.5726 61.693L14.8734 61.5727L14.5726 59.7378L14.0311 59.9784L13.7303 61.9938L14.0913 61.8434L14.1515 61.4223ZM14.2718 60.1589L14.3319 60.1288L14.3921 60.58L14.4523 61.0011L14.1515 61.1215L14.2718 60.1589Z" fill="#171B34"/>
<path d="M9.78976 63.1078L10.1507 63.0777V61.5135C10.2109 61.5135 10.4816 61.4835 10.4816 61.4835V61.1526C10.2109 61.2127 9.7296 61.2729 9.51904 61.2729V61.5737L9.81984 61.5436V63.1078H9.78976Z" fill="#171B34"/>
<path d="M37.9444 61.0626C38.0948 61.0626 38.185 60.9723 38.185 60.8219C38.185 60.6715 38.0948 60.5813 37.9444 60.5813C37.794 60.5813 37.7037 60.6715 37.7037 60.8219C37.7338 60.9723 37.794 61.0626 37.9444 61.0626Z" fill="#171B34"/>
<path d="M37.2826 61.2428L36.8014 61.0924V60.4908L37.2225 60.6412V60.3404L36.8014 60.19V59.7088L37.2826 59.9193V59.6185L36.5306 59.2576V61.2729L37.2826 61.5737V61.2428Z" fill="#171B34"/>
<path d="M39.3282 62.4154L39.629 60.6106L39.3282 60.4903L39.1477 61.5431V62.0544L39.0574 62.0244V61.513L38.907 60.3098L38.5762 60.1594L38.8168 62.2048L39.3282 62.4154Z" fill="#171B34"/>
<path d="M35.6885 60.1589H35.8088L35.8389 60.3393L36.0795 61.0312L36.5006 61.2117L36.0495 60.0686C36.2299 59.9784 36.2901 59.7077 36.2901 59.5874C36.2901 59.2866 36.1698 59.076 35.6885 58.8654L35.3877 58.7451V60.7304L35.6885 60.8507V60.1589ZM35.6885 59.2264C35.869 59.2866 35.9893 59.3768 35.9893 59.6174C35.9893 59.8581 35.8088 59.9483 35.6885 59.8882V59.2264Z" fill="#171B34"/>
<path d="M40.5009 62.4765L40.0497 62.3561V61.7846L40.4107 61.905V61.6042L40.0497 61.5139V61.0326L40.5009 61.2131V60.9123L39.7489 60.6416V62.5366L40.5009 62.7773V62.4765Z" fill="#171B34"/>
<path d="M42.2757 63.1977C42.5765 63.1977 42.787 62.957 42.787 62.566V61.3026H42.4562V62.6262C42.4562 62.8066 42.3358 62.8668 42.2757 62.8668C42.1554 62.8668 42.0952 62.7766 42.0952 62.566V61.2726L41.7343 61.2124V62.566C41.7343 63.0172 41.9749 63.1977 42.2757 63.1977Z" fill="#171B34"/>
<path d="M43.2986 62.4448L43.2084 61.7229H43.2685L43.5092 62.7156L43.7498 62.6554L43.9604 61.6026L43.9904 61.5725L43.9002 62.2644V62.8359L44.201 62.6855V61.1213L43.8701 61.1815L43.6896 61.9335L43.6596 62.3546H43.5994L43.5693 61.9636L43.3287 61.2717L42.9978 61.3018V63.0765L43.2986 63.0464V62.4448Z" fill="#171B34"/>
<path d="M33.9436 60.1591L34.0639 59.738L34.4248 59.8884V60.3396L35.237 60.7006V60.3095L34.7557 60.1291V59.6177L35.1167 59.7681V59.4673L34.7557 59.3169V58.8356L35.237 59.0462V58.7153L34.2143 58.2942L33.6729 60.0388L33.9436 60.1591ZM34.2444 59.0161L34.3346 58.6551L34.3948 58.6852V59.6177L34.124 59.4974L34.2444 59.0161Z" fill="#171B34"/>
<path d="M40.9826 62.2945H41.1029L41.133 62.4449L41.3435 63.0164L41.7045 63.1067L41.3435 62.2343C41.4638 62.1742 41.5842 61.9636 41.5842 61.7531C41.5842 61.3921 41.4037 61.1515 41.0427 61.0312L40.6818 60.9409V62.8359L40.9826 62.8961V62.2945ZM40.9826 61.362C41.163 61.362 41.2834 61.5124 41.2834 61.6929C41.2834 61.9335 41.163 62.0539 40.9826 62.0539V61.362Z" fill="#171B34"/>
<path d="M7.8949 62.7166C7.98514 62.7767 8.07538 62.8068 8.25585 62.867V61.1825L7.8949 61.0923V62.7166Z" fill="#171B34"/>
<path d="M26.0029 57.9927L25.6118 58.0228V57.4513H25.9427V57.1505L25.6118 57.1806V56.6692L26.0029 56.6391V56.3684L25.311 56.3985V58.3236L26.0029 58.2935V57.9927Z" fill="#171B34"/>
<path d="M26.6043 57.6618L26.5441 56.8497H26.6043L26.7246 57.4513L26.8449 57.9025H27.0555L27.1758 57.4513L27.2961 56.9098H27.3563L27.2961 57.7521V58.3537L27.5969 58.3838V56.4887L27.2359 56.4586L26.9953 57.1505L26.9652 57.6318H26.9051L26.875 57.1505L26.6644 56.3985L26.3035 56.3684V58.2935H26.6043V57.6618Z" fill="#171B34"/>
<path d="M23.1752 58.1735L23.5061 58.0833L23.5663 58.4743L23.9272 58.4142L23.5663 56.6094L23.0248 56.7297L22.7842 58.6849L23.1151 58.5946L23.1752 58.1735ZM23.2655 56.9102H23.3256L23.4459 57.7825L23.2053 57.8426L23.2655 56.9102Z" fill="#171B34"/>
<path d="M25.0703 57.3924C25.0703 56.7006 24.7394 56.4599 24.2882 56.5201L24.0776 56.5502V58.4151L24.3183 58.3851C24.7093 58.3249 25.0703 58.0843 25.0703 57.3924ZM24.3784 56.7908C24.6191 56.7307 24.7996 56.9713 24.7996 57.4225C24.7996 57.7835 24.6191 58.0843 24.3784 58.0843V56.7908Z" fill="#171B34"/>
<path d="M28.1084 56.5802L27.8376 56.52V58.415L28.1084 58.4451V56.5802Z" fill="#171B34"/>
<path d="M33.1617 59.9196C33.4324 60.0099 33.7031 59.7993 33.7031 59.4985V58.1149L33.4023 58.0246V59.4384C33.4023 59.5587 33.3422 59.6489 33.2219 59.6189C33.0715 59.5888 32.9812 59.4384 32.9812 59.1977V57.8742L32.6804 57.7539V59.1376C32.7105 59.6189 32.891 59.8294 33.1617 59.9196Z" fill="#171B34"/>
<path d="M31.9284 59.4372H31.9886L32.53 59.6177V59.2567L32.2894 59.1966L32.1089 59.2567C32.3495 59.1364 32.4097 58.8958 32.4097 58.5348C32.4097 57.843 32.2292 57.4219 31.8382 57.4219C31.4772 57.4219 31.2968 57.843 31.2968 58.3544C31.2968 59.0161 31.4772 59.4372 31.9284 59.4372ZM31.8683 57.7528C32.0788 57.7528 32.139 58.0836 32.139 58.4145C32.139 58.8356 32.0788 59.1364 31.8983 59.1364C31.6577 59.1364 31.5975 58.7755 31.5975 58.4145C31.5975 58.0235 31.6577 57.7528 31.8683 57.7528Z" fill="#171B34"/>
<path d="M30.4847 58.2647C30.6351 58.2647 30.7253 58.1745 30.7253 58.0241C30.7253 57.8737 30.6351 57.7834 30.4847 57.7834C30.3343 57.7834 30.244 57.8737 30.244 58.0241C30.244 58.1745 30.3343 58.2647 30.4847 58.2647Z" fill="#171B34"/>
<path d="M28.6798 58.1441L29.0107 58.2042V58.5953L29.7627 58.7758V58.475L29.3115 58.3847V57.8132L29.7326 57.9034V57.6026L29.3115 57.5425V57.0612L29.7927 57.1815V56.8807C29.5521 56.8206 29.1009 56.7002 28.8603 56.6702L28.2587 58.4449L28.5895 58.505L28.6798 58.1441ZM28.9204 57.362L29.0107 57.001H29.0407L29.0107 57.362V57.9034L28.7399 57.8734L28.9204 57.362Z" fill="#171B34"/>
<path d="M18.4825 14.1967C18.4825 14.7382 18.0613 15.1292 17.4297 15.1292C16.8882 15.1292 16.5574 14.7683 16.4972 14.1967C16.798 14.4374 17.4297 14.2569 17.55 14.7382C17.6101 14.2569 18.1817 14.2569 18.4223 13.926C18.4825 14.0163 18.4825 14.0764 18.4825 14.1967Z" fill="#171B34"/>
<path d="M18.8434 15.1306C18.8434 15.7623 18.2418 16.1233 17.4898 16.1233C16.8882 16.1233 16.5574 15.8826 16.4972 15.1908C16.8581 15.5517 17.6703 15.3111 17.7906 15.8225C17.7906 15.2209 18.6028 15.1908 18.7833 14.8298C18.8434 14.9201 18.8434 15.0404 18.8434 15.1306Z" fill="#171B34"/>
<path d="M17.4302 14.1375C16.9489 14.1375 16.618 13.7766 16.618 13.4457C16.618 13.3254 16.618 13.2652 16.6782 13.1449C16.9188 13.4457 17.4302 13.3254 17.4904 13.8969C17.4302 13.2953 18.122 13.205 18.2423 13.0847C18.3025 13.6863 17.9716 14.1375 17.4302 14.1375Z" fill="#171B34"/>
<path d="M19.385 16.0921C19.385 16.8441 18.5728 17.3253 17.8509 17.3253C17.3095 17.3253 16.9786 17.0245 16.8583 16.5132C16.9485 16.6034 17.1591 16.5734 17.7306 16.5734C17.9712 16.5734 18.2419 16.5733 18.3923 16.8741V16.6034C18.3923 16.0319 19.2045 15.8514 19.2647 15.4905C19.3248 15.7311 19.385 15.9116 19.385 16.0921Z" fill="#171B34"/>
<path d="M17.43 13.2045C17.2495 13.1444 17.0389 12.9037 17.0389 12.5428C17.0389 12.1818 17.2796 11.7908 17.5503 11.49C17.5503 11.9713 17.7909 12.242 17.7909 12.6029C17.7909 12.9037 17.5503 13.1444 17.43 13.2045Z" fill="#171B34"/>
<path d="M30.4244 1.83447C31.8983 1.83447 33.7031 3.24822 33.9437 7.12851C33.4023 7.12851 33.2218 6.70739 33.1917 6.07572C32.8308 3.60918 31.5373 2.43607 30.6049 2.43607C28.77 2.43607 30.2439 5.32373 28.379 5.71476C28.379 6.19604 28.2587 6.76755 28.018 6.76755C27.7172 6.76755 27.5969 6.22612 27.4766 5.83508C27.4766 6.46676 27.2961 7.00819 27.0555 7.00819C26.875 7.00819 26.6945 6.49684 26.5742 6.01556C26.5742 6.61715 26.2734 7.18867 25.9726 7.18867C25.732 7.18867 25.4312 6.58707 25.4312 6.01556C25.3108 6.49684 25.1304 7.00819 24.9499 7.00819C24.7092 7.00819 24.5288 6.49684 24.5288 5.83508C24.4686 6.22612 24.3784 6.73747 24.0776 6.73747C23.8369 6.73747 23.7166 6.16596 23.7166 5.68468C21.8517 5.29365 23.2955 2.40599 21.4907 2.40599C20.5582 2.40599 19.2648 3.5791 18.9038 6.04564C18.8437 6.70739 18.6632 7.09843 18.1519 7.09843C18.3925 3.21814 20.1973 1.83447 21.6712 1.83447C23.8369 1.83447 22.724 4.54165 23.7166 4.54165C24.1377 4.54165 24.4686 4.09045 24.8296 3.48886C24.7694 3.5791 24.7694 3.69942 24.7694 3.81974C24.7694 4.30101 25.2507 4.60181 26.0027 4.60181C26.8148 4.60181 27.2961 4.30101 27.2961 3.81974C27.2961 3.69942 27.2961 3.5791 27.2359 3.45878C27.5969 4.06038 27.8676 4.51157 28.3489 4.51157C29.3114 4.51157 28.2286 1.83447 30.4244 1.83447Z" fill="#171B34"/>
<path d="M18.663 12.7233C18.9638 12.6029 19.1743 12.3021 19.1743 11.49C19.5353 13.0842 19.8662 14.137 20.2873 15.1296C20.5881 15.8816 20.8588 16.3629 20.8588 16.6035C20.8588 16.784 20.7986 16.8442 20.6783 16.9043C19.8361 15.8516 19.1442 14.2573 18.663 12.7233Z" fill="#171B34"/>
<path d="M20.1974 5.92561C20.1071 6.64752 19.7763 6.91824 19.3251 6.91824C19.3852 5.86545 19.686 4.87282 19.9567 4.21106C20.3779 3.33875 21.0697 2.82739 21.4307 2.82739C21.551 2.82739 21.6713 2.88755 21.6713 3.00787C21.6713 3.12819 21.4908 3.18835 21.2502 3.42899C20.7689 3.88018 20.3478 4.7525 20.1974 5.92561Z" fill="#171B34"/>
<path d="M19.3251 7.39917C19.6259 7.39917 19.8966 7.21869 20.0771 6.52686C20.0169 6.97805 20.0169 7.39917 20.0169 7.82029V8.9934C20.0169 9.41451 19.9567 9.92587 19.4153 9.98603C19.3251 9.02348 19.3251 8.15116 19.3251 7.39917Z" fill="#171B34"/>
<path d="M19.5055 10.4382C19.8665 10.4382 20.1372 10.1374 20.1372 9.44556C20.438 12.0926 21.1298 13.5364 21.4908 14.5591C21.6712 15.1006 21.7916 15.4916 21.7916 15.7924C21.7916 15.9729 21.7314 16.0932 21.5509 16.1533C20.6485 14.7396 19.7762 12.5438 19.5055 10.4382Z" fill="#171B34"/>
<path d="M20.4983 7.33897C20.7991 7.33897 21.0999 7.15849 21.2503 6.40649C21.1901 6.91785 21.1299 7.33897 21.1299 7.63976C21.1299 8.06088 21.1901 8.57224 21.1901 8.87303C21.1901 9.35431 21.1299 9.80551 20.5885 9.92583C20.4983 9.26407 20.4381 8.69256 20.4381 8.09096C20.4381 7.79016 20.4381 7.5796 20.4983 7.33897Z" fill="#171B34"/>
<path d="M21.3105 5.92563C21.1901 6.64754 21.0097 6.8581 20.5585 6.8581C20.6487 5.35411 20.9495 4.51188 21.4909 3.75988C21.6113 3.5794 21.7917 3.39893 21.9722 3.39893C22.0324 3.39893 22.1527 3.45909 22.1527 3.5794C22.1527 3.69972 22.0925 3.75988 22.0324 3.8802C21.6113 4.39156 21.4308 5.29395 21.3105 5.92563Z" fill="#171B34"/>
<path d="M20.6182 10.3174C20.949 10.2573 21.1897 9.98656 21.2498 9.26465C21.4303 10.9792 22.0018 12.6637 22.4229 13.7766C22.6034 14.2579 22.6636 14.5888 22.6636 14.8896C22.6636 15.07 22.6034 15.1904 22.4831 15.3107C21.6108 14.0774 20.8588 11.7312 20.6182 10.3174Z" fill="#171B34"/>
<path d="M21.6112 6.85732C21.9722 6.85732 22.273 6.55652 22.3933 6.04517C22.303 6.52644 22.303 6.85732 22.303 7.21828C22.303 7.75971 22.3632 8.21091 22.3632 8.51171C22.3632 9.05314 22.0022 9.38402 21.6714 9.38402C21.6112 8.8125 21.6112 8.33123 21.6112 7.84995V6.85732Z" fill="#171B34"/>
<path d="M22.1223 4.69238C22.2427 4.69238 22.363 4.87286 22.363 5.29398C22.363 5.83541 22.1825 6.40693 21.6711 6.40693C21.8516 4.93302 21.9719 4.69238 22.1223 4.69238Z" fill="#171B34"/>
<path d="M21.7313 9.92564C22.0321 9.86548 22.363 9.685 22.4232 8.99316C22.5435 10.7077 23.0248 12.1816 23.2955 13.2344C23.4759 13.7758 23.5963 14.1067 23.5963 14.4075C23.5963 14.5278 23.5361 14.7083 23.4158 14.7685C22.6036 13.5051 21.972 11.3093 21.7313 9.92564Z" fill="#171B34"/>
<path d="M23.3559 6.70755C23.3559 7.45955 23.4161 8.06114 23.4161 8.39202C23.4161 8.93345 23.1153 9.26433 22.8746 9.26433C22.7844 8.51234 22.7242 7.85058 22.7242 7.15875C22.7242 6.28644 22.8446 6.10596 23.025 6.10596C23.2055 6.10596 23.3559 6.28644 23.3559 6.70755Z" fill="#171B34"/>
<path d="M23.5966 16.4841L23.6567 16.0931L24.0177 15.5216L23.3559 16.0329L23.1754 16.3337H23.0852L23.1454 15.9126L23.6266 15.4915L23.025 15.672L22.9047 15.8525H22.7242L22.9649 15.4915L24.138 15.0102L24.3185 13.7168C24.3786 13.777 24.4388 13.777 24.5591 13.777C24.7396 13.777 24.7997 13.777 24.8599 13.7168L24.5591 15.0102L25.3111 15.4915L25.4314 15.9728H25.3111L25.0103 15.672L24.4689 15.4915L23.9575 16.1533L23.7169 16.4841H23.5966Z" fill="#171B34"/>
<path d="M22.9044 9.68618C23.1451 9.68618 23.4459 9.44554 23.506 8.87402C23.5662 9.47562 23.8068 10.4683 23.8068 10.8593C23.8068 11.2804 23.6263 11.6113 23.3857 11.6113C23.1451 11.0999 23.0247 10.2577 22.9044 9.68618Z" fill="#171B34"/>
<path d="M24.3181 12.0317C24.3181 12.2724 24.4384 12.513 24.6791 12.513C24.8596 12.513 25.04 12.3325 25.1604 12.0919C25.401 12.3325 25.5213 12.7236 25.5213 13.5056C25.2205 13.4455 24.9799 13.1447 24.9799 12.7837C24.8896 13.265 24.7092 13.5056 24.5287 13.5056C24.4084 13.5056 24.3482 13.3252 24.3482 13.0845V12.6634C24.3181 12.9041 23.9572 13.2048 23.6564 13.0845C23.8369 12.5431 24.0775 12.1521 24.3181 12.0317Z" fill="#171B34"/>
<path d="M24.7695 10.6777C25.4012 10.6777 25.5817 10.9184 25.5817 11.7907V12.1516C25.2809 12.1516 25.1305 11.8508 25.0703 11.55C25.0101 11.9712 24.8297 12.1516 24.7093 12.1516C24.5289 12.1516 24.4687 12.0313 24.4687 11.7305V11.3996C24.2582 11.7907 24.0175 11.7907 23.837 11.7907C24.0777 10.9184 24.3183 10.6777 24.7695 10.6777Z" fill="#171B34"/>
<path d="M26.0026 7.7005C26.3635 7.7005 26.6042 7.33954 26.6042 6.88834C26.7245 7.36962 26.9651 7.52002 27.1155 7.52002C27.3561 7.52002 27.5968 7.12898 27.5968 6.64771C27.6569 7.06882 27.8976 7.3997 28.1984 7.3997C28.1984 8.03137 28.0781 8.39233 27.7773 8.39233C27.5968 8.39233 27.5366 8.09153 27.4163 7.64034C27.4163 8.12161 27.1757 8.57281 26.935 8.57281C26.7545 8.57281 26.6342 8.39233 26.5139 7.88098C26.4538 8.42241 26.2131 8.81345 26.0026 8.81345C25.8221 8.81345 25.5213 8.39233 25.5213 7.88098C25.431 8.39233 25.3107 8.57281 25.1302 8.57281C24.8896 8.57281 24.649 8.09153 24.649 7.64034C24.5286 8.09153 24.4685 8.39233 24.3181 8.39233C24.0173 8.39233 23.897 8.03137 23.897 7.3997C24.1376 7.3997 24.4384 7.03874 24.4986 6.64771C24.4986 7.12898 24.7392 7.52002 24.9798 7.52002C25.1603 7.52002 25.401 7.33954 25.4912 6.88834C25.4912 7.33954 25.7018 7.7005 26.0026 7.7005Z" fill="#171B34"/>
<path d="M26.0026 9.44523C26.3034 9.44523 26.6042 9.02411 26.6042 8.57291C26.7246 9.05419 26.8449 9.26475 27.0855 9.26475C27.3261 9.26475 27.5066 8.84363 27.5066 8.33228C27.8676 8.87371 27.9879 9.38507 27.9879 9.74602C27.9879 10.1671 27.8676 10.2574 27.7473 10.2574C27.5668 10.2574 27.3261 10.0167 27.266 9.50539C27.266 10.1371 27.0855 10.4379 26.8449 10.4379C26.7246 10.4379 26.5441 10.1972 26.4238 9.7761C26.4238 10.2875 26.2433 10.6484 26.0026 10.6484C25.8222 10.6484 25.6417 10.2875 25.6417 9.7761C25.5214 10.1972 25.3409 10.4379 25.2206 10.4379C24.9799 10.4379 24.7994 10.1371 24.7994 9.50539C24.7694 10.0468 24.5287 10.2574 24.3783 10.2574C24.258 10.2574 24.1377 10.1371 24.1377 9.74602C24.1377 9.38507 24.258 8.87371 24.619 8.33228C24.619 8.87371 24.7995 9.26475 25.0401 9.26475C25.2807 9.26475 25.401 9.02411 25.5214 8.57291C25.4913 9.02411 25.762 9.44523 26.0026 9.44523Z" fill="#171B34"/>
<path d="M24.559 18.9804C24.559 18.7398 24.7695 18.5292 25.2207 18.2886C25.1305 18.5593 25.0102 18.6796 24.8297 18.83C25.1906 18.5894 25.1305 18.6495 25.311 18.5292C25.0703 19.0706 24.8598 19.1308 24.7394 19.1308C24.6191 19.1308 24.559 19.0706 24.559 18.9804Z" fill="#171B34"/>
<path d="M24.9801 19.5226C24.9801 19.2819 25.1606 19.0112 25.5817 18.5901C25.4614 18.921 25.4012 19.0413 25.2809 19.4022C25.4614 19.1014 25.5817 18.9811 25.702 18.8006C25.6118 19.6429 25.3711 19.7933 25.1907 19.7933C25.0703 19.7933 24.9801 19.703 24.9801 19.5226Z" fill="#171B34"/>
<path d="M26.0027 20.7844C25.762 20.7844 25.5815 20.6641 25.5815 20.2731C25.5815 19.9723 25.6417 19.7316 25.8222 19.1902C25.8823 19.4308 26.0027 19.6715 26.0027 20.0023C26.0027 19.6414 26.123 19.4007 26.1831 19.1902C26.3636 19.7015 26.4238 19.9422 26.4238 20.243C26.4238 20.6641 26.2433 20.7844 26.0027 20.7844Z" fill="#171B34"/>
<path d="M26.6343 2.61694C26.6343 2.88766 26.7245 3.12829 26.7245 3.18845C26.7245 3.42909 26.3635 3.57949 26.0327 3.57949C25.792 3.57949 25.4611 3.39901 25.4611 3.24861C25.4611 3.06814 25.6717 2.64702 25.6717 2.31614C25.6717 2.25598 25.6717 2.19582 25.6115 2.0755C25.6717 2.13566 25.8221 2.16574 25.9725 2.16574C26.1229 2.16574 26.3335 2.10558 26.3936 1.98526C25.6717 2.19582 25.4311 1.77471 25.3709 1.44383C25.1002 1.53407 24.8295 1.47391 24.7693 1.26335C24.6791 1.32351 24.4986 1.35359 24.4084 1.44383C24.288 0.932472 24.4685 0.812153 25.0701 0.721914C24.9799 0.631675 24.9498 0.511356 24.9498 0.451196C24.9498 0.150399 25.2807 0 26.0026 0C26.3335 0 26.5139 0.120319 26.4839 0.270718C26.4839 0.391037 26.4237 0.391037 26.4237 0.451196C26.8147 0.571515 26.9351 0.902393 26.9351 1.20319C26.905 1.77471 26.6343 1.89502 26.6343 2.61694ZM26.0026 0.932473C26.1229 0.932473 26.2131 0.872313 26.2131 0.751994C26.2131 0.631675 26.1229 0.571515 26.0026 0.571515C25.8823 0.571515 25.792 0.631675 25.792 0.751994C25.792 0.872313 25.8823 0.932473 26.0026 0.932473Z" fill="#171B34"/>
<path d="M26.8449 19.7933C26.6644 19.7933 26.3937 19.6429 26.3335 18.8307C26.4538 19.0112 26.5741 19.1315 26.7546 19.4323C26.6343 19.0714 26.5741 18.951 26.4538 18.5901C26.8749 19.0112 27.0554 19.312 27.0554 19.5226C27.0253 19.703 26.9351 19.7933 26.8449 19.7933Z" fill="#171B34"/>
<path d="M27.597 11.3996V11.7606C27.597 12.0614 27.5368 12.1817 27.3563 12.1817C27.236 12.1817 27.0555 12.0012 26.9352 11.5801C26.9352 11.8809 26.7547 12.1817 26.484 12.1817V11.7907C26.484 10.9184 26.6645 10.6777 27.2962 10.6777C27.7774 10.6777 27.988 10.9184 28.2286 11.7907C28.0782 11.7907 27.8376 11.7907 27.597 11.3996Z" fill="#171B34"/>
<path d="M27.7176 12.6636V13.0847C27.7176 13.3253 27.6574 13.5058 27.5371 13.5058C27.3566 13.5058 27.1761 13.2652 27.116 12.7839C27.0558 13.1448 26.8152 13.4456 26.6046 13.5058C26.6046 12.7538 26.6648 12.3327 26.9054 12.1522C27.0257 12.453 27.2664 12.5132 27.4468 12.5132C27.6875 12.5132 27.8379 12.3327 27.8379 12.092C28.0785 12.2725 28.259 12.5432 28.3793 13.0847C28.1086 13.205 27.7777 12.9042 27.7176 12.6636Z" fill="#171B34"/>
<path d="M28.3489 16.4841L28.1083 16.1533L27.5969 15.4915L27.0555 15.672L26.7547 15.9728H26.6644L26.7847 15.4915L27.5367 15.0102L27.2359 13.7168C27.2961 13.777 27.3563 13.777 27.5367 13.777C27.6571 13.777 27.7172 13.777 27.7774 13.7168L27.8977 15.0102L29.131 15.4915L29.3114 15.8525H29.1911L29.0708 15.672L28.4692 15.4915L28.9505 15.9126L29.0106 16.3337H28.8903L28.7099 16.0329L28.0782 15.4915L28.4391 16.063L28.4692 16.4841H28.3489Z" fill="#171B34"/>
<path d="M27.2661 19.131C27.1458 19.131 26.9352 19.0708 26.6946 18.5594C26.8751 18.6798 26.8149 18.6196 27.1759 18.8602C26.9954 18.6798 26.8751 18.5594 26.7547 18.3489C27.236 18.5594 27.4466 18.7399 27.4466 18.9806C27.4466 19.0708 27.3864 19.131 27.2661 19.131Z" fill="#171B34"/>
<path d="M29.1911 9.68618C29.0708 10.2577 28.9504 11.0999 28.7098 11.6113C28.4692 11.6113 28.2887 11.2503 28.2887 10.8593C28.2887 10.4683 28.5293 9.44554 28.5895 8.87402C28.5895 9.44554 28.9504 9.68618 29.1911 9.68618Z" fill="#171B34"/>
<path d="M30.3643 9.92642C30.1236 11.3402 29.492 13.5059 28.6497 14.7392C28.5294 14.679 28.4692 14.4985 28.4692 14.3782C28.4692 14.0774 28.5896 13.7465 28.77 13.2051C29.0708 12.1523 29.522 10.6784 29.6423 8.96387C29.7025 9.68578 30.0635 9.86626 30.3643 9.92642Z" fill="#171B34"/>
<path d="M28.7099 6.70755C28.7099 6.28644 28.8904 6.10596 29.0709 6.10596C29.2514 6.10596 29.3115 6.28644 29.3115 7.15875C29.3115 7.85058 29.3115 8.51234 29.1912 9.26433C28.9506 9.26433 28.6498 8.90337 28.6498 8.39202C28.6498 8.03106 28.7099 7.45955 28.7099 6.70755Z" fill="#171B34"/>
<path d="M31.4771 10.3167C31.2365 11.7304 30.4845 14.0766 29.6122 15.3099C29.4618 15.1896 29.4016 15.0693 29.4016 14.9189C29.4016 14.6181 29.4618 14.2872 29.6422 13.8059C30.0634 12.693 30.6349 10.9784 30.8154 9.29395C30.8755 9.98578 31.1162 10.2565 31.4771 10.3167Z" fill="#171B34"/>
<path d="M29.9432 4.69238C30.1236 4.69238 30.244 4.93302 30.4244 6.40693C29.9131 6.40693 29.7326 5.83541 29.7326 5.29398C29.7025 4.87286 29.7627 4.69238 29.9432 4.69238Z" fill="#171B34"/>
<path d="M30.4848 6.85732V7.84995C30.4848 8.30115 30.4848 8.78242 30.4246 9.38402C30.0637 9.38402 29.7328 9.02306 29.7328 8.51171C29.7328 8.21091 29.7929 7.75971 29.7929 7.21828C29.7929 6.85732 29.7929 6.52644 29.7328 6.04517C29.823 6.55652 30.1238 6.85732 30.4848 6.85732Z" fill="#171B34"/>
<path d="M30.755 5.92563C30.6347 5.29395 30.4542 4.39156 30.0632 3.8802C30.003 3.75988 29.9429 3.69972 29.9429 3.5794C29.9429 3.45909 30.0632 3.39893 30.1234 3.39893C30.3038 3.39893 30.4843 3.5794 30.6046 3.75988C31.1461 4.51188 31.4168 5.35411 31.5371 6.8581C31.0558 6.8581 30.8753 6.64754 30.755 5.92563Z" fill="#171B34"/>
<path d="M32.5902 10.4373C32.2894 12.5428 31.4171 14.7086 30.5448 16.1223C30.3643 16.0622 30.244 15.9419 30.244 15.7614C30.244 15.4606 30.4245 15.0695 30.605 14.5281C30.9659 13.5355 31.6578 12.0616 31.9586 9.41455C31.9285 10.1665 32.2293 10.4373 32.5902 10.4373Z" fill="#171B34"/>
<path d="M31.8683 5.9259C31.7179 4.75279 31.2667 3.88048 30.8155 3.3992C30.5748 3.15856 30.4244 3.0984 30.4244 2.97809C30.4244 2.85777 30.5448 2.79761 30.6651 2.79761C31.026 2.79761 31.6577 3.33904 32.139 4.21136C32.4398 4.84303 32.7105 5.86574 32.7707 6.91853C32.2894 6.91853 31.9585 6.64782 31.8683 5.9259Z" fill="#171B34"/>
<path d="M31.5974 7.33897C31.6575 7.5796 31.6575 7.82024 31.6575 8.09096C31.6575 8.69256 31.5974 9.26407 31.4771 9.92583C30.9356 9.80551 30.8755 9.32423 30.8755 8.87303C30.8755 8.57224 30.9356 8.06088 30.9356 7.63976C30.9356 7.33897 30.8755 6.94793 30.8153 6.40649C30.9958 7.15849 31.2966 7.33897 31.5974 7.33897Z" fill="#171B34"/>
<path d="M33.4022 12.7238C32.9209 14.2579 32.2291 15.822 31.3567 16.8748C31.2364 16.8146 31.1763 16.7545 31.1763 16.574C31.1763 16.3334 31.4771 15.8822 31.7478 15.1001C32.1087 14.1075 32.4998 13.0547 32.8607 11.4604C32.8908 12.3328 33.0412 12.6336 33.4022 12.7238Z" fill="#171B34"/>
<path d="M32.7707 7.39917C32.7707 8.15116 32.7707 9.05356 32.6504 9.98603C32.109 9.92587 32.0488 9.38443 32.0488 8.9934V7.82029C32.0488 7.39917 32.0488 7.00813 31.9886 6.52686C32.109 7.21869 32.4699 7.39917 32.7707 7.39917Z" fill="#171B34"/>
<path d="M32.7104 16.0935C32.7104 15.913 32.7706 15.7325 32.8308 15.522C32.8909 15.8829 33.7031 16.0333 33.7031 16.6349V16.8756C33.8234 16.5748 34.1242 16.5748 34.3348 16.5748C34.9364 16.5748 35.1168 16.6048 35.2071 16.5146C35.0868 17.056 34.7258 17.3268 34.2144 17.3268C33.5226 17.3268 32.7104 16.8455 32.7104 16.0935Z" fill="#171B34"/>
<path d="M34.0039 7.63931V8.45146C34.0039 9.56441 33.8835 11.0383 33.5226 12.2716C33.2218 12.1513 33.0112 11.8505 33.0112 11.2188C33.0112 11.0383 33.0112 10.7977 33.0714 10.6172C33.1315 10.2262 33.2519 9.20346 33.2519 8.03035C33.2519 7.60923 33.2519 7.15803 33.1917 6.67676C33.3421 7.45883 33.7031 7.63931 34.0039 7.63931Z" fill="#171B34"/>
<path d="M33.2219 15.1306C33.2219 15.0103 33.2219 14.89 33.2821 14.8298C33.4626 15.1908 34.2747 15.251 34.2747 15.8225C34.395 15.281 35.2072 15.5217 35.5681 15.1908C35.508 15.9127 35.147 16.1233 34.5755 16.1233C33.8235 16.1533 33.2219 15.7924 33.2219 15.1306Z" fill="#171B34"/>
<path d="M33.583 14.1983C33.583 14.0779 33.583 14.0178 33.6432 13.8975C33.8838 14.2584 34.4553 14.2584 34.4553 14.7096C34.6358 14.2283 35.2675 14.4088 35.5683 14.1682C35.5081 14.7698 35.1472 15.1007 34.6358 15.1007C34.0041 15.1307 33.583 14.7397 33.583 14.1983Z" fill="#171B34"/>
<path d="M34.6357 14.1375C34.1243 14.1375 33.7935 13.6863 33.8235 13.0847C33.9439 13.205 34.6357 13.3254 34.5755 13.8969C34.6357 13.2953 35.1771 13.4156 35.3877 13.1449V13.4457C35.3877 13.8066 35.117 14.1375 34.6357 14.1375Z" fill="#171B34"/>
<path d="M34.6357 13.2045C34.4553 13.1444 34.2748 12.9037 34.2748 12.6029C34.2748 12.242 34.5154 11.9713 34.5154 11.49C34.8162 11.7908 35.0569 12.1818 35.0569 12.5428C35.0569 12.9037 34.8162 13.1444 34.6357 13.2045Z" fill="#171B34"/>
<path d="M18.0918 7.66953C18.3926 7.66953 18.7235 7.48905 18.904 6.73706C18.8438 7.18826 18.8438 7.66953 18.8438 8.06057C18.8438 9.23368 18.9641 10.2263 19.0243 10.6474C19.0845 10.8279 19.0845 11.0685 19.0845 11.249C19.0845 11.8807 18.8438 12.1815 18.543 12.3018C18.1821 11.0685 18.0016 9.59464 18.0016 8.48169C18.0317 8.18089 18.0317 7.88009 18.0918 7.66953Z" fill="#171B34"/>
</svg>
