<svg width="210" height="42" viewBox="0 0 210 42" fill="none" xmlns="http://www.w3.org/2000/svg">
<path d="M196.327 9.60645H194.609V27.6925H196.327V9.60645Z" fill="#171B34"/>
<path d="M206.526 9.60645L197.285 18.6495L206.948 27.6925H209.427L199.877 18.6495L208.92 9.60645H206.526Z" fill="#171B34"/>
<path d="M175.706 18.65C175.706 24.1716 179.622 28.1438 185.256 28.1438C187.989 28.1438 190.383 27.2141 192.158 24.8477L190.749 23.8054C189.425 25.7492 187.115 26.6225 185.256 26.6225C180.439 26.6225 177.424 23.1574 177.424 18.65C177.424 14.1426 180.439 10.6493 185.256 10.6493C187.115 10.6493 189.425 11.5226 190.749 13.4665L192.158 12.4241C190.383 10.0859 187.989 9.12808 185.256 9.12808C179.622 9.09991 175.706 13.1284 175.706 18.65Z" fill="#171B34"/>
<path d="M172.664 9.60645H170.945V27.6925H172.664V9.60645Z" fill="#171B34"/>
<path d="M166.269 9.60645L161.677 25.6078L157.507 11.1277H155.141L150.887 25.6078L146.295 9.60645H144.52L149.816 27.6925H151.957L156.324 13.1279L160.634 27.6925H162.747L168.043 9.60645H166.269Z" fill="#171B34"/>
<path d="M132.435 9.60727V27.6933H133.984V11.1285H137.337C140.633 11.1285 141.252 13.2414 141.252 14.5091C141.252 15.7768 140.604 17.8897 137.337 17.8897H135.534V19.4109H137.111L141.619 27.6651H143.393L138.661 19.2419C140.492 18.9038 142.774 17.8333 142.774 14.4809C142.774 9.71996 138.407 9.5791 137.083 9.5791H132.435V9.60727Z" fill="#171B34"/>
<path d="M121.082 9.60645H119.476L111.391 27.6925H113.194L115.279 22.9033H125.279L127.364 27.6925H129.167L121.082 9.60645ZM115.983 21.3539L120.293 11.4376L124.603 21.3539H115.983Z" fill="#171B34"/>
<path d="M111.532 9.60645L106.94 25.6078L102.658 11.1277H100.488L96.15 25.6078L91.558 9.60645H89.7832L95.0794 27.6925H97.1923L101.587 13.1279L105.869 27.6925H107.982L113.278 9.60645H111.532Z" fill="#171B34"/>
<path d="M158.014 38.7923C157.704 38.6514 157.479 38.4824 157.254 38.257C157.028 38.0316 156.887 37.7499 156.775 37.4682C156.662 37.1583 156.606 36.8484 156.606 36.5104C156.606 36.1723 156.662 35.8624 156.775 35.5526C156.887 35.2427 157.028 34.9891 157.254 34.7356C157.479 34.5102 157.704 34.313 158.014 34.2003C158.296 34.0595 158.634 34.0031 159.029 34.0031C159.395 34.0031 159.733 34.0876 160.043 34.2003C160.353 34.3412 160.578 34.5102 160.803 34.7356C161.001 34.961 161.17 35.2427 161.282 35.5526C161.395 35.8624 161.451 36.1723 161.451 36.5104C161.451 36.8484 161.395 37.1583 161.282 37.4682C161.17 37.7781 161.001 38.0316 160.803 38.257C160.578 38.4824 160.353 38.6796 160.043 38.7923C159.733 38.9331 159.423 38.9895 159.029 38.9895C158.634 38.9895 158.296 38.9049 158.014 38.7923ZM157.817 33.6651C157.451 33.8059 157.141 34.0313 156.859 34.2848C156.578 34.5666 156.38 34.8764 156.211 35.2427C156.042 35.6089 155.986 36.0315 155.986 36.454C155.986 36.9048 156.071 37.2992 156.211 37.6654C156.352 38.0316 156.578 38.3697 156.859 38.6232C157.113 38.8768 157.451 39.1021 157.817 39.2712C158.183 39.412 158.578 39.4965 159.029 39.4965C159.451 39.4965 159.845 39.412 160.24 39.2712C160.606 39.1303 160.916 38.9049 161.198 38.6232C161.479 38.3415 161.677 38.0316 161.817 37.6654C161.958 37.2992 162.043 36.8766 162.043 36.454C162.043 36.0033 161.958 35.6089 161.817 35.2427C161.677 34.8764 161.451 34.5384 161.198 34.2848C160.916 34.0313 160.606 33.8059 160.24 33.6651C159.874 33.5242 159.451 33.4397 159.029 33.4397C158.578 33.4397 158.183 33.496 157.817 33.6651Z" fill="#171B34"/>
<path d="M162.043 33.4397H155.986V39.5247H162.043V33.4397Z" fill="#171B34"/>
<path d="M163.339 33.5811V39.3562H163.93V36.6236H166.635V36.0883H163.93V34.0881H166.832V33.5811H163.339Z" fill="#171B34"/>
<path d="M166.832 33.5811H163.339V39.3562H166.832V33.5811Z" fill="#171B34"/>
<path d="M101.165 33.5811V39.3562H104.855V38.8491H101.728V36.5954H104.545V36.0883H101.728V34.0881H104.742V33.5811H101.165Z" fill="#171B34"/>
<path d="M99.0513 33.5811V36.0883H95.8679V33.5811H95.3046V39.3562H95.8679V36.6236H99.0513V39.3562H99.6148V33.5811H99.0513Z" fill="#171B34"/>
<path d="M89.7832 33.5811V34.0881H91.727V39.3562H92.3187V34.0881H94.2624V33.5811H89.7832Z" fill="#171B34"/>
<path d="M176.523 33.5811L175.086 38.5674L173.622 33.5811H172.945L171.481 38.5674L170.044 33.5811H169.424L171.114 39.3562H171.819L173.255 34.398H173.284L174.748 39.3562H175.425L177.143 33.5811H176.523Z" fill="#171B34"/>
<path d="M179.34 33.5811L176.833 39.3562H177.481L178.129 37.8349H181.115L181.763 39.3562H182.411L179.932 33.5811H179.34ZM178.354 37.2997L179.622 34.229L180.889 37.2997H178.354Z" fill="#171B34"/>
<path d="M186.158 36.4539C186.327 36.3694 186.496 36.2849 186.636 36.144C186.749 36.0032 186.862 35.8623 186.946 35.6933C187.031 35.5242 187.059 35.327 187.059 35.1017C187.059 34.82 187.003 34.5664 186.918 34.3692C186.805 34.172 186.693 34.003 186.496 33.8903C186.327 33.7776 186.101 33.6649 185.876 33.6368C185.65 33.5804 185.369 33.5522 185.087 33.5522H183.397V39.3274H183.988V36.6229H184.974L186.58 39.3274H187.284L185.594 36.5666C185.763 36.5948 185.96 36.5384 186.158 36.4539ZM183.932 36.144V34.0875H184.974C185.2 34.0875 185.397 34.1157 185.566 34.1438C185.735 34.172 185.904 34.2284 186.017 34.3129C186.129 34.3974 186.242 34.5101 186.327 34.6228C186.383 34.7636 186.439 34.9045 186.439 35.1017C186.439 35.4397 186.327 35.6933 186.045 35.8623C185.791 36.0313 185.425 36.1158 184.946 36.1158H183.932" fill="#171B34"/>
<path d="M193.623 38.5674L192.158 33.5811H191.454L190.017 38.5674H189.989L188.58 33.5811H187.932L189.651 39.3562H190.327L191.792 34.398H191.82L193.257 39.3562H193.961L195.679 33.5811H195.06L193.623 38.5674Z" fill="#171B34"/>
<path d="M197.341 33.5811H196.75V39.3562H197.341V33.5811Z" fill="#171B34"/>
<path d="M202.666 38.7923C202.356 38.9331 202.046 38.9895 201.708 38.9895C201.342 38.9895 201.004 38.9331 200.722 38.7923C200.412 38.6514 200.159 38.4824 199.961 38.2288C199.764 38.0035 199.595 37.7217 199.483 37.44C199.37 37.1301 199.313 36.8203 199.313 36.4822C199.313 36.1442 199.37 35.8343 199.483 35.5244C199.595 35.2145 199.736 34.961 199.933 34.7074C200.159 34.482 200.412 34.2848 200.694 34.1722C200.976 34.0313 201.314 33.975 201.708 33.975C201.877 33.975 202.074 34.0031 202.243 34.0313C202.412 34.0876 202.553 34.144 202.694 34.2003C202.835 34.2848 202.948 34.3412 203.06 34.4539C203.173 34.5384 203.229 34.6511 203.286 34.7356L203.793 34.3694C203.68 34.2285 203.567 34.0876 203.426 33.975C203.286 33.8623 203.117 33.7778 202.948 33.6932C202.779 33.6087 202.581 33.5524 202.356 33.496C202.159 33.4679 201.933 33.4397 201.736 33.4397C201.314 33.4397 200.919 33.5242 200.525 33.6651C200.159 33.8059 199.849 34.0313 199.567 34.2848C199.313 34.5666 199.088 34.8764 198.919 35.2427C198.778 35.6089 198.694 36.0315 198.694 36.454C198.694 36.9048 198.778 37.2992 198.919 37.6654C199.06 38.0316 199.285 38.3697 199.539 38.6232C199.821 38.9049 200.131 39.1021 200.497 39.2712C200.863 39.412 201.286 39.4965 201.708 39.4965C201.962 39.4965 202.215 39.4684 202.441 39.412C202.638 39.3557 202.863 39.2712 203.032 39.1867C203.201 39.074 203.37 38.9613 203.511 38.8486C203.652 38.7077 203.765 38.5669 203.877 38.426L203.398 38.1443C203.201 38.426 202.948 38.6514 202.666 38.7923Z" fill="#171B34"/>
<path d="M209.258 33.5811H208.413L205.652 36.1728V33.5811H205.061V39.3562H205.652V36.2855L208.554 39.3562H209.427L206.357 36.201L209.258 33.5811Z" fill="#171B34"/>
<path d="M111.954 37.13C111.954 37.3554 111.926 37.5808 111.87 37.8061C111.813 38.0315 111.729 38.2287 111.616 38.3977C111.503 38.5668 111.334 38.7076 111.137 38.8203C110.94 38.933 110.686 38.9893 110.405 38.9893C110.095 38.9893 109.869 38.933 109.672 38.8203C109.475 38.7076 109.306 38.5668 109.193 38.3977C109.081 38.2287 108.996 38.0315 108.94 37.8061C108.884 37.5808 108.855 37.3554 108.855 37.13V33.5522H108.264V37.1864C108.264 37.4117 108.292 37.6653 108.376 37.947C108.433 38.2005 108.545 38.4541 108.714 38.7076C108.883 38.933 109.109 39.1302 109.362 39.271C109.644 39.4119 110.01 39.4964 110.433 39.4964C110.855 39.4964 111.222 39.4119 111.503 39.271C111.785 39.1302 112.011 38.933 112.18 38.7076C112.349 38.4822 112.461 38.2287 112.518 37.947C112.574 37.6653 112.602 37.4117 112.602 37.1864V33.5522H112.011V37.13" fill="#171B34"/>
<path d="M118.011 38.5111H117.983L114.602 33.5811H113.87V39.3562H114.461V34.3699H114.49L117.87 39.3562H118.603V33.5811H118.011V38.5111Z" fill="#171B34"/>
<path d="M120.574 33.5811H119.983V39.3562H120.574V33.5811Z" fill="#171B34"/>
<path d="M124.096 38.5956L122.208 33.5811H121.56L123.786 39.3562H124.378L126.603 33.5811H125.983L124.096 38.5956Z" fill="#171B34"/>
<path d="M128.068 36.5954H130.885V36.0883H128.068V34.0881H131.082V33.5811H127.476V39.3562H131.167V38.8491H128.068V36.5954Z" fill="#171B34"/>
<path d="M135.224 36.4539C135.393 36.3694 135.562 36.2849 135.703 36.144C135.844 36.0032 135.928 35.8623 136.013 35.6933C136.097 35.5242 136.125 35.327 136.125 35.1017C136.125 34.82 136.069 34.5664 135.985 34.3692C135.9 34.172 135.759 34.003 135.59 33.8903C135.421 33.7776 135.196 33.6649 134.97 33.6368C134.717 33.5804 134.463 33.5522 134.182 33.5522H132.491V39.3274H133.083V36.6229H134.069L135.675 39.3274H136.407L134.717 36.5666C134.829 36.5948 135.055 36.5384 135.224 36.4539ZM133.026 36.144V34.0875H134.069C134.266 34.0875 134.463 34.1157 134.66 34.1438C134.829 34.172 134.998 34.2284 135.111 34.3129C135.252 34.3974 135.337 34.5101 135.421 34.6228C135.506 34.7636 135.534 34.9045 135.534 35.1017C135.534 35.4397 135.421 35.6933 135.168 35.8623C134.914 36.0313 134.548 36.1158 134.069 36.1158H133.026" fill="#171B34"/>
<path d="M140.21 36.651C140.041 36.5384 139.872 36.4257 139.675 36.3412C139.449 36.2566 139.252 36.2003 139.055 36.144C138.914 36.0876 138.745 36.0313 138.576 35.9749C138.435 35.9186 138.294 35.8622 138.182 35.7777C138.069 35.6932 137.985 35.5805 137.9 35.4678C137.815 35.3552 137.787 35.1861 137.787 35.0171C137.787 34.8199 137.815 34.679 137.9 34.5382C137.985 34.3973 138.069 34.2846 138.21 34.2001C138.323 34.1156 138.463 34.0593 138.604 34.0029C138.745 33.9748 138.914 33.9466 139.027 33.9466C139.309 33.9466 139.562 34.0029 139.731 34.1156C139.928 34.2283 140.097 34.3692 140.21 34.5382L140.661 34.172C140.52 33.9748 140.323 33.8057 140.013 33.693C139.731 33.5522 139.393 33.4958 138.999 33.4958C138.801 33.4958 138.576 33.524 138.379 33.5804C138.153 33.6367 137.956 33.7494 137.787 33.8621C137.618 34.0029 137.477 34.172 137.365 34.3692C137.252 34.5664 137.196 34.8199 137.196 35.1016C137.196 35.3552 137.252 35.5805 137.337 35.7777C137.421 35.9468 137.534 36.1158 137.675 36.2285C137.815 36.3412 137.985 36.4538 138.182 36.5102C138.351 36.5947 138.548 36.651 138.745 36.7074C138.914 36.7637 139.111 36.8201 139.28 36.8764C139.449 36.9328 139.59 37.0173 139.731 37.1018C139.872 37.1863 139.985 37.299 140.041 37.4398C140.125 37.5807 140.154 37.7497 140.154 37.9469C140.154 38.1441 140.097 38.285 140.041 38.4258C139.956 38.5667 139.872 38.6794 139.731 38.7921C139.618 38.8766 139.478 38.9611 139.337 38.9893C139.168 39.0456 139.027 39.0456 138.886 39.0456C138.576 39.0456 138.323 38.9893 138.097 38.8484C137.872 38.7076 137.703 38.5385 137.562 38.3413L137.055 38.7076C137.167 38.8484 137.28 38.9893 137.421 39.0738C137.562 39.1865 137.703 39.271 137.872 39.3555C138.041 39.44 138.182 39.4682 138.379 39.5245C138.548 39.5527 138.717 39.5809 138.886 39.5809C139.111 39.5809 139.337 39.5527 139.562 39.4964C139.787 39.44 139.985 39.3273 140.154 39.1865C140.323 39.0456 140.464 38.8766 140.576 38.6512C140.689 38.454 140.745 38.2005 140.745 37.8906C140.745 37.6089 140.689 37.3553 140.576 37.1863C140.492 36.9328 140.379 36.7919 140.21 36.651Z" fill="#171B34"/>
<path d="M142.577 33.5811H141.985V39.3562H142.577V33.5811Z" fill="#171B34"/>
<path d="M143.422 34.0881H145.366V39.3562H145.957V34.0881H147.901V33.5811H143.422V34.0881Z" fill="#171B34"/>
<path d="M151.056 36.37L149.309 33.5811H148.577L150.746 36.8771V39.3562H151.338V36.8771L153.507 33.5811H152.803L151.056 36.37Z" fill="#171B34"/>
<path d="M0.47998 0.761719L23.8904 41.9201L42.2581 9.46668L60.7104 41.9201L83.9799 0.761719" fill="#171B34"/>
</svg>
